<?xml version="1.0" encoding="utf-8"?>
<!-- Generator: Adobe Illustrator 24.2.3, SVG Export Plug-In . SVG Version: 6.00 Build 0)  -->
<svg version="1.1" id="圖層_1" xmlns="http://www.w3.org/2000/svg" xmlns:xlink="http://www.w3.org/1999/xlink" x="0px" y="0px"
	 viewBox="0 0 120 120" style="enable-background:new 0 0 120 120;" xml:space="preserve">
<style type="text/css">
	.st0{fill:#DA565D;}
</style>
<path class="st0" d="M97.7,28.3l-2.5-9.8c0-0.2-0.2-0.2-0.2-0.3c-0.2-0.1-0.2-0.1-0.4,0l-13.1,5.1c-0.2,0.1-0.3,0.2-0.3,0.4
	c0,0.2,0.2,0.4,0.4,0.4l4.3,1.1L73.5,41.7L62.9,23.6c-0.1-0.2-0.2-0.2-0.4-0.2s-0.3,0.1-0.4,0.2L46.9,44.9L38,35.4
	c-0.1-0.1-0.2-0.2-0.4-0.2s-0.3,0.1-0.4,0.2l-18.4,27c-0.2,0.2-0.1,0.5,0.1,0.7c0.1,0.1,0.2,0.1,0.3,0.1c0.2,0,0.2-0.1,0.4-0.2
	l17.5-18.8l11.2,11.2c0.1,0.1,0.2,0.2,0.4,0.2s0.3-0.1,0.4-0.2l13.1-19.9l11,16.6c0.1,0.2,0.2,0.2,0.4,0.2c0.2,0,0.3-0.1,0.4-0.2
	L91.8,27l5.5,1.7c0.2,0.1,0.3,0,0.4-0.1C97.6,28.7,97.7,28.5,97.7,28.3z"/>
</svg>
