<?xml version="1.0" encoding="utf-8"?>
<!-- Generator: Adobe Illustrator 24.2.3, SVG Export Plug-In . SVG Version: 6.00 Build 0)  -->
<svg version="1.1" id="圖層_1" xmlns="http://www.w3.org/2000/svg" xmlns:xlink="http://www.w3.org/1999/xlink" x="0px" y="0px"
	 viewBox="0 0 120 120" style="enable-background:new 0 0 120 120;" xml:space="preserve">
<style type="text/css">
	.st0{fill:#71C46C;}
	.st1{opacity:0.59;fill:#659331;enable-background:new    ;}
	.st2{fill:#606363;}
</style>
<g>
	<g>
		<g>
			<g>
				<path class="st0" d="M38.2,95.1H35c-2.1,0-3.8-1.6-3.8-3.8V70.4c0-2.1,1.6-3.8,3.8-3.8h3.2c2.1,0,3.8,1.6,3.8,3.8v20.9
					C41.9,93.5,40.3,95.1,38.2,95.1z"/>
				<path class="st1" d="M39.6,95.1L39.6,95.1c-1.3,0-8-0.1-8-1.3l5.7-24.9c0.4-1.5,1.1-2.2,2.4-2.2l0,0c1.3,0,2.4,1,2.4,2.2v24
					C41.9,94.1,40.9,95.1,39.6,95.1z"/>
			</g>
			<g>
				<path class="st0" d="M54.5,95.1h-2.3c-2.3,0-4.1-1.9-4.1-4.1V64c0-2.3,1.9-4.1,4.1-4.1h2.3c2.3,0,4.1,1.9,4.1,4.1v27
					C58.7,93.2,56.9,95.1,54.5,95.1z"/>
				<path class="st1" d="M56.3,95.1L56.3,95.1c-1.3,0-8-0.5-8-1.8L53.9,62c0.3-1.5,1.1-2.2,2.4-2.2l0,0c1.3,0,2.4,1,2.4,2.2v30.9
					C58.7,94.1,57.6,95.1,56.3,95.1z"/>
			</g>
			<g>
				<path class="st0" d="M69.7,95.1h-3.2c-2.1,0-3.8-1.6-3.8-3.8V70.4c0-2.1,1.6-3.8,3.8-3.8h3.2c2.1,0,3.8,1.6,3.8,3.8v20.9
					C73.3,93.5,71.6,95.1,69.7,95.1z"/>
				<path class="st1" d="M70.9,95.1L70.9,95.1c-1.3,0-8-0.2-8-1.4L68.5,69c0.4-1.8,1.1-2.2,2.4-2.2l0,0c1.3,0,2.4,1,2.4,2.2v23.9
					C73.3,94.1,72.3,95.1,70.9,95.1z"/>
			</g>
			<g>
				<path class="st0" d="M84,95.1h-1.3c-2.5,0-4.7-2.1-4.7-4.7v-35c0-2.5,2.1-4.7,4.7-4.7H84c2.5,0,4.7,2.1,4.7,4.7v35
					C88.6,93,86.5,95.1,84,95.1z"/>
				<path class="st1" d="M86.2,95.1L86.2,95.1c-1.3,0-7.9-0.2-7.9-1.4L83.8,53c0.2-1.5,1.1-2.2,2.4-2.2l0,0c1.3,0,2.4,1,2.4,2.2
					v39.8C88.6,94.1,87.6,95.1,86.2,95.1z"/>
			</g>
		</g>
		<path class="st2" d="M101.8,95.5H18.1c-0.5,0-1-0.4-1-1l0,0c0-0.5,0.4-1,1-1h83.6c0.5,0,1,0.4,1,1l0,0
			C102.8,95,102.3,95.5,101.8,95.5z"/>
	</g>
</g>
</svg>
