<?xml version="1.0" encoding="utf-8"?>
<!-- Generator: Adobe Illustrator 24.2.3, SVG Export Plug-In . SVG Version: 6.00 Build 0)  -->
<svg version="1.1" id="圖層_1" xmlns="http://www.w3.org/2000/svg" xmlns:xlink="http://www.w3.org/1999/xlink" x="0px" y="0px"
	 viewBox="0 0 120 120" style="enable-background:new 0 0 120 120;" xml:space="preserve">
<style type="text/css">
	.st0{fill:#F2E4A0;}
	.st1{fill:#F1BE5B;}
	.st2{fill:#65D8C5;}
	.st3{fill:#55BFAB;}
	.st4{fill:#FFFFFF;}
	.st5{fill:#2B2B3A;}
</style>
<g>
	<g>
		<g>
			<path class="st0" d="M73.1,49.7c-1.7-12.2-13.8-20-25.6-16.4c-9.3,2.9-15.2,12.1-13.8,21.7c1.7,12.2,13.8,20,25.6,16.4
				C68.5,68.6,74.4,59.4,73.1,49.7z"/>
		</g>
		<g>
			<path class="st1" d="M70,50.5C68.8,40,58.4,33.4,48.4,36.6c-7.4,2.4-12.2,9.9-11.2,17.6c1.2,10.4,11.6,17.1,21.7,13.8
				C66.2,65.7,70.9,58.2,70,50.5z"/>
		</g>
		<path class="st0" d="M62.1,54.5c-0.2-0.7-0.4-1.3-0.7-1.7c-0.3-0.5-0.7-0.9-1.1-1.1c-0.4-0.3-0.9-0.6-1.4-0.7
			c-0.5-0.2-1.1-0.3-1.7-0.4c-0.6-0.1-1.2-0.2-2-0.2c-0.2,0-0.5,0-0.8,0l-1.2-5.5c1.8-0.1,3,0.7,3.5,2.4l3-0.7
			c-0.2-0.9-0.7-1.6-1.1-2.3s-1.1-1.1-1.9-1.5c-0.7-0.3-1.5-0.6-2.5-0.7c-0.5,0-1.1,0-1.6,0.1L52,39.6l-2.7,0.6l0.6,2.7
			c-0.6,0.2-1.1,0.4-1.5,0.7c-0.8,0.5-1.5,1-2,1.5c-0.5,0.6-0.9,1.3-1.1,2c-0.2,0.7-0.2,1.5,0,2.3c0.2,0.7,0.4,1.3,0.8,1.8
			c0.3,0.5,0.8,0.9,1.4,1.2c0.6,0.3,1.2,0.6,2,0.7c0.8,0.2,1.6,0.2,2.7,0.2l1.3,6.1c-0.1,0-0.2,0-0.2,0c-0.7,0-1.2-0.2-1.7-0.4
			s-1-0.6-1.4-1c-0.4-0.4-0.7-0.9-0.9-1.5l-3,0.7c0.2,1,0.7,1.9,1.2,2.6c0.6,0.7,1.2,1.3,2,1.7s1.7,0.7,2.8,0.7c0.6,0.1,1.1,0,1.8,0
			l0.7,2.9l2.7-0.6l-0.7-2.8c0.7-0.2,1.3-0.5,1.9-0.8c0.8-0.5,1.5-1.1,2-1.7c0.6-0.7,0.9-1.4,1.1-2.1C62.2,56.1,62.2,55.3,62.1,54.5
			z M51.1,50.1c-0.6-0.1-1.1-0.2-1.4-0.3c-0.4-0.2-0.7-0.3-0.8-0.6s-0.3-0.5-0.4-0.8c-0.1-0.4-0.1-0.7,0.1-1.1
			c0.1-0.3,0.3-0.7,0.7-1c0.3-0.3,0.7-0.6,1.1-0.8c0.1-0.1,0.2-0.1,0.3-0.2l1.1,4.7C51.4,50.2,51.2,50.1,51.1,50.1z M59,56.6
			c-0.2,0.4-0.3,0.8-0.7,1.1c-0.3,0.3-0.7,0.7-1.2,0.9c-0.2,0.1-0.5,0.2-0.7,0.3l-1.2-5.5h0.1c0.8,0,1.5,0.1,2,0.2
			c0.5,0.2,1,0.3,1.2,0.6c0.3,0.2,0.5,0.7,0.6,1.1C59.1,55.8,59.1,56.2,59,56.6z"/>
	</g>
	<g>
		<g>
			<path class="st0" d="M90.2,28.5c3-7-1.1-14.8-8.6-16.4c-5.5-1.1-11.2,1.8-13.4,7c-3,6.9,1.1,14.8,8.6,16.4
				C82.3,36.6,88,33.7,90.2,28.5z"/>
		</g>
		<g>
			<ellipse class="st1" cx="79.3" cy="23.8" rx="9.9" ry="9.9"/>
		</g>
		<path class="st0" d="M84.3,22.7c0.2-0.6,0.2-1.1,0.1-1.5c-0.1-0.5-0.2-0.9-0.6-1.3c-0.2-0.4-0.7-0.7-1.1-1.1
			c-0.2-0.2-0.6-0.3-0.9-0.5l0.6-1.6l-1.5-0.5l-0.5,1.5c-0.3-0.1-0.7-0.1-1-0.1c-0.6,0-1.1,0.1-1.5,0.2c-0.4,0.2-0.8,0.4-1.1,0.7
			s-0.6,0.7-0.7,1.1s-0.2,0.8-0.2,1.2c0,0.3,0.2,0.7,0.3,1.1c0.2,0.3,0.5,0.7,0.9,1c0.3,0.3,0.8,0.6,1.3,0.9l-1.1,3.6
			c-0.1,0-0.1-0.1-0.2-0.1c-0.3-0.2-0.6-0.4-0.8-0.7c-0.2-0.2-0.3-0.6-0.4-0.9c-0.1-0.3-0.1-0.7,0-1.1l-1.6-0.6
			C74,24.7,74,25.3,74,25.9c0.1,0.6,0.2,1.1,0.6,1.5c0.3,0.5,0.7,0.8,1.2,1.2c0.2,0.2,0.6,0.3,1,0.5l-0.5,1.6l1.5,0.5l0.5-1.6
			c0.4,0.1,0.8,0.2,1.2,0.2c0.6,0,1.1-0.1,1.5-0.2c0.4-0.2,0.9-0.4,1.2-0.8c0.3-0.3,0.6-0.7,0.7-1.3c0.2-0.4,0.2-0.7,0.2-1.1
			c0-0.3-0.1-0.7-0.2-0.9c-0.2-0.2-0.3-0.6-0.5-0.8c-0.2-0.2-0.5-0.5-0.8-0.7c-0.3-0.2-0.7-0.4-1-0.7c-0.2-0.1-0.2-0.2-0.4-0.2
			l1-3.2c1,0.5,1.4,1.2,1.1,2.3L84.3,22.7z M78.7,22c-0.2-0.2-0.5-0.4-0.7-0.6c-0.2-0.2-0.2-0.3-0.2-0.6c0-0.2,0-0.3,0-0.5
			c0.1-0.2,0.2-0.4,0.3-0.6c0.2-0.2,0.4-0.2,0.7-0.3c0.2-0.1,0.5-0.1,0.8-0.1c0.1,0,0.2,0,0.2,0l-0.9,2.8C78.8,22,78.8,22,78.7,22z
			 M79.9,24.8c0.4,0.2,0.7,0.5,1,0.7c0.2,0.2,0.4,0.5,0.5,0.7c0.1,0.2,0.1,0.5,0,0.7c-0.1,0.2-0.2,0.5-0.4,0.7
			c-0.2,0.2-0.4,0.3-0.7,0.4c-0.2,0.1-0.6,0.1-0.9,0.1c-0.2,0-0.3,0-0.4-0.1L79.9,24.8C79.8,24.8,79.8,24.8,79.9,24.8z"/>
	</g>
	<g>
		<g>
			<g>
				<path class="st2" d="M97.3,59.4l1.9-0.4c1.7-0.4,2.9-2.1,2.4-3.8l-0.6-2.6c-0.4-1.7-2.1-2.9-3.8-2.4L20,67.4
					c-1.7,0.4-2.9,2.1-2.4,3.8l0.6,2.6c0.4,1.7,2.1,2.9,3.8,2.4l1.9-0.4l11.1,27.4c0.7,2.9,3.4,4.6,6.3,3.9l56.2-12.6
					c2.9-0.7,4.6-3.4,3.9-6.3L97.3,59.4z"/>
				<path class="st3" d="M97.3,59.3l3-0.7c1.1-0.2,1.8-1.4,1.5-2.4l-1.1-5c-0.2-0.8-0.9-1.5-1.6-1.5l-4.5,10.3L24.4,75.8l68.2-11.6
					L77.5,98.9l20-4.5c2.9-0.7,4.6-3.4,3.9-6.3L97.3,59.3z"/>
			</g>
			<path class="st4" d="M50.7,97.7L50.7,97.7c-1.4,0.3-2.7-0.6-3-1.9l-3.6-16.1c-0.3-1.4,0.6-2.7,1.9-3l0,0c1.4-0.3,2.7,0.6,3,1.9
				l3.6,16.1C52.9,96.1,52.1,97.5,50.7,97.7z"/>
			<path class="st4" d="M65.6,94.5L65.6,94.5c-1.4,0.3-2.7-0.6-3-1.9L59,76.5c-0.3-1.4,0.6-2.7,1.9-3l0,0c1.4-0.3,2.7,0.6,3,1.9
				l3.6,16.1C67.8,92.7,66.9,94.1,65.6,94.5z"/>
			<path class="st4" d="M80.3,91.1L80.3,91.1c-1.4,0.3-2.7-0.6-3-1.9l-3.6-16.1c-0.3-1.4,0.6-2.7,1.9-3l0,0c1.4-0.3,2.7,0.6,3,1.9
				l3.6,16.1C82.6,89.4,81.7,90.8,80.3,91.1z"/>
		</g>
		<path class="st5" d="M40.9,68.2L40.9,68.2c-0.7,1.1-2,1.6-3.3,1L13.8,56.7c-1.1-0.7-1.6-2-1-3.3l0,0c0.7-1.1,2-1.6,3.3-1L40,65
			C41,65.6,41.5,67.1,40.9,68.2z"/>
		<path class="st5" d="M81.1,58.5L81.1,58.5c1,0.8,2.5,0.7,3.4-0.2L102,37.6c0.8-1,0.7-2.5-0.2-3.4l0,0c-1-0.8-2.5-0.7-3.4,0.2
			L80.8,55C80,56.1,80.1,57.6,81.1,58.5z"/>
	</g>
</g>
</svg>
