<?xml version="1.0" encoding="utf-8"?>
<!-- Generator: Adobe Illustrator 24.2.3, SVG Export Plug-In . SVG Version: 6.00 Build 0)  -->
<svg version="1.1" id="圖層_1" xmlns="http://www.w3.org/2000/svg" xmlns:xlink="http://www.w3.org/1999/xlink" x="0px" y="0px"
	 viewBox="0 0 120 120" style="enable-background:new 0 0 120 120;" xml:space="preserve">
<style type="text/css">
	.st0{fill:#2B2B3A;}
	.st1{fill:#DA565D;}
</style>
<g>
	<g>
		<g>
			<g>
				<path class="st0" d="M50.7,67.7c-0.4,0-0.8-0.3-0.8-0.8V47.8c0-0.4,0.3-0.8,0.8-0.8c0.4,0,0.8,0.3,0.8,0.8v19.1
					C51.6,67.3,51.1,67.7,50.7,67.7z"/>
			</g>
			<g>
				<rect x="48.1" y="50" class="st1" width="5.1" height="13.9"/>
			</g>
		</g>
		<g>
			<g>
				<path class="st0" d="M99.3,60.9c-0.4,0-0.8-0.3-0.8-0.8V41c0-0.4,0.3-0.8,0.8-0.8c0.4,0,0.8,0.3,0.8,0.8v19
					C100.1,60.5,99.8,60.9,99.3,60.9z"/>
			</g>
			<g>
				<rect x="96.7" y="43.2" class="st1" width="5.1" height="13.9"/>
			</g>
		</g>
		<g>
			<g>
				<path class="st0" d="M83.6,58.2c-0.4,0-0.8-0.3-0.8-0.8V38.3c0-0.4,0.3-0.8,0.8-0.8s0.8,0.3,0.8,0.8v19
					C84.4,57.8,84,58.2,83.6,58.2z"/>
			</g>
			<g>
				<rect x="81" y="40.5" class="st1" width="5.1" height="13.9"/>
			</g>
		</g>
		<g>
			<g>
				<path class="st0" d="M15.3,90.3c-0.4,0-0.8-0.3-0.8-0.8V75.3c0-0.4,0.3-0.8,0.8-0.8c0.4,0,0.8,0.3,0.8,0.8v14.1
					C16.2,89.9,15.8,90.3,15.3,90.3z"/>
			</g>
			<g>
				<rect x="13" y="77.3" class="st1" width="4.9" height="9.7"/>
			</g>
		</g>
		<g>
			<g>
				<path class="st0" d="M21.9,97.1c-0.4,0-0.8-0.3-0.8-0.8V85.5c0-0.4,0.3-0.8,0.8-0.8s0.8,0.3,0.8,0.8v10.8
					C22.6,96.8,22.3,97.1,21.9,97.1z"/>
			</g>
			<g>
				<rect x="19.5" y="87" class="st1" width="4.9" height="7.6"/>
			</g>
		</g>
		<g>
			<g>
				<path class="st0" d="M91.1,64.5c-0.4,0-0.8-0.3-0.8-0.8V52.9c0-0.4,0.3-0.8,0.8-0.8s0.8,0.3,0.8,0.8v10.8
					C91.9,64.2,91.6,64.5,91.1,64.5z"/>
			</g>
			<g>
				<rect x="88.8" y="54.4" class="st1" width="4.9" height="7.6"/>
			</g>
		</g>
		<g>
			<g>
				<path class="st0" d="M58.4,56.4c-0.4,0-0.8-0.3-0.8-0.8V44.8c0-0.4,0.3-0.8,0.8-0.8s0.8,0.3,0.8,0.8v10.8
					C59.2,56.1,58.9,56.4,58.4,56.4z"/>
			</g>
			<g>
				<rect x="56.1" y="46.3" class="st1" width="4.9" height="7.6"/>
			</g>
		</g>
	</g>
</g>
</svg>
