<?xml version="1.0" encoding="utf-8"?>
<!-- Generator: Adobe Illustrator 16.0.0, SVG Export Plug-In . SVG Version: 6.00 Build 0)  -->
<!DOCTYPE svg PUBLIC "-//W3C//DTD SVG 1.1//EN" "http://www.w3.org/Graphics/SVG/1.1/DTD/svg11.dtd">
<svg version="1.1" id="圖層_1" xmlns="http://www.w3.org/2000/svg" xmlns:xlink="http://www.w3.org/1999/xlink" x="0px" y="0px"
	 width="80px" height="80px" viewBox="0 0 80 80" enable-background="new 0 0 80 80" xml:space="preserve">
<g>
	<g>
		<g>
			<path fill="#F2E4A0" d="M45.733,48c-1.2-8.867-10-14.467-18.533-11.867c-6.733,2-11.067,8.734-10.067,15.734
				c1.2,8.866,10,14.467,18.533,11.866C42.4,61.733,46.733,54.934,45.733,48z"/>
		</g>
		<g>
			<path fill="#F1BE5B" d="M43.533,48.533c-0.934-7.6-8.466-12.466-15.733-10c-5.4,1.733-8.867,7.133-8.2,12.801
				c0.933,7.533,8.467,12.332,15.733,10C40.666,59.6,44.2,54.133,43.533,48.533z"/>
		</g>
		<path fill="#F2E4A0" d="M37.733,51.4c-0.133-0.467-0.333-0.934-0.467-1.268c-0.267-0.333-0.467-0.6-0.8-0.866
			C36.133,49,35.8,48.934,35.4,48.8c-0.333-0.134-0.8-0.2-1.2-0.267c-0.4-0.066-0.934-0.133-1.4-0.133c-0.2,0-0.333,0-0.533,0
			l-0.933-3.934c1.333-0.066,2.2,0.467,2.533,1.733l2.2-0.467c-0.2-0.667-0.4-1.2-0.8-1.667C34.933,43.6,34.4,43.267,33.933,43
			c-0.533-0.267-1.133-0.4-1.8-0.4c-0.333,0-0.8,0-1.2,0.066l-0.466-2l-1.934,0.4l0.4,1.934c-0.4,0.133-0.8,0.334-1.066,0.467
			C27.267,43.8,26.8,44.2,26.4,44.6c-0.333,0.4-0.6,0.934-0.8,1.467c-0.133,0.533-0.133,1.066,0,1.667
			c0.133,0.533,0.333,1,0.533,1.333C26.4,49.4,26.733,49.733,27.2,50c0.4,0.267,0.933,0.4,1.533,0.467
			c0.533,0.133,1.2,0.199,1.933,0.199l1,4.467c-0.066,0-0.133,0-0.2,0c-0.4,0-0.867-0.133-1.2-0.333s-0.733-0.333-1-0.667
			c-0.333-0.333-0.467-0.666-0.6-1.066l-2.2,0.467c0.2,0.733,0.466,1.334,0.867,1.867c0.333,0.533,0.867,0.934,1.466,1.199
			c0.6,0.334,1.267,0.467,2,0.533c0.4,0.067,0.867,0,1.333,0l0.4,2.067l1.934-0.4l-0.4-2c0.466-0.2,1-0.333,1.4-0.533
			c0.6-0.333,1.066-0.733,1.533-1.2c0.333-0.467,0.667-1,0.867-1.6C37.867,52.6,37.867,52,37.733,51.4z M29.733,48.267
			C29.333,48.2,29,48.133,28.667,48c-0.267-0.133-0.466-0.267-0.6-0.334c-0.134-0.199-0.267-0.332-0.333-0.533
			c-0.067-0.266-0.067-0.533,0.066-0.799c0.067-0.268,0.267-0.467,0.4-0.734c0.267-0.266,0.466-0.399,0.867-0.6
			c0.066-0.066,0.2-0.066,0.267-0.133l0.733,3.467C30,48.267,29.867,48.267,29.733,48.267z M35.467,52.934
			c-0.133,0.333-0.267,0.533-0.467,0.8C34.733,54,34.467,54.2,34.067,54.4c-0.2,0.066-0.333,0.133-0.467,0.199l-0.934-4h0.067
			c0.533,0,1.066,0.066,1.467,0.2c0.333,0.134,0.667,0.267,0.933,0.4c0.267,0.2,0.333,0.466,0.4,0.866
			C35.6,52.4,35.6,52.666,35.467,52.934z"/>
	</g>
	<g>
		<g>
			<path fill="#F2E4A0" d="M58.133,32.533c2.201-5.066-0.866-10.733-6.199-11.933c-4-0.867-8.066,1.333-9.733,5.066
				C40,30.733,43.066,36.4,48.4,37.6C52.4,38.467,56.533,36.333,58.133,32.533z"/>
		</g>
		<g>
			
				<ellipse transform="matrix(-0.4625 -0.8866 0.8866 -0.4625 47.5617 87.1355)" fill="#F1BE5B" cx="50.193" cy="29.151" rx="7.267" ry="7.2"/>
		</g>
		<path fill="#F2E4A0" d="M53.867,28.267C54,27.934,54,27.467,53.934,27.2c-0.066-0.333-0.2-0.667-0.334-1
			c-0.199-0.333-0.467-0.534-0.866-0.8c-0.2-0.133-0.399-0.267-0.601-0.333l0.334-1.133L51.334,23.6L51,24.733
			c-0.267-0.067-0.467-0.067-0.733-0.067c-0.399,0-0.8,0.067-1.066,0.2C48.867,25,48.6,25.2,48.334,25.4
			c-0.268,0.267-0.4,0.534-0.467,0.867c-0.134,0.333-0.134,0.6-0.134,0.867s0.134,0.533,0.267,0.8
			c0.133,0.267,0.334,0.466,0.6,0.733c0.268,0.267,0.601,0.4,1,0.667l-0.8,2.533c-0.066,0-0.066-0.067-0.134-0.067
			c-0.266-0.133-0.399-0.333-0.533-0.533c-0.133-0.2-0.266-0.4-0.333-0.667c-0.066-0.267-0.066-0.467,0-0.8l-1.2-0.4
			c-0.133,0.4-0.199,0.867-0.133,1.2s0.199,0.733,0.4,1.066c0.266,0.333,0.467,0.6,0.933,0.867c0.2,0.133,0.4,0.267,0.667,0.333
			l-0.334,1.2l1.134,0.333l0.333-1.133c0.334,0.067,0.601,0.133,0.934,0.133c0.4,0,0.801-0.066,1.133-0.2
			c0.334-0.134,0.668-0.333,0.934-0.534c0.268-0.267,0.4-0.533,0.533-0.933c0.134-0.333,0.134-0.533,0.134-0.8
			c0-0.267-0.066-0.466-0.2-0.667c-0.133-0.2-0.267-0.4-0.333-0.533c-0.2-0.2-0.333-0.333-0.533-0.467
			c-0.267-0.2-0.4-0.333-0.667-0.467c-0.133-0.066-0.199-0.133-0.333-0.2l0.733-2.333c0.666,0.333,1,0.934,0.866,1.667
			L53.867,28.267z M49.8,27.8c-0.2-0.133-0.333-0.333-0.466-0.4c-0.134-0.133-0.201-0.267-0.201-0.333c0-0.133,0-0.267,0-0.333
			c0.067-0.2,0.134-0.333,0.268-0.4c0.133-0.133,0.266-0.2,0.399-0.267C50,26,50.133,26,50.4,26c0.066,0,0.133,0,0.199,0L50,28
			C49.934,27.867,49.867,27.8,49.8,27.8z M50.666,29.867C51,30.066,51.2,30.2,51.334,30.4c0.199,0.2,0.332,0.333,0.332,0.467
			c0.067,0.2,0.067,0.333,0,0.533c-0.066,0.2-0.199,0.333-0.332,0.467C51.2,32,51,32.133,50.867,32.133
			C50.666,32.2,50.467,32.2,50.2,32.2c-0.134,0-0.267,0-0.333-0.067L50.666,29.867L50.666,29.867z"/>
	</g>
	<g>
		<g>
			<path fill="#F2E4A0" d="M45.533,13.867C46,9.333,42.2,5.467,37.6,5.933C34.2,6.267,31.467,9,31.133,12.4
				c-0.467,4.533,3.333,8.4,7.934,7.934C42.467,20,45.2,17.267,45.533,13.867z"/>
		</g>
		<g>
			<ellipse fill="#F1BE5B" cx="38.467" cy="13.133" rx="6" ry="6"/>
		</g>
		<path fill="#F2E4A0" d="M41.2,13.867c-0.067-0.2-0.2-0.333-0.333-0.467c-0.134-0.133-0.334-0.267-0.4-0.333
			c-0.2-0.133-0.333-0.2-0.534-0.267c-0.2-0.066-0.4-0.133-0.667-0.2c-0.066,0-0.2-0.067-0.333-0.067v-2C39.6,10.667,40,11,40,11.6
			h1.133c0-0.333-0.066-0.667-0.266-0.934C40.733,10.4,40.533,10.2,40.333,10c-0.267-0.2-0.534-0.333-0.867-0.4
			c-0.2-0.067-0.333-0.067-0.6-0.133v-1h-1v1c-0.2,0-0.4,0.066-0.6,0.133c-0.333,0.133-0.6,0.267-0.867,0.4
			c-0.267,0.2-0.4,0.333-0.533,0.6s-0.2,0.467-0.2,0.8c0,0.267,0.067,0.467,0.133,0.733c0.067,0.2,0.267,0.333,0.4,0.533
			c0.2,0.2,0.4,0.333,0.667,0.4c0.267,0.133,0.533,0.2,0.933,0.333v2.267c-0.066,0-0.066,0-0.133,0c-0.267-0.066-0.4-0.2-0.6-0.267
			c-0.2-0.133-0.333-0.267-0.4-0.4c-0.133-0.2-0.2-0.333-0.2-0.6H35.4c0,0.333,0.067,0.733,0.267,1.067C35.8,15.8,36,16,36.267,16.2
			c0.267,0.2,0.533,0.333,0.934,0.466c0.2,0.067,0.4,0.133,0.667,0.133v1.067h1V16.8c0.267,0,0.467-0.066,0.733-0.133
			c0.333-0.133,0.6-0.267,0.867-0.4c0.267-0.2,0.4-0.4,0.533-0.667s0.2-0.533,0.2-0.867C41.334,14.267,41.267,14.067,41.2,13.867z
			 M37.733,12.133c-0.2-0.066-0.333-0.133-0.467-0.267c-0.133-0.067-0.2-0.2-0.267-0.267c-0.067-0.133-0.067-0.2-0.067-0.333
			S37,11,37.067,10.934c0.066-0.134,0.2-0.267,0.333-0.333c0.133-0.067,0.333-0.2,0.467-0.2c0.066,0,0.133,0,0.133,0v1.733
			C37.867,12.2,37.8,12.2,37.733,12.133z M40,15.067c-0.067,0.133-0.2,0.267-0.333,0.333c-0.133,0.133-0.333,0.2-0.466,0.267
			c-0.067,0-0.2,0.067-0.267,0.067v-2.067c0,0,0,0,0.067,0c0.333,0.067,0.467,0.2,0.667,0.267C39.867,14,40,14.133,40,14.267
			c0.067,0.133,0.133,0.267,0.133,0.4C40.133,14.733,40.067,14.933,40,15.067z"/>
	</g>
</g>
</svg>
