<?xml version="1.0" encoding="utf-8"?>
<!-- Generator: Adobe Illustrator 16.0.0, SVG Export Plug-In . SVG Version: 6.00 Build 0)  -->
<!DOCTYPE svg PUBLIC "-//W3C//DTD SVG 1.1//EN" "http://www.w3.org/Graphics/SVG/1.1/DTD/svg11.dtd">
<svg version="1.1" id="圖層_1" xmlns="http://www.w3.org/2000/svg" xmlns:xlink="http://www.w3.org/1999/xlink" x="0px" y="0px"
	 width="80px" height="80px" viewBox="0 0 80 80" enable-background="new 0 0 80 80" xml:space="preserve">
<g>
	<g>
		<path fill="#F2E4A0" d="M60.133,19c2-4.667-0.732-9.867-5.732-10.933c-3.666-0.733-7.467,1.2-8.934,4.667
			c-2,4.6,0.733,9.867,5.733,10.933C54.867,24.4,58.666,22.467,60.133,19z"/>
	</g>
	<g>
		<ellipse fill="#F1BE5B" cx="52.867" cy="15.867" rx="6.6" ry="6.6"/>
	</g>
	<path fill="#F2E4A0" d="M56.2,15.133c0.134-0.4,0.134-0.733,0.065-1c-0.065-0.333-0.134-0.6-0.398-0.867
		C55.732,13,55.4,12.8,55.133,12.533c-0.133-0.133-0.398-0.2-0.6-0.333l0.4-1.067l-1-0.333l-0.334,1
		c-0.199-0.066-0.468-0.066-0.666-0.066c-0.4,0-0.733,0.066-1,0.133C51.666,12,51.4,12.133,51.2,12.333s-0.4,0.466-0.468,0.733
		c-0.066,0.267-0.133,0.533-0.133,0.8c0,0.2,0.133,0.467,0.199,0.733c0.135,0.2,0.333,0.467,0.602,0.667
		c0.199,0.2,0.533,0.4,0.865,0.6l-0.732,2.4c-0.066,0-0.066-0.066-0.133-0.066c-0.2-0.133-0.4-0.267-0.533-0.467
		c-0.135-0.133-0.201-0.4-0.268-0.6c-0.066-0.2-0.066-0.467,0-0.733L49.533,16c-0.199,0.467-0.199,0.867-0.199,1.267
		c0.066,0.4,0.133,0.733,0.398,1c0.201,0.333,0.468,0.533,0.801,0.8c0.133,0.133,0.4,0.2,0.667,0.333l-0.333,1.067l1,0.333
		l0.333-1.066c0.267,0.066,0.532,0.133,0.8,0.133c0.4,0,0.732-0.067,1-0.133c0.268-0.133,0.6-0.267,0.8-0.533
		c0.2-0.2,0.4-0.467,0.468-0.867C55.4,18.067,55.4,17.867,55.4,17.6c0-0.2-0.066-0.467-0.135-0.6
		c-0.134-0.133-0.199-0.4-0.332-0.533C54.8,16.333,54.6,16.133,54.4,16c-0.2-0.133-0.467-0.267-0.668-0.467
		C53.6,15.467,53.6,15.4,53.467,15.4l0.666-2.133c0.667,0.333,0.934,0.8,0.734,1.533L56.2,15.133z M52.467,14.667
		c-0.133-0.133-0.334-0.267-0.467-0.4c-0.133-0.133-0.133-0.2-0.133-0.4c0-0.133,0-0.2,0-0.333c0.066-0.133,0.133-0.267,0.199-0.4
		C52.2,13,52.334,13,52.533,12.933c0.133-0.066,0.334-0.066,0.533-0.066c0.065,0,0.134,0,0.134,0L52.6,14.733
		C52.533,14.667,52.533,14.667,52.467,14.667z M53.268,16.533c0.267,0.133,0.467,0.333,0.666,0.467
		c0.133,0.133,0.268,0.333,0.334,0.467c0.066,0.133,0.066,0.333,0,0.467C54.2,18.067,54.133,18.267,54,18.4
		c-0.133,0.133-0.268,0.2-0.467,0.267c-0.133,0.067-0.4,0.067-0.6,0.067c-0.135,0-0.201,0-0.269-0.067L53.268,16.533
		C53.2,16.533,53.2,16.533,53.268,16.533z"/>
</g>
</svg>
