<?xml version="1.0" encoding="utf-8"?>
<!-- Generator: Adobe Illustrator 24.2.3, SVG Export Plug-In . SVG Version: 6.00 Build 0)  -->
<svg version="1.1" id="圖層_1" xmlns="http://www.w3.org/2000/svg" xmlns:xlink="http://www.w3.org/1999/xlink" x="0px" y="0px"
	 viewBox="0 0 120 120" style="enable-background:new 0 0 120 120;" xml:space="preserve">
<style type="text/css">
	.st0{fill:#2B2B3A;}
	.st1{fill:#009EBA;}
</style>
<g>
	<g>
		<path class="st0" d="M35.8,79.5c-0.4,0-0.8-0.3-0.8-0.8V47.9c0-0.4,0.3-0.8,0.8-0.8c0.4,0,0.8,0.3,0.8,0.8v30.8
			C36.6,79.1,36.2,79.5,35.8,79.5z"/>
	</g>
	<g>
		<rect x="33.1" y="48.3" class="st1" width="5.1" height="24.7"/>
	</g>
</g>
<g>
	<g>
		<path class="st0" d="M43.3,60.2c-0.4,0-0.8-0.3-0.8-0.8V28.6c0-0.4,0.3-0.8,0.8-0.8c0.4,0,0.8,0.3,0.8,0.8v30.8
			C44.2,59.8,43.8,60.2,43.3,60.2z"/>
	</g>
	<g>
		<polygon class="st1" points="45.8,30.9 40.7,28.9 40.7,53.7 45.8,55.6 		"/>
	</g>
</g>
<g>
	<g>
		<path class="st0" d="M74.8,46.3c-0.4,0-0.8-0.3-0.8-0.8V14.7c0-0.4,0.3-0.8,0.8-0.8s0.8,0.3,0.8,0.8v30.8
			C75.7,46,75.3,46.3,74.8,46.3z"/>
	</g>
	<g>
		<rect x="72.2" y="17" class="st1" width="5.1" height="24.7"/>
	</g>
</g>
<g>
	<g>
		<path class="st0" d="M29,91.7c-0.4,0-0.8-0.3-0.8-0.8V71.1c0-0.4,0.3-0.8,0.8-0.8c0.4,0,0.8,0.3,0.8,0.8v19.8
			C29.9,91.4,29.4,91.7,29,91.7z"/>
	</g>
	<g>
		<polygon class="st1" points="31.6,73.9 26.6,72 26.6,85.7 31.6,87.6 		"/>
	</g>
</g>
<g>
	<g>
		<path class="st0" d="M66.3,52.4c-0.4,0-0.8-0.3-0.8-0.8V31.8c0-0.4,0.3-0.8,0.8-0.8s0.8,0.3,0.8,0.8v19.8
			C67.1,52,66.7,52.4,66.3,52.4z"/>
	</g>
	<g>
		<rect x="63.8" y="32.6" class="st1" width="4.9" height="13.7"/>
	</g>
</g>
<g>
	<g>
		<path class="st0" d="M106.2,51.8c-0.4,0-0.8-0.3-0.8-0.8V31.2c0-0.4,0.3-0.8,0.8-0.8c0.4,0,0.8,0.3,0.8,0.8V51
			C107,51.5,106.6,51.8,106.2,51.8z"/>
	</g>
	<g>
		<rect x="103.7" y="34" class="st1" width="4.9" height="13.7"/>
	</g>
</g>
</svg>
