<?xml version="1.0" encoding="utf-8"?>
<!-- Generator: Adobe Illustrator 24.2.3, SVG Export Plug-In . SVG Version: 6.00 Build 0)  -->
<svg version="1.1" id="圖層_1" xmlns="http://www.w3.org/2000/svg" xmlns:xlink="http://www.w3.org/1999/xlink" x="0px" y="0px"
	 viewBox="0 0 120 120" style="enable-background:new 0 0 120 120;" xml:space="preserve">
<style type="text/css">
	.st0{fill:#2B2B3A;}
	.st1{fill:#009EBA;}
	.st2{fill:#DA565D;}
</style>
<g>
	<g>
		<g>
			<g>
				<path class="st0" d="M35.8,79.5c-0.4,0-0.8-0.3-0.8-0.8V47.9c0-0.4,0.3-0.8,0.8-0.8c0.4,0,0.8,0.3,0.8,0.8v30.8
					C36.6,79.1,36.2,79.5,35.8,79.5z"/>
			</g>
			<g>
				<rect x="33.1" y="48.3" class="st1" width="5.1" height="24.7"/>
			</g>
		</g>
		<g>
			<g>
				<path class="st0" d="M43.3,60.2c-0.4,0-0.8-0.3-0.8-0.8V28.6c0-0.4,0.3-0.8,0.8-0.8c0.4,0,0.8,0.3,0.8,0.8v30.8
					C44.2,59.8,43.8,60.2,43.3,60.2z"/>
			</g>
			<g>
				<polygon class="st1" points="45.8,30.9 40.7,28.9 40.7,53.7 45.8,55.6 				"/>
			</g>
		</g>
		<g>
			<g>
				<path class="st0" d="M74.8,46.3c-0.4,0-0.8-0.3-0.8-0.8V14.7c0-0.4,0.3-0.8,0.8-0.8c0.5,0,0.8,0.3,0.8,0.8v30.8
					C75.7,46,75.3,46.3,74.8,46.3z"/>
			</g>
			<g>
				<rect x="72.2" y="17" class="st1" width="5.1" height="24.7"/>
			</g>
		</g>
		<g>
			<g>
				<path class="st0" d="M50.7,67.7c-0.4,0-0.8-0.3-0.8-0.8V47.8c0-0.4,0.3-0.8,0.8-0.8c0.4,0,0.8,0.3,0.8,0.8v19.1
					C51.6,67.3,51.1,67.7,50.7,67.7z"/>
			</g>
			<g>
				<rect x="48.1" y="50" class="st2" width="5.1" height="13.9"/>
			</g>
		</g>
		<g>
			<g>
				<path class="st0" d="M99.3,60.9c-0.4,0-0.8-0.3-0.8-0.8V41c0-0.4,0.3-0.8,0.8-0.8c0.4,0,0.8,0.3,0.8,0.8v19
					C100.1,60.5,99.8,60.9,99.3,60.9z"/>
			</g>
			<g>
				<rect x="96.7" y="43.2" class="st2" width="5.1" height="13.9"/>
			</g>
		</g>
		<g>
			<g>
				<path class="st0" d="M83.6,58.2c-0.4,0-0.8-0.3-0.8-0.8V38.3c0-0.4,0.3-0.8,0.8-0.8s0.8,0.3,0.8,0.8v19
					C84.4,57.8,84,58.2,83.6,58.2z"/>
			</g>
			<g>
				<rect x="81" y="40.5" class="st2" width="5.1" height="13.9"/>
			</g>
		</g>
		<g>
			<g>
				<path class="st0" d="M15.3,90.3c-0.4,0-0.8-0.3-0.8-0.8V75.3c0-0.4,0.3-0.8,0.8-0.8c0.4,0,0.8,0.3,0.8,0.8v14.1
					C16.2,89.9,15.8,90.3,15.3,90.3z"/>
			</g>
			<g>
				<rect x="13" y="77.3" class="st2" width="4.9" height="9.7"/>
			</g>
		</g>
		<g>
			<g>
				<path class="st0" d="M21.9,97.1c-0.4,0-0.8-0.3-0.8-0.8V85.5c0-0.4,0.3-0.8,0.8-0.8s0.8,0.3,0.8,0.8v10.8
					C22.6,96.8,22.3,97.1,21.9,97.1z"/>
			</g>
			<g>
				<rect x="19.5" y="87" class="st2" width="4.9" height="7.6"/>
			</g>
		</g>
		<g>
			<g>
				<path class="st0" d="M91.1,64.5c-0.4,0-0.8-0.3-0.8-0.8V52.9c0-0.4,0.3-0.8,0.8-0.8s0.8,0.3,0.8,0.8v10.8
					C91.9,64.2,91.6,64.5,91.1,64.5z"/>
			</g>
			<g>
				<rect x="88.8" y="54.4" class="st2" width="4.9" height="7.6"/>
			</g>
		</g>
		<g>
			<g>
				<path class="st0" d="M58.4,56.4c-0.4,0-0.8-0.3-0.8-0.8V44.8c0-0.4,0.3-0.8,0.8-0.8s0.8,0.3,0.8,0.8v10.8
					C59.2,56.1,58.9,56.4,58.4,56.4z"/>
			</g>
			<g>
				<rect x="56.1" y="46.3" class="st2" width="4.9" height="7.6"/>
			</g>
		</g>
		<g>
			<g>
				<path class="st0" d="M29,91.7c-0.4,0-0.8-0.3-0.8-0.8V71.1c0-0.4,0.3-0.8,0.8-0.8c0.4,0,0.8,0.3,0.8,0.8v19.8
					C29.9,91.4,29.4,91.7,29,91.7z"/>
			</g>
			<g>
				<polygon class="st1" points="31.6,73.9 26.6,72 26.6,85.7 31.6,87.6 				"/>
			</g>
		</g>
		<g>
			<g>
				<path class="st0" d="M66.3,52.4c-0.4,0-0.8-0.3-0.8-0.8V31.8c0-0.4,0.3-0.8,0.8-0.8c0.5,0,0.8,0.3,0.8,0.8v19.8
					C67.1,52,66.7,52.4,66.3,52.4z"/>
			</g>
			<g>
				<rect x="63.8" y="32.6" class="st1" width="4.9" height="13.7"/>
			</g>
		</g>
		<g>
			<g>
				<path class="st0" d="M106.2,51.8c-0.4,0-0.8-0.3-0.8-0.8V31.2c0-0.4,0.3-0.8,0.8-0.8c0.4,0,0.8,0.3,0.8,0.8V51
					C107,51.5,106.6,51.8,106.2,51.8z"/>
			</g>
			<g>
				<rect x="103.7" y="34" class="st1" width="4.9" height="13.7"/>
			</g>
		</g>
	</g>
</g>
</svg>
