<?xml version="1.0" encoding="utf-8"?>
<!-- Generator: Adobe Illustrator 24.2.3, SVG Export Plug-In . SVG Version: 6.00 Build 0)  -->
<svg version="1.1" id="圖層_1" xmlns="http://www.w3.org/2000/svg" xmlns:xlink="http://www.w3.org/1999/xlink" x="0px" y="0px"
	 viewBox="0 0 150 150" style="enable-background:new 0 0 150 150;" xml:space="preserve">
<style type="text/css">
	.st0{fill:#5CD8DF;}
	.st1{opacity:0.6;}
	.st2{fill:#274351;}
	.st3{fill:#FFFFFF;}
	.st4{fill:#EEF0F2;}
	.st5{fill:#CDCECF;}
	.st6{fill:#EEF0EE;}
	.st7{fill:#D1D3D5;}
	.st8{fill:#D3D5D7;}
	.st9{fill:#343748;}
	.st10{fill:#4BEEE0;}
	.st11{fill:#4BEEE0;stroke:#4BEEE0;stroke-linecap:round;stroke-linejoin:round;stroke-miterlimit:10;}
</style>
<g>
	<circle class="st0" cx="75" cy="66.7" r="59.7"/>
	<g>
		<g class="st1">
			<path class="st2" d="M113.7,143c0.1-1.7,0.2-3.3,0.2-4.9c0-24.3-17-44-38-44c-21,0-38,19.7-38,44c0,1.6,0.1,3.2,0.2,4.9H113.7z"
				/>
			<path class="st2" d="M105.5,143c0.1-1.8,0.2-3.5,0.2-5.1c0-24.4-13.3-44.2-29.8-44.2c-16.4,0-29.8,19.8-29.8,44.2
				c0,1.7,0.1,3.4,0.2,5.1H105.5z"/>
			<ellipse class="st2" cx="76.8" cy="93.7" rx="19.1" ry="8.3"/>
			<g>
				<rect x="35" y="19.3" class="st2" width="3.1" height="40.1"/>
				<rect x="115.5" y="15.9" class="st2" width="3.1" height="40.1"/>
				<circle class="st2" cx="41.7" cy="61.4" r="13.5"/>
				<circle class="st2" cx="111.8" cy="61.5" r="13.5"/>
				<circle class="st2" cx="117.1" cy="17.5" r="4.6"/>
				<circle class="st2" cx="36" cy="17.7" r="4.6"/>
				<path class="st2" d="M106.2,95.9H45.7c-5.2,0-9.4-4.2-9.4-9.4V61c0-5.2,4.2-9.4,9.4-9.4h60.5c5.2,0,9.4,4.2,9.4,9.4v25.5
					C115.6,91.7,111.4,95.9,106.2,95.9z"/>
				<path class="st2" d="M104.1,91.2H48.1c-6.4,0-11.7-5.2-11.7-11.7v-15c0-22.7,18.4-41.1,41.1-41.1h0c21.2,0,38.3,17.2,38.3,38.3
					v17.7C115.8,85.9,110.6,91.2,104.1,91.2z"/>
				<path class="st2" d="M98.2,86.8H55.3c-4.9,0-8.9-4-8.9-8.9V64.3c0-17.3,14.1-31.4,31.4-31.4h0c16.2,0,29.3,13.1,29.3,29.3v15.8
					C107.1,82.9,103.1,86.8,98.2,86.8z"/>
				<path class="st2" d="M98.2,86.8H55.3c-4.9,0-8.9-4-8.9-8.9V66.5c0-17.3,14.1-31.4,31.4-31.4h0c16.2,0,29.3,13.1,29.3,29.3v13.6
					C107.1,82.9,103.1,86.8,98.2,86.8z"/>
			</g>
			<circle class="st2" cx="63.3" cy="55.5" r="3.5"/>
			<circle class="st2" cx="90.4" cy="55.5" r="3.5"/>
			<path class="st2" d="M67.2,64.7h19.4c0,0,0.4,9.6-10.1,9.6S67.2,64.7,67.2,64.7z"/>
		</g>
		<g>
			<path class="st3" d="M110.2,139.1c0.1-1.7,0.2-3.3,0.2-4.9c0-24.3-17-44-38-44c-21,0-38,19.7-38,44c0,1.6,0.1,3.2,0.2,4.9H110.2z
				"/>
			<path class="st4" d="M102,139.1c0.1-1.8,0.2-3.5,0.2-5.1c0-24.4-13.3-44.2-29.8-44.2c-16.4,0-29.8,19.8-29.8,44.2
				c0,1.7,0.1,3.4,0.2,5.1H102z"/>
			<ellipse class="st5" cx="73.3" cy="89.8" rx="19.1" ry="8.3"/>
			<g>
				<rect x="31.5" y="15.3" class="st6" width="3.1" height="40.1"/>
				<rect x="112" y="11.9" class="st6" width="3.1" height="40.1"/>
				<circle class="st7" cx="38.2" cy="57.5" r="13.5"/>
				<circle class="st7" cx="108.3" cy="57.6" r="13.5"/>
				<circle class="st7" cx="113.6" cy="13.6" r="4.6"/>
				<circle class="st7" cx="32.5" cy="13.8" r="4.6"/>
				<path class="st5" d="M102.7,92H42.2c-5.2,0-9.4-4.2-9.4-9.4V57c0-5.2,4.2-9.4,9.4-9.4h60.5c5.2,0,9.4,4.2,9.4,9.4v25.5
					C112.1,87.8,107.9,92,102.7,92z"/>
				<path class="st3" d="M100.6,87.2H44.5c-6.4,0-11.7-5.2-11.7-11.7v-15c0-22.7,18.4-41.1,41.1-41.1h0c21.2,0,38.3,17.2,38.3,38.3
					v17.7C112.3,82,107.1,87.2,100.6,87.2z"/>
				<path class="st8" d="M94.7,82.9H51.8c-4.9,0-8.9-4-8.9-8.9V60.4C42.9,43,57,29,74.3,29h0c16.2,0,29.3,13.1,29.3,29.3V74
					C103.6,78.9,99.6,82.9,94.7,82.9z"/>
				<path class="st9" d="M94.7,82.9H51.8c-4.9,0-8.9-4-8.9-8.9V62.6c0-17.3,14.1-31.4,31.4-31.4h0c16.2,0,29.3,13.1,29.3,29.3V74
					C103.6,78.9,99.6,82.9,94.7,82.9z"/>
			</g>
			<circle class="st10" cx="59.8" cy="51.5" r="3.5"/>
			<circle class="st10" cx="86.9" cy="51.5" r="3.5"/>
			<path class="st11" d="M63.7,60.8h19.4c0,0,0.4,9.6-10.1,9.6S63.7,60.8,63.7,60.8z"/>
		</g>
	</g>
</g>
</svg>
