<?xml version="1.0" encoding="utf-8"?>
<!-- Generator: Adobe Illustrator 24.2.3, SVG Export Plug-In . SVG Version: 6.00 Build 0)  -->
<svg version="1.1" id="圖層_1" xmlns="http://www.w3.org/2000/svg" xmlns:xlink="http://www.w3.org/1999/xlink" x="0px" y="0px"
	 viewBox="0 0 150 150" style="enable-background:new 0 0 150 150;" xml:space="preserve">
<style type="text/css">
	.st0{fill:#CDB9EA;}
	.st1{opacity:0.6;}
	.st2{fill:#371A59;}
	.st3{fill:#AFD669;}
	.st4{fill:#F5F15F;}
	.st5{fill:#DEF1F9;}
	.st6{fill:#C4D4E8;}
	.st7{fill:#6C767A;}
	.st8{fill:#ED658D;}
	.st9{fill:#8BBFD8;}
</style>
<g>
	<circle class="st0" cx="74.8" cy="75" r="59.7"/>
	<g class="st1">
		<g id="XMLID_10_">
			<g>
				<path class="st2" d="M104.7,61.9c0.3,3.8-2.4,7.2-6,7.5c-2.7,0.3-5.2-1.3-6.4-3.7l-3.3,0.3l-2.5,1.2c-0.6,0.3-0.9,0.8-1,1.4
					c-0.2,1.7-0.7,3.3-1.2,4.8c-0.2,0.5-0.2,1.1,0.1,1.6l0.9,1.6l2.4,1.6c1.3-0.5,2.8-0.4,4,0.5c2.1,1.4,2.6,4.3,1,6.3
					c-1.3,1.7-3.8,2.2-5.7,1.1c-1.2-0.7-1.9-1.9-2.1-3.2L82.4,81l-1.7-0.2c-0.6-0.1-1.2,0.1-1.6,0.5c-1.4,1.4-3,2.5-4.8,3.5
					c-0.6,0.3-1,0.9-1,1.6l-0.2,3.4l1.1,4.2c1.8,0.5,3.3,1.9,3.8,3.9c0.7,3-1.1,6-4.1,6.6c-2.7,0.6-5.5-1-6.3-3.6
					c-0.7-2.1-0.1-4.2,1.4-5.6l-1.1-4.3l-1.7-2.7c-0.4-0.7-1.2-1.1-2.1-1.1c0,0,0,0,0,0c-1.4,0-2.9-0.1-4.2-0.4
					c-0.8-0.2-1.7,0.1-2.2,0.7l-2.2,2.3L52.9,95c0.6,1.2,0.6,2.6,0,3.8c-1.1,2.3-3.9,3.2-6.1,1.9c-1.9-1.1-2.7-3.4-1.9-5.5
					c0.6-1.4,1.7-2.3,3.1-2.6l2.5-5.1l0.5-3.4c0.1-0.6-0.2-1.3-0.7-1.7c-2-1.6-3.6-3.5-5-5.7c-0.3-0.5-0.9-0.9-1.5-0.9l-3.4,0
					l-3.8,1.2c-0.3,2.3-1.9,4.4-4.2,5.2c-3.2,1-6.6-0.8-7.6-3.9c-1-3.2,0.7-6.7,3.9-7.7c2.2-0.7,4.6-0.1,6.1,1.4l4-1.3l2.9-2.1
					c0.4-0.3,0.7-0.8,0.6-1.3c0-0.6-0.1-1.2-0.1-1.8c0-3.2,0.7-6.3,2-9.1c0.2-0.4,0.2-0.9,0-1.3l-0.9-1.8L41,51.6
					c-1.3,0.4-2.8,0.2-4-0.7c-2-1.5-2.3-4.4-0.7-6.3c1.4-1.7,3.9-2,5.7-0.8c1.2,0.8,1.8,2,1.9,3.3l2.6,2l2.6,0.5
					c1.9-1.8,4.1-3.2,6.5-4.2l0.6-3.7l-0.8-3.8c-2.3-0.6-4.1-2.3-4.6-4.7c-0.7-3.3,1.6-6.5,5.1-7.2c3.5-0.7,6.9,1.5,7.6,4.8
					c0.5,2.5-0.6,4.9-2.7,6.2l0.7,3.6l1.8,2.9c0.1,0.2,0.3,0.3,0.5,0.3h0c4.1,0,8,1.1,11.2,3.1c0.2,0.1,0.4,0.1,0.6,0l2.8-1.3L82,42
					c-0.2-1.3,0.2-2.6,1.1-3.6c1.7-1.8,4.6-1.9,6.4,0c1.5,1.6,1.6,4.2,0.1,5.9c-0.9,1.1-2.3,1.6-3.6,1.5l-3.3,3.5l-1.1,2.9
					c-0.1,0.2,0,0.4,0.1,0.6c1.3,1.8,2.3,3.8,3,5.9c0.2,0.6,0.7,1,1.3,1.2l2.7,0.7l3.5-0.3c0.8-2.5,3-4.3,5.6-4.6
					C101.3,55.3,104.4,58.1,104.7,61.9L104.7,61.9z"/>
			</g>
		</g>
		<g id="XMLID_9_">
			<g>
				<circle class="st2" cx="64" cy="65.5" r="16.2"/>
			</g>
		</g>
		<g>
			<circle class="st2" cx="26.8" cy="57.4" r="4.6"/>
			<circle class="st2" cx="91.4" cy="97.2" r="4.5"/>
			<circle class="st2" cx="59.1" cy="61.1" r="4.2"/>
			<circle class="st2" cx="62.4" cy="74" r="2.8"/>
			<circle class="st2" cx="71.4" cy="65.5" r="2.4"/>
		</g>
	</g>
	<g class="st1">
		<rect x="114" y="39.2" transform="matrix(0.9125 0.409 -0.409 0.9125 30.5097 -44.2455)" class="st2" width="9.5" height="20"/>
		<path class="st2" d="M132.9,45.8l-21-9.4c-0.7-0.3-1-1.2-0.7-1.9l0,0c0.3-0.7,1.2-1,1.9-0.7l21,9.4c0.7,0.3,1,1.2,0.7,1.9v0
			C134.4,45.8,133.6,46.1,132.9,45.8z"/>
		<path class="st2" d="M80.4,132.3l5.7-12.6c0.2-0.5,0.8-0.7,1.3-0.5l0,0c0.5,0.2,0.7,0.8,0.5,1.3l-5.7,12.6
			c-0.2,0.5-0.8,0.7-1.3,0.5l0,0C80.4,133.4,80.2,132.8,80.4,132.3z"/>
		<path class="st2" d="M100.7,120l-22.9-10.3c-0.2-0.1-0.3-0.3-0.2-0.5l28.3-63.1c0.1-0.2,0.3-0.3,0.5-0.2l22.9,10.3
			c0.2,0.1,0.3,0.3,0.2,0.5l-28.3,63.1C101.2,120,100.9,120.1,100.7,120z"/>
		
			<rect x="93.1" y="51.3" transform="matrix(0.9125 0.409 -0.409 0.9125 42.9867 -35.1096)" class="st2" width="20.9" height="63.2"/>
		
			<rect x="80.6" y="114.8" transform="matrix(0.9125 0.409 -0.409 0.9125 55.4772 -25.9639)" class="st2" width="15.8" height="3.9"/>
		<rect x="88" y="75.2" transform="matrix(0.9125 0.409 -0.409 0.9125 47.1959 -32.0276)" class="st2" width="20.9" height="38.3"/>
		
			<rect x="118.3" y="56.2" transform="matrix(-0.409 0.9125 -0.9125 -0.409 222.6023 -24.3653)" class="st2" width="1.8" height="7.4"/>
		
			<rect x="116.3" y="60.7" transform="matrix(-0.409 0.9125 -0.9125 -0.409 223.8621 -16.2162)" class="st2" width="1.8" height="7.4"/>
		
			<rect x="114.3" y="65.1" transform="matrix(-0.409 0.9125 -0.9125 -0.409 225.1219 -8.0671)" class="st2" width="1.8" height="7.4"/>
		
			<rect x="112.3" y="69.6" transform="matrix(-0.409 0.9125 -0.9125 -0.409 226.3817 8.208077e-02)" class="st2" width="1.8" height="7.4"/>
		
			<rect x="110.3" y="74.1" transform="matrix(-0.409 0.9125 -0.9125 -0.409 227.6415 8.2312)" class="st2" width="1.8" height="7.4"/>
		
			<rect x="108.2" y="78.6" transform="matrix(-0.409 0.9125 -0.9125 -0.409 228.9013 16.3804)" class="st2" width="1.8" height="7.4"/>
		
			<rect x="106.2" y="83.1" transform="matrix(-0.409 0.9125 -0.9125 -0.409 230.161 24.5295)" class="st2" width="1.8" height="7.4"/>
		
			<rect x="104.2" y="87.6" transform="matrix(-0.409 0.9125 -0.9125 -0.409 231.4208 32.6786)" class="st2" width="1.8" height="7.4"/>
		
			<rect x="102.2" y="92" transform="matrix(-0.409 0.9125 -0.9125 -0.409 232.6806 40.8278)" class="st2" width="1.8" height="7.4"/>
		
			<rect x="100.2" y="96.5" transform="matrix(-0.409 0.9125 -0.9125 -0.409 233.9404 48.9769)" class="st2" width="1.8" height="7.4"/>
		<rect x="98.2" y="101" transform="matrix(-0.409 0.9125 -0.9125 -0.409 235.2002 57.126)" class="st2" width="1.8" height="7.4"/>
		
			<rect x="96.2" y="105.5" transform="matrix(-0.409 0.9125 -0.9125 -0.409 236.46 65.2752)" class="st2" width="1.8" height="7.4"/>
		
			<rect x="82.1" y="118.3" transform="matrix(0.9125 0.409 -0.409 0.9125 56.6301 -25.1198)" class="st2" width="9.8" height="3.2"/>
	</g>
	<g>
		<g id="XMLID_2_">
			<g>
				<path class="st3" d="M101.4,55.7c0.3,3.8-2.4,7.2-6,7.5c-2.7,0.3-5.2-1.3-6.4-3.7l-3.3,0.3L83.3,61c-0.6,0.3-0.9,0.8-1,1.4
					c-0.2,1.7-0.7,3.3-1.2,4.8c-0.2,0.5-0.2,1.1,0.1,1.6l0.9,1.6l2.4,1.6c1.3-0.5,2.8-0.4,4,0.5c2.1,1.4,2.6,4.3,1,6.3
					c-1.3,1.7-3.8,2.2-5.7,1.1c-1.2-0.7-1.9-1.9-2.1-3.2L79,74.8l-1.7-0.2c-0.6-0.1-1.2,0.1-1.6,0.5c-1.4,1.4-3,2.5-4.8,3.5
					c-0.6,0.3-1,0.9-1,1.6l-0.2,3.4l1.1,4.2c1.8,0.5,3.3,1.9,3.8,3.9c0.7,3-1.1,6-4.1,6.6c-2.7,0.6-5.5-1-6.3-3.6
					c-0.7-2.1-0.1-4.2,1.4-5.6L64.5,85l-1.7-2.7c-0.4-0.7-1.2-1.1-2.1-1.1c0,0,0,0,0,0c-1.4,0-2.9-0.1-4.2-0.4
					c-0.8-0.2-1.7,0.1-2.2,0.7l-2.2,2.3l-2.4,5.1c0.6,1.2,0.6,2.6,0,3.8c-1.1,2.3-3.9,3.2-6.1,1.9c-1.9-1.1-2.7-3.4-1.9-5.5
					c0.6-1.4,1.7-2.3,3.1-2.6l2.5-5.1l0.5-3.4c0.1-0.6-0.2-1.3-0.7-1.7c-2-1.6-3.6-3.5-5-5.7c-0.3-0.5-0.9-0.9-1.5-0.9l-3.4,0
					l-3.8,1.2c-0.3,2.3-1.9,4.4-4.2,5.2c-3.2,1-6.6-0.8-7.6-3.9c-1-3.2,0.7-6.7,3.9-7.7c2.2-0.7,4.6-0.1,6.1,1.4l4-1.3l2.9-2.1
					c0.4-0.3,0.7-0.8,0.6-1.3c0-0.6-0.1-1.2-0.1-1.8c0-3.2,0.7-6.3,2-9.1c0.2-0.4,0.2-0.9,0-1.3L40,47.2l-2.3-1.8
					c-1.3,0.4-2.8,0.2-4-0.7c-2-1.5-2.3-4.4-0.7-6.3c1.4-1.7,3.9-2,5.7-0.8c1.2,0.8,1.8,2,1.9,3.3l2.6,2l2.6,0.5
					c1.9-1.8,4.1-3.2,6.5-4.2l0.6-3.7l-0.8-3.8c-2.3-0.6-4.1-2.3-4.6-4.7c-0.7-3.3,1.6-6.5,5.1-7.2c3.5-0.7,6.9,1.5,7.6,4.8
					c0.5,2.5-0.6,4.9-2.7,6.2l0.7,3.6l1.8,2.9c0.1,0.2,0.3,0.3,0.5,0.3h0c4.1,0,8,1.1,11.2,3.1c0.2,0.1,0.4,0.1,0.6,0l2.8-1.3
					l3.3-3.5c-0.2-1.3,0.2-2.6,1.1-3.6c1.7-1.8,4.6-1.9,6.4,0c1.5,1.6,1.6,4.2,0.1,5.9c-0.9,1.1-2.3,1.6-3.6,1.5l-3.3,3.5l-1.1,2.9
					c-0.1,0.2,0,0.4,0.1,0.6c1.3,1.8,2.3,3.8,3,5.9c0.2,0.6,0.7,1,1.3,1.2l2.7,0.7l3.5-0.3c0.8-2.5,3-4.3,5.6-4.6
					C98,49.1,101.1,51.9,101.4,55.7L101.4,55.7z"/>
			</g>
		</g>
		<g id="XMLID_1_">
			<g>
				<circle class="st4" cx="60.7" cy="59.4" r="16.2"/>
			</g>
		</g>
		<g>
			<circle class="st3" cx="23.5" cy="51.2" r="4.6"/>
			<circle class="st3" cx="88.1" cy="91" r="4.5"/>
			<circle class="st3" cx="55.8" cy="54.9" r="4.2"/>
			<circle class="st3" cx="59.1" cy="67.9" r="2.8"/>
			<circle class="st3" cx="68" cy="59.4" r="2.4"/>
		</g>
	</g>
	<g>
		<rect x="110.6" y="33.1" transform="matrix(0.9125 0.409 -0.409 0.9125 27.6982 -43.4208)" class="st5" width="9.5" height="20"/>
		<path class="st5" d="M129.5,39.6l-21-9.4c-0.7-0.3-1-1.2-0.7-1.9v0c0.3-0.7,1.2-1,1.9-0.7l21,9.4c0.7,0.3,1,1.2,0.7,1.9l0,0
			C131.1,39.6,130.3,39.9,129.5,39.6z"/>
		<path class="st5" d="M77.1,126.2l5.7-12.6c0.2-0.5,0.8-0.7,1.3-0.5l0,0c0.5,0.2,0.7,0.8,0.5,1.3L78.8,127
			c-0.2,0.5-0.8,0.7-1.3,0.5l0,0C77.1,127.2,76.8,126.6,77.1,126.2z"/>
		<path class="st5" d="M97.4,113.9l-22.9-10.3c-0.2-0.1-0.3-0.3-0.2-0.5L102.5,40c0.1-0.2,0.3-0.3,0.5-0.2L126,50.1
			c0.2,0.1,0.3,0.3,0.2,0.5l-28.3,63.1C97.8,113.9,97.6,114,97.4,113.9z"/>
		
			<rect x="89.8" y="45.2" transform="matrix(0.9125 0.409 -0.409 0.9125 40.1753 -34.2849)" class="st6" width="20.9" height="63.2"/>
		
			<rect x="77.2" y="108.6" transform="matrix(0.9125 0.409 -0.409 0.9125 52.6658 -25.1392)" class="st7" width="15.8" height="3.9"/>
		<rect x="84.7" y="69" transform="matrix(0.9125 0.409 -0.409 0.9125 44.3845 -31.2028)" class="st8" width="20.9" height="38.3"/>
		<rect x="115" y="50" transform="matrix(-0.409 0.9125 -0.9125 -0.409 212.2825 -30.0038)" class="st9" width="1.8" height="7.4"/>
		
			<rect x="112.9" y="54.5" transform="matrix(-0.409 0.9125 -0.9125 -0.409 213.5422 -21.8546)" class="st9" width="1.8" height="7.4"/>
		
			<rect x="110.9" y="59" transform="matrix(-0.409 0.9125 -0.9125 -0.409 214.802 -13.7055)" class="st9" width="1.8" height="7.4"/>
		
			<rect x="108.9" y="63.5" transform="matrix(-0.409 0.9125 -0.9125 -0.409 216.0618 -5.5564)" class="st9" width="1.8" height="7.4"/>
		<rect x="106.9" y="68" transform="matrix(-0.409 0.9125 -0.9125 -0.409 217.3216 2.5928)" class="st9" width="1.8" height="7.4"/>
		
			<rect x="104.9" y="72.4" transform="matrix(-0.409 0.9125 -0.9125 -0.409 218.5814 10.7419)" class="st9" width="1.8" height="7.4"/>
		
			<rect x="102.9" y="76.9" transform="matrix(-0.409 0.9125 -0.9125 -0.409 219.8412 18.8911)" class="st9" width="1.8" height="7.4"/>
		
			<rect x="100.9" y="81.4" transform="matrix(-0.409 0.9125 -0.9125 -0.409 221.101 27.0402)" class="st9" width="1.8" height="7.4"/>
		
			<rect x="98.9" y="85.9" transform="matrix(-0.409 0.9125 -0.9125 -0.409 222.3607 35.1893)" class="st9" width="1.8" height="7.4"/>
		
			<rect x="96.9" y="90.4" transform="matrix(-0.409 0.9125 -0.9125 -0.409 223.6205 43.3385)" class="st9" width="1.8" height="7.4"/>
		
			<rect x="94.9" y="94.8" transform="matrix(-0.409 0.9125 -0.9125 -0.409 224.8803 51.4876)" class="st9" width="1.8" height="7.4"/>
		
			<rect x="92.9" y="99.3" transform="matrix(-0.409 0.9125 -0.9125 -0.409 226.1401 59.6367)" class="st9" width="1.8" height="7.4"/>
		<rect x="78.8" y="112.1" transform="matrix(0.9125 0.409 -0.409 0.9125 53.8186 -24.295)" class="st7" width="9.8" height="3.2"/>
	</g>
</g>
</svg>
