<?xml version="1.0" encoding="utf-8"?>
<!-- Generator: Adobe Illustrator 24.2.3, SVG Export Plug-In . SVG Version: 6.00 Build 0)  -->
<svg version="1.1" id="圖層_1" xmlns="http://www.w3.org/2000/svg" xmlns:xlink="http://www.w3.org/1999/xlink" x="0px" y="0px"
	 viewBox="0 0 150 150" style="enable-background:new 0 0 150 150;" xml:space="preserve">
<style type="text/css">
	.st0{fill:#83DDD4;}
	.st1{opacity:0.6;}
	.st2{fill:#264946;}
	.st3{fill-rule:evenodd;clip-rule:evenodd;fill:#264946;}
	.st4{fill:#ECA024;}
	.st5{fill-rule:evenodd;clip-rule:evenodd;fill:#ECA024;}
	.st6{fill:#B87B2A;}
	.st7{fill-rule:evenodd;clip-rule:evenodd;fill:#B87B2A;}
	.st8{fill-rule:evenodd;clip-rule:evenodd;fill:#969640;}
</style>
<g>
	<circle class="st0" cx="70.9" cy="74" r="59.7"/>
	<g class="st1">
		<g>
			<g>
				<g>
					<path class="st2" d="M43.9,71.8c0,0,7.4-10.2-6.4-22C37.5,49.8,29.4,63,43.9,71.8z"/>
					<path class="st2" d="M47,57.4c0,0,10.6-7.6,2-23C49,34.4,36.6,44.7,47,57.4z"/>
					<path class="st2" d="M55.5,43.9c0,0,12.3-5,8.4-22.1C64,21.8,49.2,29,55.5,43.9z"/>
					<path class="st2" d="M46.9,68.1c0,0,12.9,1.9,20.5-14.6C67.3,53.5,51.1,52.1,46.9,68.1z"/>
					<path class="st2" d="M52.5,53.3c0,0,12.4,3.7,22.5-11.7C75,41.6,59.3,38.1,52.5,53.3z"/>
					<path class="st2" d="M63.7,37.9c0,0,9.5,6.3,22.9-4.8C86.5,33.1,74.1,26.1,63.7,37.9z"/>
					<path class="st2" d="M66.8,30.7c0,0,12.1-1.1,14.5-17.1C81.3,13.6,66.4,15.9,66.8,30.7z"/>
					<path class="st2" d="M79,25.9c0,0,12,0.4,16.8-15.3C95.8,10.7,80.8,11.2,79,25.9z"/>
					<path class="st2" d="M81.2,27.8c0,0,5.3,8.3,20.5,3.1C101.7,30.9,94.2,21,81.2,27.8z"/>
					<path class="st2" d="M93.2,19.2c0,0,9.1,4.9,20.2-6C113.4,13.2,101.5,7.8,93.2,19.2z"/>
					<path class="st2" d="M107.1,20.7c0,0,7.1,5.9,19-2.2C126.1,18.6,116.7,11.8,107.1,20.7z"/>
					<path class="st2" d="M123,23.2c0,0,2.5,8.5,17,7C140.1,30.2,136.1,19.9,123,23.2z"/>
					<path class="st2" d="M112.7,24.2c0,0,0.6,8,13.6,8.9C126.3,33.2,124.7,23.3,112.7,24.2z"/>
					<path class="st2" d="M96.3,22.4c0,0,1.7,9.6,17.7,9.5C114,31.9,110.9,20.1,96.3,22.4z"/>
				</g>
				<path class="st3" d="M44.8,69.6c0,0-7.1,32.8,21.7,70.6c0,0-29.8-31.6-24.7-71.4L44.8,69.6z"/>
			</g>
			<g>
				<g>
					<path class="st2" d="M59.1,95.4c0,0,5.6-6.5-2.8-15.2C56.4,80.2,50,88.7,59.1,95.4z"/>
					<path class="st2" d="M62.2,85.9c0,0,7.6-4.5,2.9-15.4C65.1,70.5,56.1,76.7,62.2,85.9z"/>
					<path class="st2" d="M68.8,77.3c0,0,8.5-2.7,7.1-14.4C75.9,62.9,65.6,66.9,68.8,77.3z"/>
					<path class="st2" d="M61.4,93.1c0,0,8.5,2,14.6-8.7C76,84.4,65.3,82.6,61.4,93.1z"/>
					<path class="st2" d="M66.1,83.5c0,0,8,3.2,15.8-6.6C81.9,76.8,71.7,73.6,66.1,83.5z"/>
					<path class="st2" d="M74.6,73.7c0,0,5.9,4.8,15.6-1.9C90.2,71.7,82.4,66.3,74.6,73.7z"/>
					<path class="st2" d="M77.2,69c0,0,8.1,0,10.8-10.7C88,58.3,78,59,77.2,69z"/>
					<path class="st2" d="M85.7,66.5c0,0,8,0.9,12.2-9.3C97.9,57.1,87.8,56.6,85.7,66.5z"/>
					<path class="st2" d="M87,67.8c0,0,3,5.9,13.5,3.2C100.5,71.1,96.2,64,87,67.8z"/>
					<path class="st2" d="M95.6,62.7c0,0,5.8,3.8,13.9-2.9C109.5,59.8,101.9,55.5,95.6,62.7z"/>
					<path class="st2" d="M104.8,64.5c0,0,4.4,4.4,12.8-0.4C117.6,64.1,111.8,59.1,104.8,64.5z"/>
					<path class="st2" d="M115.2,67.1c0,0,1.1,5.9,10.9,5.7C126.1,72.8,124.2,65.6,115.2,67.1z"/>
					<path class="st2" d="M108.2,67.2c0,0-0.1,5.4,8.5,6.8C116.7,74,116.4,67.2,108.2,67.2z"/>
					<path class="st2" d="M97.4,65.1c0,0,0.5,6.6,11.1,7.3C108.6,72.4,107.4,64.3,97.4,65.1z"/>
				</g>
				<path class="st3" d="M59.9,94c0,0-7,21.7,9.7,48.7c0,0-17.8-22.9-11.7-49.4L59.9,94z"/>
			</g>
			<path class="st3" d="M71.4,144.5c0,0-58.9-46.2-29.6-113.1C41.8,31.4-3.4,84.5,71.4,144.5z"/>
			<path class="st3" d="M65.4,138.9c0,0-44.8-50.7,22.9-91.5C88.2,47.4,12.2,74.8,65.4,138.9z"/>
		</g>
	</g>
	<g>
		<g>
			<g>
				<g>
					<path class="st4" d="M42.6,69.2c0,0,7.4-10.2-6.4-22C36.3,47.2,28.1,60.4,42.6,69.2z"/>
					<path class="st4" d="M45.7,54.9c0,0,10.6-7.6,2-23C47.7,31.8,35.4,42.1,45.7,54.9z"/>
					<path class="st4" d="M54.3,41.3c0,0,12.3-5,8.4-22.1C62.7,19.2,48,26.4,54.3,41.3z"/>
					<path class="st4" d="M45.6,65.5c0,0,12.9,1.9,20.5-14.6C66.1,50.9,49.8,49.6,45.6,65.5z"/>
					<path class="st4" d="M51.2,50.8c0,0,12.4,3.7,22.5-11.7C73.7,39.1,58,35.5,51.2,50.8z"/>
					<path class="st4" d="M62.4,35.3c0,0,9.5,6.3,22.9-4.8C85.3,30.5,72.8,23.5,62.4,35.3z"/>
					<path class="st4" d="M65.6,28.1c0,0,12.1-1.1,14.5-17.1C80,11,65.2,13.3,65.6,28.1z"/>
					<path class="st4" d="M77.7,23.4c0,0,12,0.4,16.8-15.3C94.5,8.1,79.5,8.6,77.7,23.4z"/>
					<path class="st4" d="M79.9,25.2c0,0,5.3,8.3,20.5,3.1C100.4,28.3,93,18.5,79.9,25.2z"/>
					<path class="st4" d="M91.9,16.6c0,0,9.1,4.9,20.2-6C112.1,10.6,100.2,5.3,91.9,16.6z"/>
					<path class="st4" d="M105.8,18.1c0,0,7.1,5.9,19-2.2C124.9,16,115.4,9.3,105.8,18.1z"/>
					<path class="st4" d="M121.7,20.7c0,0,2.5,8.5,17,7C138.8,27.7,134.8,17.3,121.7,20.7z"/>
					<path class="st4" d="M111.4,21.7c0,0,0.6,8,13.6,8.9C125,30.6,123.5,20.7,111.4,21.7z"/>
					<path class="st4" d="M95,19.9c0,0,1.7,9.6,17.7,9.5C112.7,29.3,109.6,17.6,95,19.9z"/>
				</g>
				<path class="st5" d="M43.5,67.1c0,0-7.1,32.8,21.7,70.6c0,0-29.8-31.6-24.7-71.4L43.5,67.1z"/>
			</g>
			<g>
				<g>
					<path class="st6" d="M57.9,92.8c0,0,5.6-6.5-2.8-15.2C55.1,77.7,48.7,86.1,57.9,92.8z"/>
					<path class="st6" d="M60.9,83.3c0,0,7.6-4.5,2.9-15.4C63.8,67.9,54.8,74.2,60.9,83.3z"/>
					<path class="st6" d="M67.5,74.7c0,0,8.5-2.7,7.1-14.4C74.6,60.3,64.3,64.3,67.5,74.7z"/>
					<path class="st6" d="M60.1,90.5c0,0,8.5,2,14.6-8.7C74.7,81.8,64,80,60.1,90.5z"/>
					<path class="st6" d="M64.9,80.9c0,0,8,3.2,15.8-6.6C80.7,74.2,70.4,71,64.9,80.9z"/>
					<path class="st6" d="M73.3,71.1c0,0,5.9,4.8,15.6-1.9C88.9,69.2,81.1,63.7,73.3,71.1z"/>
					<path class="st6" d="M76,66.4c0,0,8.1,0,10.8-10.7C86.8,55.7,76.7,56.5,76,66.4z"/>
					<path class="st6" d="M84.4,63.9c0,0,8,0.9,12.2-9.3C96.6,54.6,86.6,54.1,84.4,63.9z"/>
					<path class="st6" d="M85.7,65.3c0,0,3,5.9,13.5,3.2C99.2,68.5,94.9,61.4,85.7,65.3z"/>
					<path class="st6" d="M94.3,60.2c0,0,5.8,3.8,13.9-2.9C108.2,57.2,100.6,53,94.3,60.2z"/>
					<path class="st6" d="M103.5,61.9c0,0,4.4,4.4,12.8-0.4C116.3,61.5,110.5,56.5,103.5,61.9z"/>
					<path class="st6" d="M113.9,64.5c0,0,1.1,5.9,10.9,5.7C124.9,70.2,122.9,63,113.9,64.5z"/>
					<path class="st6" d="M107,64.6c0,0-0.1,5.4,8.5,6.8C115.5,71.4,115.1,64.7,107,64.6z"/>
					<path class="st6" d="M96.2,62.5c0,0,0.5,6.6,11.1,7.3C107.3,69.9,106.1,61.8,96.2,62.5z"/>
				</g>
				<path class="st7" d="M58.6,91.4c0,0-7,21.7,9.7,48.7c0,0-17.8-22.9-11.7-49.4L58.6,91.4z"/>
			</g>
			<path class="st8" d="M70.1,141.9c0,0-58.9-46.2-29.6-113.1C40.5,28.8-4.7,81.9,70.1,141.9z"/>
			<path class="st8" d="M64.1,136.4c0,0-44.8-50.7,22.9-91.5C87,44.9,10.9,72.2,64.1,136.4z"/>
		</g>
	</g>
</g>
</svg>
