<?xml version="1.0" encoding="utf-8"?>
<!-- Generator: Adobe Illustrator 24.2.3, SVG Export Plug-In . SVG Version: 6.00 Build 0)  -->
<svg version="1.1" id="圖層_1" xmlns="http://www.w3.org/2000/svg" xmlns:xlink="http://www.w3.org/1999/xlink" x="0px" y="0px"
	 viewBox="0 0 150 150" style="enable-background:new 0 0 150 150;" xml:space="preserve">
<style type="text/css">
	.st0{fill:#FCB042;}
	.st1{opacity:0.6;}
	.st2{fill:#4C3226;}
	.st3{clip-path:url(#SVGID_2_);fill:#4C3226;}
	.st4{clip-path:url(#SVGID_4_);fill:#4C3226;}
	.st5{clip-path:url(#SVGID_6_);fill:#4C3226;}
	.st6{fill:#D5E7E5;}
	.st7{fill:#D2A384;}
	.st8{fill:#333333;}
	.st9{clip-path:url(#SVGID_8_);fill:#EEA86A;}
	.st10{fill:#7B262D;}
	.st11{fill:#A7412D;}
	.st12{clip-path:url(#SVGID_10_);fill:#D0412D;}
	.st13{clip-path:url(#SVGID_10_);fill:#CC602D;}
	.st14{clip-path:url(#SVGID_12_);fill:#D0412D;}
	.st15{clip-path:url(#SVGID_12_);fill:#CC602D;}
	.st16{fill:none;stroke:#333333;stroke-linecap:round;stroke-linejoin:round;stroke-miterlimit:10;}
</style>
<g>
	<circle class="st0" cx="73.5" cy="68.2" r="59.7"/>
	<g class="st1">
		<path class="st2" d="M66.1,115.2c-0.9,0.3-43.7,7.7-46.6,9.7c-3,2-5.3,4.7-6.4,9.1s-1.3,7.5-1.3,7.5h132.1c0,0-3.3-14.9-9.9-17.4
			c-6.6-2.5-43.7-7.8-43.7-7.8L66.1,115.2z"/>
		<rect x="58.7" y="98.9" class="st2" width="34.6" height="18.2"/>
		<ellipse class="st2" cx="76" cy="117.6" rx="17.3" ry="7"/>
		<ellipse class="st2" cx="76.7" cy="135.5" rx="1.8" ry="2.4"/>
		<g>
			<defs>
				<path id="SVGID_1_" d="M66.1,115.2c-0.9,0.3-43.7,7.7-46.6,9.7c-3,2-5.3,4.7-6.4,9.1s-1.3,7.5-1.3,7.5h132.1
					c0,0-3.3-14.9-9.9-17.4c-6.6-2.5-43.7-7.8-43.7-7.8L66.1,115.2z"/>
			</defs>
			<use xlink:href="#SVGID_1_"  style="overflow:visible;fill:#4C3226;"/>
			<clipPath id="SVGID_2_">
				<use xlink:href="#SVGID_1_"  style="overflow:visible;"/>
			</clipPath>
			<rect x="33.2" y="117.8" class="st3" width="20.2" height="38.9"/>
			<rect x="98.2" y="112" class="st3" width="20.2" height="45.1"/>
		</g>
		<g>
			<path class="st2" d="M40.4,66.2c0,0,1.7,31.5,21.1,40.8l-8.5-21.9c0,0-2-15.3,1.1-22.2C57.3,56,40.4,66.2,40.4,66.2z"/>
			<path class="st2" d="M113.4,64.8c0,0-9.4,40.1-24.3,41.3l11.6-22.4c0,0-2-15.3-5.2-22.2C92.4,54.6,113.4,64.8,113.4,64.8z"/>
			<ellipse class="st2" cx="75.8" cy="75.8" rx="26.1" ry="35.5"/>
			<ellipse class="st2" cx="51.6" cy="76.7" rx="4.4" ry="7.4"/>
			<ellipse class="st2" cx="101.6" cy="76.7" rx="4.4" ry="7.4"/>
			<ellipse class="st2" cx="76.2" cy="70.6" rx="2" ry="2"/>
			<g>
				<path class="st2" d="M113.1,64.8c0,0-6.5,7.3-13.5,3.4c-8.4-4.6-21.5-3.6-29.4-7.4c-19.5-9.2-20.9-24.2-20.9-24.2
					s18.6-18.5,34.2-12.4S113.6,39.7,113.1,64.8z"/>
				<g>
					<defs>
						<path id="SVGID_3_" d="M113.1,64.8c0,0-20.2,8.7-38.2-3.2s-25.7-25-25.7-25s18.6-18.5,34.2-12.4S113.6,39.7,113.1,64.8z"/>
					</defs>
					<use xlink:href="#SVGID_3_"  style="overflow:visible;fill:#4C3226;"/>
					<clipPath id="SVGID_4_">
						<use xlink:href="#SVGID_3_"  style="overflow:visible;"/>
					</clipPath>
					<path class="st4" d="M117.5,58.4c0,0-20.2,8.7-38.2-3.2s-25.7-25-25.7-25s18.6-18.5,34.2-12.4S118,33.3,117.5,58.4z"/>
					<path class="st4" d="M122.1,50.7c0,0-20.2,8.7-38.2-3.2s-25.7-25-25.7-25S76.8,4,92.4,10.1S122.6,25.5,122.1,50.7z"/>
				</g>
			</g>
			<g>
				<path class="st2" d="M100.1,32.7c0,0-3.2,25.4-24.4,27.2c-12.7,1.1-19,8.8-25.4,9.4c-6.1,0.6-9.9-3.1-9.9-3.1
					s-4.5-23.8,9.4-32.4S79.7,19.1,100.1,32.7z"/>
				<g>
					<defs>
						<path id="SVGID_5_" d="M100.1,32.7c0,0-4.4,19.9-24.4,27.2c-9.1,3.3-19.2,8.6-25.4,9.4c-7.4,0.9-9.9-3.1-9.9-3.1
							s-4.5-23.8,9.4-32.4S79.7,19.1,100.1,32.7z"/>
					</defs>
					<use xlink:href="#SVGID_5_"  style="overflow:visible;fill:#4C3226;"/>
					<clipPath id="SVGID_6_">
						<use xlink:href="#SVGID_5_"  style="overflow:visible;"/>
					</clipPath>
					<path class="st5" d="M97.3,26c0,0-7.3,20.8-27.3,28.2s-32.3,5.3-32.3,5.3s-4.5-23.8,9.4-32.4S77,12.4,97.3,26z"/>
					<path class="st5" d="M93.6,18.5c0,0-4.4,19.9-24.4,27.2s-34.8,8.5-34.8,8.5s-4.9-26,9-34.6S73.2,4.9,93.6,18.5z"/>
				</g>
			</g>
			<path class="st2" d="M76.2,88.9c0,0-3.5,0-6.8,2.4C66,93.7,58.2,93,57.5,91.1c0,0,5,9.8,11.5,7.6c6.5-2.2,7.2-2.8,7.2-2.8
				s3.7,3.1,8.7,2.8c5-0.4,9.4-7.4,9.4-7.4s-3.9,2.4-9.1,0.7C80,90.4,79.8,88.4,76.2,88.9z"/>
			<path class="st2" d="M65.6,98.6c0,0-0.5,8,3,7.4c3.4-0.6,3.9-3.9,8.9-2.3c5,1.6,6.6,4.4,8,1.3c1.4-3.1,1.3-6.9,1.3-6.9
				s0.9-1.6,3.6-1.7s9.5-4.1,8.9-12.4h2.8c0,0-1.7,11.5-3.9,15.6c-3.8,6.9-11.1,16-22.1,16c-6.7,0-19.2-8-22.4-16.9
				c-2.5-7.2-4.2-15.2-4.2-15.2h3.9c0,0,2.7,12.7,5.8,12.8S65.2,96.9,65.6,98.6z"/>
			<ellipse class="st2" cx="65" cy="77.1" rx="2.2" ry="2.6"/>
			<ellipse class="st2" cx="88.2" cy="77" rx="2.2" ry="2.6"/>
			<path class="st2" d="M70.2,99.2c0,0,5.5,3.4,11.4,0.3"/>
			<path class="st2" d="M72.6,86.4c0,0,3.1,5.1,6.6,0.5"/>
		</g>
	</g>
	<g>
		<path class="st6" d="M60.4,108.2c-0.9,0.3-43.7,7.7-46.6,9.7s-5.3,4.7-6.4,9.1s-1.3,7.5-1.3,7.5h132.1c0,0-3.3-14.9-9.9-17.4
			c-6.6-2.5-43.7-7.8-43.7-7.8L60.4,108.2z"/>
		<rect x="53.1" y="92" class="st7" width="34.6" height="18.2"/>
		<ellipse class="st7" cx="70.4" cy="110.6" rx="17.3" ry="7"/>
		<ellipse class="st8" cx="71" cy="128.5" rx="1.8" ry="2.4"/>
		<g>
			<defs>
				<path id="SVGID_7_" d="M60.4,108.2c-0.9,0.3-43.7,7.7-46.6,9.7s-5.3,4.7-6.4,9.1s-1.3,7.5-1.3,7.5h132.1c0,0-3.3-14.9-9.9-17.4
					c-6.6-2.5-43.7-7.8-43.7-7.8L60.4,108.2z"/>
			</defs>
			<clipPath id="SVGID_8_">
				<use xlink:href="#SVGID_7_"  style="overflow:visible;"/>
			</clipPath>
			<rect x="27.6" y="110.8" class="st9" width="20.2" height="38.9"/>
			<rect x="92.5" y="105" class="st9" width="20.2" height="45.1"/>
		</g>
		<g>
			<path class="st10" d="M34.8,59.3c0,0,1.7,31.5,21.1,40.8l-8.5-21.9c0,0-2-15.3,1.1-22.2C51.7,49.1,34.8,59.3,34.8,59.3z"/>
			<path class="st10" d="M107.7,57.9c0,0-9.4,40.1-24.3,41.3L95,76.8c0,0-2-15.3-5.2-22.2C86.7,47.7,107.7,57.9,107.7,57.9z"/>
			<ellipse class="st7" cx="70.1" cy="68.8" rx="26.1" ry="35.5"/>
			<ellipse class="st7" cx="45.9" cy="69.7" rx="4.4" ry="7.4"/>
			<ellipse class="st7" cx="95.9" cy="69.7" rx="4.4" ry="7.4"/>
			<ellipse class="st11" cx="70.6" cy="63.7" rx="2" ry="2"/>
			<g>
				<path class="st11" d="M107.5,57.9c0,0-6.5,7.3-13.5,3.4c-8.4-4.6-21.5-3.6-29.4-7.4C45,44.7,43.6,29.7,43.6,29.7
					s18.6-18.5,34.2-12.4S108,32.7,107.5,57.9z"/>
				<g>
					<defs>
						<path id="SVGID_9_" d="M107.5,57.9c0,0-20.2,8.7-38.2-3.2s-25.7-25-25.7-25s18.6-18.5,34.2-12.4S108,32.7,107.5,57.9z"/>
					</defs>
					<clipPath id="SVGID_10_">
						<use xlink:href="#SVGID_9_"  style="overflow:visible;"/>
					</clipPath>
					<path class="st12" d="M111.9,51.5c0,0-20.2,8.7-38.2-3.2S48,23.3,48,23.3S66.6,4.8,82.2,10.9S112.4,26.3,111.9,51.5z"/>
					<path class="st13" d="M116.4,43.7c0,0-20.2,8.7-38.2-3.2s-25.7-25-25.7-25S71.1-2.9,86.7,3.2S116.9,18.6,116.4,43.7z"/>
				</g>
			</g>
			<g>
				<path class="st11" d="M94.4,25.8c0,0-3.2,25.4-24.4,27.2c-12.7,1.1-19,8.8-25.4,9.4c-6.1,0.6-9.9-3.1-9.9-3.1
					s-4.5-23.8,9.4-32.4S74,12.2,94.4,25.8z"/>
				<g>
					<defs>
						<path id="SVGID_11_" d="M94.4,25.8c0,0-4.4,19.9-24.4,27.2c-9.1,3.3-19.2,8.6-25.4,9.4c-7.4,0.9-9.9-3.1-9.9-3.1
							s-4.5-23.8,9.4-32.4S74,12.2,94.4,25.8z"/>
					</defs>
					<clipPath id="SVGID_12_">
						<use xlink:href="#SVGID_11_"  style="overflow:visible;"/>
					</clipPath>
					<path class="st14" d="M91.7,19c0,0-7.3,20.8-27.3,28.2S32,52.5,32,52.5s-4.5-23.8,9.4-32.4S71.3,5.4,91.7,19z"/>
					<path class="st15" d="M87.9,11.5c0,0-4.4,19.9-24.4,27.2s-34.8,8.5-34.8,8.5s-4.9-26,9-34.6S67.6-2.1,87.9,11.5z"/>
				</g>
			</g>
			<path class="st8" d="M70.5,82c0,0-3.5,0-6.8,2.4S52.6,86,51.8,84.2c0,0,5,9.8,11.5,7.6c6.5-2.2,7.2-2.8,7.2-2.8s3.7,3.1,8.7,2.8
				c5-0.4,9.4-7.4,9.4-7.4s-3.9,2.4-9.1,0.7C74.4,83.4,74.2,81.4,70.5,82z"/>
			<path class="st8" d="M60,91.7c0,0-0.5,8,3,7.4c3.4-0.6,3.9-3.9,8.9-2.3c5,1.6,6.6,4.4,8,1.3c1.4-3.1,1.3-6.9,1.3-6.9
				s0.9-1.6,3.6-1.7c2.7-0.2,9.5-4.1,8.9-12.4h2.8c0,0-1.7,11.5-3.9,15.6c-3.8,6.9-11.1,16-22.1,16c-6.7,0-19.2-8-22.4-16.9
				c-2.5-7.2-4.2-15.2-4.2-15.2h3.9c0,0,2.7,12.7,5.8,12.8S59.5,89.9,60,91.7z"/>
			<ellipse class="st8" cx="59.3" cy="70.1" rx="2.2" ry="2.6"/>
			<ellipse class="st8" cx="82.6" cy="70" rx="2.2" ry="2.6"/>
			<path class="st16" d="M64.5,92.3c0,0,5.5,3.4,11.4,0.3"/>
			<path class="st16" d="M66.9,79.4c0,0,3.1,5.1,6.6,0.5"/>
		</g>
	</g>
</g>
</svg>
