<?xml version="1.0" encoding="utf-8"?>
<!-- Generator: Adobe Illustrator 24.2.3, SVG Export Plug-In . SVG Version: 6.00 Build 0)  -->
<svg version="1.1" id="圖層_1" xmlns="http://www.w3.org/2000/svg" xmlns:xlink="http://www.w3.org/1999/xlink" x="0px" y="0px"
	 viewBox="0 0 50 50" style="enable-background:new 0 0 50 50;" xml:space="preserve">
<style type="text/css">
	.st0{fill:#FFFFFF;}
</style>
<path class="st0" d="M39.4,19.8h-9.2v-9.2c0-0.3-0.2-0.5-0.5-0.5h-9.4c-0.3,0-0.5,0.2-0.5,0.5v9.2h-9.2c-0.3,0-0.5,0.2-0.5,0.5v9.4
	c0,0.3,0.2,0.5,0.5,0.5h9.2v9.2c0,0.3,0.2,0.5,0.5,0.5h9.4c0.3,0,0.5-0.2,0.5-0.5v-9.2h9.2c0.3,0,0.5-0.2,0.5-0.5v-9.4
	C39.9,20,39.7,19.8,39.4,19.8z"/>
</svg>
