<?xml version="1.0" encoding="utf-8"?>
<!-- Generator: Adobe Illustrator 24.2.3, SVG Export Plug-In . SVG Version: 6.00 Build 0)  -->
<svg version="1.1" id="圖層_1" xmlns="http://www.w3.org/2000/svg" xmlns:xlink="http://www.w3.org/1999/xlink" x="0px" y="0px"
	 viewBox="0 0 50 50" style="enable-background:new 0 0 50 50;" xml:space="preserve">
<style type="text/css">
	.st0{fill:#FFFFFF;}
	.st1{fill:#A4CB51;}
</style>
<g>
	<g>
		<g>
			<g>
				<path class="st0" d="M29.8,13.2c-0.2,0.1-0.4,0.2-0.6,0.2h-8.4c-0.2,0-0.4-0.1-0.6-0.2c-4.9,4-11.6,13.2-11.6,18.9
					c0,5.4,1.6,8.7,5.1,11.7c1,0.9,2.4,1.3,3.7,1.3h15.1c1.4,0,2.7-0.5,3.7-1.3c3.5-2.9,5.1-6.3,5.1-11.7
					C41.4,26.3,34.7,17.2,29.8,13.2z M20.6,10.9c0.1,0,0.2,0,0.2,0h8.4c0.1,0,0.2,0,0.3,0L33,7.6c0.3-0.3,0.2-0.6-0.1-0.8l-1.2-0.6
					c-0.4-0.2-1-0.2-1.3-0.1l-1.6,0.5c-0.4,0.1-1,0-1.3-0.2l-1.8-1.3c-0.3-0.2-0.8-0.2-1.2,0l-1.8,1.3c-0.3,0.2-0.9,0.3-1.3,0.2
					l-1.6-0.5c-0.4-0.1-1-0.1-1.3,0.1l-1.2,0.6c-0.4,0.2-0.4,0.5-0.1,0.8L20.6,10.9z"/>
			</g>
		</g>
	</g>
	<g>
		<g>
			<path class="st1" d="M24.2,39.4v-2.5c-1.5,0-3-0.5-3.8-1.1l0.6-1.7c0.9,0.6,2.2,1.1,3.6,1.1c1.8,0,3-1,3-2.5c0-1.4-1-2.2-2.8-3
				c-2.6-1-4.1-2.2-4.1-4.3c0-2.1,1.5-3.7,3.8-4v-2.5h1.6v2.4c1.5,0.1,2.5,0.5,3.3,0.9l-0.6,1.7C28,23.5,27,23,25.3,23
				c-1.9,0-2.7,1.2-2.7,2.2c0,1.3,0.9,2,3.1,2.9c2.6,1.1,3.9,2.4,3.9,4.6c0,2-1.4,3.8-4,4.3v2.6H24.2z"/>
		</g>
	</g>
</g>
</svg>
