<?xml version="1.0" encoding="utf-8"?>
<!-- Generator: Adobe Illustrator 24.2.3, SVG Export Plug-In . SVG Version: 6.00 Build 0)  -->
<svg version="1.1" id="圖層_1" xmlns="http://www.w3.org/2000/svg" xmlns:xlink="http://www.w3.org/1999/xlink" x="0px" y="0px"
	 viewBox="0 0 116 98" style="enable-background:new 0 0 116 98;" xml:space="preserve">
<style type="text/css">
	.st0{fill:#E9A6A1;}
	.st1{fill:#404259;}
	.st2{fill:#F2E4A0;}
	.st3{fill:#F1BE5B;}
</style>
<g>
	<path class="st0" d="M112.2,38.8c-0.2-2.2-1.3-3-1.3-3l-7.2-1.7l-12-13.9c-0.4-2,2.1-8.2,3.2-10.4s14.2-8.6-0.1-8.3
		C80.6,1.7,75,10.8,75,10.8c-30.2-5.9-44.7,5.3-52.4,16.3c-1-0.8-3.5-2.6-4.2-3.1c-0.9-0.6-2.4-7.3-3.5-7.7c-1.2-0.4-2.7-0.8-2.9,0
		c-0.1,0.9,1.6,5.2,1.5,6c0,0-5-0.7-7.9,2.5c0,0-4.9,4.8,0.9,6.6s10.9-2.5,11-4.4l3.2,2.9c-2.2,3.6-3.7,7-4.8,9.7
		c-4.8,11.2,6.9,44.4,7.7,50.3c0.8,6,3.6,5.9,3.6,5.9s17.3,0.3,19.3,0.4s1.6-1.9,1.6-1.9l-1.6-8.9c0,0,2.4,0.8,6.6,1.5
		s12.8,0.2,13.5,0.3c0.7,0.1,1,3.7,1.2,5.7s2.7,2.3,2.7,2.3s17.1-0.1,19.3-0.1s1.4-1.4,1.4-1.4l-2.8-15.2c0,0,3-1.2,7-4.9
		c4-3.8,7.5-12.4,7.5-12.4s4.3-0.9,6.6-1.1c2.3-0.2,2.7-2,2.7-2S112.4,41,112.2,38.8z M7.8,28.5c0,0-0.2-4.2,6.3-3.5
		C14.1,25,12.1,29.8,7.8,28.5z"/>
	<ellipse transform="matrix(1 -7.191111e-03 7.191111e-03 1 -0.244 0.679)" class="st1" cx="94.3" cy="34.3" rx="2.1" ry="2.9"/>
	<path class="st1" d="M70,13.7c0,0,2,1,1.4,2.9c-0.2,0.7-1,0.9-3.7-0.3c-3.1-1.4-13.6-0.8-16.3,0.6c-2.5,1.3-4.4,0.5-4.1-1.1
		C47.8,13.5,58.9,7.5,70,13.7z"/>
</g>
<g>
	<g>
		<path class="st2" d="M82.5,38.2C78.7,22.6,62,14.1,47.1,20.3c-11.7,4.9-18.2,17.8-15.2,30.1C35.7,66,52.5,74.5,67.3,68.3
			C79,63.4,85.5,50.5,82.5,38.2z"/>
	</g>
	<g>
		<path class="st3" d="M78.7,39.6c-3-13.5-17.4-20.8-30-15.2c-9.3,4.1-14.6,14.5-12.4,24.4c3,13.5,17.4,20.8,30,15.2
			C75.6,59.9,80.9,49.6,78.7,39.6z"/>
	</g>
	<path class="st2" d="M68.8,45.8c-0.3-0.9-0.7-1.6-1.1-2.2c-0.5-0.6-1-1-1.6-1.4c-0.6-0.3-1.2-0.6-1.9-0.7c-0.7-0.1-1.5-0.2-2.3-0.3
		c-0.8,0-1.6,0-2.5,0.1c-0.3,0-0.7,0.1-1,0.1l-2.3-6.9c2.3-0.3,4,0.5,4.9,2.6l3.9-1.3c-0.4-1.1-1-2.1-1.8-2.8
		c-0.8-0.8-1.6-1.3-2.6-1.7s-2.1-0.5-3.4-0.5c-0.7,0-1.4,0.1-2.1,0.3l-1.1-3.4l-3.5,1.1l1.1,3.4c-0.7,0.3-1.3,0.7-1.9,1.1
		c-1,0.7-1.8,1.5-2.4,2.3c-0.6,0.8-1,1.8-1.1,2.7c-0.2,1-0.1,2,0.3,3c0.3,0.9,0.7,1.7,1.2,2.3s1.2,1.1,2,1.4
		c0.8,0.3,1.7,0.6,2.8,0.6c1,0.1,2.2,0.1,3.5-0.1l2.5,7.7c-0.1,0-0.2,0-0.4,0c-0.8,0-1.6-0.1-2.3-0.3s-1.3-0.6-1.9-1.1
		c-0.6-0.5-1-1.1-1.3-1.9l-3.8,1.2c0.5,1.3,1.1,2.3,1.9,3.2c0.8,0.9,1.7,1.5,2.8,1.9s2.3,0.6,3.7,0.6c0.7,0,1.5-0.1,2.3-0.3l1.2,3.6
		L64,59l-1-3.3c0.9-0.4,1.7-0.8,2.4-1.3c1-0.7,1.9-1.5,2.5-2.5c0.6-0.9,1-1.9,1.2-2.9C69.2,48,69.1,46.9,68.8,45.8z M53.9,41.7
		c-0.7,0-1.4-0.1-1.9-0.2c-0.5-0.1-0.9-0.3-1.2-0.6s-0.5-0.6-0.6-1C50,39.4,50,39,50.1,38.5c0.1-0.5,0.3-0.9,0.7-1.4
		c0.3-0.4,0.8-0.8,1.4-1.2c0.1-0.1,0.3-0.2,0.4-0.2l2,6.1C54.4,41.7,54.1,41.7,53.9,41.7z M65,49c-0.1,0.5-0.4,1.1-0.8,1.5
		c-0.4,0.5-0.9,0.9-1.5,1.3c-0.3,0.2-0.6,0.3-0.9,0.5l-2.3-7.1h0.1c1-0.1,1.9,0,2.6,0.1c0.7,0.1,1.3,0.3,1.7,0.6s0.7,0.8,0.9,1.4
		C65.1,47.9,65.2,48.4,65,49z"/>
</g>
</svg>
