<?xml version="1.0" encoding="utf-8"?>
<!-- Generator: Adobe Illustrator 24.2.3, SVG Export Plug-In . SVG Version: 6.00 Build 0)  -->
<svg version="1.1" id="圖層_1" xmlns="http://www.w3.org/2000/svg" xmlns:xlink="http://www.w3.org/1999/xlink" x="0px" y="0px"
	 viewBox="0 0 50 50" style="enable-background:new 0 0 50 50;" xml:space="preserve">
<style type="text/css">
	.st0{fill:#FFFFFF;}
	.st1{fill:#FAC22B;}
</style>
<g>
	<g>
		<path class="st0" d="M22.6,42.8C12,42.8,3.3,34,3.3,23.2S12,3.6,22.6,3.6S42,12.4,42,23.2S33.3,42.8,22.6,42.8z M22.6,5.6
			c-9.6,0-17.3,7.9-17.3,17.6s7.8,17.6,17.3,17.6S40,32.9,40,23.2S32.2,5.6,22.6,5.6z"/>
	</g>
	<g>
		<path class="st0" d="M21.2,42.3c-6.3-6.9-9.2-13.9-8.6-20.9C13.5,11,21.7,4.6,22,4.3l0.6-0.5l0.6,0.5C23.5,4.5,41,19.8,23.9,42
			l-1.3-1L21.2,42.3z M22.6,6.5c-1.9,1.7-7.3,7.3-7.9,15.1c-0.5,6.3,2.1,12.7,7.8,19.1C29,32,31,23.5,28.2,15.4
			C26.6,10.8,23.8,7.7,22.6,6.5z"/>
	</g>
	<g>
		<rect x="6.9" y="12.8" class="st0" width="31.2" height="2"/>
	</g>
	<g>
		<rect x="7.1" y="32.7" class="st0" width="31.2" height="2"/>
	</g>
	<g>
		<rect x="3.6" y="22.3" class="st0" width="37.5" height="2"/>
	</g>
	<g>
		<g>
			<g>
				<path class="st1" d="M44.7,26.9c0-5.2-4.2-9.5-9.3-9.5c-5.1,0-9.3,4.2-9.3,9.5c0,2.6,1,4.9,2.7,6.7l2.5,3.6l4.1,5.9l4.1-5.9
					l2.5-3.6C43.7,31.8,44.7,29.4,44.7,26.9z"/>
				<path class="st1" d="M35.4,46.4l-8.2-11.6c-2-2.1-3.2-5-3.2-7.9c0-6.3,5.1-11.5,11.3-11.5s11.3,5.1,11.3,11.5
					c0,3-1.1,5.8-3.2,7.9L35.4,46.4z M35.4,19.4c-4,0-7.3,3.3-7.3,7.5c0,2,0.8,3.8,2.1,5.3l0.2,0.2l5,7.1l5.2-7.3
					c1.4-1.4,2.1-3.3,2.1-5.3C42.7,22.7,39.4,19.4,35.4,19.4z"/>
			</g>
			<g>
				<path class="st0" d="M44.7,26.9c0-5.2-4.2-9.5-9.3-9.5c-5.1,0-9.3,4.2-9.3,9.5c0,2.6,1,4.9,2.7,6.7l2.5,3.6l4.1,5.9l4.1-5.9
					l2.5-3.6C43.7,31.8,44.7,29.4,44.7,26.9z"/>
			</g>
			<g>
				<ellipse class="st1" cx="35.3" cy="26.6" rx="6.8" ry="6.9"/>
			</g>
		</g>
		<g>
			<g>
				<path class="st0" d="M34.9,31.7v-1.3c-0.7,0-1.5-0.2-1.9-0.6l0.3-0.9c0.5,0.3,1.1,0.6,1.8,0.6c0.9,0,1.5-0.5,1.5-1.3
					c0-0.7-0.5-1.1-1.4-1.5c-1.3-0.5-2.1-1.1-2.1-2.2c0-1.1,0.7-1.9,1.9-2.1v-1.3h0.8v1.2c0.8,0,1.3,0.2,1.6,0.5l-0.3,0.8
					c-0.3-0.2-0.8-0.4-1.6-0.4c-1,0-1.3,0.6-1.3,1.1c0,0.7,0.5,1,1.6,1.5c1.3,0.5,2,1.2,2,2.4c0,1-0.7,2-2,2.2v1.3H34.9z"/>
			</g>
		</g>
	</g>
</g>
</svg>
