<?xml version="1.0" encoding="utf-8"?>
<!-- Generator: Adobe Illustrator 24.2.3, SVG Export Plug-In . SVG Version: 6.00 Build 0)  -->
<svg version="1.1" id="圖層_1" xmlns="http://www.w3.org/2000/svg" xmlns:xlink="http://www.w3.org/1999/xlink" x="0px" y="0px"
	 viewBox="0 0 1556 500" style="enable-background:new 0 0 1556 500;" xml:space="preserve">
<style type="text/css">
	.st0{fill:#EBECED;}
	.st1{fill:#FFDA86;}
	.st2{fill:#FFFFFF;}
	.st3{fill:#939393;}
	.st4{fill:#777979;}
	.st5{fill:#7A7A7B;}
	.st6{fill:#E5E5E4;}
	.st7{fill:#AFAFB0;}
	.st8{fill:#404259;}
	.st9{fill:#8696A6;}
	.st10{fill:#7A7B7B;}
	.st11{fill:#36373F;}
	.st12{fill:#D4E1E8;}
	.st13{fill:#21202B;}
	.st14{fill:#B1BFB2;}
	.st15{fill:#725754;}
	.st16{fill:#E6F1F7;}
	.st17{fill:#666A82;}
	.st18{fill:#E9A6A1;}
	.st19{fill:#5C3243;}
	.st20{fill:#EDCBAB;}
	.st21{fill:#5E65B5;}
	.st22{fill:#1F2144;}
	.st23{fill:#CC6C59;}
	.st24{fill:#BD7764;}
	.st25{fill:#F5DFD5;}
</style>
<g>
	<g>
		<path class="st0" d="M412.7,133.7l-44.3-76.6V21.8h8.3c2.6,0,4.8-2.1,4.8-4.8c0-2.6-2.1-4.8-4.8-4.8h-51.5c-2.6,0-4.8,2.1-4.8,4.8
			c0,2.6,2.1,4.8,4.8,4.8h5.1v35.5l-44.2,76.5c-1.3,2.3-1.3,5.2,0,7.5s3.8,3.8,6.5,3.8h113.5c2.7,0,5.2-1.4,6.5-3.8
			S414,136.1,412.7,133.7z"/>
		<g>
			<path class="st1" d="M393.4,137.2c4,0,6.8-7.6,4.2-12l-33-59c-7.6,9.4-27.8-5.4-30.4,0l-33,59c-2.6,4.5,0.2,12,4.2,12H393.4z"/>
			<path class="st2" d="M348.3,71.4c0,1.5-1.2,2.6-2.6,2.6c-1.5,0-2.6-1.2-2.6-2.6c0-1.5,1.2-2.6,2.6-2.6
				C347.1,68.7,348.3,69.9,348.3,71.4z"/>
			<path class="st2" d="M344,107.9c0,4.4-3.6,7.9-7.9,7.9c-4.4,0-7.9-3.6-7.9-7.9c0-4.4,3.6-7.9,7.9-7.9
				C340.5,99.9,344,103.5,344,107.9z"/>
			<circle class="st2" cx="359.5" cy="90.5" r="3.6"/>
			<path class="st1" d="M343.5,60.6c0-1.6,1.3-2.9,2.9-2.9c1.6,0,2.9,1.3,2.9,2.9c0,1.6-1.3,2.9-2.9,2.9
				C344.8,63.5,343.5,62.2,343.5,60.6z"/>
			<path class="st1" d="M360.3,40.7c0-2.3-1.9-4.2-4.2-4.2c-2.3,0-4.2,1.9-4.2,4.2c0,2.3,1.9,4.2,4.2,4.2
				C358.4,44.9,360.3,43,360.3,40.7z"/>
			<path class="st1" d="M334.9,27.6c0-4,3.3-7.3,7.3-7.3c4,0,7.3,3.3,7.3,7.3c0,4-3.3,7.3-7.3,7.3C338.2,34.9,334.9,31.6,334.9,27.6
				z"/>
		</g>
		<path class="st3" d="M397.5,45.5h-112c-1.6-5.7-6.1-10.2-11.9-11.8v-32h-9.3v32c-7.2,2-12.5,8.7-12.5,16.5
			c0,7.9,5.3,14.5,12.5,16.5v417.5h9.3V66.8c5.8-1.6,10.3-6.2,11.9-12h111.9V45.5z M269,58.9c-4.8,0-8.6-3.9-8.6-8.6
			s3.9-8.6,8.6-8.6c4.8,0,8.6,3.9,8.6,8.6S273.8,58.9,269,58.9z"/>
		<rect x="251.8" y="479.4" class="st4" width="182.4" height="19.6"/>
		<rect x="321.8" y="43.1" class="st5" width="58" height="14.7"/>
	</g>
	<g>
		<path class="st6" d="M241.4,355.3v63c-34.8,4.4-71.2-6.6-97.8-33.3c-45.7-45.7-45.7-120,0-165.7l-24.6-24.6
			c-59.2,59.2-59.2,155.6,0,214.9c29.6,29.6,68.5,44.4,107.4,44.4s77.8-14.8,107.4-44.4v-54.3H241.4z"/>
		<path class="st7" d="M125.6,242.5c4.9-8.3,10.9-16,18-23.1l-24.6-24.6c-7.1,7.1-13.4,14.7-18.8,22.8c0,0,1,8.2,8.9,15.5
			C117.1,240.4,125.6,242.5,125.6,242.5z"/>
		<g>
			
				<rect x="138.3" y="66.9" transform="matrix(0.7071 -0.7071 0.7071 0.7071 -73.6066 172.594)" class="st6" width="66.5" height="216.4"/>
			
				<rect x="30.5" y="4.9" transform="matrix(0.7071 -0.7071 0.7071 0.7071 -23.8985 52.588)" class="st8" width="42.1" height="100.6"/>
			
				<rect x="57.8" y="89" transform="matrix(0.7071 -0.7071 0.7071 0.7071 -40.2688 92.1155)" class="st9" width="66.5" height="11.2"/>
			
				<rect x="221.1" y="249" transform="matrix(0.7071 -0.7071 0.7071 0.7071 -107.9164 255.4241)" class="st9" width="66.5" height="17.9"/>
			
				<rect x="254.2" y="259.5" transform="matrix(0.7071 -0.7071 0.7071 0.7071 -115.3165 273.2838)" class="st8" width="36.1" height="32.7"/>
			<path class="st6" d="M112.4,229.6l0.5,0.5c13.8,13.8,36.1,13.8,49.8,0l8.4-8.4l-50.3-50.3l-8.4,8.4
				C98.6,193.5,98.6,215.9,112.4,229.6z"/>
			
				<rect x="135.8" y="165.2" transform="matrix(0.7071 -0.7071 0.7071 0.7071 -100.4479 159.0456)" class="st7" width="11.8" height="71.2"/>
			<path class="st10" d="M120.6,209.7c-3.3,3.3-3.3,8.8,0,12.1c3.3,3.3,8.8,3.3,12.1,0c3.3-3.3,3.3-8.8,0-12.1
				C129.4,206.4,124,206.4,120.6,209.7z"/>
		</g>
		<rect x="241.4" y="355.3" class="st7" width="92.4" height="11.4"/>
		<rect x="189.6" y="341.5" class="st11" width="198" height="13.9"/>
		<path class="st6" d="M123.8,484h203.9v-0.3c0-16.4-22.4-29.6-49.9-29.6H173.7c-27.6,0-49.9,13.3-49.9,29.6V484z"/>
		<rect x="110.5" y="484" class="st11" width="230.4" height="15.1"/>
	</g>
	<g>
		<g>
			<g>
				<g>
					<path class="st2" d="M572.5,486.2c0,0,9.7-13.1-1.1-45.2H375.7c0,0,15.6,12.9,2.1,45.2H572.5z"/>
				</g>
				<g>
					<path class="st12" d="M568.8,453.9c1.8,0,3.2,1.8,3.2,3.6c0,1.8-1.4,2.8-3.2,2.8h-69.7h0c-1.8,0-3.2-1.9-3.2-3.7
						c0-1.8,1.4-2.8,3.2-2.8L568.8,453.9L568.8,453.9z"/>
				</g>
				<g>
					<path class="st12" d="M569.3,466.8c1.5,0,2.7,1.8,2.7,3.6c0,1.8-1.2,2.8-2.7,2.8h-58.9h0c-1.5,0-2.7-1.9-2.7-3.7
						c0-1.8,1.2-2.8,2.7-2.8L569.3,466.8L569.3,466.8z"/>
				</g>
				<g>
					<path class="st13" d="M570.3,488.8l-0.9-49c0,0,18.6,8.6,18.1,23.7C587,478.6,570.3,488.8,570.3,488.8z"/>
				</g>
				<path class="st14" d="M593.5,463.3c-0.5-10-5.5-19-14.8-26.7c-1.2-1-2.7-1.5-4.1-1.5c-0.7,0-1.4,0.1-2.1,0.4
					c-1-0.6-2.1-0.9-3.3-0.9H375.7c-3.6,0-6.5,2.9-6.5,6.5s2.9,6.5,6.5,6.5h193.5c0.7,0,1.4-0.1,2-0.3c5.9,5.1,9.1,10.7,9.4,16.7
					c0.6,11.7-9.3,21.9-9.5,22.1c-0.1,0.1-0.3,0.3-0.4,0.4c-0.5-0.1-1-0.2-1.5-0.2H375.7c-3.6,0-6.5,2.9-6.5,6.5
					c0,3.6,2.9,6.5,6.5,6.5h193.5c2,0,3.8-0.9,5-2.3c2.1,0.5,4.4-0.1,6-1.7C580.8,494.4,594.3,480.7,593.5,463.3z"/>
				<g>
					<path class="st12" d="M466.1,466.8c1.5,0,2.7,1.8,2.7,3.6c0,1.8-1.2,2.8-2.7,2.8h-58.9h0c-1.5,0-2.7-1.9-2.7-3.7
						c0-1.8,1.2-2.8,2.7-2.8L466.1,466.8L466.1,466.8z"/>
				</g>
			</g>
			<g>
				<g>
					<path class="st2" d="M359.5,421.9c0,0-9.7-13.1,1.1-45.2h195.7c0,0-15.6,12.9-2.1,45.2H359.5z"/>
				</g>
				<g>
					<path class="st12" d="M363.1,389.7c-1.8,0-3.2,1.8-3.2,3.6c0,1.8,1.4,2.8,3.2,2.8h69.7h0c1.8,0,3.2-1.9,3.2-3.7
						c0-1.8-1.4-2.8-3.2-2.8L363.1,389.7L363.1,389.7z"/>
				</g>
				<g>
					<path class="st12" d="M362.6,402.6c-1.5,0-2.7,1.8-2.7,3.6c0,1.8,1.2,2.8,2.7,2.8h58.9h0c1.5,0,2.7-1.9,2.7-3.7
						c0-1.8-1.2-2.8-2.7-2.8L362.6,402.6L362.6,402.6z"/>
				</g>
				<g>
					<path class="st13" d="M361.6,424.6l0.9-49c0,0-18.6,8.6-18.1,23.7C345,414.4,361.6,424.6,361.6,424.6z"/>
				</g>
				<g>
					<path class="st15" d="M556.2,370.3H362.7c-3.6,0-6.5,2.9-6.5,6.5s2.9,6.5,6.5,6.5h193.5c3.6,0,6.5-2.9,6.5-6.5
						S559.8,370.3,556.2,370.3z"/>
				</g>
				<g>
					<path class="st15" d="M556.2,421.9H362.7c-3.6,0-6.5,2.9-6.5,6.5c0,3.6,2.9,6.5,6.5,6.5h193.5c3.6,0,6.5-2.9,6.5-6.5
						C562.7,424.8,559.8,421.9,556.2,421.9z"/>
				</g>
				<g>
					<path class="st15" d="M357.3,370.9c-1.4,0-2.9,0.5-4.1,1.5c-9.3,7.7-14.3,16.7-14.8,26.7c-0.8,17.5,12.7,31.2,13.2,31.8
						c2.5,2.5,6.6,2.5,9.1,0c2.5-2.5,2.5-6.6,0-9.1c-0.2-0.2-10.1-10.4-9.5-22.1c0.3-6.2,3.7-12,10.1-17.3c2.8-2.3,3.1-6.3,0.9-9.1
						C361,371.7,359.2,370.9,357.3,370.9z"/>
				</g>
				<g>
					<path class="st12" d="M465.8,402.6c-1.5,0-2.7,1.8-2.7,3.6c0,1.8,1.2,2.8,2.7,2.8h58.9h0c1.5,0,2.7-1.9,2.7-3.7
						c0-1.8-1.2-2.8-2.7-2.8L465.8,402.6L465.8,402.6z"/>
				</g>
			</g>
			<g>
				<g>
					<g>
						<path class="st16" d="M558,360.3c0,0,3.1-10.4-0.9-36.4H399.5c0,0,12.6,10.4,1.7,36.4H558z"/>
					</g>
				</g>
				<g>
					<g>
						<path class="st12" d="M555.1,334.3c1.4,0,2.6,1.5,2.6,2.9c0,1.4-1.1,2.3-2.6,2.3h-56.2h0c-1.4,0-2.6-1.5-2.6-3
							c0-1.4,1.1-2.3,2.6-2.3L555.1,334.3L555.1,334.3z"/>
					</g>
				</g>
				<g>
					<g>
						<path class="st12" d="M555.5,344.7c1.2,0,2.2,1.5,2.2,2.9c0,1.4-1,2.3-2.2,2.3h-47.4h0c-1.2,0-2.2-1.5-2.2-3
							c0-1.4,1-2.3,2.2-2.3L555.5,344.7L555.5,344.7z"/>
					</g>
				</g>
				<g>
					<g>
						<path class="st13" d="M556.3,362.5l-0.7-39.5c0,0,15,7,14.6,19.1C569.7,354.2,556.3,362.5,556.3,362.5z"/>
					</g>
				</g>
				<path class="st17" d="M575,341.8c-0.4-8.1-4.4-15.3-11.9-21.5c-1-0.8-2.1-1.2-3.3-1.2c-0.6,0-1.2,0.1-1.7,0.3
					c-0.8-0.5-1.7-0.7-2.6-0.7h-156c-2.9,0-5.2,2.3-5.2,5.2c0,2.9,2.3,5.2,5.2,5.2h156c0.6,0,1.1-0.1,1.6-0.3
					c4.8,4.1,7.3,8.6,7.6,13.5c0.5,9.4-7.5,17.7-7.6,17.8c-0.1,0.1-0.2,0.2-0.3,0.4c-0.4-0.1-0.8-0.2-1.2-0.2h-156
					c-2.9,0-5.2,2.3-5.2,5.2c0,2.9,2.3,5.2,5.2,5.2h156c1.6,0,3-0.7,4-1.9c1.7,0.4,3.6,0,4.9-1.4C564.7,367,575.6,355.9,575,341.8z"
					/>
				<g>
					<g>
						<path class="st12" d="M472.3,344.7c1.2,0,2.2,1.5,2.2,2.9c0,1.4-1,2.3-2.2,2.3h-47.4h0c-1.2,0-2.2-1.5-2.2-3
							c0-1.4,1-2.3,2.2-2.3L472.3,344.7L472.3,344.7z"/>
					</g>
				</g>
			</g>
		</g>
	</g>
	<g>
		<path class="st18" d="M698.4,320.1c0,0,11.6-19.1,41.4-19.6c29.8-0.5,2.5,12.9,0.1,17.5c-2.4,4.5-7.7,17.5-6.8,21.7l25.2,29
			l15.1,3.5c0,0,2.4,1.8,2.8,6.3c0.3,4.5,0.3,40.6,0.3,40.6s-0.9,3.9-5.7,4.3c-4.8,0.3-13.8,2.2-13.8,2.2s-7.4,18.1-15.8,26
			S726.5,462,726.5,462l5.9,31.9c0,0,1.5,3-3,3c-4.5,0-40.3,0.3-40.3,0.3s-5.4-0.6-5.8-4.8c-0.3-4.2-1-11.7-2.5-12
			s-19.6,0.7-28.3-0.7c-8.7-1.4-13.9-3.2-13.9-3.2l3.4,18.6c0,0,0.9,4.2-3.3,3.9s-40.4-0.9-40.4-0.9s-6,0-7.6-12.4
			c-1.6-12.5-26.2-81.9-16.1-105.4C584.9,356.7,608.9,302.7,698.4,320.1z"/>
		<ellipse transform="matrix(1 -7.191483e-03 7.191483e-03 1 -2.6348 5.3208)" class="st8" cx="738.5" cy="369" rx="4.4" ry="6.2"/>
		<path class="st8" d="M687.6,325.8c0,0,4.3,2.1,2.9,6.1c-0.5,1.5-2.1,1.9-7.7-0.7c-6.4-2.9-28.5-1.6-34.1,1.4
			c-5.2,2.8-9.2,1.1-8.5-2.3C641.2,325.6,664.4,312.9,687.6,325.8z"/>
		<path class="st18" d="M555,363.2c12.1,3.8,22.8-5.3,23.1-9.2l8.8,7.8l5.3-3.9l-2.6-3.1c0,0-7.9-6-9.7-7.2
			c-1.8-1.2-4.9-15.3-7.3-16.2c-2.4-0.9-5.7-1.8-6,0c-0.3,1.8,3.4,10.8,3.1,12.6c0,0-10.5-1.4-16.5,5.2
			C553.1,349.4,542.9,359.4,555,363.2z M570.5,349.6c0,0-4.1,10-13.2,7.3C557.4,356.9,557,348.2,570.5,349.6z"/>
	</g>
	<g>
		<path class="st19" d="M472.9,267.2c0.1,0.1,0.2,0.1,0.3,0.2c0.6,0.3,1.2,0.7,1.8,1C474.2,268,473.6,267.6,472.9,267.2z"/>
		<path class="st20" d="M507.2,348.4c1.3-0.1,2.6-0.2,3.9-0.3c1.8,5,3.5,9.9,5.2,14.9c2.2,6.6,4.3,13.2,6.3,19.8
			c1.1,3.8,2.2,7.5,3.3,11.3c0,0,0,0.1-0.1,0.1c-1.6,0.4-3.2,0.9-4.8,1.3c0,0-0.1,0-0.1,0c-4.3-6.9,0.3-0.1-3.9-10.6
			c-3.2-8-13.5-27.2-17.7-34.7c-0.3-0.5-0.6-1.1-0.9-1.6C501.5,348.7,504.4,348.6,507.2,348.4z"/>
		<path class="st20" d="M477.1,345.6c0.6,1.2,1.2,2.3,1.8,3.5c-3.9,3.6-7.8,5.4-11.7,8.9c-5.2,4.6-17.5,16.1-21.4,20
			c0,0-3.5,2.9-3.5,2.9c-1-1.3-2.1-2.6-3.1-3.9c0,0,0-0.1,0-0.1c4.7-6.7,15.6-20.4,21.3-26.2c6-6.2,6.5-4.7,11.9-11.5
			c0.4-0.5,0.7-0.9,1.1-1.4C474.5,340.5,475.7,343.1,477.1,345.6z"/>
		<path class="st2" d="M426.8,270.7c8.6,0.9,17.1,2.4,25.7,3c1.4,4,2.6,9.8,7.9,9.6c8.9,1.2,18.3,1.8,27.3,1.9
			c5.6-0.6,8.6,3.8,10.4,8.4c6.2,12.4,11.8,25.1,16.7,38.1c1,4.5,13.3,32.8,9.1,33.4c-11.3,2-23,3-34.3,2.3
			c2.8-7.5-3.1-13.9-3.2-21.1c-5.8,8.2-11.5,16.5-17.5,24.5c-7.7-4.6-16.1-11.1-20.2-19c1.8-2.8,3.5-5.7,4.6-8.9
			c3-5.5,8.7-8.8,11.4-14.4c1.7-5.8,2.6-11.7,8.7-14.6c-0.1-0.7-0.3-1.3-0.6-1.9c-46.2,0-47.9,7.8-50.7-42.1
			C423.7,270.3,425.2,270.5,426.8,270.7z"/>
		<path class="st21" d="M411.1,238.6c0.7-3.5,1.9-9.2,3.8-12.3c1.8-2.9,3.3-5,6.3-7c1.6-1.1,5.7-4.9,19.1-6.8
			c0.7-0.1,1.4,0.1,2.2,0.3c0-0.1,0.1-0.2,0.2-0.1c0.1,0.1,0.2,0.1,0.2,0.2c0,0,0,0,0,0c0.1,0,0.1,0.1,0.1,0.1
			c0.3,0.3,0.6,0.5,0.9,0.8c2.7,2.3,9.9,5.9,14.9,13.9c1.9,3.1,7.1,19.1,7.7,22.7c0.4,1.9,0.9,3.7,1.7,5.4c0.8,1.7,1.7,3.2,2.6,4.8
			c0.8,1.6,1.4,3.2,1.8,5c0.2,0.8,0.4,1.7,0.7,2.5c0.4,1,1,1.7,1.6,2.5c0.4,0.6,0.8,1.2,1,1.8c-1,0.3-2,0.7-3,1.1
			c-2,0.4-4,0.2-6,0.6c-0.5,0.1-1,0.3-1.5,0.5c-3.8-3.8-7.2-7.9-10.5-12.1c-0.6,2.1-0.4,4.3-0.4,6.5c0.1,2.4-0.2,4.7-0.8,7
			c-0.1,0.3-0.6,0.3-0.7,0.1c-6.4-0.5-29.2-2.1-29.6-2.4c-1.3,0.8,1.4-8.5-1-6.9c-2.5,1.6-12.3,11.5-12.7,2c-0.2-4.1-1.1-1.8-1-5.9
			C409,254.8,409.6,246.6,411.1,238.6z"/>
		<path class="st19" d="M424.1,205.6c0.3,1,1.2,1.9,2.2,1.8c0.1,0,0.2,0,0.3-0.1c0.4,1.2,1.3,2.1,2.4,2.6c1.9,0.8,3.8,0.3,5.4-0.8
			c0.1,0,0.1-0.1,0.2-0.2c0.3-0.3,0.6-0.5,0.9-0.9c0,0,0,0,0,0c0.9-1,1.5-2.2,2-3.5c0-0.1,0.1-0.2,0.1-0.3c0-0.1,0.1-0.3,0.1-0.4
			c0.1-0.3,0.2-0.7,0.3-1.1c0.3,0.4,0.7,0.7,1.1,1.1c0,0,0,0,0.1,0.1c2.1,1.9,4.5,3.5,6.9,5c0.3,0.2,0.6,0.4,0.9,0.5
			c0,0,0.1,0,0.1,0.1c0.8,0.4,1.7,0.7,2.6,0.6c0.4,0,0.7-0.1,1.1-0.2c0.3,0.3,0.6,0.7,0.9,1c0.7,0.6,1.4,1.2,2.4,1.4
			c0,0,0.1,0,0.1,0c0.6,0.2,1.3,0.2,1.9,0c0.3-0.1,0.6-0.2,0.9-0.4c0.3-0.2,0.6-0.6,1-0.8c0.8-0.6,1.7-0.2,2.5,0.2
			c0.7,0.3,1.4,0.6,2.1,0.5c1.2-0.1,2.2-0.9,2.8-1.9c1.4,0.2,2.9,0.1,4.1-0.6c1.7-1,2.2-3,2.1-4.9c0-2-0.6-4-1.5-5.8
			c-0.9-1.9-2.4-3.3-3.6-5c-0.6-0.9-1.2-1.8-1.5-2.8c-0.4-1.1-0.6-2.2-0.7-3.3c0-0.1,0.1-2,0.3-2.9c0.2-1.4,0.3-2.8-0.1-4.3
			c-0.7-2.5-2.4-4.6-4.7-5.9c-1.2-0.7-2.5-1.2-3.9-1.5c-1.5-0.4-3-0.7-4.5-1.4c-1.3-0.7-2.6-1.3-4-1.7c-1.4-0.4-2.8-0.5-4.3-0.3
			c-2.3,0.3-4.4,1.4-5.8,3.3c-2.6-0.9-5.4,0.7-6.9,2.8c-0.8,1.2-1.4,2.6-1.8,4c-0.5,1.6-0.9,3.2-1.1,4.8c-0.2,1.6-0.3,3.3-0.1,4.9
			c0.2,1.7,0.6,3.4,0.6,5.1c0,0.5,0,0.9-0.2,1.3c-0.2,0.4-0.5,0.7-0.8,1c-0.5,0.5-1,0.9-1.4,1.4c-0.8,1-1.4,2.3-1.7,3.6
			C423.7,202.9,423.6,204.4,424.1,205.6z"/>
		<path class="st20" d="M433,216.6c0.1,0.4,0.5,0.4,0.8,0.5c1.2,0.2,2.4,0.5,3.6,0.7c2.4,0.4,4.8,0.8,7.2,1.1c0,0,0.1,0,0.1-0.1
			c0.3-1.2,0.6-2.4,0.9-3.6c0,0,0-0.1,0-0.1c0.2-0.7,0.3-1.4,0.5-2.1c0.1-0.5,0.2-0.9,0.3-1.4c0.1-0.4,0.2-0.8,0.3-1.3
			c0-0.2,0.1-0.4,0.1-0.6c0-0.1,0-0.2,0.1-0.3c0.1-0.5,0.2-0.9,0.3-1.4c0.2-0.9,0.4-1.7,0.6-2.6c0.1,0.1,0.1,0.1,0.2,0.2
			c0.1,0.1,0.2-0.1,0.1-0.1c-0.1-0.1-0.2-0.1-0.3-0.2c0-0.2,0.1-0.3,0.1-0.5c0-0.1-0.1-0.1-0.1,0c0,0.1-0.1,0.3-0.1,0.4
			c-0.8-0.8-1.5-1.7-2.2-2.6c-0.9-1.1-1.7-2.2-2.6-3.3c-1-1.2-1.9-2.4-2.9-3.6c-0.5-0.6-1-1.2-1.4-1.8c0,0,0-0.1-0.1-0.1
			c0,0,0,0,0,0c-0.2-0.2-0.3-0.4-0.5-0.6c0,0,0,0,0,0c-0.1-0.1-0.1-0.2-0.2-0.2c0-0.1-0.1-0.1-0.1-0.2c0-0.1-0.1,0-0.1,0
			c0,0,0,0.1,0,0.1c0,0,0,0,0,0.1c0,0.1-0.1,0.2-0.1,0.3c0,0,0,0,0,0c-0.1,0.5-0.2,0.9-0.3,1.4c-0.1,0.3-0.1,0.6-0.2,0.9
			c-0.1,0.6-0.2,1.1-0.3,1.7c0,0.1,0,0.2,0,0.3c0,0.2-0.1,0.3-0.1,0.5c-0.2,0.9-0.3,1.9-0.5,2.8c-0.4,2.2-0.7,4.4-1.3,6.6
			c0,0.2-0.1,0.4-0.1,0.6c0,0.2-0.1,0.4-0.1,0.6c0,0,0,0.1,0,0.1c0,0.1,0,0.2-0.1,0.2c-0.1,0.4-0.2,0.8-0.3,1.2
			c-0.3,1.1-0.6,2.2-0.8,3.3c0,0.1,0,0.2-0.1,0.3c-0.1,0.4-0.1,0.8-0.2,1.2c0,0.1,0,0.1,0,0.2c0,0.1,0,0.2,0,0.3
			C432.9,215.9,432.9,216.3,433,216.6z"/>
		<path class="st20" d="M435.7,188c0,0.1,0,0.2,0,0.4c-0.1,1.5,0.1,3,0.2,4.4c0,0.1,0,0.2,0,0.2c0,0.2,0.1,0.4,0.1,0.6
			c0.2,1,0.3,2.1,0.6,3.1c0,0,0,0,0,0c0,0.2,0.1,0.3,0.1,0.5c0,0.2,0.1,0.3,0.1,0.5c0,0,0,0,0,0c0.3,1.3,0.7,2.5,1.2,3.7
			c0,0.1,0.1,0.2,0.1,0.3c0,0,0,0,0,0c0,0,0,0.1,0.1,0.1c0.3,0.7,0.6,1.3,1,1.9c0.4,0.6,0.8,1.1,1.3,1.6c1,1,2.1,1.8,3.3,2.6
			c0.9,0.6,1.9,1.1,2.9,1.6c0.1,0,0.2,0.1,0.2,0.1c0.3,0.2,0.7,0.3,1,0.4c1.2,0.4,2.5,0.8,3.8,0.7c0.3,0,0.5,0,0.8-0.1
			c0.6-0.1,1.1-0.3,1.5-0.6c0.8-0.5,1.4-1.3,2-2.1c0.8-1.3,1.4-2.7,2-4.1c0.6-1.5,1.2-3.1,1.6-4.7c0.4-1.6,0.4-3.2,0.4-4.8
			c0-0.6,0-1.2-0.1-1.8l0-0.6c0-0.6-0.1-1.3-0.1-1.9c0,0,0,0,0,0c0-0.2,0-0.5,0-0.7c0-0.8-0.1-1.5-0.2-2.3c-0.1-0.8-0.1-1.7-0.2-2.5
			c-0.1-0.7-0.1-1.5-0.2-2.2c-1.1-0.3-2.2-0.7-3-1.6c-0.5-0.6-0.9-1.2-1.6-1.6c-0.7-0.4-1.4-0.5-2.1-0.7c-0.3-0.1-0.6-0.1-0.8-0.2
			c-0.3-0.1-0.6-0.1-0.9-0.2c-0.4-0.1-0.8-0.1-1.2-0.2c-0.1,0-0.1,0-0.2,0c-2-0.2-3.9-0.1-5.8,0.6c-1.3,0.5-2.6,1.2-3.7,2.1
			c-1.2,0.9-2.3,1.9-3,3.2C436.1,185.2,435.8,186.6,435.7,188z"/>
		<path class="st22" d="M447.8,195c0,0.9,0.3,1.7,0.7,1.7c0.4,0,0.8-0.7,0.8-1.6s-0.3-1.7-0.7-1.7
			C448.2,193.4,447.9,194.1,447.8,195z"/>
		
			<ellipse transform="matrix(1.896082e-02 -0.9998 0.9998 1.896082e-02 254.8846 647.6707)" class="st22" cx="457.5" cy="194" rx="1.7" ry="0.7"/>
		<path class="st23" d="M449.2,203.3c0.6,1.3,1.5,2.5,3.7,2.5c1.7,0,2.9-1.5,3.3-2.9c0-0.1-0.1-0.1-0.2-0.1c0,0-0.2,0-0.4,0.1
			c-0.5,0.1-1.5,0.2-2.5,0.3c-1.1,0-2.3,0-3.2,0c-0.2,0-0.4,0-0.6-0.1C449.2,203.2,449.1,203.3,449.2,203.3z"/>
		<path class="st19" d="M455.8,187.7c0.3-0.3,1.7-0.4,1.7-0.4c0.7-0.1,1.4-0.1,2.2,0c0.3,0.6,0.6,1.1,1.1,1.7c0,0-0.1,0-0.1,0
			c-1-0.1-1.8-0.1-2.7-0.1c-0.6,0-1.4-0.1-1.8-0.4C455.7,188.3,455.6,187.9,455.8,187.7z"/>
		<path class="st19" d="M426.4,205.9c0.2,1.2,0.8,2.3,2,2.8c1.9,0.7,4.2,0.8,6.1-0.1c0.4-0.2,0.7-0.4,1-0.6c0.1-0.1,0.2-0.2,0.4-0.3
			c0.9-0.9,1.4-2,1.6-3.2c0-0.1,0-0.2,0.1-0.3c0.1-0.5,0.2-1,0.2-1.5c0-0.2,0-0.3,0.1-0.5c0-0.3,0.1-0.5,0.1-0.8
			c0.1-0.7,0.1-1.4,0.1-2.1c0-0.1,0-0.2,0-0.3c0-0.6,0-1.2,0-1.9c0-0.6,0-1.1,0.1-1.7c0.1-0.4,0.2-0.9,0.3-1.3c0,0,0,0,0,0
			c0,0,0,0,0-0.1c0-0.1,0.1-0.2,0.1-0.4c0,0,0,0,0,0c0,0,0,0,0,0c0.2-0.6,0.5-1.2,0.9-1.7c0,0,0.1-0.1,0.1-0.1
			c0.1-0.2,0.3-0.3,0.5-0.4c0.5-0.1,0.9-0.4,1.3-0.7c0.7-0.6,0.9-1.5,1.2-2.3c0.3-1,0.8-1.7,1.6-2.3c0.7-0.5,1.6-0.8,2.3-1.3
			c2.3-1.5,2.7-4.2,2.9-6.9c0-0.2,0-0.3,0-0.5c0-0.6,0.1-1.1,0.1-1.7c0.3,0.7,0.8,1.3,1.3,1.9c0.2,0.2,0.4,0.4,0.6,0.6
			c0.1,0.1,0.2,0.2,0.3,0.3c1.3,1.2,2.8,2.2,3.9,3.5c0.6,0.7,1.1,1.5,1.3,2.3c0.3,0.8,0.4,1.7,0.5,2.6l0,0.3c0.1,1,0.3,2,0.7,2.9
			c0,0,0,0,0,0c0.2,0.5,0.5,1,0.9,1.5c0.1,0.1,0.2,0.2,0.3,0.4c0.2,0.2,0.4,0.4,0.6,0.6c0.4,0.4,0.7,0.7,1.1,1.1
			c0.7,0.7,1.5,1.4,2.4,1.9c0,0,0.1,0,0.1,0c0.3-2.4,0.2-4.8-0.2-7.2c-0.2-1.1-0.4-2.1-0.6-3.2c-0.2-1-0.4-1.9-0.8-2.8
			c-0.8-1.6-2-3.1-3.3-4.3c-1.4-1.3-3-2.3-4.8-2.8c-1-0.3-2-0.5-3-0.7c-0.3,0-0.6-0.1-1-0.1c-0.2-0.1-0.4-0.1-0.6-0.2
			c0-0.1,0-0.3,0-0.4c0-0.1-0.1-0.1-0.1,0c0,0.1,0,0.3,0,0.4c-0.1,0-0.2,0-0.3-0.1c0,0,0-0.1,0-0.1c0-0.1-0.2-0.1-0.1,0
			c0,0,0,0.1,0,0.1c-0.6-0.1-1.1-0.1-1.7,0c0,0,0,0,0,0c-0.2,0-0.4,0-0.6,0c-1,0.1-2,0.3-2.9,0.6c-2,0.7-4,1.7-5.4,3.4
			c-1.4,1.7-2.5,3.7-3.3,5.7c-0.8,2-1.4,4-1.7,6.1c0,0,0,0.1,0,0.1c0,0,0,0,0,0c-0.6,0.3-1,0.8-1.5,1.3c-0.1,0.2-0.3,0.3-0.4,0.5
			c-0.6,0.9-1,2-1.2,3.2c-0.1,0.5-0.1,1.1-0.2,1.7c-1.9,1.3-3.2,3.2-3.8,5.4C426.4,203.5,426.3,204.8,426.4,205.9z M449.8,174.8
			L449.8,174.8c0.1-0.1,0.1-0.1,0.2,0C450,174.7,449.9,174.7,449.8,174.8C449.9,174.8,449.9,174.8,449.8,174.8z"/>
		<path class="st20" d="M436.3,197C436.3,197,436.3,197,436.3,197c0.1,0.1,0.2,0.3,0.3,0.5c0.1,0.1,0.1,0.2,0.2,0.2
			c0.4,0.5,0.8,1,1.3,1.3c0.1,0,0.1,0.1,0.2,0.1c0.2,0.1,0.3,0.1,0.5,0.1c0,0,0,0,0,0c0.2,0,0.3-0.1,0.4-0.3
			c0.2-0.3,0.3-0.6,0.4-0.9c0.1-0.4,0.3-0.8,0.4-1.2c0.1-0.3,0.1-0.5,0.2-0.8c0,0,0,0,0-0.1c0-0.1,0-0.1,0-0.2l0-0.1
			c0.1-1.1,0.1-2.3,0.1-3.3c0,0,0,0,0-0.1c0.5,0.1,1,0.1,1.4-0.3c0.2-0.1,0-0.4-0.2-0.2c-0.6,0.4-1.2,0.3-1.8,0.1
			c-0.5-0.2-1.1-0.4-1.6-0.5c-0.7-0.1-1.3,0.2-1.8,0.8c-0.2,0.2-0.3,0.5-0.4,0.7c-0.1,0.2-0.2,0.5-0.2,0.7
			C435.5,194.8,435.7,196,436.3,197z"/>
		<path class="st23" d="M453.7,193.7c-0.1-0.2,0.2-0.3,0.3-0.1c0.5,0.9,1.1,1.9,1.5,2.8c0.4,0.7,0.7,1.5,0.7,2.4
			c0,1.7-1.5,2-2.9,1.7c-0.2,0-0.2-0.3,0-0.3c0.7,0.1,1.5,0.2,2-0.2c0.7-0.6,0.6-1.6,0.3-2.4C455.2,196.2,454.4,194.9,453.7,193.7z"
			/>
		<path class="st23" d="M438.3,199.2c0.4,0.2,0.9,0.1,1.3,0c0.2-0.1,0.3,0.2,0.2,0.2c-0.5,0.2-1.1,0.3-1.6,0.1
			C438,199.4,438.2,199.1,438.3,199.2z"/>
		<path class="st2" d="M449.9,203.2c0.2,0.5,0.6,0.8,1.2,1.1c0.5,0.2,1.1,0.3,1.7,0.2c0.5,0,1-0.1,1.4-0.3c0.6-0.2,1.1-0.7,1.4-1.3
			c-0.5,0.1-1.5,0.2-2.5,0.3C452,203.3,450.8,203.3,449.9,203.2z"/>
		<path class="st19" d="M445.2,190.3c1,0.1,2-0.3,3-0.4c1-0.1,2,0.1,2.9-0.1c0.6-0.1,0.9-0.3,0.8-0.7c-0.1-0.4-0.8-0.6-1.4-0.8
			c-1.8-0.4-4.1-0.2-5.7,0.4C444.2,189.1,443.7,190.2,445.2,190.3z"/>
		<path class="st20" d="M466.6,275.8c-0.8-0.7-1.9-2.6-2.3-3c6.8-4.4,14.5-9.7,20.7-14.9c1.9-1.6,3.8-3.2,5.7-4.8c0,0,0.1,0,0.1,0
			c0.9,1.3,1.7,2.6,2.6,3.9c0,0,0,0.1,0,0.1c0,0,0,0.1,0,0.1c-3.3,4.2-10.6,12.9-15.3,18.3C474.6,279.2,470.3,279.1,466.6,275.8z"/>
		<path class="st20" d="M488.7,255c0.2,0.7,0.4,1.4,0.7,2.2c0.1,0.2,0.1,0.4,0.2,0.5c0.2,0.2,0.6,0.1,0.8,0.1c0.5,0,1.4,0,2.4,0
			c3.7,0,11.4-0.5,12.6-0.6c0,0,0,0,0,0c0.1,0,0.1,0,0.1,0c0,0,0,0,0,0c0.6-0.8,0.7-1.7,0.7-2.6c0-0.1,0-0.2,0-0.2
			c0-0.1,0-0.1-0.1-0.1c-0.1,0-0.2,0-0.2,0c-1.4,0-2.7,0-4.1-0.1c-0.2,0-0.3,0-0.5,0c-1.1-0.1-2.1-0.3-3.1-0.6
			c-0.3-0.1-0.6-0.2-1-0.4c-1.2-0.5-2.3-1-3.6-1.1c0,0,0,0,0,0c0,0,0,0,0,0c-1.7-0.1-3.4,0.5-4.4,1.9c-0.2,0.2-0.3,0.5-0.4,0.7
			c0,0,0,0,0,0C488.8,254.7,488.7,254.8,488.7,255C488.7,254.9,488.7,255,488.7,255z"/>
		<path class="st20" d="M505.1,255.6c0.1,0.5,0.2,1,0.2,1.5c0,0,0,0,0,0.1c0,0,0,0,0.1,0c0,0,0,0,0,0c0,0,0,0,0,0c0,0,0,0,0,0l0,0
			c0,0,0,0,0,0c0,0,0.1,0,0.1,0c0,0,0,0,0.1,0c0.1-0.1,0.1-0.1,0.2-0.2c0.8-0.6,1.6-1,2.5-1.4c0.5-0.2,0.9-0.4,1.4-0.6
			c0.4-0.2,0.8-0.3,1.2-0.6c0.3-0.2,0.4-0.5,0.5-0.9c0.1-0.5,0.2-0.9,0.3-1.4c0.2-0.9,0.6-1.9,1-2.8c0.2-0.4,0.6-1.3-0.2-1.4
			c-0.3,0-0.5,0.2-0.7,0.4c-0.3,0.3-0.6,0.6-0.8,0.9c-0.2,0.4-0.4,0.8-0.6,1.3c-0.2,0.5-0.4,0.9-0.6,1.4c-0.2,0.5-0.5,0.8-0.9,1.1
			c-0.4,0.2-0.8,0.4-1.2,0.5l-1.5,0.6l-0.1,0.1l-0.3,0.1l-0.2,0.1c-0.1,0.1-0.3,0.1-0.4,0.2C504.9,254.9,505.1,255.4,505.1,255.6z"
			/>
		<path class="st20" d="M490,254c0.1-0.2,0.2-0.3,0.3-0.5c0,0,0,0,0,0c0,0,0,0,0,0c0.5,0.4,1,0.9,1.4,1.3c0.2,0.3,0.5,0.5,0.7,0.8
			c0,0.1,0.1,0.1,0.1,0.2c0,0.1,0.1,0.1,0.2,0.2c0.1,0.1,0.1,0.1,0.2,0.1c0.4,0.2,1,0.2,1.4,0.3c0.5,0,1,0,1.5,0
			c0.7-0.1,1.3-0.2,2-0.5c0.3-0.1,0.5-0.2,0.7-0.3c1-0.5,1.8-1.2,2.8-1.4c0.1,0,0.3,0,0.4-0.1c0.6-0.1,1.5-0.3,1.5-1
			c0-1-1.6-0.6-2.2-0.6c-1.1,0.1-2.3,0.1-3.4,0c-1-0.1-2-0.3-3.1-0.5c-0.4-0.1-0.7-0.1-1.1-0.1c0,0,0,0,0,0c-0.6,0-1.1,0-1.6,0.2
			c-0.5,0.2-0.9,0.4-1.3,0.8c0,0,0,0,0,0c-0.1,0.1-0.2,0.2-0.3,0.3c-0.2,0.2-0.3,0.4-0.4,0.6C489.9,254,490,254,490,254z"/>
		<path class="st20" d="M445.9,246.5c-0.6-4.9-1.9-9.9-0.2-14.7c0.1-0.4,0.5-1.4,0-1.7c-1.9,1.5-2.4,6.4-2.8,9
			c-0.1,0-0.1-0.1-0.2-0.1c-0.6-3.2-0.1-6.5,0.9-9.6c0.1-0.3,0.1-1.4-0.4-1.3c-2.1,2.3-2.2,6.1-2.4,9.1c0,0,0,0,0,0
			c-1.2-3.3,0.9-7,0.3-10.1c-4.6,5.9-0.3,13.9-0.5,20.6c-7.7,6.2-16,11.9-24.5,16.9c2.4,3,4.9,5.9,7.1,9
			C427.3,269,448.1,251.2,445.9,246.5z"/>
		<path class="st24" d="M519.2,382.6c1.1-0.1,2.1-0.3,3.2-0.5c1.8,4.7,4.3,10.1,7.5,14c1.9,2.3,9.9,9.6,10.3,10.1
			c0.4,0.4,0.7,0.9,0.7,1.4c0,0.5-0.4,0.9-0.8,1c-0.6,0.2-1.3,0.3-2,0.5c-1.5,0.3-2.1,0.4-3.6,0.2c-3-0.2-5.3-2.3-6.1-3.3
			c-0.9-1.1-2-2-3.2-2.9c-1.2-0.9-2.4-1.7-3.5-2.6c-1.8-1.5-3.3-2.7-3.7-5.2c-0.3-1.5,0.3-3.8,0.2-5.3c0-1.5-1.7-5.8-1.9-6.5
			c0-0.3-0.1-0.5-0.1-0.8C517.2,382.8,518.2,382.7,519.2,382.6z"/>
		<path class="st24" d="M435.3,383.2c0.7,1,1.5,1.9,2.3,2.9c0.8,1.1,1.4,2.3,2.1,3.5c1,1.9,1.9,4.1,3.9,5.2c1,0.5,2.1,0.8,3.2,1
			c1.2,0.3,2.3,0.6,3.5,1.1c0.4,0.2,0.9,0.4,1.4,0.2c0.3-0.1,0.6-0.5,0.6-0.9c-0.1-0.4-0.5-0.8-0.8-1.1c-0.3-0.3-0.7-0.7-1-0.9
			c-1.6-1.3-3.5-2.1-4.9-3.6c-0.8-0.9-1.3-2-1.7-3.1c-0.4-1.3-0.7-2.6-0.8-4c-0.1-0.7-0.1-1.4,0.1-2.1c0.2-0.7,0.6-1.2,1.1-1.7
			c0.5-0.5,5.1-4.5,6.7-6.4c0,0,0-0.1,0-0.1c0,0-0.1-0.1-0.1-0.1c-1.1-0.9-2.2-1.7-3.3-2.6c-0.5-0.4-1-0.8-1.5-1.2
			c-0.2-0.1-0.4-0.4-0.6-0.5c-0.1,0-0.1,0-0.2,0c0,0,0,0,0,0c-0.2,0.1-0.3,0.3-0.4,0.4c-0.2,0.2-0.4,0.4-0.6,0.6
			c-0.4,0.4-0.7,0.8-1.1,1.2c-0.7,0.9-2.3,3-2.4,3.1c-1.1,0.7-2.2,1.3-3.3,1.7c-0.9,0.4-1.9,0.7-2.6,1.5
			C433.2,379.1,434.1,381.6,435.3,383.2z"/>
		<path class="st21" d="M430.6,219.7c1.3,1.3,3.1,2.2,4.9,2.9c1,0.4,2,0.7,3.1,1c1,0.3,2.1,0.5,3.1,0.4c0.8-0.1,1.7-0.3,2.3-0.8
			c0.7-0.5,0.9-1.4,1.5-2c0.5-0.6,1.2-1.1,1.4-1.9c0.1-0.3,0.1-0.5,0.3-0.7c0.1-0.1,0.3-0.2,0.4-0.3c0.2-0.1,0.3-0.2,0.4-0.4
			c0.1,0.1,0.1,0.1,0.2,0.2c0,0,0.1,0,0.1,0c0.3,0.4,0.8,0.7,1.2,1.1c0.7,0.6,1.5,1.2,2.3,1.8c-0.1-0.1-1.9-1.6-2.8-2.4c0,0,0,0,0,0
			c-0.4-0.4-0.8-0.8-1-1.3c0-0.2,0-0.3,0-0.5c0.1-0.3,0.3-0.6,0.4-0.9c0.1-0.4-0.1-0.9-0.2-1.4c-0.1-0.3-0.1-0.9-0.4-1
			c0,0,0,0-0.1,0c-0.2-0.1-0.4-0.1-0.6-0.1c-0.3-0.1-0.6-0.1-0.9-0.2c0,0-0.1,0-0.1,0c-0.7-0.2-1.4-0.3-2.1-0.5
			c-2.4-0.5-4.8-1.1-7.2-1.6c-0.6-0.1-1.3-0.3-1.9-0.4c-0.3-0.1-0.5-0.1-0.8-0.2c-0.3-0.1-0.5-0.1-0.8-0.1c-0.1,0-0.1,0-0.2,0
			c-0.2,0-0.3,0.1-0.4,0.3c-0.1,0.1,0,0.3-0.1,0.4c0,0.2-0.1,0.4-0.2,0.6c-0.3,0.4-0.7,0.7-1.2,0.9c-0.2,0.1-0.4,0.3-0.4,0.6
			c0,0.2,0.2,0.4,0.3,0.6c0.1,0.3,0,0.5-0.1,0.8c0,0.1-0.1,0.2-0.1,0.2c-0.2,0.3-0.5,0.6-0.7,0.9c0,0,0,0,0,0
			C428.9,216.8,429.4,218.4,430.6,219.7z"/>
		<path class="st21" d="M456.6,263.4c2.8,0,5.6,0.7,8.4,1.3c0.7,0.2,1.3,0.3,2,0.5c0.7,0.2,1.5,0.4,2.2,0.3c0.6-0.1,1.1-0.3,1.7-0.3
			c0.5-0.1,0.9-0.2,1.3-0.4c0,0,0.1,0,0.1,0c0.3,0.1-0.2-0.6,0.1-0.5c0.3,0.6,1.4,1.4,1.9,1.4c0,0,0.1,0.1,0.1,0.1
			c-1.4,4.2-1.5,8.6-2,13c0,0.1-0.1,0.1-0.1,0c-1.3-1-3.2-0.3-4.6-1.3c-0.3-0.2-0.5-0.5-0.7-0.8c-0.3-0.4-0.7-0.6-1.1-0.7
			c-0.7-0.2-1.4-0.2-2-0.7c-0.5-0.5-0.6-1.2-0.9-1.8c-0.3-0.8-0.9-1.3-1.5-1.8c-0.5-0.5-0.9-1-1.2-1.7c-0.1-0.3-0.2-0.7-0.4-1
			c-0.2-0.5-0.5-0.8-0.9-1.2C457.6,266.7,456.7,265.2,456.6,263.4C456.5,263.4,456.6,263.4,456.6,263.4z"/>
		<path class="st21" d="M409,250.7c0,0.7,0.1,1.3,0.3,2c0.1,0.2,0.1,0.5,0.1,0.7c0,0.2,0,0.4,0,0.5c0,0.4-0.1,0.7-0.2,1.1
			c0,0.2-0.1,0.4-0.2,0.6c-0.1,0.4-0.2,0.8-0.3,1.2c-0.1,0.5-0.1,1.1,0,1.6c0,0.4,0.1,0.7,0.1,1.1c0,0.1,0,0.2,0,0.2c0,0,0,0,0,0
			c0.1,0.7,0,1.3-0.1,2c0,0.2-0.1,0.4-0.1,0.6c0,0.1,0,0.3-0.1,0.4c-0.2,1.1-0.3,2.1-0.3,3.2c0.1,1,0.3,2,0.4,3c0.1,1-0.1,2-0.1,3
			c0,0.4,0.1,0.8,0.2,1.2c0.3,1.1,1,2.1,2,2.7c0.4,0.3,0.9,0.4,1.3,0.6c0.3,0.1,0.6,0.3,0.8,0.5c0.1,0.1,0.2,0.2,0.3,0.3
			c0.7,0.5,1.3,0.8,2.2,0.8c0.5,0,1-0.1,1.5-0.2c0.5,0,1,0.1,1.5,0.2c0.3,0.1,0.5,0.1,0.8,0.1c0.4,0,0.8-0.2,1.2-0.5
			c0.4-0.4,0.8-0.8,1.1-1.2c0.1-0.2,0.3-0.3,0.4-0.5c0.2-0.2,0.5-0.4,0.7-0.6c0.5-0.3,1-0.7,1.3-1.1c0.2-0.2,0.3-0.4,0.5-0.7
			c0.7-1.1,1.1-2.4,2.2-3.2c0,0,0,0,0,0c0,0,0-0.1,0-0.1c0,0-0.1-0.1-0.1-0.1c-2.3-2.6-4.6-5.3-6.8-8c-0.2-0.2-0.3-0.4-0.5-0.6
			c0-0.4-0.2-0.9-0.4-1.3c-0.4-0.7-0.8-1.5-1.1-2.2c-0.3-0.8-0.5-1.5-0.8-2.3c-0.2-0.7-0.4-1.4-0.5-2.1c-0.2-0.6-0.3-1.2-0.5-1.9
			c-0.2-0.9-0.5-1.8-0.8-2.7c-0.8-2.8-1.8-5.5-2.9-8.1c-0.1-0.3-0.3-0.7-0.4-1c0-0.1-0.1-0.1-0.1,0l-0.3,1.2l-1.7,5.8l0,0.2
			C409.5,248.5,409.1,249.5,409,250.7z"/>
		<path class="st22" d="M452.7,230.9c0.6,2.4,1.4,4.7,2.4,6.9c0.8,1.9,1.9,3.8,2.1,5.9c0.2,2.3-0.6,4.5-1.1,6.7
			c-0.6,2.5-0.7,5.1-0.9,7.7c0,0.2-0.3,0.1-0.3,0c0.2-2.4,0.3-4.9,0.8-7.3c0.5-2.3,1.4-4.6,1.2-7c-0.2-2.2-1.3-4.1-2.1-6.1
			c-0.9-2.2-1.7-4.4-2.3-6.7C452.4,230.8,452.7,230.7,452.7,230.9z"/>
		<path class="st22" d="M425,233.8c0.7,4.4-0.2,8.8-0.9,13.1c-0.8,4.7-1.7,9.3-2.5,14c0,0.2-0.3,0.1-0.3,0c0.8-4.6,1.6-9.1,2.4-13.7
			c0.8-4.4,1.7-8.9,1-13.3C424.6,233.7,424.9,233.6,425,233.8z"/>
		<path class="st22" d="M432.1,214.8c1.6,1,3.4,1.7,5.3,2c0.2,0,0.1,0.3,0,0.3c-2-0.3-3.8-1-5.5-2
			C431.7,214.9,431.9,214.7,432.1,214.8z"/>
		<path class="st22" d="M461.2,192.8c0.6,0.9,1.4,1.5,2.4,1.7c0.2,0,0.1,0.3,0,0.3c-1.1-0.3-2-0.9-2.6-1.8
			C460.8,192.9,461.1,192.7,461.2,192.8z"/>
		<path class="st22" d="M436.3,187.8c0.2-0.1,0.3,0.2,0.1,0.3c-2.4,1-3.5,3.7-2.5,6.1c0.1,0.2-0.2,0.3-0.3,0.1
			C432.5,191.7,433.7,188.8,436.3,187.8z"/>
		<path class="st22" d="M431.8,191.6c0.1-0.2,0.3-0.1,0.3,0.1c-0.2,0.8-0.1,1.6,0.3,2.2c0.1,0.2-0.1,0.3-0.2,0.2
			C431.7,193.3,431.6,192.4,431.8,191.6z"/>
		<path class="st22" d="M442.8,174.1c2.2-1.1,4.5,0.1,6.3,1.4c0.1,0.1,0,0.3-0.2,0.2c-1.7-1.3-3.9-2.4-6-1.4
			C442.8,174.4,442.7,174.2,442.8,174.1z"/>
		<path class="st25" d="M474.3,314.4c1.6,1.7,2.8,3.7,3.5,5.9c0.8,2.5,0.6,5.1,1.1,7.7c0.3,1.4,0.8,2.7,1.5,3.9
			c0.7,1.1,1.5,2.1,2.2,3.2c1.3,2.1,1.7,4.6,2.1,7.1c0,0.2-0.3,0.2-0.3,0c-0.4-2.6-0.9-5.2-2.3-7.5c-0.7-1-1.4-1.9-2-2.9
			c-0.6-1-1.1-2.2-1.3-3.3c-0.6-2.6-0.4-5.2-1.1-7.8c-0.7-2.3-1.9-4.4-3.6-6.2C474,314.5,474.2,314.3,474.3,314.4z"/>
		<path class="st25" d="M429,274.3c-0.1,2.2-0.2,4.4-0.1,6.6c3.6-0.1,7.6-1.8,8.4-5.7c0-0.2,0.3-0.1,0.3,0c-0.8,4-4.9,5.9-8.7,6
			c0.1,2.7,0.4,5.4,1.2,8c1.3,4.1,4,7.9,8,9.7c4.6,2,9.9,1.4,14.7,1c2.6-0.2,5.3-0.5,7.9-0.7c2.6-0.2,5.2-0.6,7.9-0.6
			c4.3,0,8.2,1.1,11.7,3.6c3.2,2.3,5.7,5.5,7.5,9c4.6,8.4,5.5,18.1,8.6,27c3,8.3,7.5,16.2,8.4,25.1c0.1,1,0.1,2.1,0.1,3.1
			c0,0.2-0.3,0.1-0.3,0c0.1-9.2-4.4-17.5-7.6-25.9c-1.7-4.4-2.9-9-4.1-13.6c-1.2-4.7-2.4-9.4-4.4-13.8c-1.8-3.8-4.2-7.3-7.4-10
			c-3.5-3-7.8-4.4-12.4-4.4c-2.7,0-5.3,0.3-8,0.6c-2.7,0.3-5.4,0.5-8.1,0.8c-4.6,0.4-9.4,0.9-13.8-0.6c-3.9-1.4-6.7-4.4-8.3-8.1
			c-1.9-4.2-2.1-8.8-2-13.3c0-1.3,0.1-2.5,0.1-3.8C428.7,274.1,429,274.1,429,274.3z"/>
		<path class="st25" d="M475.5,308.2c1.2-1.1,2.4-2.2,3.7-3.3c0.1-0.1,0.3,0.1,0.2,0.2c-1.2,1.1-2.4,2.2-3.7,3.3
			C475.5,308.5,475.3,308.3,475.5,308.2z"/>
		<path class="st25" d="M476.2,310.9c1-1.1,2.2-2,3.4-2.7c0.2-0.1,0.3,0.1,0.2,0.2c-1.2,0.7-2.4,1.6-3.4,2.7
			C476.3,311.2,476.1,311,476.2,310.9z"/>
		<path class="st22" d="M415.6,264.8c0.6-0.9,1.3-2,2.4-2.4c0.2-0.1,0.3,0.2,0.1,0.3c-1,0.4-1.7,1.4-2.3,2.3c-0.6,1-1.1,2.1-1.4,3.2
			c0,0.2-0.3,0.1-0.3,0C414.4,266.9,414.9,265.8,415.6,264.8z"/>
		<path class="st22" d="M413.5,265.7c0.6-1.1,1.4-2,2.3-2.8c0.1-0.1,0.3,0.1,0.2,0.2c-0.9,0.8-1.6,1.6-2.2,2.7
			C413.7,266,413.4,265.9,413.5,265.7z"/>
		<g>
			<path class="st22" d="M448.2,373.8c0.2-0.3,0.5-0.5,0.7-0.8c0.1-0.1,0.2-0.2,0.3-0.2c0.3,0,0.2,0.3,0.1,0.5c0,0-1,1.4-2.1,2.4
				c-1,1-1.9,1.7-2,1.7c-0.1,0-0.2-0.1-0.1-0.2C445.9,376,447.1,374.9,448.2,373.8z"/>
			<path class="st22" d="M446.7,372.5c0.2-0.3,0.5-0.5,0.7-0.8c0.1-0.1,0.2-0.2,0.3-0.2c0.3,0,0.2,0.3,0.1,0.5c0,0-1,1.4-2.1,2.4
				c-1,1-1.9,1.7-2,1.7c-0.1,0-0.2-0.1-0.1-0.2C444.5,374.7,445.6,373.7,446.7,372.5z"/>
			<path class="st22" d="M442,374.3c1-1.2,2.1-2.3,3.2-3.5c0.2-0.3,0.5-0.5,0.7-0.8c0.1-0.1,0.2-0.2,0.3-0.2c0.3,0,0.2,0.3,0.1,0.5
				c0,0-1,1.4-2.1,2.4c-1,1-1.9,1.7-2,1.7C442,374.6,441.9,374.4,442,374.3z"/>
		</g>
		<g>
			<path class="st22" d="M521.7,383.3c0-0.1-0.1-0.3,0-0.4c0.2-0.2,0.3,0,0.4,0.2c0,0,0.6,1.6,0.9,3.1c0.3,1.3,0.4,2.5,0.3,2.7
				c0,0.1-0.2,0.1-0.3,0c-0.5-1.5-0.8-3-1.2-4.6C521.9,384,521.8,383.7,521.7,383.3z"/>
			<path class="st22" d="M519.9,383.5c0.2-0.2,0.3,0,0.4,0.2c0,0,0.6,1.6,0.9,3.1c0.3,1.3,0.4,2.5,0.3,2.7c0,0.1-0.2,0.1-0.3,0
				c-0.5-1.5-0.8-3-1.2-4.6c-0.1-0.3-0.2-0.7-0.3-1C519.8,383.8,519.8,383.6,519.9,383.5z"/>
			<path class="st22" d="M517.6,383.9c0.2-0.2,0.3,0,0.4,0.2c0,0,0.6,1.6,0.9,3.1c0.3,1.3,0.4,2.5,0.3,2.7c0,0.1-0.2,0.1-0.3,0
				c-0.5-1.5-0.8-3-1.2-4.6c-0.1-0.3-0.2-0.7-0.3-1C517.6,384.2,517.5,384,517.6,383.9z"/>
		</g>
		<path class="st25" d="M448.1,283.6c1.9-0.9,3.9-1.5,6-1.8c0.2,0,0.2,0.3,0,0.3c-2.1,0.3-4.1,0.9-5.9,1.7
			C448,284,447.9,283.7,448.1,283.6z"/>
		<path class="st23" d="M437.3,193c0.4-0.3,0.9,0.2,1.1,0.5c0.5,0.7,0.5,2.2,1.6,2.3c0.2,0,0.1,0.3,0,0.3c-0.5-0.1-0.9-0.4-1.1-0.9
			c-0.1-0.3-0.8-2.4-1.3-2C437.4,193.4,437.2,193.1,437.3,193z"/>
	</g>
	<g>
		<path class="st22" d="M391.3,496.2c-0.4-0.7-0.8-1.3-1.3-2c-2.4-3.7-5.1-7.3-7.7-10.8c-0.9-1.2-1.8-2.4-2.7-3.6
			c-1.5-1.9-3.2-4.2-5.7-4.7c-0.9-0.2-2.1,0-2.9,0.9v0c-0.2,0.2-0.4,0.5-0.5,0.8c-0.9,2.5-2.3,7.8-1.4,8.8c1.4,1.5,2.9,3.6,4.3,4.1
			c0.6,0.3,1.4,0.3,1.9,0.8c0.5,0.5,0.8,1.2,1.1,1.7c0.6,1,1.4,1.8,2.2,2.6c0.7,0.7,1.4,1.2,2.2,1.8l10.8,0
			C391.5,496.5,391.4,496.3,391.3,496.2z"/>
		<path class="st22" d="M375.5,426.5c0-0.5-0.3-1.1-0.5-1.6c-0.3-0.7-0.7-1.4-1-2.1c-2.6-5.3-5.6-10.5-8.6-15.6c0,0,0-0.1-0.1-0.1
			c-0.7-1.2-1.4-2.4-2.4-3.4c-0.7-0.8-1.6-1.4-2.6-1.8c-1.1-0.4-2.8-0.1-3.6,1.3c-0.4,0.7-0.8,1.6-1.2,2.5c-1,2.4-1.9,5.3-1.3,6
			c1.2,1.7,2.4,3.9,3.8,4.6c0.6,0.3,1.3,0.5,1.8,1c0.4,0.5,0.6,1.2,0.9,1.8c0.5,1,1.1,2,1.9,2.9c1.6,1.9,3.5,3.4,5.4,4.8
			c0.2,0.1,0.3,0.2,0.5,0.4c1.7,1.2,3.8,2.6,5.8,1.4C375,428.2,375.5,427.5,375.5,426.5z"/>
		<path class="st20" d="M379,478.2c-1-1.7-2-3-2.6-4.9c0,0,0-0.1,0-0.1c0-0.1-0.1-0.2-0.1-0.3c0,0,0,0,0,0c-0.5-1.9-1.2-3.7-1.7-5.6
			c-0.5-1.8-0.7-3.7-1.2-5.5c0-0.1-0.1-0.1-0.2,0c-0.7,1.5-1.9,2.7-3,4c-0.5,0.6-1.1,1.1-1.6,1.6c0-0.2,0-0.4,0-0.6
			c0-0.1-0.1-0.1-0.2,0c0,0.2,0,0.5,0,0.7c-0.5,0.4-1,0.8-1.4,1.3c0,0,0,0,0,0c-0.1,0.1-0.2,0.1-0.2,0.3c0,0.1,0.1,0.1,0.1,0.1
			c0.4-0.6,1-1,1.6-1.5c0.1,1.1,0.6,2.1,0.9,3.1c0.5,1.3,0.9,2.6,1.3,3.9c0.1,0.2,0.2,0.5,0.2,0.7c0.1,0.2,0.1,0.4,0.2,0.6v0
			c0,0,0,0,0,0c0.1,0.9,0,1.8,0.2,2.6c0.2,1,0.8,2,1.4,2.8c1.3,2,2.7,3.9,4.4,5.6c0.1,0.1,0.2,0.1,0.2,0c1.1-1.6,4.7-3.4,5.1-3.7
			c0,0,0,0,0,0C381.1,481.6,380,479.9,379,478.2z"/>
		<path class="st20" d="M347.3,275.4c4.7,4.1,21.3,34.1,21.2,34.2c3.4-1.6,9.3-5.3,9.8-5.5c-9.5-19.9-17.5-36.9-17.5-36.9
			C359.1,268.3,346.9,275.6,347.3,275.4z"/>
		<path class="st20" d="M372,396c-1.7,0-3.3-0.6-4.9-1.1c-0.7-0.2-1.4-0.5-2.2-0.8c0.2-0.1,0.4-0.2,0.5-0.2c0.1,0,0-0.2-0.1-0.1
			c-0.2,0.1-0.5,0.2-0.7,0.3c-0.6-0.3-1.2-0.5-1.8-0.7c0,0,0,0,0,0c-0.2-0.1-0.2-0.1-0.4-0.1c-0.1,0-0.1,0.1,0,0.2
			c0.7,0.2,1.4,0.5,2,0.8c-0.7,0.4-1.3,1-1.9,1.6c-0.1,0.1-0.2,0.2-0.2,0.3c-0.1,0.1-0.2,0.2-0.3,0.3c-1.1,1.2-2.4,2.2-3.5,3.3
			c-1.1,1-2.2,2-3.3,3c-0.6,0.5-1.4,1.3-0.8,2.2c0.3,0.4,0.7,0.7,1.1,1.1c0,0,0.1,0.1,0.1,0.1c0.3,0.3,0.6,0.7,0.9,1
			c0.3,0.3,0.6,0.7,1,0.9c0.2,0.1,0.4,0.1,0.6-0.1c0.8-0.4,1.4-1.1,2.1-1.7c0.9-0.8,1.8-1.5,2.7-2.3c0.1-0.1,0.2-0.1,0.3-0.2
			c0.3-0.2,0.6-0.5,0.8-0.7c0.9-0.8,1.8-1.6,2.7-2.4c0.3-0.3,0.6-0.5,0.9-0.8c1.4-1.2,3.1-2.2,4.5-3.4C372.1,396.1,372,396,372,396z
			"/>
		<path class="st19" d="M414.9,343.1c-9.4-11-67.5-17.4-63.5-32.4c0.6-4.9-3.7-2.8-6.7-2c-6.2-0.5-15.4,7-22.1,10.1
			c-4.3,2.4-9-0.7-13.5,0.4c0.2-2.5-0.1-2.2-0.2,0c-1.3,0.4-1.4,0.8,0,0.2c1,25,15.3,47.3,23,70.7c6.2,15,12.1,30,15.2,46
			c4.8,9.6,10.6,17.9,11.9,28.9c1.3,3.5,5.7,5.1,5.6,9.1c1.4,3.5,11.1-1.1,13.6-2.3c-2.4-4.8-1.8-10.2-2-15.4
			c-0.1-7.5-4.4-13.8-6.7-20.7c-1.8-5.3-0.8-10.9-1.3-16.4c-1-8.3-4.8-15.9-5.9-24.1c3.9,4,7.3,8.9,10.5,13.2
			c3.4-3.3,7.6-5.5,9.1-10.4c3.5-5.9,10.9-7.8,15.1-13.1C402.4,371.5,421.9,359.1,414.9,343.1z M380.9,362.4
			c-5.6,3-4.6,10.3-9.8,13.7c-2.1,1.5-2.2,3.9-2.3,6.2c-0.8,4-5.1,5.7-7,9.1c-0.5-13.7-4.7-26.6-8.3-39.7
			C356.9,354,385.7,357.9,380.9,362.4z"/>
		<path class="st20" d="M322.1,334.5c-5.7-4.8-24.9-24.8-25.9-26.8c-0.5-1-0.9-2.1-1-3.2c-0.1-1.2,0.1-2.4,0.5-3.5
			c0.4-1.2,7.4-16.6,9.2-21.8c0,0,0-0.1-0.1-0.1c-6.2,0.4-10.9,1.7-17.1,2.1c0.1-0.2,0.1-0.4,0.2-0.6c0.2-0.7,0.5-1.4,0.7-2.1
			c0-0.1-0.1-0.1-0.2,0c-0.3,0.9-0.6,1.8-0.9,2.8c-0.2,0-0.5,0-0.7,0c-0.1,0-0.1,0.2,0,0.2l0.7,0c-1.5,4.7-6.2,19.5-6.5,22.4
			c-0.2,1.3-0.2,2.7,0,4c0.3,1.3,0.9,2.5,1.6,3.6c2.9,4.3,30.3,25.9,34,28.2C318.4,337.8,320.2,336.1,322.1,334.5z"/>
		<path class="st2" d="M370.4,282c-2.5-3.4-1.7-7.9-3.3-11.7c-2.1-4.6-6-8.4-6.3-13.7c0.1-10.7-4.8-16.9-14.5-21.1
			c-2,1.7-4.5-1.5-6.7-1.7c-5.7-0.6-12.6-1.1-17.8,1.1c-2.2,0.5-4.3,4.8-6.4,2.4c-16.1,7.7-27.1,21.9-31.4,39.1
			c-4.4,5.3-3.7,12-6.4,17.9c6.5,1.7,13.8,2,20.6,1.6c0.5,5.6-1.6,12.3,3,16.7c3.8,2.6,2.7,8.1,5.9,10.8c10.1-0.2,22.2,1.2,29.4-7.8
			c9.2-9,23.7,8.5,17.9-27.6l11.8-2C369.3,285.4,373.3,286.1,370.4,282z"/>
		<path class="st20" d="M362.7,213c-2-9.9,5.9-19.1-8.8-23.5c-15.4-6.2-19.7,10.7-19.2,22.6c-2.2,6.6-5.2,12.9-8.4,19.1
			c3,4,8.1,5.7,13,5.1c-0.1,0,0.7-0.1,0.9-0.1c1.7-3.3,3.8-7.5,5.1-9.7c3.1,0.7,11,4.9,12.5,0.6c0.4-1.4,0-3.1,1.2-4.1
			c0.9-0.4,0-1.4-0.2-1.9c2.7-0.5,0.7-2,1.2-3.6C363.3,217.7,364,215.6,362.7,213z"/>
		<path class="st22" d="M360.2,209.5c-0.3,1-0.9,1.6-1.3,1.5c-0.4-0.1-0.5-1-0.2-2c0.3-1,0.9-1.6,1.3-1.5
			C360.4,207.6,360.5,208.5,360.2,209.5z"/>
		<path class="st22" d="M368.3,194.3c-0.3-0.7-0.9-0.9-1.6-1.2c-0.5-0.2-0.9-0.4-1-0.9c-0.1-0.6,0.2-1.2,0.5-1.6
			c0.2-0.5,0.4-0.9,0.6-1.4c0.1-0.3,0.1-0.6,0.1-0.9c-0.1-1.9-1.7-3-3.4-3.4c-0.3-0.5-0.8-0.9-1.3-1.2c-1.4-0.8-3.2-1-4.7-0.9
			c-1.7,0.1-3.4,0.6-4.7,1.8c0-0.1,0-0.1,0-0.2v0c-0.2-0.8-0.7-1.4-1.4-1.8c-1-0.5-2.2-0.5-3.3-0.3c-2.4,0.4-4.5,1.6-6.5,2.9
			c-0.2,0.1-0.3,0.2-0.5,0.3c-0.7,0.1-1.4,0.1-2.1,0c-1.5-0.1-3-0.2-4.5,0.1c-2.7,0.5-5.3,2.3-5.9,5.1c-0.1,0.6-0.2,1.3-0.1,1.9
			c0,0.3,0.1,0.6,0.2,0.9c0.1,0.4,0.3,0.7,0.5,1.1c0.1,0.4,0.1,0.7-0.2,1c-0.1,0.1-0.3,0.2-0.4,0.3c-0.3,0.2-0.6,0.5-0.8,0.8
			c-0.4,0.5-0.8,1.1-1,1.7c-0.5,1.2-0.7,2.8,0,4c0.6,1.1,1.8,1.6,2.8,2.1c0.7,0.3,1.4,0.7,2,1.2c0.6,0.6,1.1,1.4,1.3,2.2
			c0.5,1.7-0.8,9.1-1.2,11c0,0,0,0.1,0.1,0.1c0.1,0.1,0.3,0.1,0.5,0.2c1,0.3,2.1,0.2,3.2-0.1c0.8-0.2,1.5-0.5,2-0.9
			c0.7-0.5,1.5-1.4,1.9-2.3c0,0,0-0.1,0-0.1c0.2-0.4,0.5-1,0.8-1.7c0.1-0.2,0.2-0.3,0.3-0.5c0,0,0,0,0,0c0.1-0.3,0.3-0.6,0.4-0.8
			c0,0,0,0,0,0c1-2,2.1-4.3,2.6-5.2c0.1-0.3,0.3-0.6,0.4-0.8c-0.1-0.2-0.1-0.5,0.1-0.8c0-0.1,0.1-0.2,0.1-0.2
			c0.7-0.5,1.6-0.6,2.6-0.6c0.2,0,0.4,0,0.6,0c0,0,0,0,0,0c0.8-0.1,1.5-0.4,2.2-1c0.1,0,0.1-0.1,0.1-0.1c0.8-0.8,1.4-2.1,2.6-2.5
			c0.4-0.1,0.7-0.2,1.1-0.5c0.3-0.3,0.5-0.5,0.8-0.7c0.6,0.5,1.4,1,2.1,1.3c0.9,0.4,2.1,0.6,3.1,0.3c0.6-0.2,1.1-0.8,1.1-1.4
			c0.8,0.4,2,0.3,2.8-0.1c0.4-0.2,0.8-0.4,1.1-0.8c0.2-0.2,0.3-0.4,0.4-0.6c0,0,0,0,0.1,0c1.6-0.1,3.3-0.9,3.8-2.5
			C368.7,195.7,368.6,194.9,368.3,194.3z"/>
		<path class="st21" d="M402.7,296.2c0.1-0.2,0.3-0.4-0.5-0.4c-6.1,0.1-22.4,0.1-22.6,0.1c-0.2,0-0.6,0-0.7,0.1
			c-0.2,0.1-0.3,0.3-0.4,0.5c-0.6,0.6-1.4,1.6-2.4,2.8c-2.1,2.5-4.9,6-7.8,9.7c-1.9,2.4-3.9,4.9-5.7,7.3c-0.1,0.1-0.2,0.2-0.3,0.4
			c-0.1,0.1-0.1,0.2-0.2,0.3c-1.1,1.4-2.1,2.7-3,3.9c-2.5,3.3-4.4,5.8-5,6.7c0,0.1,0,0.1,0.1,0.1c3.3,0,10.9-0.5,16.3-1
			c0.2,0,0.3,0,0.5,0c0.9-0.1,1.7-0.2,2.4-0.2c1.2-0.1,2.1-0.2,2.5-0.3c1-0.2,1.9-0.3,2.6-1c0.3-0.3,3.5-4.1,7.6-8.8
			c0.4-0.5,0.9-1,1.3-1.6c2.8-3.2,5.8-6.8,8.4-9.9C399,300.9,401.7,297.6,402.7,296.2C402.7,296.2,402.7,296.2,402.7,296.2z"/>
		<path class="st22" d="M362.6,203.4c-1.1-0.3-2.2-0.4-3.4-0.3c-0.1,0-0.1,0-0.2,0c-0.6,0.1-1.6,0.2-2.1,0.6
			c-0.3,0.3-0.2,0.7,0.1,0.9c0.3,0.2,0.6,0.2,0.9,0.3c0.2,0,0.4,0.1,0.6,0.1c0.2,0,0.5,0.1,0.7,0.1c0.6,0.1,1.3,0.3,1.9,0.5
			c0.1,0,0.2,0,0.2,0.1c0.1,0,0.2,0.1,0.3,0.1c0,0,0.1,0,0.1,0c0,0,0,0,0,0c0.1,0,0.2,0.1,0.3,0.1c0.2,0.1,0.4,0.1,0.6,0.2
			c0-0.1,0-0.1,0-0.2c0-0.1,0-0.1,0-0.2c0,0,0,0,0,0c0-0.1,0-0.2,0.1-0.4c0,0,0-0.1,0-0.1c0,0,0-0.1,0-0.1c0,0,0,0,0,0
			c0-0.1,0-0.1,0-0.2c0,0,0-0.1,0-0.1c0-0.5,0.1-1,0.1-1.5C362.9,203.5,362.7,203.5,362.6,203.4z"/>
		<path class="st23" d="M360.3,219.3c-0.6,0-1.2,0.1-1.8,0.1c-0.8,0-1.5-0.1-2.3-0.3c-0.1,0-0.1,0.1-0.1,0.1
			c0.5,0.9,1.5,1.6,2.5,1.8c0.1,0,0.1,0,0.2,0c0,0,0,0,0,0v0c0.3-0.1,0.6-0.2,0.9-0.3c0.3-0.1,0.5-0.3,0.6-0.6
			C360.4,219.8,360.4,219.6,360.3,219.3z"/>
		<path class="st20" d="M346.4,235.6c-0.7-0.4-1.3-0.7-2-1.1c-0.7-0.4-1.4-0.8-2.2-1.2c-0.1-0.1-0.2-0.1-0.3-0.2c0,0,0,0,0,0
			c-4-2.1-8.4-3.8-12.9-3c-0.3,0.1-0.6,0.1-0.9,0.2c0,0-0.1-0.1-0.1,0c-0.1,0-0.1,0.1-0.2,0.1c-0.3,0.1-0.5,0.2-0.8,0.3
			c-0.1,0-0.1,0.2,0,0.2c0.1,0,0.2-0.1,0.2-0.1c-0.2,0.1-0.4,0.3-0.7,0.4c-2.3,1.4-4.5,2.7-6.8,4c-1.4,0.8-2.8,1.6-4.2,2.4
			c0,0-0.1,0-0.1,0c2.3,3.6,5.7,6.4,9.7,7.8c2.8,1,5.9,1.4,8.9,1c2.8-0.4,5.2-1.8,7.3-3.7c0.7-0.7,1.3-1.4,2-2.1
			c0.1-0.1,0.2-0.2,0.3-0.3c1.1-1.4,2.1-2.9,3.1-4.4C346.5,235.7,346.4,235.6,346.4,235.6z"/>
		<path class="st21" d="M361.8,205.9c-0.1,0-0.2,0-0.3-0.1c-0.1,0-0.2,0-0.2,0c-3.2-0.5-7.7-1.3-11.6-2c-1-0.2-2-0.3-2.8-0.4
			c-0.5-0.1-1-0.1-1.4-0.2c-0.1-0.1,0.7,1.2,0.9,1.4c0.1,0.1,0.4,0.2,0.9,0.3c0,0,0,0,0,0c1.6,0.4,4.8,1.1,5.8,1.4
			c2.1,0.5,4.2,0.9,6.3,1.4c0.3,0.1,0.6,0.1,0.9,0.2c0.2,0,0.4,0.1,0.5,0.1c0.1,0,0.2,0.1,0.4,0.1
			C361.3,208.1,361.7,206.4,361.8,205.9C361.8,205.9,361.8,205.9,361.8,205.9z"/>
		<path class="st21" d="M364.3,205.6l-1.3-0.5l-0.7-0.3c-0.1-0.1-0.3,0-0.4,0.1c-0.1,0-0.1,0.1-0.2,0.2c-0.1,0.2-0.1,0.5-0.2,0.7
			c0,0,0,0,0,0c-0.2,0.7-0.4,1.4-0.6,2.1c-0.3,1-0.6,2-0.8,3c0,0.1-0.1,0.2-0.1,0.3c-0.2,0.6-0.4,1.4-0.4,2.1c0,0.3,0.1,0.5,0.2,0.7
			c0.2,0.3,0.5,0.4,0.8,0.5c0,0,0.1,0,0.1,0c0.6,0,1.1-0.6,1.4-1.2c0.2-0.3,0.3-0.7,0.4-1v0c0-0.1,0.1-0.2,0.1-0.3l0.1-0.2
			c0.5-1.4,0.9-2.8,1.3-4.1c0.2-0.6,0.3-1.2,0.5-1.8C364.6,205.9,364.5,205.7,364.3,205.6z M363.6,207.7c-0.4,1.3-0.8,2.7-1.2,3.9
			c0,0.1,0,0.1-0.1,0.2l-0.1,0.2c-0.1,0.4-0.4,1-0.7,1.5c-0.3,0.4-0.6,0.8-0.9,0.7c-0.2,0-0.4-0.1-0.5-0.3c-0.1-0.1-0.1-0.3-0.1-0.5
			c0-0.6,0.2-1.5,0.4-2c0-0.1,0.1-0.3,0.1-0.4c0.4-1.7,0.9-3.4,1.4-5.1c0.1-0.2,0.1-0.5,0.2-0.7l0,0l0.8,0.3l1.2,0.4
			C363.9,206.6,363.7,207.2,363.6,207.7z"/>
		<path class="st20" d="M396.7,305.6c-0.1-0.5-0.5-0.7-1-0.8c-0.4-0.1-0.7-0.1-1.1-0.1c-1.2-0.1-2.4,0-3.6,0.3c0,0,0,0-0.1,0
			c-0.6,0.1-1.2,0.4-1.7,0.6c-0.4,0.2-0.8,0.4-1.1,0.6c-0.4,0.2-0.8,0.4-1,0.8c-0.3,0.4-0.2,1,0.3,1.2c0.3,0.1,0.7,0,1-0.1
			c0.2-0.1,0.5-0.1,0.7-0.2c-0.3,0.1-0.6,0.2-0.8,0.3c-0.6,0.3-1.5,0.6-1.9,1.2c-0.2,0.3-0.3,0.9,0.2,1.1c0.2,0.1,0.4,0.1,0.6,0.1
			c-1.2,0.3-2.6,0.8-3.5,1.7c-0.3,0.3-0.6,0.7-0.4,1.1c-0.8,0.3-1.7,0.9-0.9,1.5c1,0.7,2.4,0.3,3.5,0.1c0.5-0.1,0.9-0.2,1.4-0.3
			c0.3-0.1,0.5-0.1,0.8-0.2c0.6-0.1,1.2-0.3,1.7-0.6c0.3-0.2,0.6-0.5,0.8-0.9c0.9-0.1,1.8-0.3,2.3-1.1c0.3-0.5,0.3-1.1-0.1-1.5
			c0,0,0,0,0,0c1.2,0,2.5-0.1,3.2-1.1c0.3-0.5,0.4-1.2,0.1-1.7c-0.1-0.2-0.2-0.3-0.3-0.4c0,0,0.1,0,0.1-0.1
			C396.4,306.8,396.9,306.3,396.7,305.6z"/>
		<path class="st22" d="M309.9,264.7c-0.4,2.3-0.9,4.7-2.6,6.5c0.1-0.3,0.2-0.7,0.3-1c0.6-2.4,0.6-4.9-0.4-7.3
			c-0.1-0.2-0.4,0-0.3,0.2c2.7,6.1-2,12-3.8,17.6c-1.6,5-1.4,10.7-4.7,15.1c-0.1,0.2,0.2,0.3,0.3,0.2c2.6-3.5,3-7.9,3.9-12
			c0.5-2.4,1.3-4.7,2.3-6.9c0.8-1.7,1.6-3.5,2.2-5.3c0,0,0.1,0,0.1,0c1.9-1.8,2.5-4.4,2.9-6.9C310.2,264.6,309.9,264.5,309.9,264.7z
			"/>
		<path class="st22" d="M351.7,273.7c-0.1-2.2,0.2-4.4,0.2-6.7c0-2.1-0.4-4.2-1.1-6.3c-0.1-0.2-0.4-0.1-0.3,0.1c0.7,2,1,4.2,1.1,6.3
			c0,2.2-0.3,4.3-0.2,6.5c0.2,4.1,2.3,8.1,1.5,12.2c0,0.2,0.3,0.3,0.3,0.1C354,281.9,351.9,277.9,351.7,273.7z"/>
		<path class="st22" d="M325.1,326.8c-0.3,2.5-1.3,4.8-2.9,6.7c-0.1,0.2,0.1,0.4,0.2,0.2c1.7-2,2.7-4.3,3-6.9
			C325.4,326.6,325.1,326.6,325.1,326.8z"/>
		<path class="st22" d="M349.1,335.8c-0.1-0.2-0.4,0-0.3,0.2c2.1,4.2,3.6,8.7,4.5,13.4c0,0.2,0.3,0.1,0.3-0.1
			C352.7,344.6,351.2,340.1,349.1,335.8z"/>
		<path class="st22" d="M393.2,356.8c-1.9,0.2-3.8,0.6-5.6,1.4c-0.2,0.1,0,0.4,0.2,0.3c1.7-0.7,3.5-1.2,5.4-1.4
			C393.4,357.1,393.4,356.8,393.2,356.8z"/>
		<path class="st22" d="M393.8,359.7c-1.7-0.2-3.3,0-4.9,0.3c-0.2,0-0.1,0.4,0.1,0.3c1.6-0.4,3.2-0.5,4.8-0.3
			C394,360.1,394,359.7,393.8,359.7z"/>
		<path class="st22" d="M367.9,437.4c-4.8-3.5-9.1-7.6-13-12.1c-0.1-0.2-0.4,0.1-0.2,0.2c3.9,4.5,8.3,8.6,13,12.1
			C367.9,437.8,368,437.6,367.9,437.4z"/>
		<path class="st21" d="M361.7,186.3c-0.2,0-0.3,0.3-0.1,0.3c1.6,0.3,2.4,1.8,1.8,3.3c-0.1,0.2,0.2,0.3,0.3,0.2
			C364.4,188.4,363.5,186.6,361.7,186.3z"/>
		<path class="st21" d="M362,188.6c-0.1-0.2-0.4,0-0.3,0.2c0.5,0.7,0.5,1.6,0.1,2.4c-0.1,0.2,0.2,0.3,0.3,0.2
			C362.6,190.4,362.5,189.4,362,188.6z"/>
		<path class="st21" d="M354.3,198.3c-0.9-1-1.4-2.9-1-4.3c0.1-0.2-0.2-0.3-0.3-0.1c-0.5,1.4,0.1,3.5,1.1,4.6
			C354.2,198.7,354.5,198.5,354.3,198.3z"/>
		<path class="st21" d="M352.3,198.7c-0.5-0.4-0.9-0.9-1-1.6c-0.1-0.2-0.4-0.1-0.3,0.1c0.2,0.7,0.6,1.3,1.1,1.7
			C352.2,199,352.5,198.8,352.3,198.7z"/>
		<path class="st21" d="M331.5,201.9c-1-0.3-1.4-2.1-0.9-3c0.1-0.2-0.2-0.3-0.3-0.2c-0.6,1.1-0.2,3.1,1.1,3.5
			C331.6,202.3,331.7,202,331.5,201.9z"/>
		<path class="st22" d="M319.3,331c-0.4-0.6-1.2-1.1-1.7-1.6c-0.1-0.1-0.2,0-0.3,0.1c-0.5,0.6-1,1.1-1.5,1.7c0,0,0,0,0,0
			c-0.3,0-0.5-0.1-0.8-0.1c-0.4,0-1.1,0.2-1.5,0.4c0,0-0.1,0-0.1,0.1c-0.1,0.1-0.2,0.2-0.3,0.2c-0.1,0-0.1,0.1-0.2,0.2
			c-0.5,0.5-0.3,0.4-0.5,0.6c-0.4,0.6-0.2,0.4-0.3,0.7c0,0.1,0,0.2,0,0.3c0,0,0,0,0,0.1l-0.1,0.4c0,0.3,0,0.5,0.1,0.8
			c0,0.1,0.1,0.2,0.1,0.4c-0.3,0.3-0.6,0.6-0.8,1c-0.1,0.1-0.1,0.2,0,0.2c0.4,0.4,1.5,1.8,2.2,1.6c0.3-0.1,0.7-0.6,1-1
			c0.1,0,0.2,0,0.3,0c0.4,0,0.8-0.1,1.1-0.2c0.4-0.1,0.7-0.3,0.9-0.6c0.1-0.2,0.3-0.4,0.4-0.6c0.1-0.2,0.2-0.5,0.3-0.8c0,0,0,0,0,0
			c0-0.1,0.1-0.3,0.1-0.4c0.1-0.3,0.1-0.7,0-1c0.1-0.1,0.2-0.2,0.3-0.3c0.4-0.4,1.1-1,1.3-1.5C319.4,331.3,319.4,331.2,319.3,331z"
			/>
	</g>
</g>
<g>
	<g>
		<path class="st0" d="M1190.5,133.7l-44.3-76.6V21.8h8.3c2.6,0,4.8-2.1,4.8-4.8c0-2.6-2.1-4.8-4.8-4.8h-51.5
			c-2.6,0-4.8,2.1-4.8,4.8c0,2.6,2.1,4.8,4.8,4.8h5.1v35.5l-44.2,76.5c-1.3,2.3-1.3,5.2,0,7.5s3.8,3.8,6.5,3.8H1184
			c2.7,0,5.2-1.4,6.5-3.8S1191.8,136.1,1190.5,133.7z"/>
		<g>
			<path class="st1" d="M1171.2,137.2c4,0,6.8-7.6,4.2-12l-33-59c-7.6,9.4-27.8-5.4-30.4,0l-33,59c-2.6,4.5,0.2,12,4.2,12H1171.2z"
				/>
			<path class="st2" d="M1137.4,77.9c0,1.5-1.2,2.6-2.6,2.6c-1.5,0-2.6-1.2-2.6-2.6c0-1.5,1.2-2.6,2.6-2.6
				C1136.2,75.3,1137.4,76.5,1137.4,77.9z"/>
			<path class="st2" d="M1124.7,90c0,4.4-3.6,7.9-7.9,7.9c-4.4,0-7.9-3.6-7.9-7.9c0-4.4,3.6-7.9,7.9-7.9
				C1121.1,82,1124.7,85.6,1124.7,90z"/>
			<circle class="st2" cx="1144.9" cy="103.8" r="3.6"/>
			<path class="st1" d="M1121.3,60.6c0-1.6,1.3-2.9,2.9-2.9c1.6,0,2.9,1.3,2.9,2.9c0,1.6-1.3,2.9-2.9,2.9
				C1122.6,63.5,1121.3,62.2,1121.3,60.6z"/>
			<path class="st1" d="M1138.1,40.7c0-2.3-1.9-4.2-4.2-4.2c-2.3,0-4.2,1.9-4.2,4.2c0,2.3,1.9,4.2,4.2,4.2
				C1136.2,44.9,1138.1,43,1138.1,40.7z"/>
			<path class="st1" d="M1112.7,27.6c0-4,3.3-7.3,7.3-7.3c4,0,7.3,3.3,7.3,7.3c0,4-3.3,7.3-7.3,7.3
				C1116,34.9,1112.7,31.6,1112.7,27.6z"/>
		</g>
		<path class="st3" d="M1175.3,45.5h-112c-1.6-5.7-6.1-10.2-11.9-11.8v-32h-9.3v32c-7.2,2-12.5,8.7-12.5,16.5
			c0,7.9,5.3,14.5,12.5,16.5v417.5h9.3V66.8c5.8-1.6,10.3-6.2,11.9-12h111.9V45.5z M1046.8,58.9c-4.8,0-8.6-3.9-8.6-8.6
			s3.9-8.6,8.6-8.6c4.8,0,8.6,3.9,8.6,8.6S1051.6,58.9,1046.8,58.9z"/>
		<rect x="1029.6" y="479.4" class="st4" width="182.4" height="19.6"/>
		<rect x="1099.6" y="43.1" class="st5" width="58" height="14.7"/>
	</g>
	<g>
		<path class="st6" d="M1019.2,355.3v63c-34.8,4.4-71.2-6.6-97.8-33.3c-45.7-45.7-45.7-120,0-165.7l-24.6-24.6
			c-59.2,59.2-59.2,155.6,0,214.9c29.6,29.6,68.5,44.4,107.4,44.4c38.9,0,77.8-14.8,107.4-44.4v-54.3H1019.2z"/>
		<path class="st7" d="M903.4,242.5c4.9-8.3,10.9-16,18-23.1l-24.6-24.6c-7.1,7.1-13.4,14.7-18.8,22.8c0,0,1,8.2,8.9,15.5
			C894.9,240.4,903.4,242.5,903.4,242.5z"/>
		<g>
			
				<rect x="916.1" y="66.9" transform="matrix(0.7071 -0.7071 0.7071 0.7071 154.2058 722.5818)" class="st6" width="66.5" height="216.4"/>
			
				<rect x="808.3" y="4.9" transform="matrix(0.7071 -0.7071 0.7071 0.7071 203.9136 602.5754)" class="st8" width="42.1" height="100.6"/>
			
				<rect x="835.6" y="89" transform="matrix(0.7071 -0.7071 0.7071 0.7071 187.5719 642.1316)" class="st9" width="66.5" height="11.2"/>
			
				<rect x="998.9" y="249" transform="matrix(0.7071 -0.7071 0.7071 0.7071 119.8944 805.4102)" class="st9" width="66.5" height="17.9"/>
			
				<rect x="1032" y="259.5" transform="matrix(0.7071 -0.7071 0.7071 0.7071 112.4861 823.2617)" class="st8" width="36.1" height="32.7"/>
			<path class="st6" d="M890.2,229.6l0.5,0.5c13.8,13.8,36.1,13.8,49.8,0l8.4-8.4l-50.3-50.3l-8.4,8.4
				C876.4,193.5,876.4,215.9,890.2,229.6z"/>
			
				<rect x="913.6" y="165.2" transform="matrix(0.7071 -0.7071 0.7071 0.7071 127.3668 709.0357)" class="st7" width="11.8" height="71.2"/>
			<path class="st10" d="M898.4,209.7c-3.3,3.3-3.3,8.8,0,12.1c3.3,3.3,8.8,3.3,12.1,0c3.3-3.3,3.3-8.8,0-12.1
				C907.2,206.4,901.8,206.4,898.4,209.7z"/>
		</g>
		<rect x="1019.2" y="355.3" class="st7" width="92.4" height="11.4"/>
		<rect x="967.4" y="341.5" class="st11" width="198" height="13.9"/>
		<path class="st6" d="M901.6,484h203.9v-0.3c0-16.4-22.4-29.6-49.9-29.6H951.5c-27.6,0-49.9,13.3-49.9,29.6V484z"/>
		<rect x="888.3" y="484" class="st11" width="230.4" height="15.1"/>
	</g>
	<g>
		<g>
			<g>
				<g>
					<path class="st2" d="M1350.3,486.2c0,0,9.7-13.1-1.1-45.2h-195.7c0,0,15.6,12.9,2.1,45.2H1350.3z"/>
				</g>
				<g>
					<path class="st12" d="M1346.6,453.9c1.8,0,3.2,1.8,3.2,3.6c0,1.8-1.4,2.8-3.2,2.8h-69.7h0c-1.8,0-3.2-1.9-3.2-3.7
						c0-1.8,1.4-2.8,3.2-2.8L1346.6,453.9L1346.6,453.9z"/>
				</g>
				<g>
					<path class="st12" d="M1347.1,466.8c1.5,0,2.7,1.8,2.7,3.6c0,1.8-1.2,2.8-2.7,2.8h-58.9h0c-1.5,0-2.7-1.9-2.7-3.7
						c0-1.8,1.2-2.8,2.7-2.8L1347.1,466.8L1347.1,466.8z"/>
				</g>
				<g>
					<path class="st13" d="M1348.1,488.8l-0.9-49c0,0,18.6,8.6,18.1,23.7C1364.8,478.6,1348.1,488.8,1348.1,488.8z"/>
				</g>
				<path class="st14" d="M1371.3,463.3c-0.5-10-5.5-19-14.8-26.7c-1.2-1-2.7-1.5-4.1-1.5c-0.7,0-1.4,0.1-2.1,0.4
					c-1-0.6-2.1-0.9-3.3-0.9h-193.5c-3.6,0-6.5,2.9-6.5,6.5s2.9,6.5,6.5,6.5H1347c0.7,0,1.4-0.1,2-0.3c5.9,5.1,9.1,10.7,9.4,16.7
					c0.6,11.7-9.3,21.9-9.5,22.1c-0.1,0.1-0.3,0.3-0.4,0.4c-0.5-0.1-1-0.2-1.5-0.2h-193.5c-3.6,0-6.5,2.9-6.5,6.5
					c0,3.6,2.9,6.5,6.5,6.5H1347c2,0,3.8-0.9,5-2.3c2.1,0.5,4.4-0.1,6-1.7C1358.6,494.4,1372.1,480.7,1371.3,463.3z"/>
				<g>
					<path class="st12" d="M1243.9,466.8c1.5,0,2.7,1.8,2.7,3.6c0,1.8-1.2,2.8-2.7,2.8h-58.9h0c-1.5,0-2.7-1.9-2.7-3.7
						c0-1.8,1.2-2.8,2.7-2.8L1243.9,466.8L1243.9,466.8z"/>
				</g>
			</g>
			<g>
				<g>
					<path class="st2" d="M1137.3,421.9c0,0-9.7-13.1,1.1-45.2H1334c0,0-15.6,12.9-2.1,45.2H1137.3z"/>
				</g>
				<g>
					<path class="st12" d="M1140.9,389.7c-1.8,0-3.2,1.8-3.2,3.6c0,1.8,1.4,2.8,3.2,2.8h69.7h0c1.8,0,3.2-1.9,3.2-3.7
						c0-1.8-1.4-2.8-3.2-2.8L1140.9,389.7L1140.9,389.7z"/>
				</g>
				<g>
					<path class="st12" d="M1140.4,402.6c-1.5,0-2.7,1.8-2.7,3.6c0,1.8,1.2,2.8,2.7,2.8h58.9h0c1.5,0,2.7-1.9,2.7-3.7
						c0-1.8-1.2-2.8-2.7-2.8L1140.4,402.6L1140.4,402.6z"/>
				</g>
				<g>
					<path class="st13" d="M1139.4,424.6l0.9-49c0,0-18.6,8.6-18.1,23.7C1122.8,414.4,1139.4,424.6,1139.4,424.6z"/>
				</g>
				<g>
					<path class="st15" d="M1334,370.3h-193.5c-3.6,0-6.5,2.9-6.5,6.5s2.9,6.5,6.5,6.5H1334c3.6,0,6.5-2.9,6.5-6.5
						S1337.6,370.3,1334,370.3z"/>
				</g>
				<g>
					<path class="st15" d="M1334,421.9h-193.5c-3.6,0-6.5,2.9-6.5,6.5c0,3.6,2.9,6.5,6.5,6.5H1334c3.6,0,6.5-2.9,6.5-6.5
						C1340.5,424.8,1337.6,421.9,1334,421.9z"/>
				</g>
				<g>
					<path class="st15" d="M1135.1,370.9c-1.4,0-2.9,0.5-4.1,1.5c-9.3,7.7-14.3,16.7-14.8,26.7c-0.8,17.5,12.7,31.2,13.2,31.8
						c2.5,2.5,6.6,2.5,9.1,0c2.5-2.5,2.5-6.6,0-9.1c-0.2-0.2-10.1-10.4-9.5-22.1c0.3-6.2,3.7-12,10.1-17.3c2.8-2.3,3.1-6.3,0.9-9.1
						C1138.8,371.7,1137,370.9,1135.1,370.9z"/>
				</g>
				<g>
					<path class="st12" d="M1243.6,402.6c-1.5,0-2.7,1.8-2.7,3.6c0,1.8,1.2,2.8,2.7,2.8h58.9h0c1.5,0,2.7-1.9,2.7-3.7
						c0-1.8-1.2-2.8-2.7-2.8L1243.6,402.6L1243.6,402.6z"/>
				</g>
			</g>
			<g>
				<g>
					<g>
						<path class="st16" d="M1335.8,360.3c0,0,3.1-10.4-0.9-36.4h-157.7c0,0,12.6,10.4,1.7,36.4H1335.8z"/>
					</g>
				</g>
				<g>
					<g>
						<path class="st12" d="M1332.9,334.3c1.4,0,2.6,1.5,2.6,2.9c0,1.4-1.1,2.3-2.6,2.3h-56.2h0c-1.4,0-2.6-1.5-2.6-3
							c0-1.4,1.1-2.3,2.6-2.3L1332.9,334.3L1332.9,334.3z"/>
					</g>
				</g>
				<g>
					<g>
						<path class="st12" d="M1333.3,344.7c1.2,0,2.2,1.5,2.2,2.9c0,1.4-1,2.3-2.2,2.3h-47.4h0c-1.2,0-2.2-1.5-2.2-3
							c0-1.4,1-2.3,2.2-2.3L1333.3,344.7L1333.3,344.7z"/>
					</g>
				</g>
				<g>
					<g>
						<path class="st13" d="M1334.1,362.5l-0.7-39.5c0,0,15,7,14.6,19.1C1347.5,354.2,1334.1,362.5,1334.1,362.5z"/>
					</g>
				</g>
				<path class="st17" d="M1352.8,341.8c-0.4-8.1-4.4-15.3-11.9-21.5c-1-0.8-2.1-1.2-3.3-1.2c-0.6,0-1.2,0.1-1.7,0.3
					c-0.8-0.5-1.7-0.7-2.6-0.7h-156c-2.9,0-5.2,2.3-5.2,5.2c0,2.9,2.3,5.2,5.2,5.2h156c0.6,0,1.1-0.1,1.6-0.3
					c4.8,4.1,7.3,8.6,7.6,13.5c0.5,9.4-7.5,17.7-7.6,17.8c-0.1,0.1-0.2,0.2-0.3,0.4c-0.4-0.1-0.8-0.2-1.2-0.2h-156
					c-2.9,0-5.2,2.3-5.2,5.2c0,2.9,2.3,5.2,5.2,5.2h156c1.6,0,3-0.7,4-1.9c1.7,0.4,3.6,0,4.9-1.4
					C1342.5,367,1353.4,355.9,1352.8,341.8z"/>
				<g>
					<g>
						<path class="st12" d="M1250.1,344.7c1.2,0,2.2,1.5,2.2,2.9c0,1.4-1,2.3-2.2,2.3h-47.4h0c-1.2,0-2.2-1.5-2.2-3
							c0-1.4,1-2.3,2.2-2.3L1250.1,344.7L1250.1,344.7z"/>
					</g>
				</g>
			</g>
		</g>
	</g>
	<g>
		<path class="st18" d="M1476.2,320.1c0,0,11.6-19.1,41.4-19.6c29.8-0.5,2.5,12.9,0.1,17.5c-2.4,4.5-7.7,17.5-6.8,21.7l25.2,29
			l15.1,3.5c0,0,2.4,1.8,2.8,6.3c0.3,4.5,0.3,40.6,0.3,40.6s-0.9,3.9-5.7,4.3c-4.8,0.3-13.8,2.2-13.8,2.2s-7.4,18.1-15.8,26
			c-8.4,7.9-14.7,10.3-14.7,10.3l5.9,31.9c0,0,1.5,3-3,3c-4.5,0-40.3,0.3-40.3,0.3s-5.4-0.6-5.8-4.8c-0.3-4.2-1-11.7-2.5-12
			c-1.5-0.3-19.6,0.7-28.3-0.7c-8.7-1.4-13.9-3.2-13.9-3.2l3.4,18.6c0,0,0.9,4.2-3.3,3.9s-40.4-0.9-40.4-0.9s-6,0-7.6-12.4
			c-1.6-12.5-26.2-81.9-16.1-105.4C1362.7,356.7,1386.7,302.7,1476.2,320.1z"/>
		
			<ellipse transform="matrix(1 -7.191483e-03 7.191483e-03 1 -2.6147 10.9143)" class="st8" cx="1516.3" cy="369" rx="4.4" ry="6.2"/>
		<path class="st8" d="M1465.4,325.8c0,0,4.3,2.1,2.9,6.1c-0.5,1.5-2.1,1.9-7.7-0.7c-6.4-2.9-28.5-1.6-34.1,1.4
			c-5.2,2.8-9.2,1.1-8.5-2.3C1419,325.6,1442.2,312.9,1465.4,325.8z"/>
		<path class="st18" d="M1332.8,363.2c12.1,3.8,22.8-5.3,23.1-9.2l8.8,7.8l5.3-3.9l-2.6-3.1c0,0-7.9-6-9.7-7.2
			c-1.8-1.2-4.9-15.3-7.3-16.2s-5.7-1.8-6,0c-0.3,1.8,3.4,10.8,3.1,12.6c0,0-10.5-1.4-16.5,5.2
			C1330.9,349.4,1320.7,359.4,1332.8,363.2z M1348.3,349.6c0,0-4.1,10-13.2,7.3C1335.2,356.9,1334.8,348.2,1348.3,349.6z"/>
	</g>
	<g>
		<path class="st20" d="M1285,348.4c1.3-0.1,2.6-0.2,3.9-0.3c1.8,5,3.5,9.9,5.2,14.9c2.2,6.6,4.3,13.2,6.3,19.8
			c1.1,3.8,2.2,7.5,3.3,11.3c0,0,0,0.1-0.1,0.1c-1.6,0.4-3.2,0.9-4.8,1.3c0,0-0.1,0-0.1,0c-4.3-6.9,0.3-0.1-3.9-10.6
			c-3.2-8-13.5-27.2-17.7-34.7c-0.3-0.5-0.6-1.1-0.9-1.6C1279.3,348.7,1282.2,348.6,1285,348.4z"/>
		<path class="st20" d="M1254.9,345.6c0.6,1.2,1.2,2.3,1.8,3.5c-3.9,3.6-7.8,5.4-11.7,8.9c-5.2,4.6-17.5,16.1-21.4,20
			c0,0-3.5,2.9-3.5,2.9c-1-1.3-2.1-2.6-3.1-3.9c0,0,0-0.1,0-0.1c4.7-6.7,15.6-20.4,21.3-26.2c6-6.2,6.5-4.7,11.9-11.5
			c0.4-0.5,0.7-0.9,1.1-1.4C1252.3,340.5,1253.5,343.1,1254.9,345.6z"/>
		<path class="st2" d="M1204.6,270.7c8.6,0.9,17.1,2.4,25.7,3c1.4,4,2.6,9.8,7.9,9.6c8.9,1.2,18.3,1.8,27.3,1.9
			c5.6-0.6,8.6,3.8,10.4,8.4c6.2,12.4,11.8,25.1,16.7,38.1c1,4.5,13.3,32.8,9.1,33.4c-11.3,2-23,3-34.3,2.3
			c2.8-7.5-3.1-13.9-3.2-21.1c-5.8,8.2-11.5,16.5-17.5,24.5c-7.7-4.6-16.1-11.1-20.2-19c1.8-2.8,3.5-5.7,4.6-8.9
			c3-5.5,8.7-8.8,11.4-14.4c1.7-5.8,2.6-11.7,8.7-14.6c-0.1-0.7-0.3-1.3-0.6-1.9c-46.2,0-47.9,7.8-50.7-42.1
			C1201.5,270.3,1203,270.5,1204.6,270.7z"/>
		<path class="st19" d="M1201.9,205.6c0.3,1,1.2,1.9,2.2,1.8c0.1,0,0.2,0,0.3-0.1c0.4,1.2,1.3,2.1,2.4,2.6c1.9,0.8,3.8,0.3,5.4-0.8
			c0.1,0,0.1-0.1,0.2-0.2c0.3-0.3,0.6-0.5,0.9-0.9c0,0,0,0,0,0c0.9-1,1.5-2.2,2-3.5c0-0.1,0.1-0.2,0.1-0.3c0-0.1,0.1-0.3,0.1-0.4
			c0.1-0.3,0.2-0.7,0.3-1.1c0.3,0.4,0.7,0.7,1.1,1.1c0,0,0,0,0.1,0.1c2.1,1.9,4.5,3.5,6.9,5c0.3,0.2,0.6,0.4,0.9,0.5
			c0,0,0.1,0,0.1,0.1c0.8,0.4,1.7,0.7,2.6,0.6c0.4,0,0.7-0.1,1.1-0.2c0.3,0.3,0.6,0.7,0.9,1c0.7,0.6,1.4,1.2,2.4,1.4
			c0,0,0.1,0,0.1,0c0.6,0.2,1.3,0.2,1.9,0c0.3-0.1,0.6-0.2,0.9-0.4c0.3-0.2,0.6-0.6,1-0.8c0.8-0.6,1.7-0.2,2.5,0.2
			c0.7,0.3,1.4,0.6,2.1,0.5c1.2-0.1,2.2-0.9,2.8-1.9c1.4,0.2,2.9,0.1,4.1-0.6c1.7-1,2.2-3,2.1-4.9c0-2-0.6-4-1.5-5.8
			c-0.9-1.9-2.4-3.3-3.6-5c-0.6-0.9-1.2-1.8-1.5-2.8c-0.4-1.1-0.6-2.2-0.7-3.3c0-0.1,0.1-2,0.3-2.9c0.2-1.4,0.3-2.8-0.1-4.3
			c-0.7-2.5-2.4-4.6-4.7-5.9c-1.2-0.7-2.5-1.2-3.9-1.5c-1.5-0.4-3-0.7-4.5-1.4c-1.3-0.7-2.6-1.3-4-1.7c-1.4-0.4-2.8-0.5-4.3-0.3
			c-2.3,0.3-4.4,1.4-5.8,3.3c-2.6-0.9-5.4,0.7-6.9,2.8c-0.8,1.2-1.4,2.6-1.8,4c-0.5,1.6-0.9,3.2-1.1,4.8c-0.2,1.6-0.3,3.3-0.1,4.9
			c0.2,1.7,0.6,3.4,0.6,5.1c0,0.5,0,0.9-0.2,1.3c-0.2,0.4-0.5,0.7-0.8,1c-0.5,0.5-1,0.9-1.4,1.4c-0.8,1-1.4,2.3-1.7,3.6
			C1201.5,202.9,1201.4,204.4,1201.9,205.6z"/>
		<path class="st20" d="M1237.7,194.6c0-0.6,0-1.2-0.1-1.8l0-0.6c0-0.6-0.1-1.3-0.1-1.9c0,0,0,0,0,0c0-0.2,0-0.5,0-0.7
			c0-0.8-0.1-1.5-0.2-2.3c-0.1-0.8-0.1-1.7-0.2-2.5c-0.1-0.7-0.1-1.5-0.2-2.2c-1.1-0.3-2.2-0.7-3-1.6c-0.5-0.6-0.9-1.2-1.6-1.6
			c-0.7-0.4-1.4-0.5-2.1-0.7c-0.3-0.1-0.6-0.1-0.8-0.2c-0.3-0.1-0.6-0.1-0.9-0.2c-0.4-0.1-0.8-0.1-1.2-0.2c-0.1,0-0.1,0-0.2,0
			c-2-0.2-3.9-0.1-5.8,0.6c-1.3,0.5-2.6,1.2-3.7,2.1c-1.2,0.9-2.3,1.9-3,3.2c-0.7,1.3-1.1,2.7-1.2,4.1c0,0.1,0,0.2,0,0.4
			c-0.1,1.5,0.1,3,0.2,4.4c0,0.1,0,0.2,0,0.2c0,0.2,0.1,0.4,0.1,0.6c0.2,1,0.3,2.1,0.6,3.1c0,0,0,0,0,0c0,0.2,0.1,0.3,0.1,0.5
			c0,0.1,0,0.2,0,0.3c0,0.2-0.1,0.3-0.1,0.5c-0.2,0.9-0.3,1.9-0.5,2.8c-0.4,2.2-0.7,4.4-1.3,6.6c0,0.2-0.1,0.4-0.1,0.6
			c0,0.2-0.1,0.4-0.1,0.6c0,0,0,0.1,0,0.1c0,0.1,0,0.2-0.1,0.2c-0.1,0.4-0.2,0.8-0.3,1.2c-0.3,1.1-0.6,2.2-0.8,3.3
			c0,0.1,0,0.2-0.1,0.3c-0.1,0.4-0.1,0.8-0.2,1.2c0,0.1,0,0.1,0,0.2c0,0.1,0,0.2,0,0.3c-0.1,0.3-0.1,0.7,0,1
			c0.1,0.4,0.5,0.4,0.8,0.5c1.2,0.2,2.4,0.5,3.6,0.7c2.4,0.4,4.8,0.8,7.2,1.1c0,0,0.1,0,0.1-0.1c0.3-1.2,0.6-2.4,0.9-3.6
			c0,0,0-0.1,0-0.1c0.2-0.7,0.3-1.4,0.5-2.1c0.1-0.5,0.2-0.9,0.3-1.4c0.1-0.4,0.2-0.8,0.3-1.3c0-0.2,0.1-0.4,0.1-0.6
			c0.3,0.2,0.7,0.3,1,0.4c1.2,0.4,2.5,0.8,3.8,0.7c0.3,0,0.5,0,0.8-0.1c0.6-0.1,1.1-0.3,1.5-0.6c0.8-0.5,1.4-1.3,2-2.1
			c0.8-1.3,1.4-2.7,2-4.1c0.6-1.5,1.2-3.1,1.6-4.7C1237.7,197.8,1237.8,196.2,1237.7,194.6z"/>
		<path class="st22" d="M1225.6,195c0,0.9,0.3,1.7,0.7,1.7c0.4,0,0.8-0.7,0.8-1.6s-0.3-1.7-0.7-1.7
			C1226,193.4,1225.7,194.1,1225.6,195z"/>
		
			<ellipse transform="matrix(1.896082e-02 -0.9998 0.9998 1.896082e-02 1017.9369 1425.3309)" class="st22" cx="1235.3" cy="194" rx="1.7" ry="0.7"/>
		<path class="st23" d="M1227,203.3c0.6,1.3,1.5,2.5,3.7,2.5c1.7,0,2.9-1.5,3.3-2.9c0-0.1-0.1-0.1-0.2-0.1c0,0-0.2,0-0.4,0.1
			c-0.5,0.1-1.5,0.2-2.5,0.3c-1.1,0-2.3,0-3.2,0c-0.2,0-0.4,0-0.6-0.1C1227,203.2,1226.9,203.3,1227,203.3z"/>
		<path class="st19" d="M1241.6,188.6c-0.2-1.1-0.4-2.1-0.6-3.2c-0.2-1-0.4-1.9-0.8-2.8c-0.8-1.6-2-3.1-3.3-4.3
			c-1.4-1.3-3-2.3-4.8-2.8c-1-0.3-2-0.5-3-0.7c-0.3,0-0.6-0.1-1-0.1c-0.2-0.1-0.4-0.1-0.6-0.2c0-0.1,0-0.3,0-0.4
			c0-0.1-0.1-0.1-0.1,0c0,0.1,0,0.3,0,0.4c-0.1,0-0.2,0-0.3-0.1c0,0,0-0.1,0-0.1c0-0.1-0.2-0.1-0.1,0c0,0,0,0.1,0,0.1
			c-0.6-0.1-1.1-0.1-1.7,0c0,0,0,0,0,0c-0.2,0-0.4,0-0.6,0c-1,0.1-2,0.3-2.9,0.6c-2,0.7-4,1.7-5.4,3.4c-1.4,1.7-2.5,3.7-3.3,5.7
			c-0.8,2-1.4,4-1.7,6.1c0,0,0,0.1,0,0.1c0,0,0,0,0,0c-0.6,0.3-1,0.8-1.5,1.3c-0.1,0.2-0.3,0.3-0.4,0.5c-0.6,0.9-1,2-1.2,3.2
			c-0.1,0.5-0.1,1.1-0.2,1.7c-1.9,1.3-3.2,3.2-3.8,5.4c-0.3,1-0.4,2.3-0.2,3.4c0.2,1.2,0.8,2.3,2,2.8c1.9,0.7,4.2,0.8,6.1-0.1
			c0.4-0.2,0.7-0.4,1-0.6c0.1-0.1,0.2-0.2,0.4-0.3c0.9-0.9,1.4-2,1.6-3.2c0-0.1,0-0.2,0.1-0.3c0.1-0.5,0.2-1,0.2-1.5
			c0-0.2,0-0.3,0.1-0.5c0-0.3,0.1-0.5,0.1-0.8c0.1-0.7,0.1-1.4,0.1-2.1c0-0.1,0-0.2,0-0.3c0-0.6,0-1.2,0-1.9c0-0.6,0-1.1,0.1-1.7
			c0.1-0.4,0.2-0.9,0.3-1.3c0,0,0,0,0,0c0,0,0,0,0-0.1c0-0.1,0.1-0.2,0.1-0.4c0,0,0,0,0,0c0,0,0,0,0,0c0.2-0.6,0.5-1.2,0.9-1.7
			c0,0,0.1-0.1,0.1-0.1c0.1-0.2,0.3-0.3,0.5-0.4c0.5-0.1,0.9-0.4,1.3-0.7c0.7-0.6,0.9-1.5,1.2-2.3c0.3-1,0.8-1.7,1.6-2.3
			c0.7-0.5,1.6-0.8,2.3-1.3c2.3-1.5,2.7-4.2,2.9-6.9c0-0.2,0-0.3,0-0.5c0-0.6,0.1-1.1,0.1-1.7c0.3,0.7,0.8,1.3,1.3,1.9
			c0.2,0.2,0.4,0.4,0.6,0.6c0.1,0.1,0.2,0.2,0.3,0.3c1.3,1.2,2.8,2.2,3.9,3.5c0.6,0.7,1.1,1.5,1.3,2.3c0.3,0.8,0.4,1.7,0.5,2.6
			l0,0.1c-0.1,0-0.2,0-0.3,0c0,0-1.4,0.1-1.7,0.4c-0.2,0.2-0.1,0.6,0.3,0.8c0.5,0.3,1.2,0.4,1.8,0.4c0.1,0,0.2,0,0.2,0
			c0.1,0.5,0.3,1,0.5,1.5c0,0,0,0,0,0c0.2,0.5,0.5,1,0.9,1.5c0.1,0.1,0.2,0.2,0.3,0.4c0.2,0.2,0.4,0.4,0.6,0.6
			c0.4,0.4,0.7,0.7,1.1,1.1c0.7,0.7,1.5,1.4,2.4,1.9c0,0,0.1,0,0.1,0C1242.1,193.4,1242,191,1241.6,188.6z M1227.7,174.7
			C1227.7,174.8,1227.7,174.8,1227.7,174.7L1227.7,174.7c0-0.1,0.1,0,0.1,0C1227.8,174.7,1227.7,174.7,1227.7,174.7z"/>
		<path class="st20" d="M1214.1,197C1214.1,197,1214.1,197,1214.1,197c0.1,0.1,0.2,0.3,0.3,0.5c0.1,0.1,0.1,0.2,0.2,0.2
			c0.4,0.5,0.8,1,1.3,1.3c0.1,0,0.1,0.1,0.2,0.1c0.2,0.1,0.3,0.1,0.5,0.1c0,0,0,0,0,0c0.2,0,0.3-0.1,0.4-0.3
			c0.2-0.3,0.3-0.6,0.4-0.9c0.1-0.4,0.3-0.8,0.4-1.2c0.1-0.3,0.1-0.5,0.2-0.8c0,0,0,0,0-0.1c0-0.1,0-0.1,0-0.2l0-0.1
			c0.1-1.1,0.1-2.3,0.1-3.3c0,0,0,0,0-0.1c0.5,0.1,1,0.1,1.4-0.3c0.2-0.1,0-0.4-0.2-0.2c-0.6,0.4-1.2,0.3-1.8,0.1
			c-0.5-0.2-1.1-0.4-1.6-0.5c-0.7-0.1-1.3,0.2-1.8,0.8c-0.2,0.2-0.3,0.5-0.4,0.7c-0.1,0.2-0.2,0.5-0.2,0.7
			C1213.3,194.8,1213.5,196,1214.1,197z"/>
		<path class="st23" d="M1231.5,193.7c-0.1-0.2,0.2-0.3,0.3-0.1c0.5,0.9,1.1,1.9,1.5,2.8c0.4,0.7,0.7,1.5,0.7,2.4
			c0,1.7-1.5,2-2.9,1.7c-0.2,0-0.2-0.3,0-0.3c0.7,0.1,1.5,0.2,2-0.2c0.7-0.6,0.6-1.6,0.3-2.4C1233,196.2,1232.2,194.9,1231.5,193.7z
			"/>
		<path class="st23" d="M1216.1,199.2c0.4,0.2,0.9,0.1,1.3,0c0.2-0.1,0.3,0.2,0.2,0.2c-0.5,0.2-1.1,0.3-1.6,0.1
			C1215.8,199.4,1216,199.1,1216.1,199.2z"/>
		<path class="st2" d="M1227.7,203.2c0.2,0.5,0.6,0.8,1.2,1.1c0.5,0.2,1.1,0.3,1.7,0.2c0.5,0,1-0.1,1.4-0.3c0.6-0.2,1.1-0.7,1.4-1.3
			c-0.5,0.1-1.5,0.2-2.5,0.3C1229.8,203.3,1228.6,203.3,1227.7,203.2z"/>
		<path class="st19" d="M1223,190.3c1,0.1,2-0.3,3-0.4c1-0.1,2,0.1,2.9-0.1c0.6-0.1,0.9-0.3,0.8-0.7c-0.1-0.4-0.8-0.6-1.4-0.8
			c-1.8-0.4-4.1-0.2-5.7,0.4C1222,189.1,1221.5,190.2,1223,190.3z"/>
		<path class="st24" d="M1297,382.6c1.1-0.1,2.1-0.3,3.2-0.5c1.8,4.7,4.3,10.1,7.5,14c1.9,2.3,9.9,9.6,10.3,10.1
			c0.4,0.4,0.7,0.9,0.7,1.4c0,0.5-0.4,0.9-0.8,1c-0.6,0.2-1.3,0.3-2,0.5c-1.5,0.3-2.1,0.4-3.6,0.2c-3-0.2-5.3-2.3-6.1-3.3
			c-0.9-1.1-2-2-3.2-2.9c-1.2-0.9-2.4-1.7-3.5-2.6c-1.8-1.5-3.3-2.7-3.7-5.2c-0.3-1.5,0.3-3.8,0.2-5.3c0-1.5-1.7-5.8-1.9-6.5
			c0-0.3-0.1-0.5-0.1-0.8C1295,382.8,1296,382.7,1297,382.6z"/>
		<path class="st24" d="M1213.1,383.2c0.7,1,1.5,1.9,2.3,2.9c0.8,1.1,1.4,2.3,2.1,3.5c1,1.9,1.9,4.1,3.9,5.2c1,0.5,2.1,0.8,3.2,1
			c1.2,0.3,2.3,0.6,3.5,1.1c0.4,0.2,0.9,0.4,1.4,0.2c0.3-0.1,0.6-0.5,0.6-0.9c-0.1-0.4-0.5-0.8-0.8-1.1c-0.3-0.3-0.7-0.7-1-0.9
			c-1.6-1.3-3.5-2.1-4.9-3.6c-0.8-0.9-1.3-2-1.7-3.1c-0.4-1.3-0.7-2.6-0.8-4c-0.1-0.7-0.1-1.4,0.1-2.1c0.2-0.7,0.6-1.2,1.1-1.7
			c0.5-0.5,5.1-4.5,6.7-6.4c0,0,0-0.1,0-0.1c0,0-0.1-0.1-0.1-0.1c-1.1-0.9-2.2-1.7-3.3-2.6c-0.5-0.4-1-0.8-1.5-1.2
			c-0.2-0.1-0.4-0.4-0.6-0.5c-0.1,0-0.1,0-0.2,0c0,0,0,0,0,0c-0.2,0.1-0.3,0.3-0.4,0.4c-0.2,0.2-0.4,0.4-0.6,0.6
			c-0.4,0.4-0.7,0.8-1.1,1.2c-0.7,0.9-2.3,3-2.4,3.1c-1.1,0.7-2.2,1.3-3.3,1.7c-0.9,0.4-1.9,0.7-2.6,1.5
			C1211,379.1,1211.9,381.6,1213.1,383.2z"/>
		<g>
			<path class="st20" d="M1292,241.4c-0.3,0-0.5,0.3-0.7,0.5c-0.2,0.3-0.5,0.6-0.7,1c-0.2,0.4-0.3,0.9-0.4,1.3
				c-0.1,0.5-0.3,1-0.5,1.4c-0.2,0.5-0.4,0.9-0.8,1.2c-0.4,0.3-0.8,0.5-1.2,0.7l-1.4,0.8l-0.1,0.1c-1.3,0.2-2.7,0.3-4.1,0.4
				c0.6-0.2,1.5-0.5,1.4-1.2c-0.1-1-1.7-0.5-2.2-0.4c-1.1,0.2-2.2,0.4-3.4,0.4c-1,0.1-2.1,0-3.1-0.1c-0.4,0-0.7,0-1.1,0c0,0,0,0,0,0
				c0,0,0,0,0,0c0,0,0,0,0,0c-1.7,0.1-3.3,0.9-4.2,2.4c-0.1,0.2-0.2,0.4-0.3,0.7c-1.2,1.3-2.3,2.5-3.5,3.8
				c-5.6,5.9-12.6,12-18.8,17.2c0.4,0.4,1.8,2.1,2.7,2.7c4.1,2.9,8.4,2.4,11.3-1.7c3.9-5.6,9.8-14.6,12.7-19.3c0,0,0,0,0,0
				c3.7-0.5,11.3-1.8,12.4-2c0,0,0,0,0,0c0.1,0,0.1,0,0.1,0c0,0,0,0,0,0c0,0,0,0,0,0c0,0,0,0,0,0c0,0,0,0,0,0
				c0.1-0.1,0.1-0.1,0.2-0.2c0.7-0.7,1.5-1.2,2.3-1.7c0.4-0.3,0.9-0.5,1.3-0.8c0.4-0.2,0.8-0.4,1.1-0.7c0.3-0.2,0.3-0.6,0.4-0.9
				c0-0.5,0.1-0.9,0.1-1.4c0.1-1,0.3-1.9,0.6-2.9C1292.5,242.3,1292.8,241.4,1292,241.4z"/>
			<path class="st21" d="M1255.8,263.3c-0.5,0-1.7-0.7-2-1.3c0,0,0,0,0,0c-0.5-1.2-1.1-2.4-1.8-3.5c-1-1.5-2.1-3-3-4.6
				c-1-1.6-1.6-3.4-2.1-5.2c-1-3.5-7.5-19-9.7-21.9c-3.7-4.9-8.1-7.9-11.6-9.9c0.1-0.1,0.1-0.2,0.2-0.3c0,0,0,0,0,0c0,0,0,0,0,0
				c0.1-0.3,0.3-0.6,0.4-0.9c0.1-0.4-0.1-0.9-0.2-1.4c-0.1-0.3-0.1-0.9-0.4-1c0,0,0,0-0.1,0c-0.2-0.1-0.4-0.1-0.6-0.1
				c-0.3-0.1-0.6-0.1-0.9-0.2c0,0-0.1,0-0.1,0c-0.7-0.2-1.4-0.3-2.1-0.5c-2.4-0.5-4.8-1.1-7.2-1.6c-0.6-0.1-1.3-0.3-1.9-0.4
				c-0.3-0.1-0.5-0.1-0.8-0.2c-0.3-0.1-0.5-0.1-0.8-0.1c-0.1,0-0.1,0-0.2,0c-0.2,0-0.3,0.1-0.4,0.3c-0.1,0.1,0,0.3-0.1,0.4
				c0,0.2-0.1,0.4-0.2,0.6c-0.3,0.4-0.7,0.7-1.2,0.9c-0.2,0.1-0.4,0.3-0.4,0.6c0,0.2,0.2,0.4,0.3,0.6c0.1,0.3,0,0.5-0.1,0.8
				c0,0.1-0.1,0.2-0.1,0.2c0,0,0,0,0,0c-6,1.9-8.4,4-9.6,4.7c-3,1.9-4.5,4.1-6.3,7c-1.9,3.1-3.2,8.8-3.8,12.3
				c-1.5,8-2,16.1-2.3,24.3c-0.1,4.1,0.8,1.8,1,5.9c0.5,9.5,10.2-0.4,12.7-2c2.4-1.5-0.4,7.7,1,6.9c0.5,0.2,23.2,1.8,29.6,2.4
				c0.2,0.2,0.7,0.2,0.7-0.1c0.7-2.3,0.9-4.6,0.8-7c0-1.2-0.4-5.9-0.8-10.7c1.8,1.3,4.6,3.2,4.7,3.6c0.6,0.7,1.3,1.4,2,2.1
				c0.5,1.2,1.3,2.1,2.4,2.9c0.4,0.3,0.8,0.6,1,1.1c0.2,0.3,0.3,0.7,0.5,1c0.3,0.7,0.7,1.2,1.3,1.6c0.7,0.5,1.3,0.9,1.7,1.7
				c0.3,0.6,0.5,1.3,1,1.7c0.6,0.4,1.4,0.4,2,0.5c0.5,0.1,0.9,0.3,1.2,0.6c0.2,0.3,0.5,0.5,0.8,0.7c1.5,0.8,3.3,0,4.7,0.9
				c0,0,0.1,0,0.1-0.1C1255.1,272.1,1254.7,267.7,1255.8,263.3C1255.8,263.4,1255.8,263.3,1255.8,263.3z"/>
		</g>
		<path class="st22" d="M1202.8,233.8c0.7,4.4-0.2,8.8-0.9,13.1c-0.8,4.7-1.7,9.3-2.5,14c0,0.2-0.3,0.1-0.3,0
			c0.8-4.6,1.6-9.1,2.4-13.7c0.8-4.4,1.7-8.9,1-13.3C1202.4,233.7,1202.7,233.6,1202.8,233.8z"/>
		<path class="st22" d="M1209.9,214.8c1.6,1,3.4,1.7,5.3,2c0.2,0,0.1,0.3,0,0.3c-2-0.3-3.8-1-5.5-2
			C1209.5,214.9,1209.7,214.7,1209.9,214.8z"/>
		<path class="st22" d="M1239,192.8c0.6,0.9,1.4,1.5,2.4,1.7c0.2,0,0.1,0.3,0,0.3c-1.1-0.3-2-0.9-2.6-1.8
			C1238.6,192.9,1238.9,192.7,1239,192.8z"/>
		<path class="st22" d="M1214.1,187.8c0.2-0.1,0.3,0.2,0.1,0.3c-2.4,1-3.5,3.7-2.5,6.1c0.1,0.2-0.2,0.3-0.3,0.1
			C1210.3,191.7,1211.5,188.8,1214.1,187.8z"/>
		<path class="st22" d="M1209.6,191.6c0.1-0.2,0.3-0.1,0.3,0.1c-0.2,0.8-0.1,1.6,0.3,2.2c0.1,0.2-0.1,0.3-0.2,0.2
			C1209.5,193.3,1209.4,192.4,1209.6,191.6z"/>
		<path class="st22" d="M1220.6,174.1c2.2-1.1,4.5,0.1,6.3,1.4c0.1,0.1,0,0.3-0.2,0.2c-1.7-1.3-3.9-2.4-6-1.4
			C1220.6,174.4,1220.5,174.2,1220.6,174.1z"/>
		<path class="st25" d="M1252.1,314.4c1.6,1.7,2.8,3.7,3.5,5.9c0.8,2.5,0.6,5.1,1.1,7.7c0.3,1.4,0.8,2.7,1.5,3.9
			c0.7,1.1,1.5,2.1,2.2,3.2c1.3,2.1,1.7,4.6,2.1,7.1c0,0.2-0.3,0.2-0.3,0c-0.4-2.6-0.9-5.2-2.3-7.5c-0.7-1-1.4-1.9-2-2.9
			c-0.6-1-1.1-2.2-1.3-3.3c-0.6-2.6-0.4-5.2-1.1-7.8c-0.7-2.3-1.9-4.4-3.6-6.2C1251.8,314.5,1252,314.3,1252.1,314.4z"/>
		<path class="st25" d="M1206.8,274.3c-0.1,2.2-0.2,4.4-0.1,6.6c3.6-0.1,7.6-1.8,8.4-5.7c0-0.2,0.3-0.1,0.3,0c-0.8,4-4.9,5.9-8.7,6
			c0.1,2.7,0.4,5.4,1.2,8c1.3,4.1,4,7.9,8,9.7c4.6,2,9.9,1.4,14.7,1c2.6-0.2,5.3-0.5,7.9-0.7c2.6-0.2,5.2-0.6,7.9-0.6
			c4.3,0,8.2,1.1,11.7,3.6c3.2,2.3,5.7,5.5,7.5,9c4.6,8.4,5.5,18.1,8.6,27c3,8.3,7.5,16.2,8.4,25.1c0.1,1,0.1,2.1,0.1,3.1
			c0,0.2-0.3,0.1-0.3,0c0.1-9.2-4.4-17.5-7.6-25.9c-1.7-4.4-2.9-9-4.1-13.6c-1.2-4.7-2.4-9.4-4.4-13.8c-1.8-3.8-4.2-7.3-7.4-10
			c-3.5-3-7.8-4.4-12.4-4.4c-2.7,0-5.3,0.3-8,0.6c-2.7,0.3-5.4,0.5-8.1,0.8c-4.6,0.4-9.4,0.9-13.8-0.6c-3.9-1.4-6.7-4.4-8.3-8.1
			c-1.9-4.2-2.1-8.8-2-13.3c0-1.3,0.1-2.5,0.1-3.8C1206.5,274.1,1206.8,274.1,1206.8,274.3z"/>
		<path class="st25" d="M1253.3,308.2c1.2-1.1,2.4-2.2,3.7-3.3c0.1-0.1,0.3,0.1,0.2,0.2c-1.2,1.1-2.4,2.2-3.7,3.3
			C1253.3,308.5,1253.1,308.3,1253.3,308.2z"/>
		<path class="st25" d="M1254,310.9c1-1.1,2.2-2,3.4-2.7c0.2-0.1,0.3,0.1,0.2,0.2c-1.2,0.7-2.4,1.6-3.4,2.7
			C1254.1,311.2,1253.9,311,1254,310.9z"/>
		<g>
			<path class="st22" d="M1226,373.8c0.2-0.3,0.5-0.5,0.7-0.8c0.1-0.1,0.2-0.2,0.3-0.2c0.3,0,0.2,0.3,0.1,0.5c0,0-1,1.4-2.1,2.4
				c-1,1-1.9,1.7-2,1.7c-0.1,0-0.2-0.1-0.1-0.2C1223.7,376,1224.9,374.9,1226,373.8z"/>
			<path class="st22" d="M1224.5,372.5c0.2-0.3,0.5-0.5,0.7-0.8c0.1-0.1,0.2-0.2,0.3-0.2c0.3,0,0.2,0.3,0.1,0.5c0,0-1,1.4-2.1,2.4
				c-1,1-1.9,1.7-2,1.7c-0.1,0-0.2-0.1-0.1-0.2C1222.3,374.7,1223.4,373.7,1224.5,372.5z"/>
			<path class="st22" d="M1219.8,374.3c1-1.2,2.1-2.3,3.2-3.5c0.2-0.3,0.5-0.5,0.7-0.8c0.1-0.1,0.2-0.2,0.3-0.2
				c0.3,0,0.2,0.3,0.1,0.5c0,0-1,1.4-2.1,2.4c-1,1-1.9,1.7-2,1.7C1219.8,374.6,1219.7,374.4,1219.8,374.3z"/>
		</g>
		<g>
			<path class="st22" d="M1299.5,383.3c0-0.1-0.1-0.3,0-0.4c0.2-0.2,0.3,0,0.4,0.2c0,0,0.6,1.6,0.9,3.1c0.3,1.3,0.4,2.5,0.3,2.7
				c0,0.1-0.2,0.1-0.3,0c-0.5-1.5-0.8-3-1.2-4.6C1299.7,384,1299.6,383.7,1299.5,383.3z"/>
			<path class="st22" d="M1297.7,383.5c0.2-0.2,0.3,0,0.4,0.2c0,0,0.6,1.6,0.9,3.1c0.3,1.3,0.4,2.5,0.3,2.7c0,0.1-0.2,0.1-0.3,0
				c-0.5-1.5-0.8-3-1.2-4.6c-0.1-0.3-0.2-0.7-0.3-1C1297.6,383.8,1297.6,383.6,1297.7,383.5z"/>
			<path class="st22" d="M1295.4,383.9c0.2-0.2,0.3,0,0.4,0.2c0,0,0.6,1.6,0.9,3.1c0.3,1.3,0.4,2.5,0.3,2.7c0,0.1-0.2,0.1-0.3,0
				c-0.5-1.5-0.8-3-1.2-4.6c-0.1-0.3-0.2-0.7-0.3-1C1295.4,384.2,1295.3,384,1295.4,383.9z"/>
		</g>
		<path class="st25" d="M1225.9,283.6c1.9-0.9,3.9-1.5,6-1.8c0.2,0,0.2,0.3,0,0.3c-2.1,0.3-4.1,0.9-5.9,1.7
			C1225.8,284,1225.7,283.7,1225.9,283.6z"/>
		<path class="st23" d="M1215.1,193c0.4-0.3,0.9,0.2,1.1,0.5c0.5,0.7,0.5,2.2,1.6,2.3c0.2,0,0.1,0.3,0,0.3c-0.5-0.1-0.9-0.4-1.1-0.9
			c-0.1-0.3-0.8-2.4-1.3-2C1215.2,193.4,1215,193.1,1215.1,193z"/>
		<path class="st20" d="M1222,244.7c-1.1-4.8-2.7-9.7-1.5-14.6c0.1-0.4,0.3-1.4-0.2-1.7c-1.2-0.2-2.1,8-2,9.2
			c-0.1,0-0.1-0.1-0.2-0.1c-0.9-3.2-0.6-6.5,0.1-9.7c0-0.3,0-1.4-0.5-1.2c-1.9,2.5-1.7,6.3-1.6,9.3c0,0,0,0,0,0
			c-0.8-2.6-0.9-5.4-0.3-8c0.1-0.6,0.4-1.6-0.2-2c-4,6.3,0.9,13.8,1.3,20.6c-7.2,6.9-14.9,13.2-22.9,19c2.7,2.8,5.4,5.4,7.9,8.3
			c6.7-7.6,13-15.6,18.9-23.9C1222.6,248.6,1222.7,246.8,1222,244.7z"/>
		<path class="st21" d="M1186.8,250.7c0,0.7,0.1,1.3,0.3,2c0.1,0.2,0.1,0.5,0.1,0.7c0,0.2,0,0.4,0,0.5c0,0.4-0.1,0.7-0.2,1.1
			c0,0.2-0.1,0.4-0.2,0.6c-0.1,0.4-0.2,0.8-0.3,1.2c-0.1,0.5-0.1,1.1,0,1.6c0,0.4,0.1,0.7,0.1,1.1c0,0.1,0,0.2,0,0.2c0,0,0,0,0,0
			c0.1,0.7,0,1.3-0.1,2c0,0.2-0.1,0.4-0.1,0.6c0,0.1,0,0.3-0.1,0.4c-0.2,1.1-0.3,2.1-0.3,3.2c0.1,1,0.3,2,0.4,3c0.1,1-0.1,2-0.1,3
			c0,0.4,0.1,0.8,0.2,1.2c0.3,1.1,1,2.1,2,2.7c0.4,0.3,0.9,0.4,1.3,0.6c0.3,0.1,0.6,0.3,0.8,0.5c0.1,0.1,0.2,0.2,0.3,0.3
			c0.7,0.5,1.3,0.8,2.2,0.8c0.5,0,1-0.1,1.5-0.2c0.5,0,1,0.1,1.5,0.2c0.3,0.1,0.5,0.1,0.8,0.1c0.4,0,0.8-0.2,1.2-0.5
			c0.4-0.4,0.8-0.8,1.1-1.2c0.1-0.2,0.3-0.3,0.4-0.5c0.2-0.2,0.5-0.4,0.7-0.6c0.5-0.3,1-0.7,1.3-1.1c0.2-0.2,0.3-0.4,0.5-0.7
			c0.7-1.1,1.1-2.4,2.2-3.2c0,0,0,0,0,0c0,0,0-0.1,0-0.1c0,0-0.1-0.1-0.1-0.1c-2.3-2.6-4.6-5.3-6.8-8c-0.2-0.2-0.3-0.4-0.5-0.6
			c0-0.4-0.2-0.9-0.4-1.3c-0.4-0.7-0.8-1.5-1.1-2.2c-0.3-0.8-0.5-1.5-0.8-2.3c-0.2-0.7-0.4-1.4-0.5-2.1c-0.2-0.6-0.3-1.2-0.5-1.9
			c-0.2-0.9-0.5-1.8-0.8-2.7c-0.8-2.8-1.8-5.5-2.9-8.1c-0.1-0.3-0.3-0.7-0.4-1c0-0.1-0.1-0.1-0.1,0l-0.3,1.2l-1.7,5.8l0,0.2
			C1187.3,248.5,1186.9,249.5,1186.8,250.7z"/>
		<path class="st22" d="M1193.4,264.8c0.6-0.9,1.3-2,2.4-2.4c0.2-0.1,0.3,0.2,0.1,0.3c-1,0.4-1.7,1.4-2.3,2.3
			c-0.6,1-1.1,2.1-1.4,3.2c0,0.2-0.3,0.1-0.3,0C1192.2,266.9,1192.7,265.8,1193.4,264.8z"/>
		<path class="st22" d="M1191.3,265.7c0.6-1.1,1.4-2,2.3-2.8c0.1-0.1,0.3,0.1,0.2,0.2c-0.9,0.8-1.6,1.6-2.2,2.7
			C1191.5,266,1191.2,265.9,1191.3,265.7z"/>
	</g>
	<g>
		<path class="st22" d="M1169.1,496.2c-0.4-0.7-0.8-1.3-1.3-2c-2.4-3.7-5.1-7.3-7.7-10.8c-0.9-1.2-1.8-2.4-2.7-3.6
			c-1.5-1.9-3.2-4.2-5.7-4.7c-0.9-0.2-2.1,0-2.9,0.9v0c-0.2,0.2-0.4,0.5-0.5,0.8c-0.9,2.5-2.3,7.8-1.4,8.8c1.4,1.5,2.9,3.6,4.3,4.1
			c0.6,0.3,1.4,0.3,1.9,0.8c0.5,0.5,0.8,1.2,1.1,1.7c0.6,1,1.4,1.8,2.2,2.6c0.7,0.7,1.4,1.2,2.2,1.8l10.8,0
			C1169.3,496.5,1169.2,496.3,1169.1,496.2z"/>
		<path class="st22" d="M1153.3,426.5c0-0.5-0.3-1.1-0.5-1.6c-0.3-0.7-0.7-1.4-1-2.1c-2.6-5.3-5.6-10.5-8.6-15.6c0,0,0-0.1-0.1-0.1
			c-0.7-1.2-1.4-2.4-2.4-3.4c-0.7-0.8-1.6-1.4-2.6-1.8c-1.1-0.4-2.8-0.1-3.6,1.3c-0.4,0.7-0.8,1.6-1.2,2.5c-1,2.4-1.9,5.3-1.3,6
			c1.2,1.7,2.4,3.9,3.8,4.6c0.6,0.3,1.3,0.5,1.8,1c0.4,0.5,0.6,1.2,0.9,1.8c0.5,1,1.1,2,1.9,2.9c1.6,1.9,3.5,3.4,5.4,4.8
			c0.2,0.1,0.3,0.2,0.5,0.4c1.7,1.2,3.8,2.6,5.8,1.4C1152.8,428.2,1153.3,427.5,1153.3,426.5z"/>
		<path class="st20" d="M1156.8,478.2c-1-1.7-2-3-2.6-4.9c0,0,0-0.1,0-0.1c0-0.1-0.1-0.2-0.1-0.3c0,0,0,0,0,0
			c-0.5-1.9-1.2-3.7-1.7-5.6c-0.5-1.8-0.7-3.7-1.2-5.5c0-0.1-0.1-0.1-0.2,0c-0.7,1.5-1.9,2.7-3,4c-0.5,0.6-1.1,1.1-1.6,1.6
			c0-0.2,0-0.4,0-0.6c0-0.1-0.1-0.1-0.2,0c0,0.2,0,0.5,0,0.7c-0.5,0.4-1,0.8-1.4,1.3c0,0,0,0,0,0c-0.1,0.1-0.2,0.1-0.2,0.3
			c0,0.1,0.1,0.1,0.1,0.1c0.4-0.6,1-1,1.6-1.5c0.1,1.1,0.6,2.1,0.9,3.1c0.5,1.3,0.9,2.6,1.3,3.9c0.1,0.2,0.2,0.5,0.2,0.7
			c0.1,0.2,0.1,0.4,0.2,0.6v0c0,0,0,0,0,0c0.1,0.9,0,1.8,0.2,2.6c0.2,1,0.8,2,1.4,2.8c1.3,2,2.7,3.9,4.4,5.6c0.1,0.1,0.2,0.1,0.2,0
			c1.1-1.6,4.7-3.4,5.1-3.7c0,0,0,0,0,0C1158.9,481.6,1157.8,479.9,1156.8,478.2z"/>
		<path class="st20" d="M1125.1,275.4c4.7,4.1,21.3,34.1,21.2,34.2c3.4-1.6,9.3-5.3,9.8-5.5c-9.5-19.9-17.5-36.9-17.5-36.9
			C1136.9,268.3,1124.7,275.6,1125.1,275.4z"/>
		<path class="st20" d="M1149.8,396c-1.7,0-3.3-0.6-4.9-1.1c-0.7-0.2-1.4-0.5-2.2-0.8c0.2-0.1,0.4-0.2,0.5-0.2c0.1,0,0-0.2-0.1-0.1
			c-0.2,0.1-0.5,0.2-0.7,0.3c-0.6-0.3-1.2-0.5-1.8-0.7c0,0,0,0,0,0c-0.2-0.1-0.2-0.1-0.4-0.1c-0.1,0-0.1,0.1,0,0.2
			c0.7,0.2,1.4,0.5,2,0.8c-0.7,0.4-1.3,1-1.9,1.6c-0.1,0.1-0.2,0.2-0.2,0.3c-0.1,0.1-0.2,0.2-0.3,0.3c-1.1,1.2-2.4,2.2-3.5,3.3
			c-1.1,1-2.2,2-3.3,3c-0.6,0.5-1.4,1.3-0.8,2.2c0.3,0.4,0.7,0.7,1.1,1.1c0,0,0.1,0.1,0.1,0.1c0.3,0.3,0.6,0.7,0.9,1
			c0.3,0.3,0.6,0.7,1,0.9c0.2,0.1,0.4,0.1,0.6-0.1c0.8-0.4,1.4-1.1,2.1-1.7c0.9-0.8,1.8-1.5,2.7-2.3c0.1-0.1,0.2-0.1,0.3-0.2
			c0.3-0.2,0.6-0.5,0.8-0.7c0.9-0.8,1.8-1.6,2.7-2.4c0.3-0.3,0.6-0.5,0.9-0.8c1.4-1.2,3.1-2.2,4.5-3.4
			C1149.9,396.1,1149.8,396,1149.8,396z"/>
		<path class="st19" d="M1192.7,343.1c-9.4-11-67.5-17.4-63.5-32.4c0.6-4.9-3.7-2.8-6.7-2c-6.2-0.5-15.4,7-22.1,10.1
			c-4.3,2.4-9-0.7-13.5,0.4c0.2-2.5-0.1-2.2-0.2,0c-1.3,0.4-1.4,0.8,0,0.2c1,25,15.3,47.3,23,70.7c6.2,15,12.1,30,15.2,46
			c4.8,9.6,10.6,17.9,11.9,28.9c1.3,3.5,5.7,5.1,5.6,9.1c1.4,3.5,11.1-1.1,13.6-2.3c-2.4-4.8-1.8-10.2-2-15.4
			c-0.1-7.5-4.4-13.8-6.7-20.7c-1.8-5.3-0.8-10.9-1.3-16.4c-1-8.3-4.8-15.9-5.9-24.1c3.9,4,7.3,8.9,10.5,13.2
			c3.4-3.3,7.6-5.5,9.1-10.4c3.5-5.9,10.9-7.8,15.1-13.1C1180.2,371.5,1199.7,359.1,1192.7,343.1z M1158.7,362.4
			c-5.6,3-4.6,10.3-9.8,13.7c-2.1,1.5-2.2,3.9-2.3,6.2c-0.8,4-5.1,5.7-7,9.1c-0.5-13.7-4.7-26.6-8.3-39.7
			C1134.7,354,1163.5,357.9,1158.7,362.4z"/>
		<path class="st20" d="M1099.9,334.5c-5.7-4.8-24.9-24.8-25.9-26.8c-0.5-1-0.9-2.1-1-3.2c-0.1-1.2,0.1-2.4,0.5-3.5
			c0.4-1.2,7.4-16.6,9.2-21.8c0,0,0-0.1-0.1-0.1c-6.2,0.4-10.9,1.7-17.1,2.1c0.1-0.2,0.1-0.4,0.2-0.6c0.2-0.7,0.5-1.4,0.7-2.1
			c0-0.1-0.1-0.1-0.2,0c-0.3,0.9-0.6,1.8-0.9,2.8c-0.2,0-0.5,0-0.7,0c-0.1,0-0.1,0.2,0,0.2l0.7,0c-1.5,4.7-6.2,19.5-6.5,22.4
			c-0.2,1.3-0.2,2.7,0,4c0.3,1.3,0.9,2.5,1.6,3.6c2.9,4.3,30.3,25.9,34,28.2C1096.2,337.8,1098,336.1,1099.9,334.5z"/>
		<path class="st2" d="M1148.2,282c-2.5-3.4-1.7-7.9-3.3-11.7c-2.1-4.6-6-8.4-6.3-13.7c0.1-10.7-4.8-16.9-14.5-21.1
			c-2,1.7-4.5-1.5-6.7-1.7c-5.7-0.6-12.6-1.1-17.8,1.1c-2.2,0.5-4.3,4.8-6.4,2.4c-16.1,7.7-27.1,21.9-31.4,39.1
			c-4.4,5.3-3.7,12-6.4,17.9c6.5,1.7,13.8,2,20.6,1.6c0.5,5.6-1.6,12.3,3,16.7c3.8,2.6,2.7,8.1,5.9,10.8c10.1-0.2,22.2,1.2,29.4-7.8
			c9.2-9,23.7,8.5,17.9-27.6l11.8-2C1147.1,285.4,1151.1,286.1,1148.2,282z"/>
		<path class="st20" d="M1138.9,210.6c-2.7-9.7,4-19.8-10.8-22.7c-15.7-5-18.8,12.5-17.1,24.2c-1.6,6.8-4.1,13.3-6.7,19.8
			c3.3,3.7,8.6,4.9,13.4,3.9c-0.1,0,0.7-0.1,0.9-0.2c1.4-3.4,3.2-7.8,4.2-10.1c3.2,0.4,11.3,4,12.5-0.5c0.2-1.4-0.3-3.1,0.8-4.2
			c0.9-0.5-0.1-1.4-0.3-1.9c2.6-0.7,0.5-2.1,0.9-3.7C1139.8,215.2,1140.4,213.1,1138.9,210.6z"/>
		<path class="st20" d="M1124.2,235.6c-0.7-0.4-1.3-0.7-2-1.1c-0.7-0.4-1.4-0.8-2.2-1.2c-0.1-0.1-0.2-0.1-0.3-0.2c0,0,0,0,0,0
			c-4-2.1-8.4-3.8-12.9-3c-0.3,0.1-0.6,0.1-0.9,0.2c0,0-0.1-0.1-0.1,0c-0.1,0-0.1,0.1-0.2,0.1c-0.3,0.1-0.5,0.2-0.8,0.3
			c-0.1,0-0.1,0.2,0,0.2c0.1,0,0.2-0.1,0.2-0.1c-0.2,0.1-0.4,0.3-0.7,0.4c-2.3,1.4-4.5,2.7-6.8,4c-1.4,0.8-2.8,1.6-4.2,2.4
			c0,0-0.1,0-0.1,0c2.3,3.6,5.7,6.4,9.7,7.8c2.8,1,5.9,1.4,8.9,1c2.8-0.4,5.2-1.8,7.3-3.7c0.7-0.7,1.3-1.4,2-2.1
			c0.1-0.1,0.2-0.2,0.3-0.3c1.1-1.4,2.1-2.9,3.1-4.4C1124.3,235.7,1124.2,235.6,1124.2,235.6z"/>
		<path class="st22" d="M1136,207.4c-0.2,1-0.7,1.7-1.2,1.6c-0.4-0.1-0.6-1-0.4-2c0.2-1,0.7-1.7,1.2-1.6
			C1136.1,205.5,1136.3,206.4,1136,207.4z"/>
		<path class="st22" d="M1142.8,191.5c-0.4-0.6-1-0.9-1.7-1.1c-0.5-0.1-0.9-0.3-1.1-0.9c-0.1-0.5,0.1-1.2,0.3-1.7
			c0.2-0.5,0.4-1,0.4-1.5c0.1-0.3,0.1-0.6,0-0.9c-0.3-1.8-2-2.8-3.7-3.1c-0.4-0.4-0.8-0.8-1.4-1.1c-1.5-0.6-3.2-0.7-4.8-0.5
			c-1.7,0.2-3.3,0.9-4.5,2.2c0-0.1,0-0.1-0.1-0.2l0,0c-0.2-0.8-0.8-1.3-1.6-1.7c-1-0.4-2.2-0.3-3.3,0c-2.3,0.6-4.4,1.9-6.2,3.5
			c-0.2,0.1-0.3,0.3-0.4,0.4c-0.7,0.1-1.4,0.2-2.1,0.2c-1.5,0.1-3,0.1-4.5,0.5c-2.7,0.8-5,2.7-5.4,5.6c-0.1,0.6-0.1,1.3,0.1,1.9
			c0.1,0.3,0.2,0.6,0.3,0.9c0.2,0.4,0.4,0.7,0.5,1c0.1,0.3,0.2,0.7-0.1,1c-0.1,0.1-0.2,0.2-0.4,0.4c-0.3,0.3-0.5,0.5-0.7,0.9
			c-0.4,0.6-0.7,1.2-0.9,1.8c-0.4,1.3-0.4,2.9,0.3,4c0.7,1,1.9,1.4,3,1.8c0.7,0.3,1.5,0.6,2.1,1c0.7,0.5,1.2,1.3,1.5,2.1
			c0.7,1.7,0,9.1-0.2,11c0,0,0,0.1,0.1,0.1c0.1,0,0.3,0.1,0.5,0.1c1,0.2,2.1,0,3.2-0.3c0.7-0.3,1.4-0.6,1.9-1.1
			c0.7-0.6,1.4-1.6,1.7-2.4c0,0,0-0.1,0-0.1c0.1-0.4,0.4-1,0.7-1.7c0.1-0.2,0.1-0.4,0.2-0.5c0,0,0,0,0,0c0.1-0.3,0.2-0.6,0.3-0.9
			c0,0,0,0,0,0c0.8-2.1,1.7-4.5,2.1-5.4c0.1-0.3,0.2-0.6,0.4-0.9c-0.1-0.2-0.1-0.5,0-0.8c0-0.1,0.1-0.2,0.1-0.2
			c0.7-0.5,1.6-0.7,2.6-0.8c0.2,0,0.4-0.1,0.6-0.1c0,0,0,0,0,0c0.8-0.2,1.5-0.5,2.1-1.2c0,0,0.1-0.1,0.1-0.1
			c0.8-0.9,1.2-2.2,2.4-2.7c0.4-0.2,0.7-0.2,1-0.6c0.3-0.3,0.5-0.6,0.8-0.8c0.7,0.5,1.4,0.9,2.2,1.1c0.9,0.3,2.2,0.4,3.1,0
			c0.6-0.3,1-0.9,0.9-1.5c0.9,0.3,2,0.1,2.8-0.3c0.4-0.2,0.8-0.5,1-0.9c0.1-0.2,0.2-0.4,0.3-0.7c0,0,0,0,0.1,0
			c1.6-0.3,3.2-1.2,3.6-2.8C1143.3,192.9,1143.2,192.1,1142.8,191.5z"/>
		<path class="st21" d="M1180.5,296.2c0.1-0.2,0.3-0.4-0.5-0.4c-6.1,0.1-22.4,0.1-22.6,0.1c-0.2,0-0.6,0-0.7,0.1
			c-0.2,0.1-0.3,0.3-0.4,0.5c-0.6,0.6-1.4,1.6-2.4,2.8c-2.1,2.5-4.9,6-7.8,9.7c-1.9,2.4-3.9,4.9-5.7,7.3c-0.1,0.1-0.2,0.2-0.3,0.4
			c-0.1,0.1-0.1,0.2-0.2,0.3c-1.1,1.4-2.1,2.7-3,3.9c-2.5,3.3-4.4,5.8-5,6.7c0,0.1,0,0.1,0.1,0.1c3.3,0,10.9-0.5,16.3-1
			c0.2,0,0.3,0,0.5,0c0.9-0.1,1.7-0.2,2.4-0.2c1.2-0.1,2.1-0.2,2.5-0.3c1-0.2,1.9-0.3,2.6-1c0.3-0.3,3.5-4.1,7.6-8.8
			c0.4-0.5,0.9-1,1.3-1.6c2.8-3.2,5.8-6.8,8.4-9.9C1176.8,300.9,1179.5,297.6,1180.5,296.2C1180.5,296.2,1180.5,296.2,1180.5,296.2z
			"/>
		<path class="st22" d="M1137.9,201.1c-1.1-0.2-2.3-0.2-3.4,0c-0.1,0-0.1,0-0.2,0c-0.6,0.1-1.6,0.3-2,0.8c-0.3,0.3-0.1,0.7,0.2,0.9
			c0.3,0.2,0.6,0.2,1,0.2c0.2,0,0.4,0,0.6,0.1c0.2,0,0.5,0.1,0.7,0.1c0.6,0.1,1.3,0.2,1.9,0.3c0.1,0,0.2,0,0.2,0
			c0.1,0,0.2,0,0.3,0.1c0,0,0.1,0,0.1,0c0,0,0,0,0,0c0.1,0,0.2,0.1,0.3,0.1c0.2,0.1,0.4,0.1,0.6,0.1c0-0.1,0-0.1,0-0.2
			c0-0.1,0-0.1,0-0.2c0,0,0,0,0,0c0-0.1,0-0.2,0-0.4c0,0,0-0.1,0-0.1c0,0,0-0.1,0-0.1c0,0,0,0,0,0c0-0.1,0-0.1,0-0.2
			c0,0,0-0.1,0-0.1c0-0.5,0-1,0-1.5C1138.2,201.2,1138.1,201.1,1137.9,201.1z"/>
		<path class="st23" d="M1137,217.1c-0.6,0-1.2,0.2-1.8,0.2c-0.8,0.1-1.5,0-2.3-0.1c-0.1,0-0.1,0.1-0.1,0.1c0.6,0.9,1.6,1.5,2.7,1.6
			c0.1,0,0.1,0,0.2,0c0,0,0,0,0,0l0,0c0.3-0.1,0.6-0.3,0.8-0.4c0.3-0.1,0.5-0.3,0.6-0.7C1137.2,217.7,1137.1,217.4,1137,217.1z"/>
		<path class="st21" d="M1137.3,203.6c-0.1,0-0.2,0-0.3,0c-0.1,0-0.2,0-0.2,0c-3.2-0.3-7.8-0.7-11.8-1c-1-0.1-2-0.1-2.9-0.2
			c-0.5,0-1-0.1-1.4-0.1c-0.1-0.1,0.8,1.1,1,1.3c0.1,0.1,0.4,0.1,1,0.2c0,0,0,0,0.1,0c1.7,0.3,4.9,0.7,5.9,0.8
			c2.1,0.3,4.3,0.6,6.4,0.8c0.3,0,0.6,0.1,0.9,0.1c0.2,0,0.4,0,0.5,0.1c0.1,0,0.2,0,0.4,0C1137.1,205.9,1137.3,204.1,1137.3,203.6
			C1137.3,203.7,1137.3,203.7,1137.3,203.6z"/>
		<path class="st21" d="M1139.8,203.1l-1.4-0.4l-0.8-0.2c-0.2,0-0.3,0-0.4,0.1c-0.1,0.1-0.1,0.1-0.1,0.2c-0.1,0.2-0.1,0.5-0.2,0.7
			c0,0,0,0,0,0c-0.1,0.7-0.3,1.5-0.4,2.2c-0.2,1-0.4,2-0.6,3c0,0.1,0,0.2-0.1,0.3c-0.1,0.6-0.3,1.4-0.2,2.1c0,0.3,0.1,0.5,0.3,0.7
			c0.2,0.3,0.5,0.4,0.9,0.4c0,0,0.1,0,0.1,0c0.6-0.1,1-0.7,1.3-1.3c0.1-0.3,0.3-0.7,0.4-1l0,0c0-0.1,0.1-0.2,0.1-0.3l0-0.2
			c0.4-1.4,0.7-2.8,0.9-4.2c0.1-0.6,0.2-1.2,0.4-1.8C1140.1,203.4,1140,203.2,1139.8,203.1z M1139.3,205.3c-0.3,1.3-0.5,2.7-0.9,4
			c0,0.1,0,0.1,0,0.2l0,0.2c-0.1,0.4-0.3,1-0.5,1.5c-0.2,0.4-0.5,0.8-0.9,0.8c-0.2,0-0.4-0.1-0.5-0.2c-0.1-0.1-0.2-0.3-0.2-0.5
			c-0.1-0.6,0.1-1.5,0.2-2c0-0.1,0.1-0.3,0.1-0.4c0.3-1.7,0.6-3.4,1-5.2c0-0.2,0.1-0.5,0.2-0.7l0,0l0.8,0.2l1.2,0.3
			C1139.5,204.1,1139.4,204.7,1139.3,205.3z"/>
		<path class="st20" d="M1174.5,305.6c-0.1-0.5-0.5-0.7-1-0.8c-0.4-0.1-0.7-0.1-1.1-0.1c-1.2-0.1-2.4,0-3.6,0.3c0,0,0,0-0.1,0
			c-0.6,0.1-1.2,0.4-1.7,0.6c-0.4,0.2-0.8,0.4-1.1,0.6c-0.4,0.2-0.8,0.4-1,0.8c-0.3,0.4-0.2,1,0.3,1.2c0.3,0.1,0.7,0,1-0.1
			c0.2-0.1,0.5-0.1,0.7-0.2c-0.3,0.1-0.6,0.2-0.8,0.3c-0.6,0.3-1.5,0.6-1.9,1.2c-0.2,0.3-0.3,0.9,0.2,1.1c0.2,0.1,0.4,0.1,0.6,0.1
			c-1.2,0.3-2.6,0.8-3.5,1.7c-0.3,0.3-0.6,0.7-0.4,1.1c-0.8,0.3-1.7,0.9-0.9,1.5c1,0.7,2.4,0.3,3.5,0.1c0.5-0.1,0.9-0.2,1.4-0.3
			c0.3-0.1,0.5-0.1,0.8-0.2c0.6-0.1,1.2-0.3,1.7-0.6c0.3-0.2,0.6-0.5,0.8-0.9c0.9-0.1,1.8-0.3,2.3-1.1c0.3-0.5,0.3-1.1-0.1-1.5
			c0,0,0,0,0,0c1.2,0,2.5-0.1,3.2-1.1c0.3-0.5,0.4-1.2,0.1-1.7c-0.1-0.2-0.2-0.3-0.3-0.4c0,0,0.1,0,0.1-0.1
			C1174.2,306.8,1174.7,306.3,1174.5,305.6z"/>
		<path class="st22" d="M1087.7,264.7c-0.4,2.3-0.9,4.7-2.6,6.5c0.1-0.3,0.2-0.7,0.3-1c0.6-2.4,0.6-4.9-0.4-7.3
			c-0.1-0.2-0.4,0-0.3,0.2c2.7,6.1-2,12-3.8,17.6c-1.6,5-1.4,10.7-4.7,15.1c-0.1,0.2,0.2,0.3,0.3,0.2c2.6-3.5,3-7.9,3.9-12
			c0.5-2.4,1.3-4.7,2.3-6.9c0.8-1.7,1.6-3.5,2.2-5.3c0,0,0.1,0,0.1,0c1.9-1.8,2.5-4.4,2.9-6.9C1088,264.6,1087.7,264.5,1087.7,264.7
			z"/>
		<path class="st22" d="M1129.5,273.7c-0.1-2.2,0.2-4.4,0.2-6.7c0-2.1-0.4-4.2-1.1-6.3c-0.1-0.2-0.4-0.1-0.3,0.1
			c0.7,2,1,4.2,1.1,6.3c0,2.2-0.3,4.3-0.2,6.5c0.2,4.1,2.3,8.1,1.5,12.2c0,0.2,0.3,0.3,0.3,0.1
			C1131.8,281.9,1129.7,277.9,1129.5,273.7z"/>
		<path class="st22" d="M1102.9,326.8c-0.3,2.5-1.3,4.8-2.9,6.7c-0.1,0.2,0.1,0.4,0.2,0.2c1.7-2,2.7-4.3,3-6.9
			C1103.2,326.6,1102.9,326.6,1102.9,326.8z"/>
		<path class="st22" d="M1126.9,335.8c-0.1-0.2-0.4,0-0.3,0.2c2.1,4.2,3.6,8.7,4.5,13.4c0,0.2,0.3,0.1,0.3-0.1
			C1130.5,344.6,1129,340.1,1126.9,335.8z"/>
		<path class="st22" d="M1171,356.8c-1.9,0.2-3.8,0.6-5.6,1.4c-0.2,0.1,0,0.4,0.2,0.3c1.7-0.7,3.5-1.2,5.4-1.4
			C1171.2,357.1,1171.2,356.8,1171,356.8z"/>
		<path class="st22" d="M1171.6,359.7c-1.7-0.2-3.3,0-4.9,0.3c-0.2,0-0.1,0.4,0.1,0.3c1.6-0.4,3.2-0.5,4.8-0.3
			C1171.8,360.1,1171.8,359.7,1171.6,359.7z"/>
		<path class="st22" d="M1145.7,437.4c-4.8-3.5-9.1-7.6-13-12.1c-0.1-0.2-0.4,0.1-0.2,0.2c3.9,4.5,8.3,8.6,13,12.1
			C1145.7,437.8,1145.8,437.6,1145.7,437.4z"/>
		<path class="st21" d="M1135.6,184.1c-0.2,0-0.3,0.3-0.1,0.3c1.6,0.1,2.6,1.6,2,3.1c-0.1,0.2,0.2,0.3,0.3,0.1
			C1138.4,186,1137.4,184.3,1135.6,184.1z"/>
		<path class="st21" d="M1136,186.4c-0.1-0.2-0.4,0-0.3,0.2c0.5,0.7,0.6,1.6,0.3,2.4c-0.1,0.2,0.2,0.3,0.3,0.1
			C1136.7,188.1,1136.6,187.2,1136,186.4z"/>
		<path class="st21" d="M1129.2,196.7c-1-0.9-1.7-2.8-1.4-4.1c0-0.2-0.3-0.3-0.3-0.1c-0.3,1.5,0.4,3.5,1.5,4.4
			C1129.2,197.1,1129.4,196.9,1129.2,196.7z"/>
		<path class="st21" d="M1127.2,197.3c-0.6-0.4-1-0.9-1.2-1.5c-0.1-0.2-0.4-0.1-0.3,0.1c0.2,0.7,0.7,1.2,1.3,1.6
			C1127.2,197.6,1127.4,197.4,1127.2,197.3z"/>
		<path class="st21" d="M1106.8,202.3c-1.1-0.3-1.5-2-1.1-2.9c0.1-0.2-0.2-0.3-0.3-0.1c-0.5,1.1,0.1,3.1,1.4,3.4
			C1106.9,202.7,1107,202.3,1106.8,202.3z"/>
		<path class="st22" d="M1097.1,331c-0.4-0.6-1.2-1.1-1.7-1.6c-0.1-0.1-0.2,0-0.3,0.1c-0.5,0.6-1,1.1-1.5,1.7c0,0,0,0,0,0
			c-0.3,0-0.5-0.1-0.8-0.1c-0.4,0-1.1,0.2-1.5,0.4c0,0-0.1,0-0.1,0.1c-0.1,0.1-0.2,0.2-0.3,0.2c-0.1,0-0.1,0.1-0.2,0.2
			c-0.5,0.5-0.3,0.4-0.5,0.6c-0.4,0.6-0.2,0.4-0.3,0.7c0,0.1,0,0.2,0,0.3c0,0,0,0,0,0.1l-0.1,0.4c0,0.3,0,0.5,0.1,0.8
			c0,0.1,0.1,0.2,0.1,0.4c-0.3,0.3-0.6,0.6-0.8,1c-0.1,0.1-0.1,0.2,0,0.2c0.4,0.4,1.5,1.8,2.2,1.6c0.3-0.1,0.7-0.6,1-1
			c0.1,0,0.2,0,0.3,0c0.4,0,0.8-0.1,1.1-0.2c0.4-0.1,0.7-0.3,0.9-0.6c0.1-0.2,0.3-0.4,0.4-0.6c0.1-0.2,0.2-0.5,0.3-0.8c0,0,0,0,0,0
			c0-0.1,0.1-0.3,0.1-0.4c0.1-0.3,0.1-0.7,0-1c0.1-0.1,0.2-0.2,0.3-0.3c0.4-0.4,1.1-1,1.3-1.5C1097.2,331.3,1097.2,331.2,1097.1,331
			z"/>
	</g>
</g>
<path class="st22" d="M1229.5,228.9c0.6,2.4,1.4,4.7,2.4,6.9c0.8,1.9,1.9,3.8,2.1,5.9c0.2,2.3-0.6,4.5-1.1,6.7
	c-0.6,2.5-0.7,5.1-0.9,7.7c0,0.2-0.3,0.1-0.3,0c0.2-2.4,0.3-4.9,0.8-7.3c0.5-2.3,1.4-4.6,1.2-7c-0.2-2.2-1.3-4.1-2.1-6.1
	c-0.9-2.2-1.7-4.4-2.3-6.7C1229.2,228.8,1229.5,228.7,1229.5,228.9z"/>
</svg>
