<?xml version="1.0" encoding="utf-8"?>
<!-- Generator: Adobe Illustrator 24.2.3, SVG Export Plug-In . SVG Version: 6.00 Build 0)  -->
<svg version="1.1" id="圖層_1" xmlns="http://www.w3.org/2000/svg" xmlns:xlink="http://www.w3.org/1999/xlink" x="0px" y="0px"
	 viewBox="0 0 487 484" style="enable-background:new 0 0 487 484;" xml:space="preserve">
<style type="text/css">
	.st0{fill:#EBECED;}
	.st1{fill:#FFDA86;}
	.st2{fill:#FFFFFF;}
	.st3{fill:#939393;}
	.st4{fill:#777979;}
	.st5{fill:#7A7A7B;}
	.st6{fill:#E5E5E4;}
	.st7{fill:#AFAFB0;}
	.st8{fill:#404259;}
	.st9{fill:#8696A6;}
	.st10{fill:#7A7B7B;}
	.st11{fill:#36373F;}
	.st12{fill:#D4E1E8;}
	.st13{fill:#21202B;}
	.st14{fill:#B1BFB2;}
	.st15{fill:#725754;}
	.st16{fill:#E6F1F7;}
	.st17{fill:#666A82;}
	.st18{fill:#5C3243;}
	.st19{fill:#EDCBAB;}
	.st20{fill:#5E65B5;}
	.st21{fill:#1F2144;}
	.st22{fill:#CC6C59;}
	.st23{fill:#BD7764;}
	.st24{fill:#F5DFD5;}
</style>
<g>
	<g>
		<path class="st0" d="M296.3,132.1l-42.6-73.6V24.6h8c2.5,0,4.6-2,4.6-4.6c0-2.5-2-4.6-4.6-4.6h-49.5c-2.5,0-4.6,2-4.6,4.6
			c0,2.5,2,4.6,4.6,4.6h4.9v34.1l-42.5,73.5c-1.2,2.2-1.2,5,0,7.2c1.2,2.2,3.6,3.6,6.2,3.6h109c2.6,0,5-1.3,6.2-3.6
			C297.5,137.1,297.6,134.4,296.3,132.1z"/>
		<g>
			<path class="st1" d="M277.8,135.5c3.8,0,6.5-7.3,4-11.5l-31.7-56.7c-7.3,9-26.7-5.2-29.2,0L189.3,124c-2.5,4.3,0.2,11.5,4,11.5
				H277.8z"/>
			<path class="st2" d="M234.5,72.3c0,1.4-1.2,2.5-2.5,2.5c-1.4,0-2.5-1.2-2.5-2.5c0-1.4,1.2-2.5,2.5-2.5
				C233.3,69.7,234.5,70.8,234.5,72.3z"/>
			<path class="st2" d="M230.4,107.3c0,4.2-3.5,7.6-7.6,7.6c-4.2,0-7.6-3.5-7.6-7.6c0-4.2,3.5-7.6,7.6-7.6
				C227,99.7,230.4,103.1,230.4,107.3z"/>
			<circle class="st2" cx="245.2" cy="90.6" r="3.5"/>
			<path class="st1" d="M229.9,61.9c0-1.5,1.2-2.8,2.8-2.8c1.5,0,2.8,1.2,2.8,2.8s-1.2,2.8-2.8,2.8
				C231.1,64.7,229.9,63.4,229.9,61.9z"/>
			<path class="st1" d="M246,42.8c0-2.2-1.8-4-4-4c-2.2,0-4,1.8-4,4s1.8,4,4,4S246,45,246,42.8z"/>
			<path class="st1" d="M221.6,30.2c0-3.8,3.2-7,7-7c3.8,0,7,3.2,7,7s-3.2,7-7,7C224.8,37.2,221.6,34.1,221.6,30.2z"/>
		</g>
		<path class="st3" d="M281.7,47.4H174.2c-1.5-5.5-5.9-9.8-11.4-11.3V5.3h-8.9v30.7c-6.9,1.9-12,8.4-12,15.8c0,7.6,5.1,13.9,12,15.8
			v401h8.9V67.9c5.6-1.5,9.9-6,11.4-11.5h107.5L281.7,47.4C281.7,47.4,281.7,47.4,281.7,47.4z M158.3,60.3c-4.6,0-8.3-3.7-8.3-8.3
			s3.7-8.3,8.3-8.3c4.6,0,8.3,3.7,8.3,8.3S162.9,60.3,158.3,60.3z"/>
		<rect x="141.8" y="464.2" class="st4" width="175.2" height="18.8"/>
		<rect x="209" y="45.1" class="st5" width="55.7" height="14.1"/>
	</g>
	<g>
		<path class="st6" d="M176,383.1v43.8c-24.2,3.1-49.5-4.5-68-23.2c-31.8-31.8-31.8-83.4,0-115.1l-17.1-17.1
			c-41.2,41.2-41.2,108.1,0,149.4c20.5,20.5,47.6,30.9,74.6,30.9s54.1-10.3,74.6-30.9v-37.7L176,383.1L176,383.1z"/>
		<path class="st7" d="M95.5,304.7c3.4-5.7,7.5-11.1,12.5-16.1l-17.1-17.1c-4.9,4.9-9.3,10.2-13.1,15.8c0,0,0.7,5.7,6.2,10.8
			C89.6,303.3,95.5,304.7,95.5,304.7z"/>
		<g>
			
				<rect x="104.3" y="182.7" transform="matrix(0.7071 -0.7071 0.7071 0.7071 -145.0178 165.609)" class="st6" width="46.3" height="150.4"/>
			
				<rect x="29.4" y="139.6" transform="matrix(0.7071 -0.7071 0.7071 0.7071 -110.5086 82.2681)" class="st8" width="29.3" height="69.9"/>
			
				<rect x="48.3" y="198" transform="matrix(0.7071 -0.7071 0.7071 0.7071 -121.8692 109.6557)" class="st9" width="46.3" height="7.8"/>
			
				<rect x="161.8" y="309.3" transform="matrix(0.7071 -0.7071 0.7071 0.7071 -168.9204 223.1831)" class="st9" width="46.3" height="12.4"/>
			
				<rect x="184.9" y="316.5" transform="matrix(0.7071 -0.7071 0.7071 0.7071 -174.0178 235.6295)" class="st8" width="25.1" height="22.7"/>
			<path class="st6" d="M86.3,295.8l0.4,0.4c9.6,9.6,25.1,9.6,34.6,0l5.8-5.8l-35-35l-5.8,5.8C76.8,270.7,76.8,286.3,86.3,295.8z"/>
			
				<rect x="102.6" y="251" transform="matrix(0.7071 -0.7071 0.7071 0.7071 -163.7793 156.205)" class="st7" width="8.2" height="49.5"/>
			<path class="st10" d="M92,281.9c-2.3,2.3-2.3,6.1,0,8.5c2.3,2.3,6.1,2.3,8.5,0c2.3-2.3,2.3-6.1,0-8.5
				C98.1,279.6,94.4,279.6,92,281.9z"/>
		</g>
		<rect x="176" y="383.1" class="st7" width="64.2" height="7.9"/>
		<rect x="140" y="373.6" class="st11" width="137.6" height="9.6"/>
		<path class="st6" d="M94.2,472.6H236v-0.2c0-11.4-15.5-20.5-34.7-20.5h-72.3c-19.2,0-34.7,9.3-34.7,20.5
			C94.2,472.4,94.2,472.6,94.2,472.6z"/>
		<rect x="85" y="472.6" class="st11" width="160.1" height="10.5"/>
	</g>
	<g>
		<g>
			<g>
				<g>
					<path class="st2" d="M462.5,470.2c0,0,9.7-13.1-1.1-45.2H265.7c0,0,15.6,12.9,2.1,45.2H462.5z"/>
				</g>
				<g>
					<path class="st12" d="M458.8,437.9c1.8,0,3.2,1.8,3.2,3.6c0,1.8-1.4,2.8-3.2,2.8h-69.7l0,0c-1.8,0-3.2-1.9-3.2-3.7
						c0-1.8,1.4-2.8,3.2-2.8L458.8,437.9L458.8,437.9z"/>
				</g>
				<g>
					<path class="st12" d="M459.3,450.8c1.5,0,2.7,1.8,2.7,3.6c0,1.8-1.2,2.8-2.7,2.8h-58.9l0,0c-1.5,0-2.7-1.9-2.7-3.7
						c0-1.8,1.2-2.8,2.7-2.8L459.3,450.8L459.3,450.8z"/>
				</g>
				<g>
					<path class="st13" d="M460.3,472.8l-0.9-49c0,0,18.6,8.6,18.1,23.7S460.3,472.8,460.3,472.8z"/>
				</g>
				<path class="st14" d="M483.5,447.3c-0.5-10-5.5-19-14.8-26.7c-1.2-1-2.7-1.5-4.1-1.5c-0.7,0-1.4,0.1-2.1,0.4
					c-1-0.6-2.1-0.9-3.3-0.9H265.7c-3.6,0-6.5,2.9-6.5,6.5s2.9,6.5,6.5,6.5h193.5c0.7,0,1.4-0.1,2-0.3c5.9,5.1,9.1,10.7,9.4,16.7
					c0.6,11.7-9.3,21.9-9.5,22.1c-0.1,0.1-0.3,0.3-0.4,0.4c-0.5-0.1-1-0.2-1.5-0.2H265.7c-3.6,0-6.5,2.9-6.5,6.5s2.9,6.5,6.5,6.5
					h193.5c2,0,3.8-0.9,5-2.3c2.1,0.5,4.4-0.1,6-1.7C470.8,478.4,484.3,464.7,483.5,447.3z"/>
				<g>
					<path class="st12" d="M356.1,450.8c1.5,0,2.7,1.8,2.7,3.6c0,1.8-1.2,2.8-2.7,2.8h-58.9l0,0c-1.5,0-2.7-1.9-2.7-3.7
						c0-1.8,1.2-2.8,2.7-2.8L356.1,450.8L356.1,450.8z"/>
				</g>
			</g>
			<g>
				<g>
					<path class="st2" d="M249.5,405.9c0,0-9.7-13.1,1.1-45.2h195.7c0,0-15.6,12.9-2.1,45.2H249.5z"/>
				</g>
				<g>
					<path class="st12" d="M253.1,373.7c-1.8,0-3.2,1.8-3.2,3.6c0,1.8,1.4,2.8,3.2,2.8h69.7l0,0c1.8,0,3.2-1.9,3.2-3.7
						c0-1.8-1.4-2.8-3.2-2.8L253.1,373.7L253.1,373.7z"/>
				</g>
				<g>
					<path class="st12" d="M252.6,386.6c-1.5,0-2.7,1.8-2.7,3.6c0,1.8,1.2,2.8,2.7,2.8h58.9l0,0c1.5,0,2.7-1.9,2.7-3.7
						c0-1.8-1.2-2.8-2.7-2.8L252.6,386.6L252.6,386.6z"/>
				</g>
				<g>
					<path class="st13" d="M251.6,408.6l0.9-49c0,0-18.6,8.6-18.1,23.7C235,398.4,251.6,408.6,251.6,408.6z"/>
				</g>
				<g>
					<path class="st15" d="M446.2,354.3H252.7c-3.6,0-6.5,2.9-6.5,6.5s2.9,6.5,6.5,6.5h193.5c3.6,0,6.5-2.9,6.5-6.5
						S449.8,354.3,446.2,354.3z"/>
				</g>
				<g>
					<path class="st15" d="M446.2,405.9H252.7c-3.6,0-6.5,2.9-6.5,6.5s2.9,6.5,6.5,6.5h193.5c3.6,0,6.5-2.9,6.5-6.5
						S449.8,405.9,446.2,405.9z"/>
				</g>
				<g>
					<path class="st15" d="M247.3,354.9c-1.4,0-2.9,0.5-4.1,1.5c-9.3,7.7-14.3,16.7-14.8,26.7c-0.8,17.5,12.7,31.2,13.2,31.8
						c2.5,2.5,6.6,2.5,9.1,0s2.5-6.6,0-9.1c-0.2-0.2-10.1-10.4-9.5-22.1c0.3-6.2,3.7-12,10.1-17.3c2.8-2.3,3.1-6.3,0.9-9.1
						C251,355.7,249.2,354.9,247.3,354.9z"/>
				</g>
				<g>
					<path class="st12" d="M355.8,386.6c-1.5,0-2.7,1.8-2.7,3.6c0,1.8,1.2,2.8,2.7,2.8h58.9l0,0c1.5,0,2.7-1.9,2.7-3.7
						c0-1.8-1.2-2.8-2.7-2.8L355.8,386.6L355.8,386.6z"/>
				</g>
			</g>
			<g>
				<g>
					<g>
						<path class="st16" d="M448,344.3c0,0,3.1-10.4-0.9-36.4H289.5c0,0,12.6,10.4,1.7,36.4H448z"/>
					</g>
				</g>
				<g>
					<g>
						<path class="st12" d="M445.1,318.3c1.4,0,2.6,1.5,2.6,2.9s-1.1,2.3-2.6,2.3h-56.2l0,0c-1.4,0-2.6-1.5-2.6-3
							c0-1.4,1.1-2.3,2.6-2.3L445.1,318.3L445.1,318.3z"/>
					</g>
				</g>
				<g>
					<g>
						<path class="st12" d="M445.5,328.7c1.2,0,2.2,1.5,2.2,2.9s-1,2.3-2.2,2.3h-47.4l0,0c-1.2,0-2.2-1.5-2.2-3c0-1.4,1-2.3,2.2-2.3
							L445.5,328.7L445.5,328.7z"/>
					</g>
				</g>
				<g>
					<g>
						<path class="st13" d="M446.3,346.5l-0.7-39.5c0,0,15,7,14.6,19.1C459.7,338.2,446.3,346.5,446.3,346.5z"/>
					</g>
				</g>
				<path class="st17" d="M465,325.8c-0.4-8.1-4.4-15.3-11.9-21.5c-1-0.8-2.1-1.2-3.3-1.2c-0.6,0-1.2,0.1-1.7,0.3
					c-0.8-0.5-1.7-0.7-2.6-0.7h-156c-2.9,0-5.2,2.3-5.2,5.2c0,2.9,2.3,5.2,5.2,5.2h156c0.6,0,1.1-0.1,1.6-0.3
					c4.8,4.1,7.3,8.6,7.6,13.5c0.5,9.4-7.5,17.7-7.6,17.8c-0.1,0.1-0.2,0.2-0.3,0.4c-0.4-0.1-0.8-0.2-1.2-0.2h-156
					c-2.9,0-5.2,2.3-5.2,5.2c0,2.9,2.3,5.2,5.2,5.2h156c1.6,0,3-0.7,4-1.9c1.7,0.4,3.6,0,4.9-1.4C454.7,351,465.6,339.9,465,325.8z"
					/>
				<g>
					<g>
						<path class="st12" d="M362.3,328.7c1.2,0,2.2,1.5,2.2,2.9s-1,2.3-2.2,2.3h-47.4l0,0c-1.2,0-2.2-1.5-2.2-3c0-1.4,1-2.3,2.2-2.3
							L362.3,328.7L362.3,328.7z"/>
					</g>
				</g>
			</g>
		</g>
	</g>
	<g>
		<path class="st18" d="M362.9,251.2c0.1,0.1,0.2,0.1,0.3,0.2c0.6,0.3,1.2,0.7,1.8,1C364.2,252,363.6,251.6,362.9,251.2z"/>
		<path class="st19" d="M397.2,332.4c1.3-0.1,2.6-0.2,3.9-0.3c1.8,5,3.5,9.9,5.2,14.9c2.2,6.6,4.3,13.2,6.3,19.8
			c1.1,3.8,2.2,7.5,3.3,11.3c0,0,0,0.1-0.1,0.1c-1.6,0.4-3.2,0.9-4.8,1.3h-0.1c-4.3-6.9,0.3-0.1-3.9-10.6
			c-3.2-8-13.5-27.2-17.7-34.7c-0.3-0.5-0.6-1.1-0.9-1.6C391.5,332.7,394.4,332.6,397.2,332.4z"/>
		<path class="st19" d="M367.1,329.6c0.6,1.2,1.2,2.3,1.8,3.5c-3.9,3.6-7.8,5.4-11.7,8.9c-5.2,4.6-17.5,16.1-21.4,20l-3.5,2.9
			c-1-1.3-2.1-2.6-3.1-3.9v-0.1c4.7-6.7,15.6-20.4,21.3-26.2c6-6.2,6.5-4.7,11.9-11.5c0.4-0.5,0.7-0.9,1.1-1.4
			C364.5,324.5,365.7,327.1,367.1,329.6z"/>
		<path class="st2" d="M316.8,254.7c8.6,0.9,17.1,2.4,25.7,3c1.4,4,2.6,9.8,7.9,9.6c8.9,1.2,18.3,1.8,27.3,1.9
			c5.6-0.6,8.6,3.8,10.4,8.4c6.2,12.4,11.8,25.1,16.7,38.1c1,4.5,13.3,32.8,9.1,33.4c-11.3,2-23,3-34.3,2.3
			c2.8-7.5-3.1-13.9-3.2-21.1c-5.8,8.2-11.5,16.5-17.5,24.5c-7.7-4.6-16.1-11.1-20.2-19c1.8-2.8,3.5-5.7,4.6-8.9
			c3-5.5,8.7-8.8,11.4-14.4c1.7-5.8,2.6-11.7,8.7-14.6c-0.1-0.7-0.3-1.3-0.6-1.9c-46.2,0-47.9,7.8-50.7-42.1
			C313.7,254.3,315.2,254.5,316.8,254.7z"/>
		<path class="st20" d="M301.1,222.6c0.7-3.5,1.9-9.2,3.8-12.3c1.8-2.9,3.3-5,6.3-7c1.6-1.1,5.7-4.9,19.1-6.8
			c0.7-0.1,1.4,0.1,2.2,0.3c0-0.1,0.1-0.2,0.2-0.1c0.1,0.1,0.2,0.1,0.2,0.2l0,0c0.1,0,0.1,0.1,0.1,0.1c0.3,0.3,0.6,0.5,0.9,0.8
			c2.7,2.3,9.9,5.9,14.9,13.9c1.9,3.1,7.1,19.1,7.7,22.7c0.4,1.9,0.9,3.7,1.7,5.4c0.8,1.7,1.7,3.2,2.6,4.8c0.8,1.6,1.4,3.2,1.8,5
			c0.2,0.8,0.4,1.7,0.7,2.5c0.4,1,1,1.7,1.6,2.5c0.4,0.6,0.8,1.2,1,1.8c-1,0.3-2,0.7-3,1.1c-2,0.4-4,0.2-6,0.6
			c-0.5,0.1-1,0.3-1.5,0.5c-3.8-3.8-7.2-7.9-10.5-12.1c-0.6,2.1-0.4,4.3-0.4,6.5c0.1,2.4-0.2,4.7-0.8,7c-0.1,0.3-0.6,0.3-0.7,0.1
			c-6.4-0.5-29.2-2.1-29.6-2.4c-1.3,0.8,1.4-8.5-1-6.9c-2.5,1.6-12.3,11.5-12.7,2c-0.2-4.1-1.1-1.8-1-5.9
			C299,238.8,299.6,230.6,301.1,222.6z"/>
		<path class="st18" d="M314.1,189.6c0.3,1,1.2,1.9,2.2,1.8c0.1,0,0.2,0,0.3-0.1c0.4,1.2,1.3,2.1,2.4,2.6c1.9,0.8,3.8,0.3,5.4-0.8
			c0.1,0,0.1-0.1,0.2-0.2c0.3-0.3,0.6-0.5,0.9-0.9l0,0c0.9-1,1.5-2.2,2-3.5c0-0.1,0.1-0.2,0.1-0.3s0.1-0.3,0.1-0.4
			c0.1-0.3,0.2-0.7,0.3-1.1c0.3,0.4,0.7,0.7,1.1,1.1c0,0,0,0,0.1,0.1c2.1,1.9,4.5,3.5,6.9,5c0.3,0.2,0.6,0.4,0.9,0.5
			c0,0,0.1,0,0.1,0.1c0.8,0.4,1.7,0.7,2.6,0.6c0.4,0,0.7-0.1,1.1-0.2c0.3,0.3,0.6,0.7,0.9,1c0.7,0.6,1.4,1.2,2.4,1.4h0.1
			c0.6,0.2,1.3,0.2,1.9,0c0.3-0.1,0.6-0.2,0.9-0.4s0.6-0.6,1-0.8c0.8-0.6,1.7-0.2,2.5,0.2c0.7,0.3,1.4,0.6,2.1,0.5
			c1.2-0.1,2.2-0.9,2.8-1.9c1.4,0.2,2.9,0.1,4.1-0.6c1.7-1,2.2-3,2.1-4.9c0-2-0.6-4-1.5-5.8c-0.9-1.9-2.4-3.3-3.6-5
			c-0.6-0.9-1.2-1.8-1.5-2.8c-0.4-1.1-0.6-2.2-0.7-3.3c0-0.1,0.1-2,0.3-2.9c0.2-1.4,0.3-2.8-0.1-4.3c-0.7-2.5-2.4-4.6-4.7-5.9
			c-1.2-0.7-2.5-1.2-3.9-1.5c-1.5-0.4-3-0.7-4.5-1.4c-1.3-0.7-2.6-1.3-4-1.7s-2.8-0.5-4.3-0.3c-2.3,0.3-4.4,1.4-5.8,3.3
			c-2.6-0.9-5.4,0.7-6.9,2.8c-0.8,1.2-1.4,2.6-1.8,4c-0.5,1.6-0.9,3.2-1.1,4.8s-0.3,3.3-0.1,4.9c0.2,1.7,0.6,3.4,0.6,5.1
			c0,0.5,0,0.9-0.2,1.3c-0.2,0.4-0.5,0.7-0.8,1c-0.5,0.5-1,0.9-1.4,1.4c-0.8,1-1.4,2.3-1.7,3.6C313.7,186.9,313.6,188.4,314.1,189.6
			z"/>
		<path class="st19" d="M323,200.6c0.1,0.4,0.5,0.4,0.8,0.5c1.2,0.2,2.4,0.5,3.6,0.7c2.4,0.4,4.8,0.8,7.2,1.1c0,0,0.1,0,0.1-0.1
			c0.3-1.2,0.6-2.4,0.9-3.6v-0.1c0.2-0.7,0.3-1.4,0.5-2.1c0.1-0.5,0.2-0.9,0.3-1.4c0.1-0.4,0.2-0.8,0.3-1.3c0-0.2,0.1-0.4,0.1-0.6
			c0-0.1,0-0.2,0.1-0.3c0.1-0.5,0.2-0.9,0.3-1.4c0.2-0.9,0.4-1.7,0.6-2.6c0.1,0.1,0.1,0.1,0.2,0.2c0.1,0.1,0.2-0.1,0.1-0.1
			c-0.1-0.1-0.2-0.1-0.3-0.2c0-0.2,0.1-0.3,0.1-0.5c0-0.1-0.1-0.1-0.1,0s-0.1,0.3-0.1,0.4c-0.8-0.8-1.5-1.7-2.2-2.6
			c-0.9-1.1-1.7-2.2-2.6-3.3c-1-1.2-1.9-2.4-2.9-3.6c-0.5-0.6-1-1.2-1.4-1.8c0,0,0-0.1-0.1-0.1l0,0c-0.2-0.2-0.3-0.4-0.5-0.6l0,0
			c-0.1-0.1-0.1-0.2-0.2-0.2c0-0.1-0.1-0.1-0.1-0.2c0-0.1-0.1,0-0.1,0v0.1c0,0,0,0,0,0.1s-0.1,0.2-0.1,0.3l0,0
			c-0.1,0.5-0.2,0.9-0.3,1.4c-0.1,0.3-0.1,0.6-0.2,0.9c-0.1,0.6-0.2,1.1-0.3,1.7c0,0.1,0,0.2,0,0.3c0,0.2-0.1,0.3-0.1,0.5
			c-0.2,0.9-0.3,1.9-0.5,2.8c-0.4,2.2-0.7,4.4-1.3,6.6c0,0.2-0.1,0.4-0.1,0.6c0,0.2-0.1,0.4-0.1,0.6v0.1c0,0.1,0,0.2-0.1,0.2
			c-0.1,0.4-0.2,0.8-0.3,1.2c-0.3,1.1-0.6,2.2-0.8,3.3c0,0.1,0,0.2-0.1,0.3c-0.1,0.4-0.1,0.8-0.2,1.2c0,0.1,0,0.1,0,0.2
			c0,0.1,0,0.2,0,0.3C322.9,199.9,322.9,200.3,323,200.6z"/>
		<path class="st19" d="M325.7,172c0,0.1,0,0.2,0,0.4c-0.1,1.5,0.1,3,0.2,4.4c0,0.1,0,0.2,0,0.2c0,0.2,0.1,0.4,0.1,0.6
			c0.2,1,0.3,2.1,0.6,3.1l0,0c0,0.2,0.1,0.3,0.1,0.5s0.1,0.3,0.1,0.5l0,0c0.3,1.3,0.7,2.5,1.2,3.7c0,0.1,0.1,0.2,0.1,0.3l0,0
			c0,0,0,0.1,0.1,0.1c0.3,0.7,0.6,1.3,1,1.9c0.4,0.6,0.8,1.1,1.3,1.6c1,1,2.1,1.8,3.3,2.6c0.9,0.6,1.9,1.1,2.9,1.6
			c0.1,0,0.2,0.1,0.2,0.1c0.3,0.2,0.7,0.3,1,0.4c1.2,0.4,2.5,0.8,3.8,0.7c0.3,0,0.5,0,0.8-0.1c0.6-0.1,1.1-0.3,1.5-0.6
			c0.8-0.5,1.4-1.3,2-2.1c0.8-1.3,1.4-2.7,2-4.1c0.6-1.5,1.2-3.1,1.6-4.7c0.4-1.6,0.4-3.2,0.4-4.8c0-0.6,0-1.2-0.1-1.8v-0.6
			c0-0.6-0.1-1.3-0.1-1.9l0,0c0-0.2,0-0.5,0-0.7c0-0.8-0.1-1.5-0.2-2.3s-0.1-1.7-0.2-2.5c-0.1-0.7-0.1-1.5-0.2-2.2
			c-1.1-0.3-2.2-0.7-3-1.6c-0.5-0.6-0.9-1.2-1.6-1.6c-0.7-0.4-1.4-0.5-2.1-0.7c-0.3-0.1-0.6-0.1-0.8-0.2c-0.3-0.1-0.6-0.1-0.9-0.2
			c-0.4-0.1-0.8-0.1-1.2-0.2c-0.1,0-0.1,0-0.2,0c-2-0.2-3.9-0.1-5.8,0.6c-1.3,0.5-2.6,1.2-3.7,2.1c-1.2,0.9-2.3,1.9-3,3.2
			C326.1,169.2,325.8,170.6,325.7,172z"/>
		<path class="st21" d="M337.8,179c0,0.9,0.3,1.7,0.7,1.7c0.4,0,0.8-0.7,0.8-1.6s-0.3-1.7-0.7-1.7
			C338.2,177.4,337.9,178.1,337.8,179z"/>
		
			<ellipse transform="matrix(1.896158e-02 -0.9998 0.9998 1.896158e-02 162.951 522.0063)" class="st21" cx="347.5" cy="178" rx="1.7" ry="0.7"/>
		<path class="st22" d="M339.2,187.3c0.6,1.3,1.5,2.5,3.7,2.5c1.7,0,2.9-1.5,3.3-2.9c0-0.1-0.1-0.1-0.2-0.1c0,0-0.2,0-0.4,0.1
			c-0.5,0.1-1.5,0.2-2.5,0.3c-1.1,0-2.3,0-3.2,0c-0.2,0-0.4,0-0.6-0.1C339.2,187.2,339.1,187.3,339.2,187.3z"/>
		<path class="st18" d="M345.8,171.7c0.3-0.3,1.7-0.4,1.7-0.4c0.7-0.1,1.4-0.1,2.2,0c0.3,0.6,0.6,1.1,1.1,1.7h-0.1
			c-1-0.1-1.8-0.1-2.7-0.1c-0.6,0-1.4-0.1-1.8-0.4C345.7,172.3,345.6,171.9,345.8,171.7z"/>
		<path class="st18" d="M316.4,189.9c0.2,1.2,0.8,2.3,2,2.8c1.9,0.7,4.2,0.8,6.1-0.1c0.4-0.2,0.7-0.4,1-0.6c0.1-0.1,0.2-0.2,0.4-0.3
			c0.9-0.9,1.4-2,1.6-3.2c0-0.1,0-0.2,0.1-0.3c0.1-0.5,0.2-1,0.2-1.5c0-0.2,0-0.3,0.1-0.5c0-0.3,0.1-0.5,0.1-0.8
			c0.1-0.7,0.1-1.4,0.1-2.1c0-0.1,0-0.2,0-0.3c0-0.6,0-1.2,0-1.9c0-0.6,0-1.1,0.1-1.7c0.1-0.4,0.2-0.9,0.3-1.3l0,0c0,0,0,0,0-0.1
			s0.1-0.2,0.1-0.4l0,0l0,0c0.2-0.6,0.5-1.2,0.9-1.7l0.1-0.1c0.1-0.2,0.3-0.3,0.5-0.4c0.5-0.1,0.9-0.4,1.3-0.7
			c0.7-0.6,0.9-1.5,1.2-2.3c0.3-1,0.8-1.7,1.6-2.3c0.7-0.5,1.6-0.8,2.3-1.3c2.3-1.5,2.7-4.2,2.9-6.9c0-0.2,0-0.3,0-0.5
			c0-0.6,0.1-1.1,0.1-1.7c0.3,0.7,0.8,1.3,1.3,1.9c0.2,0.2,0.4,0.4,0.6,0.6c0.1,0.1,0.2,0.2,0.3,0.3c1.3,1.2,2.8,2.2,3.9,3.5
			c0.6,0.7,1.1,1.5,1.3,2.3c0.3,0.8,0.4,1.7,0.5,2.6v0.3c0.1,1,0.3,2,0.7,2.9l0,0c0.2,0.5,0.5,1,0.9,1.5c0.1,0.1,0.2,0.2,0.3,0.4
			c0.2,0.2,0.4,0.4,0.6,0.6c0.4,0.4,0.7,0.7,1.1,1.1c0.7,0.7,1.5,1.4,2.4,1.9h0.1c0.3-2.4,0.2-4.8-0.2-7.2c-0.2-1.1-0.4-2.1-0.6-3.2
			c-0.2-1-0.4-1.9-0.8-2.8c-0.8-1.6-2-3.1-3.3-4.3c-1.4-1.3-3-2.3-4.8-2.8c-1-0.3-2-0.5-3-0.7c-0.3,0-0.6-0.1-1-0.1
			c-0.2-0.1-0.4-0.1-0.6-0.2c0-0.1,0-0.3,0-0.4c0-0.1-0.1-0.1-0.1,0s0,0.3,0,0.4c-0.1,0-0.2,0-0.3-0.1v-0.1c0-0.1-0.2-0.1-0.1,0v0.1
			c-0.6-0.1-1.1-0.1-1.7,0l0,0c-0.2,0-0.4,0-0.6,0c-1,0.1-2,0.3-2.9,0.6c-2,0.7-4,1.7-5.4,3.4s-2.5,3.7-3.3,5.7s-1.4,4-1.7,6.1v0.1
			l0,0c-0.6,0.3-1,0.8-1.5,1.3c-0.1,0.2-0.3,0.3-0.4,0.5c-0.6,0.9-1,2-1.2,3.2c-0.1,0.5-0.1,1.1-0.2,1.7c-1.9,1.3-3.2,3.2-3.8,5.4
			C316.4,187.5,316.3,188.8,316.4,189.9z M339.8,158.8L339.8,158.8c0.1-0.1,0.1-0.1,0.2,0C340,158.7,339.9,158.7,339.8,158.8
			C339.9,158.8,339.9,158.8,339.8,158.8z"/>
		<path class="st19" d="M326.3,181L326.3,181c0.1,0.1,0.2,0.3,0.3,0.5c0.1,0.1,0.1,0.2,0.2,0.2c0.4,0.5,0.8,1,1.3,1.3
			c0.1,0,0.1,0.1,0.2,0.1c0.2,0.1,0.3,0.1,0.5,0.1l0,0c0.2,0,0.3-0.1,0.4-0.3c0.2-0.3,0.3-0.6,0.4-0.9c0.1-0.4,0.3-0.8,0.4-1.2
			c0.1-0.3,0.1-0.5,0.2-0.8c0,0,0,0,0-0.1s0-0.1,0-0.2v-0.1c0.1-1.1,0.1-2.3,0.1-3.3c0,0,0,0,0-0.1c0.5,0.1,1,0.1,1.4-0.3
			c0.2-0.1,0-0.4-0.2-0.2c-0.6,0.4-1.2,0.3-1.8,0.1c-0.5-0.2-1.1-0.4-1.6-0.5c-0.7-0.1-1.3,0.2-1.8,0.8c-0.2,0.2-0.3,0.5-0.4,0.7
			s-0.2,0.5-0.2,0.7C325.5,178.8,325.7,180,326.3,181z"/>
		<path class="st22" d="M343.7,177.7c-0.1-0.2,0.2-0.3,0.3-0.1c0.5,0.9,1.1,1.9,1.5,2.8c0.4,0.7,0.7,1.5,0.7,2.4
			c0,1.7-1.5,2-2.9,1.7c-0.2,0-0.2-0.3,0-0.3c0.7,0.1,1.5,0.2,2-0.2c0.7-0.6,0.6-1.6,0.3-2.4C345.2,180.2,344.4,178.9,343.7,177.7z"
			/>
		<path class="st22" d="M328.3,183.2c0.4,0.2,0.9,0.1,1.3,0c0.2-0.1,0.3,0.2,0.2,0.2c-0.5,0.2-1.1,0.3-1.6,0.1
			C328,183.4,328.2,183.1,328.3,183.2z"/>
		<path class="st2" d="M339.9,187.2c0.2,0.5,0.6,0.8,1.2,1.1c0.5,0.2,1.1,0.3,1.7,0.2c0.5,0,1-0.1,1.4-0.3c0.6-0.2,1.1-0.7,1.4-1.3
			c-0.5,0.1-1.5,0.2-2.5,0.3C342,187.3,340.8,187.3,339.9,187.2z"/>
		<path class="st18" d="M335.2,174.3c1,0.1,2-0.3,3-0.4c1-0.1,2,0.1,2.9-0.1c0.6-0.1,0.9-0.3,0.8-0.7s-0.8-0.6-1.4-0.8
			c-1.8-0.4-4.1-0.2-5.7,0.4C334.2,173.1,333.7,174.2,335.2,174.3z"/>
		<path class="st19" d="M356.6,259.8c-0.8-0.7-1.9-2.6-2.3-3c6.8-4.4,14.5-9.7,20.7-14.9c1.9-1.6,3.8-3.2,5.7-4.8h0.1
			c0.9,1.3,1.7,2.6,2.6,3.9v0.1v0.1c-3.3,4.2-10.6,12.9-15.3,18.3C364.6,263.2,360.3,263.1,356.6,259.8z"/>
		<path class="st19" d="M378.7,239c0.2,0.7,0.4,1.4,0.7,2.2c0.1,0.2,0.1,0.4,0.2,0.5c0.2,0.2,0.6,0.1,0.8,0.1c0.5,0,1.4,0,2.4,0
			c3.7,0,11.4-0.5,12.6-0.6l0,0c0.1,0,0.1,0,0.1,0l0,0c0.6-0.8,0.7-1.7,0.7-2.6c0-0.1,0-0.2,0-0.2c0-0.1,0-0.1-0.1-0.1s-0.2,0-0.2,0
			c-1.4,0-2.7,0-4.1-0.1c-0.2,0-0.3,0-0.5,0c-1.1-0.1-2.1-0.3-3.1-0.6c-0.3-0.1-0.6-0.2-1-0.4c-1.2-0.5-2.3-1-3.6-1.1l0,0l0,0
			c-1.7-0.1-3.4,0.5-4.4,1.9c-0.2,0.2-0.3,0.5-0.4,0.7l0,0C378.8,238.7,378.7,238.8,378.7,239C378.7,238.9,378.7,239,378.7,239z"/>
		<path class="st19" d="M395.1,239.6c0.1,0.5,0.2,1,0.2,1.5c0,0,0,0,0,0.1c0,0,0,0,0.1,0l0,0l0,0l0,0l0,0l0,0h0.1c0,0,0,0,0.1,0
			c0.1-0.1,0.1-0.1,0.2-0.2c0.8-0.6,1.6-1,2.5-1.4c0.5-0.2,0.9-0.4,1.4-0.6c0.4-0.2,0.8-0.3,1.2-0.6c0.3-0.2,0.4-0.5,0.5-0.9
			c0.1-0.5,0.2-0.9,0.3-1.4c0.2-0.9,0.6-1.9,1-2.8c0.2-0.4,0.6-1.3-0.2-1.4c-0.3,0-0.5,0.2-0.7,0.4c-0.3,0.3-0.6,0.6-0.8,0.9
			c-0.2,0.4-0.4,0.8-0.6,1.3s-0.4,0.9-0.6,1.4s-0.5,0.8-0.9,1.1c-0.4,0.2-0.8,0.4-1.2,0.5l-1.5,0.6l-0.1,0.1l-0.3,0.1l-0.2,0.1
			c-0.1,0.1-0.3,0.1-0.4,0.2C394.9,238.9,395.1,239.4,395.1,239.6z"/>
		<path class="st19" d="M380,238c0.1-0.2,0.2-0.3,0.3-0.5l0,0l0,0c0.5,0.4,1,0.9,1.4,1.3c0.2,0.3,0.5,0.5,0.7,0.8
			c0,0.1,0.1,0.1,0.1,0.2c0,0.1,0.1,0.1,0.2,0.2c0.1,0.1,0.1,0.1,0.2,0.1c0.4,0.2,1,0.2,1.4,0.3c0.5,0,1,0,1.5,0
			c0.7-0.1,1.3-0.2,2-0.5c0.3-0.1,0.5-0.2,0.7-0.3c1-0.5,1.8-1.2,2.8-1.4c0.1,0,0.3,0,0.4-0.1c0.6-0.1,1.5-0.3,1.5-1
			c0-1-1.6-0.6-2.2-0.6c-1.1,0.1-2.3,0.1-3.4,0c-1-0.1-2-0.3-3.1-0.5c-0.4-0.1-0.7-0.1-1.1-0.1l0,0c-0.6,0-1.1,0-1.6,0.2
			s-0.9,0.4-1.3,0.8l0,0c-0.1,0.1-0.2,0.2-0.3,0.3c-0.2,0.2-0.3,0.4-0.4,0.6C379.9,238,380,238,380,238z"/>
		<path class="st19" d="M335.9,230.5c-0.6-4.9-1.9-9.9-0.2-14.7c0.1-0.4,0.5-1.4,0-1.7c-1.9,1.5-2.4,6.4-2.8,9
			c-0.1,0-0.1-0.1-0.2-0.1c-0.6-3.2-0.1-6.5,0.9-9.6c0.1-0.3,0.1-1.4-0.4-1.3c-2.1,2.3-2.2,6.1-2.4,9.1l0,0c-1.2-3.3,0.9-7,0.3-10.1
			c-4.6,5.9-0.3,13.9-0.5,20.6c-7.7,6.2-16,11.9-24.5,16.9c2.4,3,4.9,5.9,7.1,9C317.3,253,338.1,235.2,335.9,230.5z"/>
		<path class="st23" d="M409.2,366.6c1.1-0.1,2.1-0.3,3.2-0.5c1.8,4.7,4.3,10.1,7.5,14c1.9,2.3,9.9,9.6,10.3,10.1
			c0.4,0.4,0.7,0.9,0.7,1.4s-0.4,0.9-0.8,1c-0.6,0.2-1.3,0.3-2,0.5c-1.5,0.3-2.1,0.4-3.6,0.2c-3-0.2-5.3-2.3-6.1-3.3
			c-0.9-1.1-2-2-3.2-2.9s-2.4-1.7-3.5-2.6c-1.8-1.5-3.3-2.7-3.7-5.2c-0.3-1.5,0.3-3.8,0.2-5.3c0-1.5-1.7-5.8-1.9-6.5
			c0-0.3-0.1-0.5-0.1-0.8C407.2,366.8,408.2,366.7,409.2,366.6z"/>
		<path class="st23" d="M325.3,367.2c0.7,1,1.5,1.9,2.3,2.9c0.8,1.1,1.4,2.3,2.1,3.5c1,1.9,1.9,4.1,3.9,5.2c1,0.5,2.1,0.8,3.2,1
			c1.2,0.3,2.3,0.6,3.5,1.1c0.4,0.2,0.9,0.4,1.4,0.2c0.3-0.1,0.6-0.5,0.6-0.9c-0.1-0.4-0.5-0.8-0.8-1.1c-0.3-0.3-0.7-0.7-1-0.9
			c-1.6-1.3-3.5-2.1-4.9-3.6c-0.8-0.9-1.3-2-1.7-3.1c-0.4-1.3-0.7-2.6-0.8-4c-0.1-0.7-0.1-1.4,0.1-2.1s0.6-1.2,1.1-1.7
			s5.1-4.5,6.7-6.4v-0.1l-0.1-0.1c-1.1-0.9-2.2-1.7-3.3-2.6c-0.5-0.4-1-0.8-1.5-1.2c-0.2-0.1-0.4-0.4-0.6-0.5c-0.1,0-0.1,0-0.2,0
			l0,0c-0.2,0.1-0.3,0.3-0.4,0.4c-0.2,0.2-0.4,0.4-0.6,0.6c-0.4,0.4-0.7,0.8-1.1,1.2c-0.7,0.9-2.3,3-2.4,3.1
			c-1.1,0.7-2.2,1.3-3.3,1.7c-0.9,0.4-1.9,0.7-2.6,1.5C323.2,363.1,324.1,365.6,325.3,367.2z"/>
		<path class="st20" d="M320.6,203.7c1.3,1.3,3.1,2.2,4.9,2.9c1,0.4,2,0.7,3.1,1c1,0.3,2.1,0.5,3.1,0.4c0.8-0.1,1.7-0.3,2.3-0.8
			c0.7-0.5,0.9-1.4,1.5-2c0.5-0.6,1.2-1.1,1.4-1.9c0.1-0.3,0.1-0.5,0.3-0.7c0.1-0.1,0.3-0.2,0.4-0.3c0.2-0.1,0.3-0.2,0.4-0.4
			c0.1,0.1,0.1,0.1,0.2,0.2h0.1c0.3,0.4,0.8,0.7,1.2,1.1c0.7,0.6,1.5,1.2,2.3,1.8c-0.1-0.1-1.9-1.6-2.8-2.4l0,0
			c-0.4-0.4-0.8-0.8-1-1.3c0-0.2,0-0.3,0-0.5c0.1-0.3,0.3-0.6,0.4-0.9c0.1-0.4-0.1-0.9-0.2-1.4c-0.1-0.3-0.1-0.9-0.4-1
			c0,0,0,0-0.1,0c-0.2-0.1-0.4-0.1-0.6-0.1c-0.3-0.1-0.6-0.1-0.9-0.2h-0.1c-0.7-0.2-1.4-0.3-2.1-0.5c-2.4-0.5-4.8-1.1-7.2-1.6
			c-0.6-0.1-1.3-0.3-1.9-0.4c-0.3-0.1-0.5-0.1-0.8-0.2c-0.3-0.1-0.5-0.1-0.8-0.1c-0.1,0-0.1,0-0.2,0c-0.2,0-0.3,0.1-0.4,0.3
			c-0.1,0.1,0,0.3-0.1,0.4c0,0.2-0.1,0.4-0.2,0.6c-0.3,0.4-0.7,0.7-1.2,0.9c-0.2,0.1-0.4,0.3-0.4,0.6c0,0.2,0.2,0.4,0.3,0.6
			c0.1,0.3,0,0.5-0.1,0.8c0,0.1-0.1,0.2-0.1,0.2c-0.2,0.3-0.5,0.6-0.7,0.9l0,0C318.9,200.8,319.4,202.4,320.6,203.7z"/>
		<path class="st20" d="M346.6,247.4c2.8,0,5.6,0.7,8.4,1.3c0.7,0.2,1.3,0.3,2,0.5s1.5,0.4,2.2,0.3c0.6-0.1,1.1-0.3,1.7-0.3
			c0.5-0.1,0.9-0.2,1.3-0.4h0.1c0.3,0.1-0.2-0.6,0.1-0.5c0.3,0.6,1.4,1.4,1.9,1.4l0.1,0.1c-1.4,4.2-1.5,8.6-2,13
			c0,0.1-0.1,0.1-0.1,0c-1.3-1-3.2-0.3-4.6-1.3c-0.3-0.2-0.5-0.5-0.7-0.8c-0.3-0.4-0.7-0.6-1.1-0.7c-0.7-0.2-1.4-0.2-2-0.7
			c-0.5-0.5-0.6-1.2-0.9-1.8c-0.3-0.8-0.9-1.3-1.5-1.8c-0.5-0.5-0.9-1-1.2-1.7c-0.1-0.3-0.2-0.7-0.4-1c-0.2-0.5-0.5-0.8-0.9-1.2
			C347.6,250.7,346.7,249.2,346.6,247.4C346.5,247.4,346.6,247.4,346.6,247.4z"/>
		<path class="st20" d="M299,234.7c0,0.7,0.1,1.3,0.3,2c0.1,0.2,0.1,0.5,0.1,0.7s0,0.4,0,0.5c0,0.4-0.1,0.7-0.2,1.1
			c0,0.2-0.1,0.4-0.2,0.6c-0.1,0.4-0.2,0.8-0.3,1.2c-0.1,0.5-0.1,1.1,0,1.6c0,0.4,0.1,0.7,0.1,1.1c0,0.1,0,0.2,0,0.2l0,0
			c0.1,0.7,0,1.3-0.1,2c0,0.2-0.1,0.4-0.1,0.6c0,0.1,0,0.3-0.1,0.4c-0.2,1.1-0.3,2.1-0.3,3.2c0.1,1,0.3,2,0.4,3s-0.1,2-0.1,3
			c0,0.4,0.1,0.8,0.2,1.2c0.3,1.1,1,2.1,2,2.7c0.4,0.3,0.9,0.4,1.3,0.6c0.3,0.1,0.6,0.3,0.8,0.5c0.1,0.1,0.2,0.2,0.3,0.3
			c0.7,0.5,1.3,0.8,2.2,0.8c0.5,0,1-0.1,1.5-0.2c0.5,0,1,0.1,1.5,0.2c0.3,0.1,0.5,0.1,0.8,0.1c0.4,0,0.8-0.2,1.2-0.5
			c0.4-0.4,0.8-0.8,1.1-1.2c0.1-0.2,0.3-0.3,0.4-0.5c0.2-0.2,0.5-0.4,0.7-0.6c0.5-0.3,1-0.7,1.3-1.1c0.2-0.2,0.3-0.4,0.5-0.7
			c0.7-1.1,1.1-2.4,2.2-3.2l0,0v-0.1l-0.1-0.1c-2.3-2.6-4.6-5.3-6.8-8c-0.2-0.2-0.3-0.4-0.5-0.6c0-0.4-0.2-0.9-0.4-1.3
			c-0.4-0.7-0.8-1.5-1.1-2.2c-0.3-0.8-0.5-1.5-0.8-2.3c-0.2-0.7-0.4-1.4-0.5-2.1c-0.2-0.6-0.3-1.2-0.5-1.9c-0.2-0.9-0.5-1.8-0.8-2.7
			c-0.8-2.8-1.8-5.5-2.9-8.1c-0.1-0.3-0.3-0.7-0.4-1c0-0.1-0.1-0.1-0.1,0l-0.3,1.2l-1.7,5.8v0.2C299.5,232.5,299.1,233.5,299,234.7z
			"/>
		<path class="st21" d="M342.7,214.9c0.6,2.4,1.4,4.7,2.4,6.9c0.8,1.9,1.9,3.8,2.1,5.9c0.2,2.3-0.6,4.5-1.1,6.7
			c-0.6,2.5-0.7,5.1-0.9,7.7c0,0.2-0.3,0.1-0.3,0c0.2-2.4,0.3-4.9,0.8-7.3c0.5-2.3,1.4-4.6,1.2-7c-0.2-2.2-1.3-4.1-2.1-6.1
			c-0.9-2.2-1.7-4.4-2.3-6.7C342.4,214.8,342.7,214.7,342.7,214.9z"/>
		<path class="st21" d="M315,217.8c0.7,4.4-0.2,8.8-0.9,13.1c-0.8,4.7-1.7,9.3-2.5,14c0,0.2-0.3,0.1-0.3,0c0.8-4.6,1.6-9.1,2.4-13.7
			c0.8-4.4,1.7-8.9,1-13.3C314.6,217.7,314.9,217.6,315,217.8z"/>
		<path class="st21" d="M322.1,198.8c1.6,1,3.4,1.7,5.3,2c0.2,0,0.1,0.3,0,0.3c-2-0.3-3.8-1-5.5-2
			C321.7,198.9,321.9,198.7,322.1,198.8z"/>
		<path class="st21" d="M351.2,176.8c0.6,0.9,1.4,1.5,2.4,1.7c0.2,0,0.1,0.3,0,0.3c-1.1-0.3-2-0.9-2.6-1.8
			C350.8,176.9,351.1,176.7,351.2,176.8z"/>
		<path class="st21" d="M326.3,171.8c0.2-0.1,0.3,0.2,0.1,0.3c-2.4,1-3.5,3.7-2.5,6.1c0.1,0.2-0.2,0.3-0.3,0.1
			C322.5,175.7,323.7,172.8,326.3,171.8z"/>
		<path class="st21" d="M321.8,175.6c0.1-0.2,0.3-0.1,0.3,0.1c-0.2,0.8-0.1,1.6,0.3,2.2c0.1,0.2-0.1,0.3-0.2,0.2
			C321.7,177.3,321.6,176.4,321.8,175.6z"/>
		<path class="st21" d="M332.8,158.1c2.2-1.1,4.5,0.1,6.3,1.4c0.1,0.1,0,0.3-0.2,0.2c-1.7-1.3-3.9-2.4-6-1.4
			C332.8,158.4,332.7,158.2,332.8,158.1z"/>
		<path class="st24" d="M364.3,298.4c1.6,1.7,2.8,3.7,3.5,5.9c0.8,2.5,0.6,5.1,1.1,7.7c0.3,1.4,0.8,2.7,1.5,3.9
			c0.7,1.1,1.5,2.1,2.2,3.2c1.3,2.1,1.7,4.6,2.1,7.1c0,0.2-0.3,0.2-0.3,0c-0.4-2.6-0.9-5.2-2.3-7.5c-0.7-1-1.4-1.9-2-2.9
			s-1.1-2.2-1.3-3.3c-0.6-2.6-0.4-5.2-1.1-7.8c-0.7-2.3-1.9-4.4-3.6-6.2C364,298.5,364.2,298.3,364.3,298.4z"/>
		<path class="st24" d="M319,258.3c-0.1,2.2-0.2,4.4-0.1,6.6c3.6-0.1,7.6-1.8,8.4-5.7c0-0.2,0.3-0.1,0.3,0c-0.8,4-4.9,5.9-8.7,6
			c0.1,2.7,0.4,5.4,1.2,8c1.3,4.1,4,7.9,8,9.7c4.6,2,9.9,1.4,14.7,1c2.6-0.2,5.3-0.5,7.9-0.7s5.2-0.6,7.9-0.6
			c4.3,0,8.2,1.1,11.7,3.6c3.2,2.3,5.7,5.5,7.5,9c4.6,8.4,5.5,18.1,8.6,27c3,8.3,7.5,16.2,8.4,25.1c0.1,1,0.1,2.1,0.1,3.1
			c0,0.2-0.3,0.1-0.3,0c0.1-9.2-4.4-17.5-7.6-25.9c-1.7-4.4-2.9-9-4.1-13.6c-1.2-4.7-2.4-9.4-4.4-13.8c-1.8-3.8-4.2-7.3-7.4-10
			c-3.5-3-7.8-4.4-12.4-4.4c-2.7,0-5.3,0.3-8,0.6c-2.7,0.3-5.4,0.5-8.1,0.8c-4.6,0.4-9.4,0.9-13.8-0.6c-3.9-1.4-6.7-4.4-8.3-8.1
			c-1.9-4.2-2.1-8.8-2-13.3c0-1.3,0.1-2.5,0.1-3.8C318.7,258.1,319,258.1,319,258.3z"/>
		<path class="st24" d="M365.5,292.2c1.2-1.1,2.4-2.2,3.7-3.3c0.1-0.1,0.3,0.1,0.2,0.2c-1.2,1.1-2.4,2.2-3.7,3.3
			C365.5,292.5,365.3,292.3,365.5,292.2z"/>
		<path class="st24" d="M366.2,294.9c1-1.1,2.2-2,3.4-2.7c0.2-0.1,0.3,0.1,0.2,0.2c-1.2,0.7-2.4,1.6-3.4,2.7
			C366.3,295.2,366.1,295,366.2,294.9z"/>
		<path class="st21" d="M305.6,248.8c0.6-0.9,1.3-2,2.4-2.4c0.2-0.1,0.3,0.2,0.1,0.3c-1,0.4-1.7,1.4-2.3,2.3c-0.6,1-1.1,2.1-1.4,3.2
			c0,0.2-0.3,0.1-0.3,0C304.4,250.9,304.9,249.8,305.6,248.8z"/>
		<path class="st21" d="M303.5,249.7c0.6-1.1,1.4-2,2.3-2.8c0.1-0.1,0.3,0.1,0.2,0.2c-0.9,0.8-1.6,1.6-2.2,2.7
			C303.7,250,303.4,249.9,303.5,249.7z"/>
		<g>
			<path class="st21" d="M338.2,357.8c0.2-0.3,0.5-0.5,0.7-0.8c0.1-0.1,0.2-0.2,0.3-0.2c0.3,0,0.2,0.3,0.1,0.5c0,0-1,1.4-2.1,2.4
				c-1,1-1.9,1.7-2,1.7s-0.2-0.1-0.1-0.2C335.9,360,337.1,358.9,338.2,357.8z"/>
			<path class="st21" d="M336.7,356.5c0.2-0.3,0.5-0.5,0.7-0.8c0.1-0.1,0.2-0.2,0.3-0.2c0.3,0,0.2,0.3,0.1,0.5c0,0-1,1.4-2.1,2.4
				c-1,1-1.9,1.7-2,1.7s-0.2-0.1-0.1-0.2C334.5,358.7,335.6,357.7,336.7,356.5z"/>
			<path class="st21" d="M332,358.3c1-1.2,2.1-2.3,3.2-3.5c0.2-0.3,0.5-0.5,0.7-0.8c0.1-0.1,0.2-0.2,0.3-0.2c0.3,0,0.2,0.3,0.1,0.5
				c0,0-1,1.4-2.1,2.4c-1,1-1.9,1.7-2,1.7C332,358.6,331.9,358.4,332,358.3z"/>
		</g>
		<g>
			<path class="st21" d="M411.7,367.3c0-0.1-0.1-0.3,0-0.4c0.2-0.2,0.3,0,0.4,0.2c0,0,0.6,1.6,0.9,3.1c0.3,1.3,0.4,2.5,0.3,2.7
				c0,0.1-0.2,0.1-0.3,0c-0.5-1.5-0.8-3-1.2-4.6C411.9,368,411.8,367.7,411.7,367.3z"/>
			<path class="st21" d="M409.9,367.5c0.2-0.2,0.3,0,0.4,0.2c0,0,0.6,1.6,0.9,3.1c0.3,1.3,0.4,2.5,0.3,2.7c0,0.1-0.2,0.1-0.3,0
				c-0.5-1.5-0.8-3-1.2-4.6c-0.1-0.3-0.2-0.7-0.3-1C409.8,367.8,409.8,367.6,409.9,367.5z"/>
			<path class="st21" d="M407.6,367.9c0.2-0.2,0.3,0,0.4,0.2c0,0,0.6,1.6,0.9,3.1c0.3,1.3,0.4,2.5,0.3,2.7c0,0.1-0.2,0.1-0.3,0
				c-0.5-1.5-0.8-3-1.2-4.6c-0.1-0.3-0.2-0.7-0.3-1C407.6,368.2,407.5,368,407.6,367.9z"/>
		</g>
		<path class="st24" d="M338.1,267.6c1.9-0.9,3.9-1.5,6-1.8c0.2,0,0.2,0.3,0,0.3c-2.1,0.3-4.1,0.9-5.9,1.7
			C338,268,337.9,267.7,338.1,267.6z"/>
		<path class="st22" d="M327.3,177c0.4-0.3,0.9,0.2,1.1,0.5c0.5,0.7,0.5,2.2,1.6,2.3c0.2,0,0.1,0.3,0,0.3c-0.5-0.1-0.9-0.4-1.1-0.9
			c-0.1-0.3-0.8-2.4-1.3-2C327.4,177.4,327.2,177.1,327.3,177z"/>
	</g>
	<g>
		<path class="st21" d="M281.3,480.2c-0.4-0.7-0.8-1.3-1.3-2c-2.4-3.7-5.1-7.3-7.7-10.8c-0.9-1.2-1.8-2.4-2.7-3.6
			c-1.5-1.9-3.2-4.2-5.7-4.7c-0.9-0.2-2.1,0-2.9,0.9l0,0c-0.2,0.2-0.4,0.5-0.5,0.8c-0.9,2.5-2.3,7.8-1.4,8.8
			c1.4,1.5,2.9,3.6,4.3,4.1c0.6,0.3,1.4,0.3,1.9,0.8s0.8,1.2,1.1,1.7c0.6,1,1.4,1.8,2.2,2.6c0.7,0.7,1.4,1.2,2.2,1.8h10.8
			C281.5,480.5,281.4,480.3,281.3,480.2z"/>
		<path class="st21" d="M265.5,410.5c0-0.5-0.3-1.1-0.5-1.6c-0.3-0.7-0.7-1.4-1-2.1c-2.6-5.3-5.6-10.5-8.6-15.6c0,0,0-0.1-0.1-0.1
			c-0.7-1.2-1.4-2.4-2.4-3.4c-0.7-0.8-1.6-1.4-2.6-1.8c-1.1-0.4-2.8-0.1-3.6,1.3c-0.4,0.7-0.8,1.6-1.2,2.5c-1,2.4-1.9,5.3-1.3,6
			c1.2,1.7,2.4,3.9,3.8,4.6c0.6,0.3,1.3,0.5,1.8,1c0.4,0.5,0.6,1.2,0.9,1.8c0.5,1,1.1,2,1.9,2.9c1.6,1.9,3.5,3.4,5.4,4.8
			c0.2,0.1,0.3,0.2,0.5,0.4c1.7,1.2,3.8,2.6,5.8,1.4C265,412.2,265.5,411.5,265.5,410.5z"/>
		<path class="st19" d="M269,462.2c-1-1.7-2-3-2.6-4.9v-0.1c0-0.1-0.1-0.2-0.1-0.3l0,0c-0.5-1.9-1.2-3.7-1.7-5.6
			c-0.5-1.8-0.7-3.7-1.2-5.5c0-0.1-0.1-0.1-0.2,0c-0.7,1.5-1.9,2.7-3,4c-0.5,0.6-1.1,1.1-1.6,1.6c0-0.2,0-0.4,0-0.6
			c0-0.1-0.1-0.1-0.2,0c0,0.2,0,0.5,0,0.7c-0.5,0.4-1,0.8-1.4,1.3l0,0c-0.1,0.1-0.2,0.1-0.2,0.3c0,0.1,0.1,0.1,0.1,0.1
			c0.4-0.6,1-1,1.6-1.5c0.1,1.1,0.6,2.1,0.9,3.1c0.5,1.3,0.9,2.6,1.3,3.9c0.1,0.2,0.2,0.5,0.2,0.7c0.1,0.2,0.1,0.4,0.2,0.6l0,0l0,0
			c0.1,0.9,0,1.8,0.2,2.6c0.2,1,0.8,2,1.4,2.8c1.3,2,2.7,3.9,4.4,5.6c0.1,0.1,0.2,0.1,0.2,0c1.1-1.6,4.7-3.4,5.1-3.7l0,0
			C271.1,465.6,270,463.9,269,462.2z"/>
		<path class="st19" d="M237.3,259.4c4.7,4.1,21.3,34.1,21.2,34.2c3.4-1.6,9.3-5.3,9.8-5.5c-9.5-19.9-17.5-36.9-17.5-36.9
			C249.1,252.3,236.9,259.6,237.3,259.4z"/>
		<path class="st19" d="M262,380c-1.7,0-3.3-0.6-4.9-1.1c-0.7-0.2-1.4-0.5-2.2-0.8c0.2-0.1,0.4-0.2,0.5-0.2s0-0.2-0.1-0.1
			c-0.2,0.1-0.5,0.2-0.7,0.3c-0.6-0.3-1.2-0.5-1.8-0.7l0,0c-0.2-0.1-0.2-0.1-0.4-0.1c-0.1,0-0.1,0.1,0,0.2c0.7,0.2,1.4,0.5,2,0.8
			c-0.7,0.4-1.3,1-1.9,1.6c-0.1,0.1-0.2,0.2-0.2,0.3c-0.1,0.1-0.2,0.2-0.3,0.3c-1.1,1.2-2.4,2.2-3.5,3.3c-1.1,1-2.2,2-3.3,3
			c-0.6,0.5-1.4,1.3-0.8,2.2c0.3,0.4,0.7,0.7,1.1,1.1l0.1,0.1c0.3,0.3,0.6,0.7,0.9,1s0.6,0.7,1,0.9c0.2,0.1,0.4,0.1,0.6-0.1
			c0.8-0.4,1.4-1.1,2.1-1.7c0.9-0.8,1.8-1.5,2.7-2.3c0.1-0.1,0.2-0.1,0.3-0.2c0.3-0.2,0.6-0.5,0.8-0.7c0.9-0.8,1.8-1.6,2.7-2.4
			c0.3-0.3,0.6-0.5,0.9-0.8c1.4-1.2,3.1-2.2,4.5-3.4C262.1,380.1,262,380,262,380z"/>
		<path class="st18" d="M304.9,327.1c-9.4-11-67.5-17.4-63.5-32.4c0.6-4.9-3.7-2.8-6.7-2c-6.2-0.5-15.4,7-22.1,10.1
			c-4.3,2.4-9-0.7-13.5,0.4c0.2-2.5-0.1-2.2-0.2,0c-1.3,0.4-1.4,0.8,0,0.2c1,25,15.3,47.3,23,70.7c6.2,15,12.1,30,15.2,46
			c4.8,9.6,10.6,17.9,11.9,28.9c1.3,3.5,5.7,5.1,5.6,9.1c1.4,3.5,11.1-1.1,13.6-2.3c-2.4-4.8-1.8-10.2-2-15.4
			c-0.1-7.5-4.4-13.8-6.7-20.7c-1.8-5.3-0.8-10.9-1.3-16.4c-1-8.3-4.8-15.9-5.9-24.1c3.9,4,7.3,8.9,10.5,13.2
			c3.4-3.3,7.6-5.5,9.1-10.4c3.5-5.9,10.9-7.8,15.1-13.1C292.4,355.5,311.9,343.1,304.9,327.1z M270.9,346.4
			c-5.6,3-4.6,10.3-9.8,13.7c-2.1,1.5-2.2,3.9-2.3,6.2c-0.8,4-5.1,5.7-7,9.1c-0.5-13.7-4.7-26.6-8.3-39.7
			C246.9,338,275.7,341.9,270.9,346.4z"/>
		<path class="st19" d="M212.1,318.5c-5.7-4.8-24.9-24.8-25.9-26.8c-0.5-1-0.9-2.1-1-3.2c-0.1-1.2,0.1-2.4,0.5-3.5
			c0.4-1.2,7.4-16.6,9.2-21.8c0,0,0-0.1-0.1-0.1c-6.2,0.4-10.9,1.7-17.1,2.1c0.1-0.2,0.1-0.4,0.2-0.6c0.2-0.7,0.5-1.4,0.7-2.1
			c0-0.1-0.1-0.1-0.2,0c-0.3,0.9-0.6,1.8-0.9,2.8c-0.2,0-0.5,0-0.7,0c-0.1,0-0.1,0.2,0,0.2h0.7c-1.5,4.7-6.2,19.5-6.5,22.4
			c-0.2,1.3-0.2,2.7,0,4c0.3,1.3,0.9,2.5,1.6,3.6c2.9,4.3,30.3,25.9,34,28.2C208.4,321.8,210.2,320.1,212.1,318.5z"/>
		<path class="st2" d="M260.4,266c-2.5-3.4-1.7-7.9-3.3-11.7c-2.1-4.6-6-8.4-6.3-13.7c0.1-10.7-4.8-16.9-14.5-21.1
			c-2,1.7-4.5-1.5-6.7-1.7c-5.7-0.6-12.6-1.1-17.8,1.1c-2.2,0.5-4.3,4.8-6.4,2.4c-16.1,7.7-27.1,21.9-31.4,39.1
			c-4.4,5.3-3.7,12-6.4,17.9c6.5,1.7,13.8,2,20.6,1.6c0.5,5.6-1.6,12.3,3,16.7c3.8,2.6,2.7,8.1,5.9,10.8c10.1-0.2,22.2,1.2,29.4-7.8
			c9.2-9,23.7,8.5,17.9-27.6l11.8-2C259.3,269.4,263.3,270.1,260.4,266z"/>
		<path class="st19" d="M252.7,197c-2-9.9,5.9-19.1-8.8-23.5c-15.4-6.2-19.7,10.7-19.2,22.6c-2.2,6.6-5.2,12.9-8.4,19.1
			c3,4,8.1,5.7,13,5.1c-0.1,0,0.7-0.1,0.9-0.1c1.7-3.3,3.8-7.5,5.1-9.7c3.1,0.7,11,4.9,12.5,0.6c0.4-1.4,0-3.1,1.2-4.1
			c0.9-0.4,0-1.4-0.2-1.9c2.7-0.5,0.7-2,1.2-3.6C253.3,201.7,254,199.6,252.7,197z"/>
		<path class="st21" d="M250.2,193.5c-0.3,1-0.9,1.6-1.3,1.5s-0.5-1-0.2-2s0.9-1.6,1.3-1.5S250.5,192.5,250.2,193.5z"/>
		<path class="st21" d="M258.3,178.3c-0.3-0.7-0.9-0.9-1.6-1.2c-0.5-0.2-0.9-0.4-1-0.9c-0.1-0.6,0.2-1.2,0.5-1.6
			c0.2-0.5,0.4-0.9,0.6-1.4c0.1-0.3,0.1-0.6,0.1-0.9c-0.1-1.9-1.7-3-3.4-3.4c-0.3-0.5-0.8-0.9-1.3-1.2c-1.4-0.8-3.2-1-4.7-0.9
			c-1.7,0.1-3.4,0.6-4.7,1.8c0-0.1,0-0.1,0-0.2l0,0c-0.2-0.8-0.7-1.4-1.4-1.8c-1-0.5-2.2-0.5-3.3-0.3c-2.4,0.4-4.5,1.6-6.5,2.9
			c-0.2,0.1-0.3,0.2-0.5,0.3c-0.7,0.1-1.4,0.1-2.1,0c-1.5-0.1-3-0.2-4.5,0.1c-2.7,0.5-5.3,2.3-5.9,5.1c-0.1,0.6-0.2,1.3-0.1,1.9
			c0,0.3,0.1,0.6,0.2,0.9c0.1,0.4,0.3,0.7,0.5,1.1c0.1,0.4,0.1,0.7-0.2,1c-0.1,0.1-0.3,0.2-0.4,0.3c-0.3,0.2-0.6,0.5-0.8,0.8
			c-0.4,0.5-0.8,1.1-1,1.7c-0.5,1.2-0.7,2.8,0,4c0.6,1.1,1.8,1.6,2.8,2.1c0.7,0.3,1.4,0.7,2,1.2c0.6,0.6,1.1,1.4,1.3,2.2
			c0.5,1.7-0.8,9.1-1.2,11c0,0,0,0.1,0.1,0.1c0.1,0.1,0.3,0.1,0.5,0.2c1,0.3,2.1,0.2,3.2-0.1c0.8-0.2,1.5-0.5,2-0.9
			c0.7-0.5,1.5-1.4,1.9-2.3v-0.1c0.2-0.4,0.5-1,0.8-1.7c0.1-0.2,0.2-0.3,0.3-0.5l0,0c0.1-0.3,0.3-0.6,0.4-0.8l0,0
			c1-2,2.1-4.3,2.6-5.2c0.1-0.3,0.3-0.6,0.4-0.8c-0.1-0.2-0.1-0.5,0.1-0.8c0-0.1,0.1-0.2,0.1-0.2c0.7-0.5,1.6-0.6,2.6-0.6
			c0.2,0,0.4,0,0.6,0l0,0c0.8-0.1,1.5-0.4,2.2-1c0.1,0,0.1-0.1,0.1-0.1c0.8-0.8,1.4-2.1,2.6-2.5c0.4-0.1,0.7-0.2,1.1-0.5
			c0.3-0.3,0.5-0.5,0.8-0.7c0.6,0.5,1.4,1,2.1,1.3c0.9,0.4,2.1,0.6,3.1,0.3c0.6-0.2,1.1-0.8,1.1-1.4c0.8,0.4,2,0.3,2.8-0.1
			c0.4-0.2,0.8-0.4,1.1-0.8c0.2-0.2,0.3-0.4,0.4-0.6c0,0,0,0,0.1,0c1.6-0.1,3.3-0.9,3.8-2.5C258.7,179.7,258.6,178.9,258.3,178.3z"
			/>
		<path class="st20" d="M292.7,280.2c0.1-0.2,0.3-0.4-0.5-0.4c-6.1,0.1-22.4,0.1-22.6,0.1s-0.6,0-0.7,0.1c-0.2,0.1-0.3,0.3-0.4,0.5
			c-0.6,0.6-1.4,1.6-2.4,2.8c-2.1,2.5-4.9,6-7.8,9.7c-1.9,2.4-3.9,4.9-5.7,7.3c-0.1,0.1-0.2,0.2-0.3,0.4c-0.1,0.1-0.1,0.2-0.2,0.3
			c-1.1,1.4-2.1,2.7-3,3.9c-2.5,3.3-4.4,5.8-5,6.7c0,0.1,0,0.1,0.1,0.1c3.3,0,10.9-0.5,16.3-1c0.2,0,0.3,0,0.5,0
			c0.9-0.1,1.7-0.2,2.4-0.2c1.2-0.1,2.1-0.2,2.5-0.3c1-0.2,1.9-0.3,2.6-1c0.3-0.3,3.5-4.1,7.6-8.8c0.4-0.5,0.9-1,1.3-1.6
			c2.8-3.2,5.8-6.8,8.4-9.9C289,284.9,291.7,281.6,292.7,280.2L292.7,280.2z"/>
		<path class="st21" d="M252.6,187.4c-1.1-0.3-2.2-0.4-3.4-0.3c-0.1,0-0.1,0-0.2,0c-0.6,0.1-1.6,0.2-2.1,0.6
			c-0.3,0.3-0.2,0.7,0.1,0.9c0.3,0.2,0.6,0.2,0.9,0.3c0.2,0,0.4,0.1,0.6,0.1s0.5,0.1,0.7,0.1c0.6,0.1,1.3,0.3,1.9,0.5
			c0.1,0,0.2,0,0.2,0.1c0.1,0,0.2,0.1,0.3,0.1h0.1l0,0c0.1,0,0.2,0.1,0.3,0.1c0.2,0.1,0.4,0.1,0.6,0.2c0-0.1,0-0.1,0-0.2
			c0-0.1,0-0.1,0-0.2l0,0c0-0.1,0-0.2,0.1-0.4v-0.1v-0.1l0,0c0-0.1,0-0.1,0-0.2v-0.1c0-0.5,0.1-1,0.1-1.5
			C252.9,187.5,252.7,187.5,252.6,187.4z"/>
		<path class="st22" d="M250.3,203.3c-0.6,0-1.2,0.1-1.8,0.1c-0.8,0-1.5-0.1-2.3-0.3c-0.1,0-0.1,0.1-0.1,0.1
			c0.5,0.9,1.5,1.6,2.5,1.8c0.1,0,0.1,0,0.2,0l0,0l0,0c0.3-0.1,0.6-0.2,0.9-0.3s0.5-0.3,0.6-0.6
			C250.4,203.8,250.4,203.6,250.3,203.3z"/>
		<path class="st19" d="M236.4,219.6c-0.7-0.4-1.3-0.7-2-1.1c-0.7-0.4-1.4-0.8-2.2-1.2c-0.1-0.1-0.2-0.1-0.3-0.2l0,0
			c-4-2.1-8.4-3.8-12.9-3c-0.3,0.1-0.6,0.1-0.9,0.2c0,0-0.1-0.1-0.1,0c-0.1,0-0.1,0.1-0.2,0.1c-0.3,0.1-0.5,0.2-0.8,0.3
			c-0.1,0-0.1,0.2,0,0.2s0.2-0.1,0.2-0.1c-0.2,0.1-0.4,0.3-0.7,0.4c-2.3,1.4-4.5,2.7-6.8,4c-1.4,0.8-2.8,1.6-4.2,2.4h-0.1
			c2.3,3.6,5.7,6.4,9.7,7.8c2.8,1,5.9,1.4,8.9,1c2.8-0.4,5.2-1.8,7.3-3.7c0.7-0.7,1.3-1.4,2-2.1c0.1-0.1,0.2-0.2,0.3-0.3
			c1.1-1.4,2.1-2.9,3.1-4.4C236.5,219.7,236.4,219.6,236.4,219.6z"/>
		<path class="st20" d="M251.8,189.9c-0.1,0-0.2,0-0.3-0.1c-0.1,0-0.2,0-0.2,0c-3.2-0.5-7.7-1.3-11.6-2c-1-0.2-2-0.3-2.8-0.4
			c-0.5-0.1-1-0.1-1.4-0.2c-0.1-0.1,0.7,1.2,0.9,1.4c0.1,0.1,0.4,0.2,0.9,0.3l0,0c1.6,0.4,4.8,1.1,5.8,1.4c2.1,0.5,4.2,0.9,6.3,1.4
			c0.3,0.1,0.6,0.1,0.9,0.2c0.2,0,0.4,0.1,0.5,0.1s0.2,0.1,0.4,0.1C251.3,192.1,251.7,190.4,251.8,189.9L251.8,189.9z"/>
		<path class="st20" d="M254.3,189.6l-1.3-0.5l-0.7-0.3c-0.1-0.1-0.3,0-0.4,0.1c-0.1,0-0.1,0.1-0.2,0.2c-0.1,0.2-0.1,0.5-0.2,0.7
			l0,0c-0.2,0.7-0.4,1.4-0.6,2.1c-0.3,1-0.6,2-0.8,3c0,0.1-0.1,0.2-0.1,0.3c-0.2,0.6-0.4,1.4-0.4,2.1c0,0.3,0.1,0.5,0.2,0.7
			c0.2,0.3,0.5,0.4,0.8,0.5h0.1c0.6,0,1.1-0.6,1.4-1.2c0.2-0.3,0.3-0.7,0.4-1l0,0c0-0.1,0.1-0.2,0.1-0.3l0.1-0.2
			c0.5-1.4,0.9-2.8,1.3-4.1c0.2-0.6,0.3-1.2,0.5-1.8C254.6,189.9,254.5,189.7,254.3,189.6z M253.6,191.7c-0.4,1.3-0.8,2.7-1.2,3.9
			c0,0.1,0,0.1-0.1,0.2l-0.1,0.2c-0.1,0.4-0.4,1-0.7,1.5c-0.3,0.4-0.6,0.8-0.9,0.7c-0.2,0-0.4-0.1-0.5-0.3c-0.1-0.1-0.1-0.3-0.1-0.5
			c0-0.6,0.2-1.5,0.4-2c0-0.1,0.1-0.3,0.1-0.4c0.4-1.7,0.9-3.4,1.4-5.1c0.1-0.2,0.1-0.5,0.2-0.7l0,0l0.8,0.3l1.2,0.4
			C253.9,190.6,253.7,191.2,253.6,191.7z"/>
		<path class="st19" d="M286.7,289.6c-0.1-0.5-0.5-0.7-1-0.8c-0.4-0.1-0.7-0.1-1.1-0.1c-1.2-0.1-2.4,0-3.6,0.3c0,0,0,0-0.1,0
			c-0.6,0.1-1.2,0.4-1.7,0.6c-0.4,0.2-0.8,0.4-1.1,0.6c-0.4,0.2-0.8,0.4-1,0.8c-0.3,0.4-0.2,1,0.3,1.2c0.3,0.1,0.7,0,1-0.1
			c0.2-0.1,0.5-0.1,0.7-0.2c-0.3,0.1-0.6,0.2-0.8,0.3c-0.6,0.3-1.5,0.6-1.9,1.2c-0.2,0.3-0.3,0.9,0.2,1.1c0.2,0.1,0.4,0.1,0.6,0.1
			c-1.2,0.3-2.6,0.8-3.5,1.7c-0.3,0.3-0.6,0.7-0.4,1.1c-0.8,0.3-1.7,0.9-0.9,1.5c1,0.7,2.4,0.3,3.5,0.1c0.5-0.1,0.9-0.2,1.4-0.3
			c0.3-0.1,0.5-0.1,0.8-0.2c0.6-0.1,1.2-0.3,1.7-0.6c0.3-0.2,0.6-0.5,0.8-0.9c0.9-0.1,1.8-0.3,2.3-1.1c0.3-0.5,0.3-1.1-0.1-1.5l0,0
			c1.2,0,2.5-0.1,3.2-1.1c0.3-0.5,0.4-1.2,0.1-1.7c-0.1-0.2-0.2-0.3-0.3-0.4c0,0,0.1,0,0.1-0.1C286.4,290.8,286.9,290.3,286.7,289.6
			z"/>
		<path class="st21" d="M199.9,248.7c-0.4,2.3-0.9,4.7-2.6,6.5c0.1-0.3,0.2-0.7,0.3-1c0.6-2.4,0.6-4.9-0.4-7.3
			c-0.1-0.2-0.4,0-0.3,0.2c2.7,6.1-2,12-3.8,17.6c-1.6,5-1.4,10.7-4.7,15.1c-0.1,0.2,0.2,0.3,0.3,0.2c2.6-3.5,3-7.9,3.9-12
			c0.5-2.4,1.3-4.7,2.3-6.9c0.8-1.7,1.6-3.5,2.2-5.3h0.1c1.9-1.8,2.5-4.4,2.9-6.9C200.2,248.6,199.9,248.5,199.9,248.7z"/>
		<path class="st21" d="M241.7,257.7c-0.1-2.2,0.2-4.4,0.2-6.7c0-2.1-0.4-4.2-1.1-6.3c-0.1-0.2-0.4-0.1-0.3,0.1c0.7,2,1,4.2,1.1,6.3
			c0,2.2-0.3,4.3-0.2,6.5c0.2,4.1,2.3,8.1,1.5,12.2c0,0.2,0.3,0.3,0.3,0.1C244,265.9,241.9,261.9,241.7,257.7z"/>
		<path class="st21" d="M215.1,310.8c-0.3,2.5-1.3,4.8-2.9,6.7c-0.1,0.2,0.1,0.4,0.2,0.2c1.7-2,2.7-4.3,3-6.9
			C215.4,310.6,215.1,310.6,215.1,310.8z"/>
		<path class="st21" d="M239.1,319.8c-0.1-0.2-0.4,0-0.3,0.2c2.1,4.2,3.6,8.7,4.5,13.4c0,0.2,0.3,0.1,0.3-0.1
			C242.7,328.6,241.2,324.1,239.1,319.8z"/>
		<path class="st21" d="M283.2,340.8c-1.9,0.2-3.8,0.6-5.6,1.4c-0.2,0.1,0,0.4,0.2,0.3c1.7-0.7,3.5-1.2,5.4-1.4
			C283.4,341.1,283.4,340.8,283.2,340.8z"/>
		<path class="st21" d="M283.8,343.7c-1.7-0.2-3.3,0-4.9,0.3c-0.2,0-0.1,0.4,0.1,0.3c1.6-0.4,3.2-0.5,4.8-0.3
			C284,344.1,284,343.7,283.8,343.7z"/>
		<path class="st21" d="M257.9,421.4c-4.8-3.5-9.1-7.6-13-12.1c-0.1-0.2-0.4,0.1-0.2,0.2c3.9,4.5,8.3,8.6,13,12.1
			C257.9,421.8,258,421.6,257.9,421.4z"/>
		<path class="st20" d="M251.7,170.3c-0.2,0-0.3,0.3-0.1,0.3c1.6,0.3,2.4,1.8,1.8,3.3c-0.1,0.2,0.2,0.3,0.3,0.2
			C254.4,172.4,253.5,170.6,251.7,170.3z"/>
		<path class="st20" d="M252,172.6c-0.1-0.2-0.4,0-0.3,0.2c0.5,0.7,0.5,1.6,0.1,2.4c-0.1,0.2,0.2,0.3,0.3,0.2
			C252.6,174.4,252.5,173.4,252,172.6z"/>
		<path class="st20" d="M244.3,182.3c-0.9-1-1.4-2.9-1-4.3c0.1-0.2-0.2-0.3-0.3-0.1c-0.5,1.4,0.1,3.5,1.1,4.6
			C244.2,182.7,244.5,182.5,244.3,182.3z"/>
		<path class="st20" d="M242.3,182.7c-0.5-0.4-0.9-0.9-1-1.6c-0.1-0.2-0.4-0.1-0.3,0.1c0.2,0.7,0.6,1.3,1.1,1.7
			C242.2,183,242.5,182.8,242.3,182.7z"/>
		<path class="st20" d="M221.5,185.9c-1-0.3-1.4-2.1-0.9-3c0.1-0.2-0.2-0.3-0.3-0.2c-0.6,1.1-0.2,3.1,1.1,3.5
			C221.6,186.3,221.7,186,221.5,185.9z"/>
		<path class="st21" d="M209.3,315c-0.4-0.6-1.2-1.1-1.7-1.6c-0.1-0.1-0.2,0-0.3,0.1c-0.5,0.6-1,1.1-1.5,1.7l0,0
			c-0.3,0-0.5-0.1-0.8-0.1c-0.4,0-1.1,0.2-1.5,0.4c0,0-0.1,0-0.1,0.1c-0.1,0.1-0.2,0.2-0.3,0.2s-0.1,0.1-0.2,0.2
			c-0.5,0.5-0.3,0.4-0.5,0.6c-0.4,0.6-0.2,0.4-0.3,0.7c0,0.1,0,0.2,0,0.3c0,0,0,0,0,0.1l-0.1,0.4c0,0.3,0,0.5,0.1,0.8
			c0,0.1,0.1,0.2,0.1,0.4c-0.3,0.3-0.6,0.6-0.8,1c-0.1,0.1-0.1,0.2,0,0.2c0.4,0.4,1.5,1.8,2.2,1.6c0.3-0.1,0.7-0.6,1-1
			c0.1,0,0.2,0,0.3,0c0.4,0,0.8-0.1,1.1-0.2c0.4-0.1,0.7-0.3,0.9-0.6c0.1-0.2,0.3-0.4,0.4-0.6s0.2-0.5,0.3-0.8l0,0
			c0-0.1,0.1-0.3,0.1-0.4c0.1-0.3,0.1-0.7,0-1c0.1-0.1,0.2-0.2,0.3-0.3c0.4-0.4,1.1-1,1.3-1.5C209.4,315.3,209.4,315.2,209.3,315z"
			/>
	</g>
</g>
</svg>
