<?xml version="1.0" encoding="utf-8"?>
<!-- Generator: Adobe Illustrator 24.2.3, SVG Export Plug-In . SVG Version: 6.00 Build 0)  -->
<svg version="1.1" id="圖層_1" xmlns="http://www.w3.org/2000/svg" xmlns:xlink="http://www.w3.org/1999/xlink" x="0px" y="0px"
	 viewBox="0 0 672.2 441.5" style="enable-background:new 0 0 672.2 441.5;" xml:space="preserve">
<style type="text/css">
	.st0{fill:#E2E2E2;}
	.st1{fill:#FFDA86;}
	.st2{fill:#FFFFFF;}
	.st3{fill:#8696A6;}
	.st4{fill:#A5B4C7;}
	.st5{fill:#F5DCC1;}
	.st6{fill:#404259;}
	.st7{fill:#D7876C;}
	.st8{fill:#EAAB72;}
	.st9{fill:#DEDEFA;}
	.st10{fill:none;}
	.st11{fill:#DA565D;}
	.st12{fill:#869FBA;}
	.st13{fill:#617482;}
	.st14{fill:#D8E7F0;}
</style>
<g id="圖層_1-2">
	<g>
		<path class="st0" d="M612.6,283.3c-8.2-3.6-13.5-11.7-13.5-20.7v-98.9h1.7c2.4,0,4.2-1.9,4.2-4.2s-1.9-4.2-4.2-4.2h-45.5
			c-2.4,0-4.2,1.9-4.2,4.2s1.9,4.2,4.2,4.2h1.2v98.8c0,8.9-5.1,17.2-13.3,20.6c-45.9,19.1-67.6,71.7-48.6,117.6
			c4,9.7,9.7,18.5,16.6,26.1c8.6,9.3,20.7,14.6,33.5,14.6H611c12.6,0.1,24.7-5.2,33.3-14.4c14.7-16,23.2-36.8,23.7-58.5
			C668.9,331,645.6,297.4,612.6,283.3z"/>
		<path class="st1" d="M503.2,325.7c-18.5,31.8-14.1,72.1,10.9,99.2c8.2,8.8,19.7,13.8,31.7,13.7h62.7c11.9,0.1,23.3-4.8,31.5-13.5
			c13.9-15,22-34.6,22.4-55c0.4-15.6-3.7-30.9-11.7-44.4L503.2,325.7z"/>
		<circle class="st2" cx="580.4" cy="354.9" r="4.9"/>
		<circle class="st2" cx="530" cy="346.7" r="8.5"/>
		<circle class="st2" cx="548.5" cy="389.4" r="12.6"/>
		<circle class="st2" cx="572.3" cy="422.3" r="5.9"/>
	</g>
	<path class="st3" d="M440.3,257.9h-36.9c-1.2,0-2.3-1-2.3-2.3l0,0c0-1.3,1-2.3,2.3-2.3h36.9c1.2,0,2.3,1,2.3,2.3l0,0
		C442.6,256.9,441.6,257.9,440.3,257.9L440.3,257.9z"/>
	<path class="st3" d="M440.3,286.9h-36.9c-1.2,0-2.3-1-2.3-2.3l0,0c0-1.3,1-2.3,2.3-2.3h36.9c1.2,0,2.3,1,2.3,2.3l0,0
		C442.6,285.8,441.6,286.9,440.3,286.9L440.3,286.9z"/>
	<g>
		<rect x="200.8" y="352.3" class="st3" width="119.7" height="79"/>
		<path class="st4" d="M8.2,5.9H513c4.6,0,8.2,3.7,8.2,8.2v338.6c0,4.6-3.7,8.2-8.2,8.2H8.2c-4.6,0-8.2-3.7-8.2-8.2V14.1
			C0,9.6,3.7,5.9,8.2,5.9z"/>
		<rect x="14.8" y="19.7" class="st5" width="489.5" height="323.7"/>
		<rect x="14.8" y="19.5" class="st6" width="489.5" height="20.9"/>
		<circle class="st7" cx="29.4" cy="29.6" r="5.2"/>
		<circle class="st8" cx="46.8" cy="29.6" r="5.2"/>
		<circle class="st9" cx="65.2" cy="29.6" r="5.2"/>
		<path class="st4" d="M181.6,418.8h158c12.5,0,22.7,10.2,22.7,22.7l0,0l0,0l0,0H158.9l0,0l0,0C158.9,428.9,169.1,418.8,181.6,418.8
			L181.6,418.8z"/>
		<path class="st2" d="M33.9,55.9h453.4c2.2,0,4,1.8,4,4v257.6c0,2.2-1.8,4-4,4H33.9c-2.2,0-4-1.8-4-4V59.9
			C29.9,57.6,31.7,55.9,33.9,55.9z"/>
		<circle class="st6" cx="276.6" cy="199.8" r="68.6"/>
		<circle class="st10" cx="276.7" cy="199.5" r="68.6"/>
		<path class="st11" d="M231.7,148l47.2,48.6l17-62.6C273.5,127.4,249.3,132.7,231.7,148L231.7,148z"/>
		<path class="st5" d="M231.7,148c-15,13-23.7,31.9-23.7,51.8c0,1.4,0.1,2.9,0.1,4.3l70.7-7.5L231.7,148z"/>
		<path class="st12" d="M259.2,266.1l19.6-69.6l-70.7,7.5C210,233.6,230.6,258.6,259.2,266.1z"/>
		<path class="st10" d="M295.8,133.9l-17,62.6c0,0,39.1,23.9,57.6,36.7c0.2-0.4,0.4-0.7,0.6-1.1c17.9-33.4,5.3-75-28.1-92.8
			C304.8,137,300.4,135.2,295.8,133.9z"/>
		<path class="st8" d="M278.9,196.6l-19.6,69.6c30.2,7.9,62-5.6,77.2-32.9C318,220.5,278.9,196.6,278.9,196.6z"/>
		<path class="st13" d="M323.8,163.1c-0.5,0-0.9-0.2-1.2-0.7c-0.4-0.7-0.2-1.6,0.4-2l30.3-19.7c0.2-0.1,0.5-0.2,0.8-0.2h78.2
			c0.8-0.1,1.5,0.5,1.6,1.3s-0.5,1.5-1.3,1.6c-0.1,0-0.2,0-0.2,0h-77.8l-30,19.5C324.3,163,324.1,163.1,323.8,163.1z"/>
		<path class="st13" d="M412.4,115.8h-58.2c-0.8,0-1.4-0.6-1.4-1.4s0.6-1.4,1.4-1.4l0,0h58.2c0.8,0,1.4,0.6,1.4,1.4
			C413.9,115.2,413.2,115.8,412.4,115.8L412.4,115.8z"/>
		<path class="st13" d="M426.6,131.6h-71.7c-0.8,0-1.4-0.6-1.4-1.4s0.6-1.4,1.4-1.4h71.7c0.8,0,1.4,0.6,1.4,1.4
			C428,131,427.4,131.6,426.6,131.6z"/>
		<path class="st13" d="M222,168.6c-0.2,0-0.5-0.1-0.7-0.2L186,149.1h-79c-0.8,0.1-1.5-0.5-1.6-1.3s0.5-1.5,1.3-1.6
			c0.1,0,0.2,0,0.2,0h79.4c0.2,0,0.5,0.1,0.7,0.2l35.6,19.5c0.7,0.4,1,1.2,0.6,1.9C223.1,168.3,222.6,168.6,222,168.6L222,168.6z"/>
		<path class="st13" d="M171.6,116.8h-65.9c-0.8,0.1-1.5-0.5-1.6-1.3s0.5-1.5,1.3-1.6c0.1,0,0.2,0,0.2,0h65.9
			c0.8,0.1,1.4,0.8,1.3,1.6C172.8,116.2,172.3,116.8,171.6,116.8z"/>
		<path class="st13" d="M132.5,133.6H107c-0.8,0.1-1.5-0.5-1.6-1.3s0.5-1.5,1.3-1.6c0.1,0,0.2,0,0.2,0h25.6c0.8,0.1,1.4,0.8,1.3,1.6
			C133.8,133,133.3,133.6,132.5,133.6L132.5,133.6z"/>
		<path class="st13" d="M191.1,249.4h-72c-0.8,0.1-1.5-0.5-1.6-1.3s0.5-1.5,1.3-1.6c0.1,0,0.2,0,0.2,0h71.6l30.6-16
			c0.7-0.4,1.6-0.1,1.9,0.6c0.4,0.7,0.1,1.6-0.6,1.9l-30.9,16.1C191.5,249.3,191.3,249.4,191.1,249.4z"/>
		<path class="st13" d="M160.1,212.4H117c-0.8,0.1-1.5-0.5-1.6-1.3s0.5-1.5,1.3-1.6c0.1,0,0.2,0,0.2,0H160c0.8-0.1,1.5,0.5,1.6,1.3
			s-0.5,1.5-1.3,1.6C160.3,212.4,160.2,212.4,160.1,212.4z"/>
		<path class="st13" d="M171.6,231.9h-53.8c-0.8-0.1-1.4-0.8-1.3-1.6c0.1-0.7,0.6-1.3,1.3-1.3h53.8c0.8,0.1,1.4,0.8,1.3,1.6
			C172.8,231.3,172.3,231.8,171.6,231.9z"/>
		
			<ellipse transform="matrix(0.3162 -0.9487 0.9487 0.3162 -0.3924 399.0636)" class="st2" cx="276.6" cy="199.8" rx="27.8" ry="27.8"/>
		<path class="st3" d="M61.7,85.8h135.4c1.1,0,2,0.9,2,2v0.5c0,1.1-0.9,2-2,2H61.7c-1.1,0-2-0.9-2-2v-0.5
			C59.6,86.7,60.5,85.8,61.7,85.8z"/>
		<path class="st3" d="M152,76.7H61.9c-1.3,0-2.3-1-2.3-2.3l0,0c0-1.2,1-2.3,2.3-2.3H152c1.2,0,2.3,1,2.3,2.3l0,0
			C154.3,75.7,153.2,76.7,152,76.7z"/>
		<path class="st3" d="M456.6,251.2h-90.1c-1.3,0-2.3-1-2.3-2.3l0,0c0-1.3,1-2.3,2.3-2.3h90.1c1.2,0,2.3,1,2.3,2.3l0,0
			C458.8,250.2,457.8,251.2,456.6,251.2z"/>
		<path class="st3" d="M390.5,263.8h-24c-1.2,0-2.3-1-2.3-2.3l0,0c0-1.3,1-2.3,2.3-2.3h24c1.2,0,2.3,1,2.3,2.3l0,0
			C392.8,262.8,391.7,263.8,390.5,263.8z"/>
		<path class="st3" d="M456.6,280.2h-90.1c-1.2,0-2.3-1-2.3-2.3l0,0c0-1.3,1-2.3,2.3-2.3h90.1c1.2,0,2.3,1,2.3,2.3l0,0
			C458.8,279.2,457.8,280.2,456.6,280.2L456.6,280.2z"/>
		<path class="st3" d="M390.5,292.8h-24c-1.2,0-2.3-1-2.3-2.3l0,0c0-1.3,1-2.3,2.3-2.3h24c1.2,0,2.3,1,2.3,2.3l0,0
			C392.8,291.7,391.7,292.8,390.5,292.8z"/>
		<g>
			<path class="st14" d="M68.1,267.5l-1.8,1.6l-1.1-1.2l3-2.5H70v9.2h-1.9V267.5z"/>
			<path class="st14" d="M72.5,269.9c0-0.6,0.1-1.1,0.2-1.7c0.1-0.5,0.3-1.1,0.5-1.5s0.6-0.8,1-1.1c0.5-0.3,1.1-0.5,1.7-0.4
				c0.6,0,1.2,0.1,1.7,0.4c0.4,0.3,0.8,0.7,1.1,1.1c0.3,0.5,0.4,1,0.5,1.5s0.1,1.1,0.2,1.7c0,0.6-0.1,1.1-0.2,1.7
				c-0.1,0.5-0.3,1.1-0.5,1.5c-0.2,0.5-0.6,0.8-1.1,1.1c-0.5,0.3-1.1,0.5-1.7,0.4c-0.6,0-1.2-0.1-1.7-0.4c-0.4-0.3-0.8-0.7-1-1.1
				c-0.3-0.5-0.4-1-0.5-1.5C72.6,271,72.5,270.5,72.5,269.9z M74.5,269.9c0,0.2,0,0.5,0,0.9c0,0.3,0.1,0.7,0.2,1s0.2,0.6,0.4,0.8
				c0.2,0.2,0.5,0.4,0.8,0.3c0.3,0,0.6-0.1,0.8-0.3c0.2-0.2,0.4-0.5,0.4-0.8c0.1-0.3,0.2-0.7,0.2-1s0-0.6,0-0.9s0-0.5,0-0.9
				c0-0.3-0.1-0.7-0.2-1s-0.2-0.6-0.4-0.8c-0.2-0.2-0.5-0.3-0.8-0.3s-0.6,0.1-0.8,0.3c-0.2,0.2-0.4,0.5-0.4,0.8
				c-0.1,0.3-0.2,0.7-0.2,1C74.5,269.4,74.5,269.7,74.5,269.9L74.5,269.9z"/>
			<path class="st14" d="M81,272.4h1.9l-1.2,3.7H80L81,272.4z"/>
			<path class="st14" d="M87.4,268.6c0.1,0,0.2,0,0.3-0.1c0.1,0,0.2,0,0.3,0c0.4,0,0.8,0.1,1.2,0.2c0.3,0.1,0.7,0.4,0.9,0.6
				c0.3,0.3,0.5,0.6,0.6,1s0.2,0.8,0.2,1.2c0,0.4-0.1,0.9-0.3,1.3c-0.4,0.8-1,1.4-1.8,1.6c-0.9,0.3-1.8,0.3-2.7,0
				c-0.4-0.1-0.8-0.4-1.1-0.6c-0.3-0.3-0.6-0.6-0.7-1c-0.2-0.4-0.3-0.9-0.3-1.3c0-0.3,0-0.6,0.1-0.9s0.1-0.5,0.2-0.8
				c0.1-0.2,0.2-0.5,0.3-0.7l0.4-0.7l2-3.1h2.4L87.4,268.6z M89,271.4c0-0.4-0.1-0.7-0.4-1c-0.6-0.5-1.5-0.5-2.2,0
				c-0.3,0.3-0.4,0.6-0.4,1s0.1,0.7,0.4,1c0.6,0.5,1.5,0.5,2.2,0C88.9,272.2,89,271.8,89,271.4z"/>
			<path class="st14" d="M92.1,267.7c0-0.4,0.1-0.8,0.2-1.1c0.2-0.3,0.4-0.6,0.7-0.8c0.3-0.2,0.6-0.4,1-0.5s0.8-0.2,1.2-0.2
				c0.4,0,0.8,0.1,1.2,0.2c0.4,0.1,0.7,0.2,1,0.5c0.6,0.5,0.9,1.2,0.9,1.9c0,0.5-0.1,0.9-0.4,1.3s-0.7,0.6-1.2,0.8l0,0
				c0.5,0.1,1,0.4,1.3,0.8s0.5,0.9,0.4,1.4c0,0.8-0.4,1.5-1,2c-0.3,0.2-0.6,0.4-1,0.5s-0.8,0.2-1.2,0.2c-0.4,0-0.8-0.1-1.2-0.2
				c-0.4-0.1-0.7-0.3-1-0.5c-0.6-0.5-1-1.2-1-2c0-0.5,0.1-1,0.4-1.4s0.8-0.7,1.3-0.8l0,0c-0.5-0.1-0.9-0.4-1.2-0.8
				C92.3,268.6,92.1,268.2,92.1,267.7z M93.9,271.7c0,0.3,0.1,0.6,0.3,0.8c0.3,0.2,0.6,0.4,0.9,0.3c0.3,0,0.7-0.1,0.9-0.3
				c0.5-0.4,0.5-1.1,0.1-1.6c0,0,0,0-0.1-0.1c-0.2-0.2-0.6-0.4-0.9-0.3c-0.3,0-0.7,0.1-0.9,0.3C94,271.1,93.9,271.4,93.9,271.7
				L93.9,271.7z M94.1,267.9c0,0.3,0.1,0.5,0.3,0.7c0.5,0.4,1.2,0.4,1.6,0c0.2-0.2,0.3-0.5,0.3-0.7c0-0.3-0.1-0.5-0.3-0.7
				c-0.5-0.4-1.2-0.4-1.6,0C94.2,267.4,94,267.7,94.1,267.9L94.1,267.9z"/>
			<path class="st14" d="M103,271.2l-0.3,0.1c-0.1,0-0.2,0-0.3,0c-0.4,0-0.8-0.1-1.2-0.2c-0.3-0.1-0.7-0.4-0.9-0.6
				c-0.3-0.3-0.5-0.6-0.6-1s-0.2-0.8-0.2-1.2c0-0.9,0.4-1.7,1-2.3c0.3-0.3,0.7-0.5,1.1-0.6c0.9-0.3,1.8-0.3,2.7,0
				c0.4,0.1,0.8,0.4,1.1,0.6c0.7,0.6,1,1.4,1,2.3c0,0.3,0,0.6-0.1,0.9c-0.1,0.5-0.3,1-0.6,1.5c-0.1,0.2-0.3,0.5-0.4,0.7l-2,3.1h-2.4
				L103,271.2z M101.4,268.4c0,0.4,0.1,0.7,0.4,1s0.7,0.4,1.1,0.4s0.8-0.1,1.1-0.4c0.3-0.3,0.4-0.6,0.4-1s-0.1-0.7-0.4-1
				s-0.7-0.4-1.1-0.4s-0.8,0.1-1.1,0.4C101.6,267.7,101.4,268,101.4,268.4z"/>
			<path class="st14" d="M107.2,269.9c0-0.6,0.1-1.1,0.2-1.7c0.1-0.5,0.3-1.1,0.5-1.5c0.3-0.5,0.6-0.8,1.1-1.1
				c0.5-0.3,1.1-0.5,1.7-0.4c0.6,0,1.2,0.1,1.7,0.4c0.4,0.3,0.8,0.7,1,1.1c0.3,0.5,0.4,1,0.5,1.5s0.2,1.1,0.2,1.7s0,1.1-0.2,1.7
				c-0.1,0.5-0.3,1.1-0.5,1.5c-0.2,0.5-0.6,0.8-1,1.1c-0.5,0.3-1.1,0.5-1.7,0.4c-0.6,0-1.2-0.1-1.7-0.4c-0.4-0.3-0.8-0.7-1.1-1.1
				c-0.3-0.5-0.4-1-0.5-1.5C107.2,271,107.2,270.5,107.2,269.9z M109.2,269.9c0,0.3,0,0.5,0,0.9c0,0.3,0.1,0.7,0.2,1
				s0.2,0.6,0.4,0.8c0.2,0.2,0.5,0.4,0.8,0.3c0.3,0,0.6-0.1,0.8-0.3c0.2-0.2,0.4-0.5,0.4-0.8c0.1-0.3,0.2-0.7,0.2-1s0-0.6,0-0.9
				s0-0.5,0-0.9c0-0.3-0.1-0.7-0.2-1s-0.2-0.6-0.4-0.8c-0.2-0.2-0.5-0.3-0.8-0.3s-0.6,0.1-0.8,0.3c-0.2,0.2-0.4,0.5-0.4,0.8
				c-0.1,0.3-0.2,0.7-0.2,1C109.1,269.4,109.1,269.7,109.2,269.9L109.2,269.9z"/>
			<path class="st14" d="M117.2,268.9h0.6c0.2,0,0.4,0,0.5,0c0.2,0,0.3-0.1,0.5-0.1c0.1-0.1,0.3-0.2,0.3-0.3
				c0.1-0.2,0.1-0.3,0.1-0.5c0-0.3-0.1-0.5-0.3-0.7c-0.2-0.2-0.5-0.3-0.8-0.3c-0.5,0-1,0.3-1.2,0.9l-2.1-0.5c0.1-0.4,0.3-0.7,0.5-1
				s0.5-0.5,0.7-0.7c0.3-0.2,0.6-0.3,1-0.4s0.7-0.1,1.1-0.1s0.8,0,1.2,0.1c0.4,0.1,0.7,0.3,1,0.5c0.6,0.5,1,1.2,0.9,1.9
				c0,0.5-0.1,0.9-0.4,1.3s-0.7,0.6-1.2,0.7l0,0c0.3,0,0.5,0.1,0.7,0.2s0.4,0.3,0.6,0.5c0.1,0.2,0.3,0.4,0.3,0.6
				c0.1,0.2,0.1,0.5,0.1,0.8c0,0.4-0.1,0.8-0.3,1.2c-0.2,0.3-0.4,0.6-0.7,0.9c-0.3,0.2-0.7,0.4-1.1,0.5s-0.8,0.2-1.3,0.2
				c-0.7,0-1.5-0.2-2.1-0.6s-1.1-1.1-1.2-1.8l2.1-0.5c0,0.3,0.2,0.6,0.4,0.8c0.3,0.2,0.6,0.3,0.9,0.3c0.6,0.1,1.2-0.3,1.2-1
				c0-0.1,0-0.2,0-0.2c0-0.2,0-0.4-0.2-0.6c-0.1-0.1-0.3-0.3-0.4-0.3c-0.2-0.1-0.4-0.1-0.6-0.1h-0.7h-0.5L117.2,268.9z"/>
			<path class="st14" d="M127,265.3h6.2v1.9H129v1.7h4v1.9h-4v1.9h4.5v1.9H127V265.3z"/>
			<path class="st14" d="M142.9,271c0,0.5-0.1,1-0.2,1.5c-0.2,0.4-0.4,0.8-0.7,1.2c-0.3,0.3-0.8,0.6-1.2,0.8c-1.1,0.4-2.3,0.4-3.4,0
				c-0.5-0.2-0.9-0.4-1.2-0.8c-0.3-0.3-0.6-0.7-0.7-1.2c-0.2-0.5-0.3-1-0.2-1.5v-5.7h2v5.6c0,0.3,0,0.5,0.1,0.8
				c0.1,0.2,0.2,0.4,0.4,0.6s0.4,0.3,0.6,0.4c0.2,0.1,0.5,0.2,0.8,0.1c0.3,0,0.5,0,0.7-0.1s0.4-0.2,0.6-0.4c0.2-0.2,0.3-0.4,0.4-0.6
				c0.1-0.3,0.1-0.5,0.1-0.8v-5.6h2L142.9,271z"/>
			<path class="st14" d="M144.8,265.3h3.6c0.4,0,0.9,0,1.3,0.1c0.4,0.1,0.8,0.2,1.1,0.5c0.3,0.2,0.6,0.5,0.8,0.9s0.3,0.9,0.3,1.3
				c0,0.6-0.2,1.2-0.5,1.7c-0.4,0.5-0.9,0.8-1.5,0.9l2.3,3.9h-2.4l-1.9-3.6h-1v3.7h-2L144.8,265.3z M146.8,269.1h1.2h0.6
				c0.2,0,0.4,0,0.6-0.1c0.2-0.1,0.3-0.2,0.4-0.3c0.1-0.2,0.2-0.4,0.2-0.6s0-0.4-0.1-0.6c-0.1-0.1-0.2-0.2-0.4-0.3
				c-0.2-0.1-0.3-0.1-0.5-0.1h-0.6h-1.3L146.8,269.1z"/>
			<path class="st14" d="M156.1,264.6l1.5,0.5l-3.9,10.1l-1.5-0.5L156.1,264.6z"/>
			<path class="st14" d="M166.2,271c0,0.5-0.1,1-0.2,1.5c-0.2,0.4-0.4,0.8-0.7,1.2c-0.3,0.3-0.8,0.6-1.2,0.8
				c-0.5,0.2-1.1,0.3-1.7,0.3c-0.6,0-1.1-0.1-1.7-0.3c-0.5-0.2-0.9-0.4-1.2-0.8c-0.3-0.3-0.6-0.7-0.7-1.2c-0.2-0.5-0.2-1-0.2-1.5
				v-5.7h2v5.6c0,0.3,0,0.5,0.1,0.8c0.1,0.2,0.2,0.4,0.4,0.6s0.4,0.3,0.6,0.4c0.7,0.3,1.5,0.1,2.1-0.4c0.2-0.2,0.3-0.4,0.4-0.6
				c0.1-0.3,0.1-0.5,0.1-0.8v-5.6h2L166.2,271z"/>
			<path class="st14" d="M172.6,267.6c-0.2-0.2-0.4-0.4-0.7-0.5s-0.5-0.1-0.8-0.1c-0.2,0-0.3,0-0.4,0c-0.2,0-0.3,0.1-0.4,0.2
				c-0.1,0.1-0.2,0.2-0.3,0.3c-0.2,0.4-0.1,0.8,0.2,1.1c0.2,0.2,0.5,0.3,0.8,0.4s0.6,0.2,1,0.3c0.3,0.1,0.7,0.3,1,0.5
				s0.6,0.4,0.8,0.8s0.3,0.8,0.3,1.3s-0.1,0.9-0.3,1.3s-0.4,0.7-0.8,1c-0.3,0.3-0.7,0.4-1.1,0.6c-0.4,0.1-0.9,0.2-1.4,0.2
				c-0.6,0-1.1-0.1-1.7-0.3c-0.5-0.2-1-0.5-1.4-0.9l1.4-1.6c0.2,0.3,0.5,0.5,0.8,0.6c0.3,0.2,0.7,0.2,1,0.2c0.2,0,0.3,0,0.5-0.1
				c0.2,0,0.3-0.1,0.5-0.2c0.1-0.1,0.2-0.2,0.3-0.3c0.1-0.1,0.1-0.3,0.1-0.5c0-0.3-0.1-0.5-0.3-0.7s-0.5-0.3-0.8-0.4s-0.7-0.2-1-0.3
				c-0.4-0.1-0.7-0.3-1-0.5s-0.6-0.5-0.8-0.8c-0.2-0.4-0.3-0.8-0.3-1.2c0-0.5,0.1-0.9,0.3-1.3s0.5-0.7,0.8-0.9
				c0.3-0.3,0.7-0.4,1.1-0.6c0.4-0.1,0.9-0.2,1.3-0.2c0.5,0,1,0.1,1.5,0.2s0.9,0.4,1.3,0.7L172.6,267.6z"/>
			<path class="st14" d="M175.6,265.3h3.1c0.7,0,1.4,0.1,2.1,0.2c0.6,0.1,1.2,0.4,1.7,0.8s0.9,0.9,1.2,1.4c0.3,0.7,0.5,1.4,0.4,2.1
				c0,0.7-0.1,1.4-0.4,2c-0.3,0.6-0.7,1-1.1,1.4c-0.5,0.4-1,0.7-1.6,0.9c-0.6,0.2-1.3,0.3-2,0.3h-3.3L175.6,265.3z M177.6,272.7h1.1
				c0.4,0,0.9,0,1.3-0.1c0.4-0.1,0.7-0.2,1.1-0.5c0.3-0.2,0.5-0.5,0.7-0.9s0.3-0.8,0.3-1.3c0-0.4-0.1-0.8-0.2-1.2
				c-0.2-0.3-0.4-0.6-0.7-0.8c-0.3-0.2-0.6-0.4-1-0.5s-0.8-0.2-1.2-0.2h-1.2L177.6,272.7z"/>
		</g>
		<g>
			<path class="st14" d="M133.3,288.1H68.8c-1.3,0-2.4-1.1-2.4-2.4l0,0c0-1.3,1.1-2.4,2.4-2.4h64.4c1.3,0,2.4,1.1,2.4,2.4l0,0
				C135.7,287,134.6,288.1,133.3,288.1z"/>
		</g>
		<g>
			<path class="st14" d="M68.4,295.1h41.5c1.1,0,1.9,0.9,1.9,1.9v0.9c0,1.1-0.9,1.9-1.9,1.9H68.4c-1.1,0-1.9-0.9-1.9-1.9V297
				C66.5,295.9,67.3,295.1,68.4,295.1z"/>
		</g>
	</g>
</g>
</svg>
