<?xml version="1.0" encoding="utf-8"?>
<!-- Generator: Adobe Illustrator 24.2.3, SVG Export Plug-In . SVG Version: 6.00 Build 0)  -->
<svg version="1.1" id="圖層_1" xmlns="http://www.w3.org/2000/svg" xmlns:xlink="http://www.w3.org/1999/xlink" x="0px" y="0px"
	 viewBox="0 0 922.2 441.5" style="enable-background:new 0 0 922.2 441.5;" xml:space="preserve">
<style type="text/css">
	.st0{fill:#E2E2E2;}
	.st1{fill:#FFDA86;}
	.st2{fill:#FFFFFF;}
	.st3{fill:#EBECED;}
	.st4{fill:#EABEB2;}
	.st5{fill:#EABD9B;}
	.st6{fill:#FFD49C;}
	.st7{fill:#725754;}
	.st8{fill:#8696A6;}
	.st9{fill:#A5B4C7;}
</style>
<g>
	<g id="圖層_2_1_">
		<g id="圖層_1-2">
			<path class="st0" d="M636.1,233.3c-10.8-4.7-17.8-15.4-17.8-27.2V76h2.3c3.1,0,5.5-2.5,5.5-5.5s-2.5-5.5-5.5-5.5h-59.9
				c-3.1,0-5.5,2.5-5.5,5.5s2.5,5.5,5.5,5.5h1.6v130c0,11.7-6.7,22.6-17.5,27.1c-60.4,25.1-89,94.4-64,154.8
				c5.3,12.7,12.7,24.3,21.9,34.4c11.3,12.3,27.3,19.2,44.1,19.2h87.1c16.6,0.1,32.5-6.8,43.8-18.9c19.4-21,30.5-48.4,31.2-77
				C710.1,296.1,679.5,251.9,636.1,233.3z"/>
			<path class="st1" d="M492.1,289.1c-24.4,41.9-18.6,94.9,14.4,130.5c10.8,11.6,25.9,18.1,41.7,18h82.5
				c15.7,0.1,30.7-6.3,41.5-17.8c18.3-19.7,28.9-45.5,29.5-72.4c0.5-20.5-4.9-40.7-15.4-58.4L492.1,289.1z"/>
			<circle class="st2" cx="593.7" cy="327.5" r="6.5"/>
			<circle class="st2" cx="527.4" cy="316.8" r="11.2"/>
			<circle class="st2" cx="551.7" cy="373" r="16.6"/>
			<circle class="st2" cx="583" cy="416.2" r="7.7"/>
			<path class="st3" d="M890,205.8h-40.6c-2.1-0.1-4,1.5-4.1,3.7c-0.1,2.1,1.5,4,3.7,4.1c0.1,0,0.3,0,0.4,0h1.1V375
				c0,10.6,8.6,19.2,19.2,19.2l0,0c10.6,0,19.2-8.6,19.2-19.2V213.5h1.1c2.1,0.1,4-1.5,4.1-3.7c0.1-2.1-1.5-4-3.7-4.1
				C890.3,205.8,890.1,205.8,890,205.8z"/>
			<path class="st4" d="M869.7,390.4L869.7,390.4c-8.9,0-16.1-7.2-16.1-16.1l0,0V261.2h32.2v113.1
				C885.8,383.1,878.6,390.3,869.7,390.4L869.7,390.4z"/>
			<path class="st3" d="M823.1,205.8h-40.5c-2.1-0.1-4,1.5-4.1,3.7c-0.1,2.1,1.5,4,3.7,4.1c0.1,0,0.3,0,0.4,0h1.1V375
				c0,10.6,8.6,19.2,19.2,19.2c10.6,0,19.2-8.6,19.2-19.2V213.5h1.1c2.1,0.1,4-1.5,4.1-3.7c0.1-2.1-1.5-4-3.7-4.1
				C823.4,205.8,823.3,205.8,823.1,205.8z"/>
			<path class="st5" d="M802.9,390.4L802.9,390.4c-8.9,0-16.1-7.2-16.1-16.1l0,0V261.2H819v113.1C819,383.1,811.8,390.4,802.9,390.4
				L802.9,390.4z"/>
			<path class="st3" d="M758.2,205.8h-40.5c-2.1-0.1-4,1.5-4.1,3.7c-0.1,2.1,1.5,4,3.7,4.1c0.1,0,0.3,0,0.4,0h1.1V375
				c0,10.6,8.6,19.2,19.2,19.2l0,0c10.6,0,19.2-8.6,19.2-19.2V213.5h1.1c2.1-0.1,3.8-1.9,3.7-4.1
				C761.7,207.5,760.2,205.9,758.2,205.8L758.2,205.8z"/>
			<path class="st6" d="M737.9,390.4L737.9,390.4c-8.9,0-16.1-7.2-16.1-16.1l0,0V261.2H754v113.1C754,383.1,746.8,390.4,737.9,390.4
				L737.9,390.4z"/>
			<rect x="695.7" y="267.4" class="st2" width="220.3" height="8.6"/>
			<path class="st7" d="M919.2,412.7V210.5c0-0.2-0.2-0.3-0.3-0.3l0,0h-7.7c-0.2,0-0.3,0.2-0.3,0.3l0,0v202.2H699.2V210.5
				c0-0.2-0.2-0.3-0.3-0.3l0,0h-7.7c-0.2,0-0.3,0.2-0.3,0.3l0,0v202.2h-3.7V437h235v-24.3H919.2z"/>
			<rect x="200.8" y="346.4" class="st8" width="119.7" height="79"/>
			<path class="st9" d="M8.2,0H513c4.6,0,8.2,3.7,8.2,8.2v338.6c0,4.6-3.7,8.2-8.2,8.2H8.2c-4.6,0-8.2-3.7-8.2-8.2V8.2
				C0,3.7,3.7,0,8.2,0z"/>
			<path class="st9" d="M181.6,412.9h158c12.5,0,22.7,10.2,22.7,22.7l0,0l0,0l0,0H158.9l0,0l0,0C158.9,423,169.1,412.9,181.6,412.9
				L181.6,412.9z"/>
		</g>
	</g>
</g>
</svg>
