<svg xmlns="http://www.w3.org/2000/svg" viewBox="0 0 922.15 441.51"><defs><style>.cls-1{isolation:isolate;}.cls-2{fill:#e2e2e2;}.cls-3{fill:#ffda86;}.cls-4{fill:#fff;}.cls-5{fill:#ebeced;}.cls-6{fill:#eabeb2;}.cls-7{fill:#eabd9b;}.cls-8{fill:#ffd49c;}.cls-9{fill:#725754;}.cls-10{fill:#8696a6;}.cls-11{fill:#a5b4c7;}.cls-12{fill:#f5dcc1;}.cls-13{fill:#404259;}.cls-14{fill:#d7876c;}.cls-15{fill:#eaab72;}.cls-16{fill:#dedefa;}.cls-17{fill:none;}.cls-18{fill:#da565d;}.cls-19{fill:#869fba;}.cls-20{fill:#617482;}.cls-21{mix-blend-mode:multiply;}.cls-22{fill:#d8e7f0;}</style></defs><g class="cls-1"><g id="圖層_2" data-name="圖層 2"><g id="圖層_1-2" data-name="圖層 1"><path class="cls-2" d="M636.07,233.29a29.54,29.54,0,0,1-17.75-27.19V76h2.28a5.54,5.54,0,0,0,0-11.08H560.66a5.54,5.54,0,1,0,0,11.08h1.63V206c0,11.71-6.73,22.63-17.54,27.13A118.42,118.42,0,0,0,502.7,422.33a59.64,59.64,0,0,0,44.06,19.18h87.11a59.41,59.41,0,0,0,43.8-18.92,118,118,0,0,0,31.17-77C710.11,296.13,679.55,251.92,636.07,233.29Z"/><path class="cls-3" d="M492.08,289.06a110.48,110.48,0,0,0,14.37,130.51,56.68,56.68,0,0,0,41.74,18h82.52a56.47,56.47,0,0,0,41.48-17.77,110.51,110.51,0,0,0,29.55-72.4,109.15,109.15,0,0,0-15.38-58.37Z"/><circle class="cls-4" cx="593.67" cy="327.46" r="6.51" transform="translate(-59.35 145.16) rotate(-13.28)"/><circle class="cls-4" cx="527.42" cy="316.81" r="11.24" transform="translate(32.89 682.85) rotate(-67.5)"/><circle class="cls-4" cx="551.67" cy="373.01" r="16.56" transform="translate(-70.94 136.73) rotate(-13.28)"/><circle class="cls-4" cx="583.03" cy="416.19" r="7.69" transform="translate(-59.14 98.76) rotate(-9.22)"/><path class="cls-5" d="M890,205.81H849.43a3.87,3.87,0,1,0,0,7.73h1.08V375a19.19,19.19,0,0,0,19.19,19.18h0A19.18,19.18,0,0,0,888.88,375V213.54H890a3.87,3.87,0,1,0,0-7.73Z"/><path class="cls-6" d="M869.7,390.35h0a16.09,16.09,0,0,1-16.09-16.09V261.19h32.17V374.26A16.08,16.08,0,0,1,869.7,390.35Z"/><path class="cls-5" d="M823.13,205.81H782.61a3.87,3.87,0,1,0,0,7.73h1.08V375a19.18,19.18,0,0,0,38.36,0V213.54h1.08a3.87,3.87,0,1,0,0-7.73Z"/><path class="cls-7" d="M802.87,390.35h0a16.09,16.09,0,0,1-16.09-16.09V261.19H819V374.26A16.09,16.09,0,0,1,802.87,390.35Z"/><path class="cls-5" d="M758.17,205.81H717.64a3.87,3.87,0,1,0,0,7.73h1.08V375a19.18,19.18,0,0,0,19.18,19.18h0A19.18,19.18,0,0,0,757.08,375V213.54h1.09a3.87,3.87,0,0,0,0-7.73Z"/><path class="cls-8" d="M737.9,390.35h0a16.09,16.09,0,0,1-16.09-16.09V261.19H754V374.26A16.09,16.09,0,0,1,737.9,390.35Z"/><rect class="cls-4" x="695.66" y="267.44" width="220.31" height="8.6"/><path class="cls-9" d="M919.25,412.66V210.48a.34.34,0,0,0-.34-.34h-7.67a.34.34,0,0,0-.34.34V412.66H699.23V210.48a.34.34,0,0,0-.34-.34h-7.67a.34.34,0,0,0-.34.34V412.66h-3.72V437h235V412.66Z"/><rect class="cls-10" x="200.81" y="346.35" width="119.71" height="79.02"/><rect class="cls-11" width="521.32" height="355.04" rx="8.24"/><rect class="cls-12" x="14.78" y="13.81" width="489.52" height="323.68"/><rect class="cls-13" x="14.78" y="13.55" width="489.52" height="20.94"/><circle class="cls-14" cx="29.38" cy="23.73" r="5.24"/><circle class="cls-15" cx="46.84" cy="23.73" r="5.24"/><circle class="cls-16" cx="65.18" cy="23.73" r="5.24"/><path class="cls-11" d="M181.64,412.86h158a22.69,22.69,0,0,1,22.69,22.69v0a0,0,0,0,1,0,0H158.95a0,0,0,0,1,0,0v0A22.69,22.69,0,0,1,181.64,412.86Z"/><rect class="cls-4" x="29.89" y="49.95" width="461.38" height="265.6" rx="4"/><circle class="cls-13" cx="276.62" cy="193.88" r="68.59" transform="translate(-32.82 58.4) rotate(-11.38)"/><circle class="cls-17" cx="276.7" cy="193.59" r="68.59" transform="translate(-58.25 150.61) rotate(-27.67)"/><path class="cls-18" d="M231.69,142.08l47.16,48.58,17-62.63a68.57,68.57,0,0,0-64.14,14.05Z"/><path class="cls-12" d="M231.69,142.08A68.43,68.43,0,0,0,208,193.88c0,1.44.06,2.88.15,4.3l70.66-7.52Z"/><path class="cls-19" d="M259.25,260.24l19.6-69.58-70.66,7.52A68.61,68.61,0,0,0,259.25,260.24Z"/><path class="cls-17" d="M295.83,128l-17,62.63s39.13,23.93,57.62,36.71c.21-.37.42-.74.62-1.12A68.59,68.59,0,0,0,295.83,128Z"/><path class="cls-15" d="M278.85,190.66l-19.6,69.58a68.57,68.57,0,0,0,77.22-32.87C318,214.59,278.85,190.66,278.85,190.66Z"/><path class="cls-20" d="M323.79,157.18a1.44,1.44,0,0,1-1.21-.66,1.46,1.46,0,0,1,.42-2l30.28-19.68a1.48,1.48,0,0,1,.79-.23h78.22a1.45,1.45,0,1,1,0,2.89H354.5L324.58,157A1.42,1.42,0,0,1,323.79,157.18Z"/><path class="cls-20" d="M412.44,109.91h-58.2a1.44,1.44,0,1,1,0-2.88h58.2a1.44,1.44,0,1,1,0,2.88Z"/><path class="cls-20" d="M426.57,125.72H354.91a1.44,1.44,0,0,1,0-2.88h71.66a1.44,1.44,0,0,1,0,2.88Z"/><path class="cls-20" d="M222,162.73a1.45,1.45,0,0,1-.69-.18L186,143.22H107a1.45,1.45,0,1,1,0-2.89h79.39a1.46,1.46,0,0,1,.7.18L222.72,160a1.44,1.44,0,0,1-.7,2.71Z"/><path class="cls-20" d="M171.56,110.92H105.62a1.45,1.45,0,1,1,0-2.89h65.94a1.45,1.45,0,0,1,0,2.89Z"/><path class="cls-20" d="M132.54,127.74H107a1.45,1.45,0,1,1,0-2.89h25.57a1.45,1.45,0,0,1,0,2.89Z"/><path class="cls-20" d="M191.07,243.47h-72a1.45,1.45,0,1,1,0-2.89h71.64l30.64-16a1.44,1.44,0,0,1,1.33,2.56l-30.95,16.15A1.44,1.44,0,0,1,191.07,243.47Z"/><path class="cls-20" d="M160.12,206.47H117.06a1.45,1.45,0,1,1,0-2.89h43.06a1.45,1.45,0,1,1,0,2.89Z"/><path class="cls-20" d="M171.56,226H117.73a1.45,1.45,0,0,1,0-2.89h53.83a1.45,1.45,0,0,1,0,2.89Z"/><circle class="cls-4" cx="276.62" cy="193.88" r="27.76"/><rect class="cls-10" x="59.64" y="79.87" width="139.46" height="4.53" rx="2.02"/><path class="cls-10" d="M152,70.81H61.91a2.27,2.27,0,0,1-2.27-2.27h0a2.27,2.27,0,0,1,2.27-2.26H152a2.27,2.27,0,0,1,2.26,2.26h0A2.27,2.27,0,0,1,152,70.81Z"/><path class="cls-10" d="M456.58,245.33H366.46a2.27,2.27,0,0,1-2.27-2.27h0a2.27,2.27,0,0,1,2.27-2.27h90.12a2.27,2.27,0,0,1,2.26,2.27h0A2.27,2.27,0,0,1,456.58,245.33Z"/><path class="cls-10" d="M390.5,257.91h-24a2.27,2.27,0,0,1-2.27-2.26h0a2.27,2.27,0,0,1,2.27-2.27h24a2.27,2.27,0,0,1,2.26,2.27h0A2.27,2.27,0,0,1,390.5,257.91Z"/><path class="cls-10" d="M440.34,257.91H403.46a2.27,2.27,0,0,1-2.27-2.26h0a2.27,2.27,0,0,1,2.27-2.27h36.88a2.27,2.27,0,0,1,2.26,2.27h0A2.26,2.26,0,0,1,440.34,257.91Z"/><path class="cls-10" d="M456.58,274.27H366.46a2.27,2.27,0,0,1-2.27-2.26h0a2.27,2.27,0,0,1,2.27-2.27h90.12a2.27,2.27,0,0,1,2.26,2.27h0A2.26,2.26,0,0,1,456.58,274.27Z"/><path class="cls-10" d="M390.5,286.86h-24a2.27,2.27,0,0,1-2.27-2.26h0a2.27,2.27,0,0,1,2.27-2.27h24a2.27,2.27,0,0,1,2.26,2.27h0A2.27,2.27,0,0,1,390.5,286.86Z"/><path class="cls-10" d="M440.34,286.86H403.46a2.27,2.27,0,0,1-2.27-2.26h0a2.27,2.27,0,0,1,2.27-2.27h36.88a2.27,2.27,0,0,1,2.26,2.27h0A2.26,2.26,0,0,1,440.34,286.86Z"/><g class="cls-21"><path class="cls-22" d="M68.14,261.6l-1.84,1.63L65.19,262l3-2.54H70v9.21H68.14Z"/><path class="cls-22" d="M72.52,264a9.49,9.49,0,0,1,.15-1.66,4.77,4.77,0,0,1,.54-1.54,3.18,3.18,0,0,1,1-1.12,3.05,3.05,0,0,1,1.69-.44,3,3,0,0,1,1.69.44,3.12,3.12,0,0,1,1.05,1.12,4.53,4.53,0,0,1,.53,1.54,9.49,9.49,0,0,1,.15,1.66,9.6,9.6,0,0,1-.15,1.67,4.55,4.55,0,0,1-.53,1.53,3.07,3.07,0,0,1-1.05,1.13,3,3,0,0,1-1.69.43,3.05,3.05,0,0,1-1.69-.43,3.13,3.13,0,0,1-1-1.13,4.8,4.8,0,0,1-.54-1.53A9.6,9.6,0,0,1,72.52,264Zm2,0c0,.25,0,.54,0,.87a4.46,4.46,0,0,0,.17,1,2,2,0,0,0,.44.79,1,1,0,0,0,.82.33,1,1,0,0,0,.82-.33,2,2,0,0,0,.45-.79,4.46,4.46,0,0,0,.17-1q0-.5,0-.87t0-.87a4.37,4.37,0,0,0-.17-1,2.09,2.09,0,0,0-.45-.8,1.08,1.08,0,0,0-.82-.32,1.06,1.06,0,0,0-.82.32,2.07,2.07,0,0,0-.44.8,4.37,4.37,0,0,0-.17,1C74.48,263.49,74.48,263.78,74.48,264Z"/><path class="cls-22" d="M81,266.52h1.87l-1.17,3.67H80Z"/><path class="cls-22" d="M87.37,262.71a1.8,1.8,0,0,1,.32-.06,1.66,1.66,0,0,1,.32,0,3,3,0,0,1,1.18.23,2.72,2.72,0,0,1,.91.64,2.77,2.77,0,0,1,.59,1,3.24,3.24,0,0,1,.21,1.17,3.05,3.05,0,0,1-.27,1.3,3.1,3.1,0,0,1-1.82,1.63,4.08,4.08,0,0,1-2.7,0,3.16,3.16,0,0,1-1.08-.64,3.11,3.11,0,0,1-.73-1,3.05,3.05,0,0,1-.27-1.3,4.16,4.16,0,0,1,.09-.9,4.61,4.61,0,0,1,.24-.77,5.08,5.08,0,0,1,.35-.7l.43-.68,2-3.15h2.38ZM89,265.54a1.41,1.41,0,0,0-.41-1,1.61,1.61,0,0,0-2.15,0,1.41,1.41,0,0,0-.41,1,1.43,1.43,0,0,0,.41,1,1.61,1.61,0,0,0,2.15,0A1.43,1.43,0,0,0,89,265.54Z"/><path class="cls-22" d="M92.11,261.8a2.42,2.42,0,0,1,.24-1.11,2.32,2.32,0,0,1,.66-.8,2.88,2.88,0,0,1,1-.47,4.64,4.64,0,0,1,1.2-.16,4.7,4.7,0,0,1,1.2.16,2.83,2.83,0,0,1,1,.47,2.34,2.34,0,0,1,.91,1.91,2.09,2.09,0,0,1-.41,1.29,2.19,2.19,0,0,1-1.15.75v0a2.23,2.23,0,0,1,1.28.8,2.3,2.3,0,0,1,.44,1.43,2.45,2.45,0,0,1-1,2,3.24,3.24,0,0,1-1,.5,4.13,4.13,0,0,1-1.22.17,4.09,4.09,0,0,1-1.22-.17,3.24,3.24,0,0,1-1-.5,2.45,2.45,0,0,1-1-2,2.3,2.3,0,0,1,.44-1.43,2.23,2.23,0,0,1,1.28-.8v0a2.19,2.19,0,0,1-1.15-.75A2,2,0,0,1,92.11,261.8Zm1.79,4a1.12,1.12,0,0,0,.35.82,1.29,1.29,0,0,0,.94.34,1.25,1.25,0,0,0,.93-.34,1.13,1.13,0,0,0,0-1.65,1.25,1.25,0,0,0-.93-.34,1.29,1.29,0,0,0-.94.34A1.11,1.11,0,0,0,93.9,265.83Zm.16-3.76a1,1,0,0,0,.31.73,1.27,1.27,0,0,0,1.64,0,1,1,0,0,0,.31-.73.93.93,0,0,0-.31-.71,1.27,1.27,0,0,0-1.64,0A.93.93,0,0,0,94.06,262.07Z"/><path class="cls-22" d="M103,265.34l-.31.06a1.66,1.66,0,0,1-.32,0,2.88,2.88,0,0,1-1.19-.24,2.8,2.8,0,0,1-.91-.63,2.9,2.9,0,0,1-.58-1,3.29,3.29,0,0,1-.21-1.18,3.08,3.08,0,0,1,1-2.29,3.37,3.37,0,0,1,1.09-.64,4.08,4.08,0,0,1,2.7,0,3.37,3.37,0,0,1,1.09.64,3,3,0,0,1,1,2.29,3.73,3.73,0,0,1-.1.91,4.93,4.93,0,0,1-.59,1.47c-.13.22-.27.45-.42.68l-2,3.15h-2.38Zm-1.57-2.84a1.43,1.43,0,0,0,.41,1,1.46,1.46,0,0,0,1.07.41,1.48,1.48,0,0,0,1.08-.41,1.43,1.43,0,0,0,.41-1,1.41,1.41,0,0,0-.41-1,1.48,1.48,0,0,0-1.08-.41,1.46,1.46,0,0,0-1.07.41A1.41,1.41,0,0,0,101.43,262.5Z"/><path class="cls-22" d="M107.16,264a10.56,10.56,0,0,1,.15-1.66,4.77,4.77,0,0,1,.54-1.54,3.12,3.12,0,0,1,1.05-1.12,3,3,0,0,1,1.69-.44,3.05,3.05,0,0,1,1.69.44,3.18,3.18,0,0,1,1,1.12,4.53,4.53,0,0,1,.53,1.54A8.61,8.61,0,0,1,114,264a8.71,8.71,0,0,1-.15,1.67,4.55,4.55,0,0,1-.53,1.53,3.13,3.13,0,0,1-1,1.13,3.05,3.05,0,0,1-1.69.43,3,3,0,0,1-1.69-.43,3.07,3.07,0,0,1-1.05-1.13,4.8,4.8,0,0,1-.54-1.53A10.68,10.68,0,0,1,107.16,264Zm2,0q0,.38,0,.87a4.46,4.46,0,0,0,.17,1,2,2,0,0,0,.44.79,1,1,0,0,0,.83.33,1,1,0,0,0,.81-.33,2,2,0,0,0,.45-.79,4.46,4.46,0,0,0,.17-1q0-.5,0-.87t0-.87a4.37,4.37,0,0,0-.17-1,2.09,2.09,0,0,0-.45-.8,1.05,1.05,0,0,0-.81-.32,1.07,1.07,0,0,0-.83.32,2.07,2.07,0,0,0-.44.8,4.37,4.37,0,0,0-.17,1Q109.12,263.66,109.12,264Z"/><path class="cls-22" d="M117.24,263.05h.64a4.55,4.55,0,0,0,.53,0,1.69,1.69,0,0,0,.48-.15.85.85,0,0,0,.34-.31,1,1,0,0,0,.13-.53.85.85,0,0,0-.33-.69,1.24,1.24,0,0,0-.81-.27,1.16,1.16,0,0,0-1.15.86l-2.14-.45a2.9,2.9,0,0,1,.47-1,2.52,2.52,0,0,1,.74-.68,3.2,3.2,0,0,1,1-.38,5.05,5.05,0,0,1,1.12-.13,4.52,4.52,0,0,1,1.17.15,3,3,0,0,1,1,.47,2.29,2.29,0,0,1,.93,1.94,2.15,2.15,0,0,1-.4,1.32,1.85,1.85,0,0,1-1.17.7v0a1.71,1.71,0,0,1,.73.25,2,2,0,0,1,.55.48,2.34,2.34,0,0,1,.33.65,2.43,2.43,0,0,1,.12.77,2.63,2.63,0,0,1-.27,1.21,2.47,2.47,0,0,1-.71.86,3,3,0,0,1-1.06.51,4.45,4.45,0,0,1-1.28.17,3.84,3.84,0,0,1-2.12-.57,2.74,2.74,0,0,1-1.18-1.81l2.06-.48a1.35,1.35,0,0,0,.42.78,1.37,1.37,0,0,0,.94.29,1.11,1.11,0,0,0,1.25-1.19,1,1,0,0,0-.16-.6,1,1,0,0,0-.43-.32,1.71,1.71,0,0,0-.58-.12l-.65,0h-.46Z"/><path class="cls-22" d="M127,259.42h6.25v1.87H129V263h4v1.87h-4v1.87h4.46v1.88H127Z"/><path class="cls-22" d="M142.87,265.08a4.64,4.64,0,0,1-.24,1.51,3.41,3.41,0,0,1-.74,1.19,3.3,3.3,0,0,1-1.21.79,5,5,0,0,1-3.37,0,3.35,3.35,0,0,1-1.22-.79,3.39,3.39,0,0,1-.73-1.19,4.39,4.39,0,0,1-.25-1.51v-5.66h2V265a2.05,2.05,0,0,0,.14.79,1.83,1.83,0,0,0,.38.63,1.67,1.67,0,0,0,.59.42,1.86,1.86,0,0,0,.75.15,1.81,1.81,0,0,0,.74-.15,1.63,1.63,0,0,0,.58-.42,1.86,1.86,0,0,0,.39-.63,2.26,2.26,0,0,0,.14-.79v-5.58h2Z"/><path class="cls-22" d="M144.75,259.42h3.56a5.71,5.71,0,0,1,1.33.14,3.24,3.24,0,0,1,1.11.45,2.33,2.33,0,0,1,.75.86,2.86,2.86,0,0,1,.28,1.34,2.69,2.69,0,0,1-.51,1.66,2.24,2.24,0,0,1-1.48.87l2.34,3.89H149.7L147.77,265h-1v3.68h-2Zm2,3.81H148l.58,0a1.58,1.58,0,0,0,.55-.12.88.88,0,0,0,.41-.3.94.94,0,0,0,.16-.59,1,1,0,0,0-.14-.56,1.1,1.1,0,0,0-.36-.32,1.9,1.9,0,0,0-.51-.15l-.56,0h-1.33Z"/><path class="cls-22" d="M156.08,258.73l1.49.46-3.9,10.13-1.47-.46Z"/><path class="cls-22" d="M166.23,265.08a4.64,4.64,0,0,1-.25,1.51,3.39,3.39,0,0,1-.73,1.19,3.43,3.43,0,0,1-1.22.79,4.58,4.58,0,0,1-1.68.29,4.64,4.64,0,0,1-1.69-.29,3.3,3.3,0,0,1-1.21-.79,3.41,3.41,0,0,1-.74-1.19,4.64,4.64,0,0,1-.24-1.51v-5.66h2V265a2.26,2.26,0,0,0,.14.79,2,2,0,0,0,.38.63,1.71,1.71,0,0,0,.6.42,1.82,1.82,0,0,0,2.07-.42,2,2,0,0,0,.38-.63,2.26,2.26,0,0,0,.14-.79v-5.58h2Z"/><path class="cls-22" d="M172.65,261.67a1.42,1.42,0,0,0-.67-.46,2.39,2.39,0,0,0-.8-.15,2.3,2.3,0,0,0-.45.05,1.54,1.54,0,0,0-.44.16,1,1,0,0,0-.34.29.83.83,0,0,0,.18,1.09,3.06,3.06,0,0,0,.79.37c.31.11.65.21,1,.31a4.65,4.65,0,0,1,1,.45,2.36,2.36,0,0,1,.78.76,2.32,2.32,0,0,1,.32,1.29,3,3,0,0,1-.29,1.34,2.76,2.76,0,0,1-.77.95,3.37,3.37,0,0,1-1.14.56,5,5,0,0,1-1.35.18,5,5,0,0,1-1.67-.27,4.27,4.27,0,0,1-1.43-.89l1.44-1.58a2.15,2.15,0,0,0,.79.64,2.3,2.3,0,0,0,1,.23,2.14,2.14,0,0,0,.5-.06,1.7,1.7,0,0,0,.46-.18.84.84,0,0,0,.32-.3A.68.68,0,0,0,172,266a.79.79,0,0,0-.32-.66,2.85,2.85,0,0,0-.8-.41c-.32-.11-.67-.23-1-.34a4.61,4.61,0,0,1-1-.45,2.52,2.52,0,0,1-.8-.76,2.16,2.16,0,0,1-.32-1.23,2.8,2.8,0,0,1,.29-1.3,2.87,2.87,0,0,1,.78-.94,3.54,3.54,0,0,1,1.13-.57,4.76,4.76,0,0,1,1.31-.18,5.11,5.11,0,0,1,1.51.22,3.3,3.3,0,0,1,1.31.74Z"/><path class="cls-22" d="M175.56,259.42h3.05a8.51,8.51,0,0,1,2.1.25,4.67,4.67,0,0,1,1.73.8,3.85,3.85,0,0,1,1.18,1.43,4.85,4.85,0,0,1,.43,2.15,4.42,4.42,0,0,1-.42,2,4.2,4.2,0,0,1-1.14,1.43,4.84,4.84,0,0,1-1.65.88,6.38,6.38,0,0,1-2,.3h-3.32Zm2,7.33h1.06a5.4,5.4,0,0,0,1.3-.14,2.72,2.72,0,0,0,1.05-.47,2.44,2.44,0,0,0,.7-.88A3.22,3.22,0,0,0,182,264a2.67,2.67,0,0,0-.25-1.18,2.33,2.33,0,0,0-.69-.83,3.07,3.07,0,0,0-1-.49,4.78,4.78,0,0,0-1.21-.16h-1.2Z"/></g><g class="cls-21"><path class="cls-22" d="M133.29,282.17H68.84a2.39,2.39,0,0,1-2.38-2.39h0a2.39,2.39,0,0,1,2.38-2.38h64.45a2.39,2.39,0,0,1,2.39,2.38h0A2.4,2.4,0,0,1,133.29,282.17Z"/></g><g class="cls-21"><rect class="cls-22" x="66.46" y="289.17" width="45.35" height="4.77" rx="1.93"/></g></g></g></g></svg>