<svg xmlns="http://www.w3.org/2000/svg" viewBox="0 0 66.27 66.27"><defs><style>.cls-1{fill:#a985dd;}.cls-2{fill:#9263d3;}.cls-3{fill:#5f428a;}.cls-4{fill:#5ca2fa;}.cls-5{fill:#e4f3ff;}.cls-6{fill:#bb3d32;}.cls-7{fill:#365c75;}.cls-7,.cls-8{opacity:0.15;}.cls-8{fill:#621835;}.cls-9{fill:#c3cfd8;}.cls-10{fill:#d6e4ed;}.cls-11{fill:none;}</style></defs><g id="圖層_2" data-name="圖層 2"><g id="圖層_1-2" data-name="圖層 1"><circle class="cls-1" cx="33.13" cy="33.13" r="33.13"/><path class="cls-2" d="M9.33,56.16c.12.14.24.27.37.4A33.14,33.14,0,0,0,56.56,9.7l-.4-.37Z"/><path class="cls-3" d="M34.46,31.52l5.16-6.47,0,0,0,0,0,0,5.12-6.41a6.13,6.13,0,0,0-1-8.56A5.86,5.86,0,0,0,40.6,8.73l0,0A6.09,6.09,0,0,0,35.2,11L30,17.48l.06.05L25,24a6.07,6.07,0,0,0,9.49,7.56Z"/><path class="cls-3" d="M56.72,40.07c0-.07,0-.14,0-.21a4.29,4.29,0,0,0-.08-.71,6.07,6.07,0,0,0-7-4.92l-7.9,1.39v0L33.55,37a6.08,6.08,0,0,0-4.92,7,6,6,0,0,0,.77,2l-.19.07a6.11,6.11,0,0,0,5.26,2.9A5.92,5.92,0,0,0,35.65,49l2.92-.52,5-.81v-.06h0v0l4.64-.82,3.44-.56a6.08,6.08,0,0,0,5.08-5.82Z"/><path class="cls-3" d="M20.07,35.65a7.09,7.09,0,0,0-10.82,9L10.41,46c.19.17.39.34.59.49a7.09,7.09,0,0,0,10.41-9.6Z"/><path class="cls-4" d="M36.94,22.48,42.1,16a6.08,6.08,0,0,0-1-8.52h0a6.09,6.09,0,0,0-8.53,1l-5.16,6.48Z"/><path class="cls-5" d="M27.55,14.92,22.38,21.4a6.08,6.08,0,0,0,1,8.52h0a6.08,6.08,0,0,0,8.52-1L37,22.49Z"/><path class="cls-6" d="M41,45.05l8.15-1.44a6.07,6.07,0,0,0,4.93-7h0a6.08,6.08,0,0,0-7-4.92L38.87,33.1Z"/><path class="cls-5" d="M39.12,33,31,34.45a6.08,6.08,0,0,0-4.93,7h0a6.09,6.09,0,0,0,7,4.93L41.22,45Z"/><path class="cls-7" d="M41.14,7.44A6.06,6.06,0,0,0,38,6.16C34.88,12.41,29.3,23.35,25.42,31a6.08,6.08,0,0,0,6.45-2L37,22.45,37,22.4,42.1,16A6.09,6.09,0,0,0,41.14,7.44Z"/><path class="cls-8" d="M54.06,36.7a6,6,0,0,0-1.46-3c-6.51,2.52-18,6.89-26,9.93a6.08,6.08,0,0,0,6.14,2.82l8.17-1.34V45l8.12-1.33A6.08,6.08,0,0,0,54.06,36.7Z"/><circle class="cls-9" cx="13.31" cy="38.83" r="7.1"/><path class="cls-5" d="M8.13,32.82a7.09,7.09,0,0,0-1.47,9.25l10.83-9A7.11,7.11,0,0,0,8.13,32.82Z"/><path class="cls-5" d="M7.83,43.48a7.09,7.09,0,0,0,10.83-9Z"/><path class="cls-10" d="M18.12,33.76a8,8,0,0,0-.63-.67l-10.83,9a6.26,6.26,0,0,0,.53.74,8.14,8.14,0,0,0,.64.67l10.83-9C18.49,34.25,18.32,34,18.12,33.76Z"/><circle class="cls-11" cx="12.66" cy="38.29" r="7.1"/></g></g></svg>