<svg xmlns="http://www.w3.org/2000/svg" viewBox="0 0 66.27 66.27"><defs><style>.cls-1{fill:#a985dd;}.cls-2{fill:#9263d3;}.cls-3{fill:#5f428a;}.cls-4{fill:#def1f9;}.cls-5{fill:#c4d4e8;}.cls-6{fill:#6c767a;}.cls-7{fill:#bb3d32;}.cls-8{fill:#8bbfd8;}</style></defs><g id="圖層_2" data-name="圖層 2"><g id="圖層_1-2" data-name="圖層 1"><circle class="cls-1" cx="33.13" cy="33.13" r="33.13"/><path class="cls-2" d="M9.33,56.16c.12.14.24.27.37.4A33.14,33.14,0,0,0,56.56,9.7l-.4-.37Z"/><path class="cls-3" d="M57.47,21.71l-7.91-8.37a.72.72,0,0,0-1.05,1l2.33,2.47-4,3.79-2.56-2.7a.38.38,0,0,0-.55,0L18.89,41.33a.38.38,0,0,0,0,.55l1.59,1.67-1.55,1.24,1,1.08-1.11,1,1.36,1.44-4.55,4.3a.49.49,0,0,0,.67.71l4.55-4.3,1.36,1.43,1.1-1,1,1.08,1.55-1.24,1.36,1.44a.39.39,0,0,0,.55,0L52.62,27.28a.39.39,0,0,0,0-.55L50.08,24l4-3.79,2.33,2.46a.72.72,0,0,0,1-1Z"/><rect class="cls-4" x="14.39" y="46.59" width="7.89" height="0.98" rx="0.49" transform="translate(64 68.7) rotate(136.62)"/><path class="cls-4" d="M57.33,18.15,49.42,9.78a.72.72,0,1,0-1,1l2.32,2.46-4,3.8-2.56-2.71a.38.38,0,0,0-.54,0L18.75,37.78a.38.38,0,0,0,0,.54l8.36,8.86a.39.39,0,0,0,.55,0L52.48,23.72a.37.37,0,0,0,0-.54l-2.56-2.71,4-3.79,2.33,2.46a.71.71,0,0,0,1,0A.72.72,0,0,0,57.33,18.15Z"/><rect class="cls-5" x="30.42" y="14.92" width="10.45" height="31.61" transform="translate(33.49 -16.29) rotate(46.62)"/><rect class="cls-6" x="18.25" y="42.46" width="7.89" height="1.96" transform="translate(38.52 -2.53) rotate(46.62)"/><rect class="cls-7" x="25.89" y="25.44" width="10.45" height="19.14" transform="translate(35.19 -11.65) rotate(46.62)"/><rect class="cls-8" x="46.81" y="21.2" width="0.9" height="3.72" transform="translate(97.45 7.36) rotate(136.62)"/><rect class="cls-8" x="45.03" y="22.89" width="0.9" height="3.72" transform="translate(95.53 11.5) rotate(136.62)"/><rect class="cls-8" x="43.24" y="24.57" width="0.9" height="3.72" transform="translate(93.6 15.63) rotate(136.62)"/><rect class="cls-8" x="41.45" y="26.26" width="0.9" height="3.72" transform="translate(91.68 19.77) rotate(136.62)"/><rect class="cls-8" x="39.67" y="27.95" width="0.9" height="3.72" transform="translate(89.75 23.91) rotate(136.62)"/><rect class="cls-8" x="37.88" y="29.63" width="0.9" height="3.72" transform="translate(87.83 28.05) rotate(136.62)"/><rect class="cls-8" x="36.1" y="31.32" width="0.9" height="3.72" transform="translate(85.91 32.19) rotate(136.62)"/><rect class="cls-8" x="34.31" y="33.01" width="0.9" height="3.72" transform="translate(83.98 36.33) rotate(136.62)"/><rect class="cls-8" x="32.53" y="34.69" width="0.9" height="3.72" transform="translate(82.06 40.47) rotate(136.62)"/><rect class="cls-8" x="30.74" y="36.38" width="0.9" height="3.72" transform="translate(80.13 44.61) rotate(136.62)"/><rect class="cls-8" x="28.96" y="38.07" width="0.9" height="3.72" transform="translate(78.21 48.75) rotate(136.62)"/><rect class="cls-8" x="27.17" y="39.76" width="0.9" height="3.72" transform="translate(76.29 52.89) rotate(136.62)"/><rect class="cls-6" x="18.49" y="43.82" width="4.92" height="1.58" transform="translate(38.98 -1.26) rotate(46.62)"/></g></g></svg>