<?xml version="1.0" encoding="utf-8"?>
<!-- Generator: Adobe Illustrator 25.2.3, SVG Export Plug-In . SVG Version: 6.00 Build 0)  -->
<svg version="1.1" id="圖層_1" xmlns="http://www.w3.org/2000/svg" xmlns:xlink="http://www.w3.org/1999/xlink" x="0px" y="0px"
	 viewBox="0 0 66.3 66.3" style="enable-background:new 0 0 66.3 66.3;" xml:space="preserve">
<style type="text/css">
	.st0{fill:#A985DD;}
	.st1{fill:#9263D3;}
	.st2{fill:#5F428A;stroke:#5F428A;stroke-width:0.5;stroke-miterlimit:10;}
	.st3{fill:#5F428A;stroke:#5F428A;stroke-width:0.5;stroke-miterlimit:10.0002;}
	.st4{fill:#5F428A;stroke:#5F428A;stroke-width:0.5;stroke-miterlimit:9.9999;}
	.st5{fill:#5F428A;stroke:#5F428A;stroke-width:0.5;stroke-miterlimit:9.9998;}
	.st6{fill:#5F428A;stroke:#5F428A;stroke-width:0.5;stroke-miterlimit:10.0003;}
	.st7{fill:#5F428A;stroke:#5F428A;stroke-width:0.5;stroke-miterlimit:10.0001;}
	.st8{fill:#5F428A;}
	.st9{font-family:'DFYuanStd-W9-B5pc-H';}
	.st10{font-size:3.5817px;}
	.st11{fill:none;stroke:#5F428A;stroke-width:0.5;stroke-miterlimit:10;}
	.st12{fill:#5F428A;stroke:#5F428A;stroke-width:0.5;stroke-miterlimit:10.0004;}
	.st13{fill:#5F428A;stroke:#5F428A;stroke-width:0.5;stroke-miterlimit:9.9996;}
	.st14{fill:#7252C1;stroke:#FFFFFF;stroke-width:0.75;stroke-miterlimit:10;}
	.st15{fill:#6888D8;stroke:#FFFFFF;stroke-width:0.75;stroke-miterlimit:10;}
	.st16{fill:#15CDC3;stroke:#FFFFFF;stroke-width:0.75;stroke-miterlimit:10;}
	.st17{fill:#0079A2;stroke:#FFFFFF;stroke-width:0.75;stroke-miterlimit:10;}
	.st18{fill:none;stroke:#FFFFFF;stroke-width:0.75;stroke-miterlimit:10;}
	.st19{fill:#FF9C71;stroke:#FFFFFF;stroke-width:0.75;stroke-miterlimit:10;}
	.st20{fill:#FFFFFF;}
	.st21{fill:#D5FFFF;}
	.st22{fill:#666666;}
	.st23{fill:#FFCE4E;}
	.st24{fill:#EDEDED;}
	.st25{fill:#C1A4FF;stroke:#FFFFFF;stroke-width:0.75;stroke-miterlimit:10;}
	.st26{fill:#F28D14;}
	.st27{fill:#DEF1F9;}
	.st28{fill:none;stroke:#DEF1F9;stroke-width:0.5;stroke-linecap:round;stroke-linejoin:round;stroke-miterlimit:10;}
</style>
<g id="圖層_2_1_">
	<g id="圖層_1-2">
		<circle class="st0" cx="33.1" cy="33.1" r="33.1"/>
		<path class="st1" d="M9.7,56.6c0.1,0.1,0.2,0.3,0.4,0.4C23.3,69.7,44.2,69.3,57,56.1c12.4-12.8,12.4-33.2,0-46l-0.4-0.4L9.7,56.6z
			"/>
		<g>
			<g>
				<path class="st2" d="M37.6,36.5h-7.3c-1.3,0-2.3-1.1-2.3-2.3l0,0c0-1.3,1.1-2.3,2.3-2.3h7.3c1.3,0,2.3,1.1,2.3,2.3l0,0
					C39.9,35.4,38.9,36.5,37.6,36.5z"/>
				<circle class="st2" cx="29.9" cy="33.8" r="2.7"/>
				<circle class="st2" cx="31.8" cy="31.1" r="2.7"/>
				<circle class="st2" cx="35.3" cy="31.4" r="1.8"/>
				<circle class="st2" cx="37.7" cy="33.8" r="2.6"/>
			</g>
			<path class="st2" d="M33.7,44c-5.8,0-10.6-4.7-10.6-10.6c0-5.8,4.7-10.6,10.6-10.6s10.6,4.7,10.6,10.6C44.3,39.2,39.6,44,33.7,44
				z M33.7,23.5c-5.4,0-9.8,4.4-9.8,9.8s4.4,9.8,9.8,9.8s9.8-4.4,9.8-9.8C43.6,28,39.1,23.5,33.7,23.5z"/>
			<path class="st2" d="M14.7,50c-0.8,0-1.6-0.1-2.3-0.4c-1.7-0.6-3.1-1.9-3.9-3.5c-0.8-1.7-0.9-3.5-0.2-5.2
				c0.6-1.7,1.9-3.1,3.5-3.9c1.7-0.8,3.5-0.9,5.2-0.2c3.5,1.3,5.4,5.2,4.1,8.8l0,0C20.1,48.2,17.5,50,14.7,50z M14.7,37
				c-0.9,0-1.8,0.2-2.6,0.6C10.6,38.3,9.5,39.5,9,41c-0.6,1.5-0.5,3.2,0.2,4.7s1.9,2.6,3.4,3.1c1.5,0.6,3.2,0.5,4.7-0.2
				s2.6-1.9,3.1-3.4c1.1-3.2-0.5-6.7-3.7-7.8C16.1,37.2,15.4,37,14.7,37z"/>
			<path class="st2" d="M36.1,18.6c-3,0-5.5-2.5-5.5-5.5s2.5-5.5,5.5-5.5s5.5,2.5,5.5,5.5C41.6,16.2,39.1,18.6,36.1,18.6z M36.1,8.4
				c-2.6,0-4.7,2.1-4.7,4.7s2.1,4.7,4.7,4.7s4.7-2.1,4.7-4.7S38.7,8.4,36.1,8.4z"/>
			<path class="st2" d="M51.2,55.8c-2.9,0-5.3-2.4-5.3-5.3c0-2.9,2.4-5.3,5.3-5.3c2.9,0,5.3,2.4,5.3,5.3
				C56.4,53.5,54.1,55.8,51.2,55.8z M51.2,46.1c-2.5,0-4.5,2-4.5,4.5s2,4.5,4.5,4.5s4.5-2,4.5-4.5S53.6,46.1,51.2,46.1z"/>
			
				<rect x="20.4" y="39.3" transform="matrix(0.8732 -0.4874 0.4874 0.8732 -16.4388 16.1458)" class="st3" width="4.8" height="0.7"/>
			<rect x="32.7" y="20.4" transform="matrix(0.1093 -0.994 0.994 0.1093 10.6895 53.5373)" class="st4" width="5" height="0.8"/>
			<polygon class="st2" points="47.2,47.6 40.6,40.9 41.2,40.4 47.8,47.1 			"/>
			<path class="st2" d="M13,29.5c-0.5,0-1-0.1-1.4-0.3C10.5,28.8,9.7,28,9.2,27s-0.5-2.2-0.1-3.2c0.4-1.1,1.2-1.9,2.2-2.4
				s2.2-0.5,3.2-0.1c1.1,0.4,1.9,1.2,2.4,2.2s0.5,2.2,0.1,3.2l0,0c-0.4,1.1-1.2,1.9-2.2,2.4C14.2,29.4,13.6,29.5,13,29.5z M13,21.8
				c-0.5,0-1,0.1-1.5,0.3c-0.8,0.4-1.5,1.1-1.8,2s-0.3,1.8,0.1,2.7c0.4,0.8,1.1,1.5,2,1.8s1.8,0.3,2.7-0.1c0.8-0.4,1.5-1.1,1.8-2
				l0,0c0.3-0.9,0.3-1.8-0.1-2.7s-1.1-1.5-2-1.8C13.8,21.9,13.4,21.8,13,21.8z"/>
			
				<rect x="19.9" y="24.1" transform="matrix(0.3546 -0.935 0.935 0.3546 -13.1046 36.9369)" class="st5" width="0.7" height="7.7"/>
			<rect x="8.4" y="32.9" transform="matrix(0.1041 -0.9946 0.9946 0.1041 -22.0002 42.1456)" class="st6" width="8" height="0.8"/>
			<circle class="st2" cx="47.5" cy="10.2" r="1.9"/>
			
				<rect x="40.9" y="10.6" transform="matrix(0.9943 -0.1067 0.1067 0.9943 -0.9232 4.7414)" class="st7" width="5.9" height="0.8"/>
			<g>
				<g>
					<ellipse class="st2" cx="51.2" cy="50.1" rx="3.5" ry="2.3"/>
					<polygon class="st2" points="51.2,51.9 53.4,51.9 50.7,53.3 50.6,52.4 					"/>
				</g>
				<text transform="matrix(0.9143 0 0 1 48.3716 50.3428)" class="st8 st9 st10">....</text>
				<text transform="matrix(0.9143 0 0 1 48.3716 50.3428)" class="st11 st9 st10">....</text>
			</g>
			<g>
				<path class="st2" d="M35.9,16.3v-0.8c-0.5,0-1-0.2-1.3-0.4l0.2-0.6c0.3,0.2,0.7,0.4,1.2,0.4c0.6,0,1-0.3,1-0.8s-0.3-0.7-0.9-1
					c-0.8-0.3-1.4-0.7-1.4-1.4s0.5-1.2,1.2-1.3V9.6h0.5v0.8c0.5,0,0.8,0.1,1.1,0.3l-0.2,0.5c-0.2-0.1-0.5-0.3-1-0.3
					c-0.6,0-0.9,0.4-0.9,0.7c0,0.4,0.3,0.6,1,0.9c0.8,0.3,1.3,0.8,1.3,1.5c0,0.6-0.5,1.3-1.3,1.4v0.9H35.9z"/>
			</g>
			<g>
				<g>
					<g>
						<path class="st2" d="M17.1,45.3v1.6c0,0.4-0.3,0.7-0.6,0.7h-3.6c-0.3,0-0.6-0.3-0.6-0.7v-7.5c0-0.4,0.3-0.7,0.6-0.7h3.6
							c0.3,0,0.6,0.3,0.6,0.7V45.3"/>
						<path class="st2" d="M16.5,47.6h-3.6c-0.4,0-0.7-0.3-0.7-0.7v-7.5c0-0.4,0.3-0.7,0.7-0.7h3.6c0.4,0,0.7,0.3,0.7,0.7v7.5
							C17.2,47.3,16.9,47.6,16.5,47.6z M13,38.9c-0.3,0-0.5,0.2-0.5,0.5v7.3H17v-7.3c0-0.3-0.2-0.5-0.5-0.5H13z"/>
					</g>
					<path class="st2" d="M16.5,38.7h-3.6c-0.5,0-0.7,0.6-0.6,1.1l0,0h4.8v-0.2C17.2,39.1,17,38.7,16.5,38.7z"/>
					<path class="st2" d="M15.6,39.3h-1.3c0,0-0.1,0-0.1-0.1l0,0c0,0,0-0.1,0.1-0.1h1.3C15.6,39.2,15.6,39.2,15.6,39.3L15.6,39.3
						L15.6,39.3z"/>
					<ellipse class="st2" cx="13.8" cy="39.3" rx="0.2" ry="0.2"/>
				</g>
				<g>
					<g>
						<path class="st2" d="M16.5,47.6h-3.6c-0.4,0-0.7-0.3-0.7-0.7v-1.7h0.2v1.7c0,0.3,0.2,0.6,0.5,0.6h3.6c0.3,0,0.5-0.3,0.5-0.6
							v-1.8h0.2v1.8C17.2,47.3,16.9,47.6,16.5,47.6z"/>
					</g>
				</g>
			</g>
			<g>
				<g>
					<g>
						<path class="st2" d="M14.9,25.7c0-0.2,0.1-0.4,0-0.6l0.6-0.4l-0.2-0.6l-0.6,0.1l0,0c-0.1-0.2-0.3-0.3-0.4-0.5l0.2-0.6L14,22.8
							l-0.4,0.5c-0.2-0.1-0.4-0.1-0.7,0l-0.3-0.5L11.9,23l0.1,0.6l0,0c-0.2,0.1-0.3,0.3-0.5,0.4l-0.6-0.1l-0.2,0.6l0.5,0.3
							c-0.1,0.2-0.1,0.5,0,0.7l-0.5,0.4l0.2,0.6l0.6-0.1l0,0c0.1,0.2,0.2,0.3,0.4,0.5l-0.1,0.7l0.5,0.2l0.4-0.5
							c0.2,0.1,0.4,0.1,0.7,0l0.4,0.6l0.6-0.2L14,27l0,0c0.2-0.1,0.3-0.3,0.5-0.4l0.6,0.2l0.3-0.6L14.9,25.7z M13.7,26.5
							c-0.6,0.4-1.5,0.2-1.8-0.4c-0.4-0.7-0.2-1.5,0.4-1.9c0.6-0.4,1.5-0.2,1.8,0.4C14.5,25.2,14.3,26.1,13.7,26.5z"/>
					</g>
				</g>
			</g>
			<polygon class="st2" points="15.8,22.6 15.2,22.2 21.6,13.2 31,12.8 31,13.5 22,13.9 			"/>
			<circle class="st2" cx="22" cy="13.2" r="1.9"/>
			<polygon class="st2" points="32.8,56.7 18.5,48.5 18.9,47.9 32.9,55.9 46.9,52.7 47,53.4 			"/>
			<circle class="st2" cx="32.8" cy="56.3" r="1.9"/>
			<g>
				<g>
					<g>
						<g>
							<g>
								
									<rect x="57.3" y="26" transform="matrix(0.2646 -0.9644 0.9644 0.2646 16.737 75.0284)" class="st12" width="0.6" height="1"/>
							</g>
						</g>
					</g>
					<g>
						<g>
							<g>
								<path class="st2" d="M58.4,26.6l-1.6-0.4c-0.2,0-0.3-0.2-0.2-0.4l0,0c0-0.2,0.2-0.3,0.4-0.2l1.6,0.4c0.2,0,0.3,0.2,0.2,0.4
									l0,0C58.7,26.5,58.6,26.6,58.4,26.6z"/>
							</g>
						</g>
					</g>
					<g>
						<g>
							<g>
								<circle class="st2" cx="56.5" cy="30.5" r="3.8"/>
							</g>
						</g>
					</g>
					<g>
						<g>
							<g>
								<g>
									<g>
										<path class="st2" d="M57.1,28.5C57,28.5,57,28.4,57.1,28.5l0.2-0.9l0,0l0,0L57.1,28.5L57.1,28.5z"/>
										<path class="st2" d="M57.1,28.6C57.1,28.6,57,28.5,57.1,28.6L57.1,28.6C57,28.5,57,28.5,57.1,28.6
											C57,28.5,57,28.4,57,28.4l0.2-0.9c0,0,0-0.1,0.1-0.1h0.1c0.1,0,0.1,0.1,0.1,0.1l-0.2,0.9C57.2,28.5,57.1,28.6,57.1,28.6z
											 M57.3,27.6L57.3,27.6L57.3,27.6z"/>
									</g>
								</g>
							</g>
							<g>
								<g>
									<g>
										<path class="st2" d="M55.7,33.4L55.7,33.4l0.2-0.9l0,0l0,0L55.7,33.4L55.7,33.4z"/>
										<path class="st2" d="M55.7,33.5L55.7,33.5C55.6,33.5,55.6,33.5,55.7,33.5l-0.1-0.2l0.2-0.9c0,0,0-0.1,0.1-0.1H56
											c0,0,0.1,0,0.1,0.1v0.1l-0.2,0.9C55.8,33.5,55.8,33.5,55.7,33.5L55.7,33.5z M55.7,33.4L55.7,33.4L55.7,33.4z M55.7,33.4
											L55.7,33.4L55.7,33.4z M55.9,32.5L55.9,32.5L55.9,32.5z"/>
									</g>
								</g>
							</g>
							<g>
								<g>
									<g>
										<path class="st2" d="M54.5,30l-0.9-0.2l0,0l0,0L54.5,30C54.5,29.9,54.5,29.9,54.5,30C54.5,29.9,54.5,30,54.5,30z"/>
										<path class="st2" d="M54.5,30C54.5,30,54.4,30,54.5,30l-0.9-0.2c0,0-0.1,0-0.1-0.1v-0.1c0-0.1,0.1-0.1,0.1-0.1l0.9,0.2
											c0.1,0,0.1,0.1,0.1,0.1C54.6,30,54.5,30,54.5,30L54.5,30z M53.6,29.6L53.6,29.6L53.6,29.6z"/>
									</g>
								</g>
							</g>
							<g>
								<g>
									<g>
										<path class="st2" d="M59.4,31.3l-0.9-0.2l0,0l0,0L59.4,31.3C59.5,31.2,59.5,31.3,59.4,31.3C59.5,31.3,59.4,31.3,59.4,31.3
											z"/>
										<path class="st2" d="M59.4,31.4L59.4,31.4l-0.9-0.2c0,0-0.1,0-0.1-0.1V31c0,0,0-0.1,0.1-0.1h0.1l0.9,0.2
											c0.1,0,0.1,0.1,0.1,0.1C59.5,31.3,59.5,31.4,59.4,31.4C59.5,31.4,59.4,31.4,59.4,31.4z M59.4,31.3L59.4,31.3L59.4,31.3z
											 M59.4,31.3L59.4,31.3L59.4,31.3z M59.4,31.2L59.4,31.2L59.4,31.2z M58.5,31.1L58.5,31.1L58.5,31.1z"/>
									</g>
								</g>
							</g>
							<g>
								<g>
									<g>
										<path class="st2" d="M53.9,32L53.9,32C53.8,32,53.8,32,53.9,32l0.8-0.5c0,0,0,0,0.1,0c0,0,0,0,0,0.1L53.9,32L53.9,32z"/>
										<path class="st2" d="M53.9,32.1L53.9,32.1L53.9,32.1c-0.1,0-0.1,0-0.1-0.1v-0.1c0,0,0-0.1,0.1-0.1l0.8-0.4
											c0.1,0,0.1,0,0.2,0c0,0.1,0,0.1,0,0.2L53.9,32.1L53.9,32.1z M53.9,32L53.9,32L53.9,32z"/>
									</g>
								</g>
							</g>
							<g>
								<g>
									<g>
										<path class="st2" d="M58.3,29.5L58.3,29.5C58.3,29.4,58.3,29.4,58.3,29.5l0.8-0.5c0,0,0,0,0.1,0c0,0,0,0,0,0.1L58.3,29.5
											C58.4,29.5,58.3,29.5,58.3,29.5z"/>
										<path class="st2" d="M58.4,29.5C58.3,29.5,58.3,29.5,58.4,29.5C58.3,29.5,58.3,29.5,58.4,29.5c-0.1-0.1-0.1-0.1-0.1-0.1
											s0-0.1,0.1-0.1l0.8-0.4c0.1,0,0.1,0,0.2,0c0,0.1,0,0.1,0,0.2L58.4,29.5L58.4,29.5z"/>
									</g>
								</g>
							</g>
							<g>
								<g>
									<g>
										<path class="st2" d="M58,33.1L58,33.1l-0.5-0.8c0,0,0,0,0-0.1c0,0,0,0,0.1,0L58,33.1L58,33.1L58,33.1z"/>
										<path class="st2" d="M58,33.2L58,33.2L58,33.2C57.9,33.2,57.9,33.2,58,33.2l-0.5-0.8v-0.1c0,0,0-0.1,0.1-0.1h0.1
											c0,0,0.1,0,0.1,0.1l0.4,0.8v0.1C58.2,33.2,58.1,33.2,58,33.2L58,33.2z M57.6,32.3L57.6,32.3L57.6,32.3z"/>
									</g>
								</g>
							</g>
							<g>
								<g>
									<g>
										<path class="st2" d="M55.5,28.7C55.4,28.7,55.4,28.7,55.5,28.7L55,27.9c0,0,0,0,0-0.1c0,0,0,0,0.1,0L55.5,28.7
											C55.5,28.6,55.5,28.7,55.5,28.7L55.5,28.7z"/>
										<path class="st2" d="M55.5,28.8C55.5,28.8,55.4,28.8,55.5,28.8L55.5,28.8C55.4,28.7,55.4,28.7,55.5,28.8L55,28v-0.1
											c0,0,0-0.1,0.1-0.1h0.1c0,0,0.1,0,0.1,0.1l0.4,0.8C55.6,28.6,55.6,28.7,55.5,28.8C55.5,28.7,55.5,28.8,55.5,28.8z"/>
									</g>
								</g>
							</g>
						</g>
						<g>
							<g>
								<g>
									<path class="st2" d="M56.7,30.5c0,0.1-0.1,0.2-0.2,0.1c-0.1,0-0.2-0.1-0.1-0.2c0-0.1,0.1-0.2,0.2-0.1
										C56.7,30.3,56.7,30.4,56.7,30.5z"/>
									<path class="st2" d="M56.5,30.7L56.5,30.7c-0.1,0-0.2-0.1-0.2-0.1c0-0.1,0-0.1,0-0.2s0.1-0.1,0.1-0.2c0.1,0,0.1,0,0.2,0
										c0.1,0,0.1,0.1,0.2,0.1c0,0.1,0,0.1,0,0.2l0,0c0,0.1-0.1,0.1-0.1,0.2C56.6,30.7,56.6,30.7,56.5,30.7z M56.5,30.4
										c0,0-0.1,0-0.1,0.1s0,0.1,0.1,0.1h0.1c0,0,0,0,0.1-0.1l0,0C56.6,30.5,56.6,30.5,56.5,30.4C56.6,30.4,56.6,30.4,56.5,30.4
										L56.5,30.4z"/>
								</g>
							</g>
						</g>
						<g>
							<g>
								<g>
									<path class="st2" d="M56.5,30.5L56.5,30.5L56.5,30.5l1.4-1.9c0,0,0,0,0.1,0c0,0,0,0,0,0.1L56.5,30.5L56.5,30.5z"/>
									<path class="st2" d="M56.5,30.6L56.5,30.6L56.5,30.6L56.5,30.6c-0.1,0-0.1-0.1-0.1-0.1v-0.1l1.4-1.8c0,0,0,0,0.1,0H58
										c0.1,0,0.1,0.1,0,0.2L56.5,30.6C56.6,30.6,56.5,30.6,56.5,30.6z M56.5,30.5L56.5,30.5L56.5,30.5z M57.9,28.7L57.9,28.7
										L57.9,28.7z"/>
								</g>
							</g>
						</g>
					</g>
				</g>
			</g>
			<path class="st2" d="M56.5,36.8c-3.6,0-6.5-2.9-6.5-6.5s2.9-6.5,6.5-6.5s6.5,2.9,6.5,6.5S60.1,36.8,56.5,36.8z M56.5,24.5
				c-3.2,0-5.8,2.6-5.8,5.8s2.6,5.8,5.8,5.8s5.8-2.6,5.8-5.8S59.7,24.5,56.5,24.5z"/>
			<rect x="43.9" y="32.1" class="st2" width="6.7" height="0.8"/>
			
				<rect x="50.1" y="10.7" transform="matrix(0.919 -0.3943 0.3943 0.919 -3.0559 21.3752)" class="st3" width="0.8" height="14.9"/>
			<rect x="49" y="40.9" transform="matrix(0.1876 -0.9822 0.9822 0.1876 3.3114 86.4137)" class="st13" width="9.8" height="0.7"/>
		</g>
		<g>
			<circle class="st14" cx="33" cy="32.9" r="10.2"/>
			<circle class="st15" cx="14" cy="42.6" r="6.5"/>
			<circle class="st16" cx="35.4" cy="12.6" r="5.1"/>
			<circle class="st17" cx="50.5" cy="50.1" r="4.9"/>
			<line class="st18" x1="20" y1="40.3" x2="24.3" y2="38"/>
			<line class="st18" x1="34.8" y1="17.7" x2="34.2" y2="22.7"/>
			<line class="st18" x1="40.2" y1="40.1" x2="46.8" y2="46.8"/>
			<circle class="st19" cx="12.3" cy="24.8" r="3.8"/>
			<line class="st18" x1="23.2" y1="28.9" x2="15.9" y2="26.1"/>
			<line class="st18" x1="12.1" y1="28.8" x2="11.3" y2="36.8"/>
			<circle class="st20" cx="46.8" cy="9.7" r="1.9"/>
			<line class="st18" x1="40.2" y1="10.8" x2="46.1" y2="10.2"/>
			<g>
				<g>
					<ellipse class="st21" cx="50.5" cy="49.6" rx="3.5" ry="2.3"/>
					<polygon class="st21" points="50.5,51.4 52.7,51.4 50,52.8 50,51.9 					"/>
				</g>
				<text transform="matrix(0.9143 0 0 1 47.6958 49.8423)" class="st22 st9 st10">....</text>
			</g>
			<g>
				<path class="st23" d="M35.3,15.8V15c-0.5,0-1-0.2-1.3-0.4l0.2-0.6c0.3,0.2,0.7,0.4,1.2,0.4c0.6,0,1-0.3,1-0.8s-0.3-0.7-0.9-1
					c-0.8-0.3-1.4-0.7-1.4-1.4s0.5-1.2,1.2-1.3V9.1h0.5v0.8c0.5,0,0.8,0.1,1.1,0.3l-0.2,0.5c-0.2-0.1-0.5-0.3-1-0.3
					c-0.6,0-0.9,0.4-0.9,0.7c0,0.4,0.3,0.6,1,0.9c0.8,0.3,1.3,0.8,1.3,1.5c0,0.6-0.5,1.3-1.3,1.4v0.9C35.8,15.8,35.3,15.8,35.3,15.8
					z"/>
			</g>
			<g>
				<g>
					<g>
						<path class="st1" d="M16.5,44.8v1.6c0,0.4-0.3,0.7-0.6,0.7h-3.6c-0.3,0-0.6-0.3-0.6-0.7v-7.5c0-0.4,0.3-0.7,0.6-0.7h3.6
							c0.3,0,0.6,0.3,0.6,0.7V44.8"/>
						<path class="st20" d="M15.8,47.1h-3.6c-0.4,0-0.7-0.3-0.7-0.7v-7.5c0-0.4,0.3-0.7,0.7-0.7h3.6c0.4,0,0.7,0.3,0.7,0.7v7.5
							C16.5,46.8,16.2,47.1,15.8,47.1z M12.3,38.4c-0.3,0-0.5,0.2-0.5,0.5v7.3h4.5v-7.3c0-0.3-0.2-0.5-0.5-0.5H12.3z"/>
					</g>
					<path class="st20" d="M15.8,38.2h-3.6c-0.5,0-0.7,0.6-0.6,1.1l0,0h4.8v-0.2C16.5,38.6,16.3,38.2,15.8,38.2z"/>
					<path class="st1" d="M14.9,38.8h-1.3c0,0-0.1,0-0.1-0.1l0,0c0,0,0-0.1,0.1-0.1h1.3C14.9,38.7,15,38.7,14.9,38.8L14.9,38.8
						C15,38.8,14.9,38.8,14.9,38.8z"/>
					<ellipse class="st1" cx="13.1" cy="38.8" rx="0.2" ry="0.2"/>
				</g>
				<g>
					<g>
						<path class="st20" d="M15.8,47.1h-3.6c-0.4,0-0.7-0.3-0.7-0.7v-1.7h0.2v1.7c0,0.3,0.2,0.6,0.5,0.6h3.6c0.3,0,0.5-0.3,0.5-0.6
							v-1.8h0.2v1.8C16.5,46.8,16.2,47.1,15.8,47.1z"/>
					</g>
				</g>
			</g>
			<g>
				<g>
					<g>
						<path class="st24" d="M14.2,25.2c0-0.2,0.1-0.4,0-0.6l0.6-0.4l-0.2-0.6L14,23.8l0,0c-0.1-0.2-0.3-0.3-0.4-0.5l0.2-0.6
							l-0.5-0.3l-0.4,0.5c-0.2-0.1-0.4-0.1-0.7,0l-0.3-0.5l-0.6,0.2l0.1,0.6l0,0c-0.2,0.1-0.3,0.3-0.5,0.4l-0.6-0.1L10,24l0.5,0.3
							c-0.1,0.2-0.1,0.5,0,0.7L10,25.4l0.2,0.6l0.6-0.1l0,0c0.1,0.2,0.2,0.3,0.4,0.5L11,27l0.5,0.2l0.4-0.5c0.2,0.1,0.4,0.1,0.7,0
							l0.4,0.6l0.6-0.2l-0.1-0.6l0,0c0.2-0.1,0.3-0.3,0.5-0.4l0.6,0.2l0.3-0.6L14.2,25.2z M13,26c-0.6,0.4-1.5,0.2-1.8-0.4
							c-0.4-0.7-0.2-1.5,0.4-1.9c0.6-0.4,1.5-0.2,1.8,0.4C13.9,24.7,13.7,25.6,13,26z"/>
					</g>
				</g>
			</g>
			<polyline class="st18" points="14.8,21.9 21.1,13 30.3,12.6 			"/>
			<circle class="st20" cx="21.3" cy="12.7" r="1.9"/>
			<polyline class="st18" points="18,47.7 32.1,55.8 46.3,52.5 			"/>
			<circle class="st20" cx="32.1" cy="55.8" r="1.9"/>
			<circle class="st25" cx="55.8" cy="29.8" r="6.1"/>
			<line class="st18" x1="43.3" y1="32" x2="50" y2="32"/>
			<line class="st18" x1="46.8" y1="10.8" x2="52.7" y2="24.5"/>
			<line class="st18" x1="54.1" y1="35.9" x2="52.3" y2="45.5"/>
			<g>
				<g>
					<g>
						<g>
							
								<rect x="56.6" y="25.6" transform="matrix(0.2646 -0.9644 0.9644 0.2646 16.6764 74.0493)" class="st26" width="0.6" height="1"/>
						</g>
					</g>
					<g>
						<g>
							<path class="st26" d="M57.7,26.1l-1.6-0.4c-0.2,0-0.3-0.2-0.2-0.4l0,0c0-0.2,0.2-0.3,0.4-0.2l1.6,0.4c0.2,0,0.3,0.2,0.2,0.4
								l0,0C58.1,26,57.9,26.1,57.7,26.1z"/>
						</g>
					</g>
					<g>
						<g>
							<g>
								<circle class="st26" cx="55.8" cy="30" r="3.8"/>
							</g>
						</g>
					</g>
					<g>
						<g>
							<g>
								<g>
									<g>
										<path class="st20" d="M56.4,28C56.4,28,56.4,27.9,56.4,28l0.2-0.9l0,0l0,0L56.4,28L56.4,28z"/>
										<path class="st20" d="M56.4,28.1C56.4,28.1,56.4,28,56.4,28.1L56.4,28.1C56.3,28,56.3,28,56.4,28.1
											C56.3,28,56.3,28,56.3,28l0.2-0.9c0,0,0-0.1,0.1-0.1h0.1c0.1,0,0.1,0.1,0.1,0.1L56.5,28L56.4,28.1z M56.7,27.1L56.7,27.1
											L56.7,27.1z"/>
									</g>
								</g>
							</g>
							<g>
								<g>
									<g>
										<path class="st20" d="M55,32.9L55,32.9l0.2-0.9l0,0l0,0L55,32.9C55.1,32.9,55,32.9,55,32.9z"/>
										<path class="st20" d="M55,33L55,33C54.9,33,54.9,33,55,33l-0.1-0.2l0.2-0.9c0,0,0-0.1,0.1-0.1h0.1c0,0,0.1,0,0.1,0.1V32
											l-0.2,0.9C55.1,33,55.1,33,55,33C55.1,33,55.1,33,55,33z M55.1,32.9L55.1,32.9L55.1,32.9z M55,32.9L55,32.9L55,32.9z
											 M55.2,32L55.2,32L55.2,32z"/>
									</g>
								</g>
							</g>
							<g>
								<g>
									<g>
										<path class="st20" d="M53.8,29.5l-0.9-0.2l0,0l0,0L53.8,29.5C53.8,29.4,53.8,29.4,53.8,29.5
											C53.8,29.4,53.8,29.5,53.8,29.5z"/>
										<path class="st20" d="M53.8,29.5L53.8,29.5l-0.9-0.2c0,0-0.1,0-0.1-0.1v-0.1c0-0.1,0.1-0.1,0.1-0.1l0.9,0.2
											c0.1,0,0.1,0.1,0.1,0.1C53.9,29.5,53.9,29.5,53.8,29.5L53.8,29.5z M52.9,29.1L52.9,29.1L52.9,29.1z"/>
									</g>
								</g>
							</g>
							<g>
								<g>
									<g>
										<path class="st20" d="M58.7,30.8l-0.9-0.2l0,0l0,0L58.7,30.8C58.8,30.7,58.8,30.8,58.7,30.8
											C58.8,30.8,58.8,30.8,58.7,30.8z"/>
										<path class="st20" d="M58.8,30.9C58.7,30.9,58.7,30.9,58.8,30.9l-0.9-0.2c0,0-0.1,0-0.1-0.1v-0.1c0,0,0-0.1,0.1-0.1H58
											l0.9,0.2c0.1,0,0.1,0.1,0.1,0.1C58.9,30.8,58.8,30.9,58.8,30.9L58.8,30.9z M58.7,30.8L58.7,30.8L58.7,30.8z M58.7,30.8
											L58.7,30.8L58.7,30.8z M58.8,30.7L58.8,30.7L58.8,30.7z M57.9,30.6L57.9,30.6L57.9,30.6z"/>
									</g>
								</g>
							</g>
							<g>
								<g>
									<g>
										<path class="st20" d="M53.2,31.5L53.2,31.5L53.2,31.5L54,31c0,0,0,0,0.1,0c0,0,0,0,0,0.1L53.2,31.5L53.2,31.5z"/>
										<path class="st20" d="M53.2,31.6L53.2,31.6L53.2,31.6c-0.1,0-0.1,0-0.1-0.1v-0.1c0,0,0-0.1,0.1-0.1l0.8-0.4
											c0.1,0,0.1,0,0.2,0c0,0.1,0,0.1,0,0.2L53.2,31.6L53.2,31.6z M53.2,31.5L53.2,31.5L53.2,31.5z"/>
									</g>
								</g>
							</g>
							<g>
								<g>
									<g>
										<path class="st20" d="M57.7,29C57.7,29,57.6,29,57.7,29C57.6,28.9,57.6,28.9,57.7,29l0.8-0.5c0,0,0,0,0.1,0c0,0,0,0,0,0.1
											L57.7,29L57.7,29z"/>
										<path class="st20" d="M57.7,29L57.7,29C57.6,29,57.6,29,57.7,29c-0.1-0.1-0.1-0.1-0.1-0.1s0-0.1,0.1-0.1l0.8-0.4
											c0.1,0,0.1,0,0.2,0c0,0.1,0,0.1,0,0.2L57.7,29L57.7,29z"/>
									</g>
								</g>
							</g>
							<g>
								<g>
									<g>
										<path class="st20" d="M57.3,32.6L57.3,32.6l-0.5-0.8c0,0,0,0,0-0.1c0,0,0,0,0.1,0L57.3,32.6
											C57.4,32.6,57.4,32.6,57.3,32.6L57.3,32.6z"/>
										<path class="st20" d="M57.3,32.7L57.3,32.7L57.3,32.7C57.3,32.7,57.2,32.7,57.3,32.7l-0.5-0.8v-0.1c0,0,0-0.1,0.1-0.1H57
											c0,0,0.1,0,0.1,0.1l0.4,0.8v0.1C57.5,32.7,57.4,32.7,57.3,32.7C57.4,32.7,57.3,32.7,57.3,32.7z M56.9,31.8L56.9,31.8
											L56.9,31.8z"/>
									</g>
								</g>
							</g>
							<g>
								<g>
									<g>
										<path class="st20" d="M54.8,28.2L54.8,28.2l-0.5-0.8c0,0,0,0,0-0.1c0,0,0,0,0.1,0L54.8,28.2
											C54.8,28.1,54.8,28.2,54.8,28.2L54.8,28.2z"/>
										<path class="st20" d="M54.8,28.3L54.8,28.3L54.8,28.3C54.7,28.2,54.7,28.2,54.8,28.3l-0.5-0.8v-0.1c0,0,0-0.1,0.1-0.1h0.1
											c0,0,0.1,0,0.1,0.1l0.4,0.8C54.9,28.1,54.9,28.2,54.8,28.3C54.8,28.2,54.8,28.3,54.8,28.3z"/>
									</g>
								</g>
							</g>
						</g>
						<g>
							<g>
								<g>
									<path class="st20" d="M56,30c0,0.1-0.1,0.2-0.2,0.1s-0.2-0.1-0.1-0.2c0-0.1,0.1-0.2,0.2-0.1C56,29.8,56,29.9,56,30z"/>
									<path class="st20" d="M55.8,30.2L55.8,30.2c-0.1,0-0.2-0.1-0.2-0.1c0-0.1,0-0.1,0-0.2s0.1-0.1,0.1-0.2c0.1,0,0.1,0,0.2,0
										c0.1,0,0.1,0.1,0.2,0.1c0,0.1,0,0.1,0,0.2l0,0c0,0.1-0.1,0.1-0.1,0.2C55.9,30.2,55.9,30.2,55.8,30.2z M55.8,29.9
										c0,0-0.1,0-0.1,0.1s0,0.1,0.1,0.1h0.1c0,0,0,0,0.1-0.1l0,0C55.9,30,55.9,29.9,55.8,29.9C55.9,29.9,55.9,29.9,55.8,29.9
										C55.9,29.9,55.8,29.9,55.8,29.9z"/>
								</g>
							</g>
						</g>
						<g>
							<g>
								<g>
									<path class="st20" d="M55.8,30L55.8,30L55.8,30l1.4-1.9c0,0,0,0,0.1,0c0,0,0,0,0,0.1L55.8,30C55.9,30,55.8,30,55.8,30z"/>
									<path class="st20" d="M55.8,30.1L55.8,30.1L55.8,30.1L55.8,30.1c-0.1,0-0.1-0.1-0.1-0.1v-0.1l1.4-1.8c0,0,0,0,0.1,0h0.1
										c0.1,0,0.1,0.1,0,0.2L55.8,30.1C55.9,30.1,55.9,30.1,55.8,30.1z M55.9,30L55.9,30L55.9,30z M57.3,28.2L57.3,28.2L57.3,28.2
										z"/>
								</g>
							</g>
						</g>
					</g>
				</g>
			</g>
			<g>
				<path class="st27" d="M36.6,37.4h-7.7c-1.3,0-2.3-1.1-2.3-2.3v-0.2c0-1.3,1.1-2.3,2.3-2.3h7.7c1.3,0,2.3,1.1,2.3,2.3v0.2
					C38.9,36.4,37.9,37.4,36.6,37.4z"/>
				<circle class="st27" cx="28.5" cy="34.7" r="2.8"/>
				<circle class="st27" cx="30.5" cy="31.9" r="2.8"/>
				<circle class="st27" cx="34.1" cy="32.2" r="1.9"/>
				<circle class="st27" cx="36.6" cy="34.7" r="2.7"/>
			</g>
			<path class="st28" d="M34.7,26.1c0,0,2.6-0.3,3.9,2.3"/>
			<path class="st28" d="M34.8,27.5c0,0,1.4-0.3,2.5,1.4"/>
			<path class="st28" d="M35.2,28.9c0,0,0.6,0,0.9,0.5"/>
		</g>
	</g>
</g>
</svg>
