<svg xmlns="http://www.w3.org/2000/svg" viewBox="0 0 66.27 66.27"><defs><style>.cls-1{fill:#a985dd;}.cls-2{fill:#9263d3;}.cls-3{fill:#5f428a;}.cls-4{fill:#afd669;}.cls-5{fill:#f5f15f;}</style></defs><g id="圖層_2" data-name="圖層 2"><g id="圖層_1-2" data-name="圖層 1"><circle class="cls-1" cx="33.13" cy="33.13" r="33.13"/><path class="cls-2" d="M9.33,56.16c.12.14.24.27.37.4A33.14,33.14,0,0,0,56.56,9.7l-.4-.37Z"/><path class="cls-3" d="M44.47,33.62a3.35,3.35,0,0,0-2.79,2.28L40,36.06l-1.34-.38a.91.91,0,0,1-.62-.6,11.23,11.23,0,0,0-1.52-2.94.33.33,0,0,1,0-.3L37,30.41l1.64-1.77A2.19,2.19,0,0,0,40.35,25a2.19,2.19,0,0,0-3.75,1.84L35,28.57l-1.4.65a.35.35,0,0,1-.3,0,10.86,10.86,0,0,0-5.62-1.56h0a.33.33,0,0,1-.27-.15l-.9-1.44-.37-1.81a3,3,0,0,0,1.35-3.12,3.24,3.24,0,0,0-3.82-2.39,3.06,3.06,0,0,0-2.53,3.6,3.14,3.14,0,0,0,2.32,2.34l.39,1.92-.31,1.86a10.9,10.9,0,0,0-3.27,2.1l-1.31-.23-1.3-1a2.19,2.19,0,1,0-1.51,2.26l1.17.89.43.88a.73.73,0,0,1,0,.63,11,11,0,0,0-1,4.55,8.51,8.51,0,0,0,0,.88.78.78,0,0,1-.31.68l-1.46,1-2,.63a3.06,3.06,0,1,0,.93,2.55l1.88-.59,1.71,0a.91.91,0,0,1,.77.43A10.89,10.89,0,0,0,20.78,47a.89.89,0,0,1,.32.84l-.24,1.72-1.23,2.55a2.19,2.19,0,1,0,2.46,3.08,2.17,2.17,0,0,0,0-1.91l1.22-2.54L24.4,49.6a1.23,1.23,0,0,1,1.12-.35,10.66,10.66,0,0,0,2.12.21h0a1.2,1.2,0,0,1,1,.57l.83,1.33.54,2.13a2.69,2.69,0,0,0-.68,2.78,2.71,2.71,0,0,0,5.21-1.51,2.68,2.68,0,0,0-1.9-1.95l-.54-2.12L32.25,49a1,1,0,0,1,.51-.79,10.59,10.59,0,0,0,2.4-1.74,1,1,0,0,1,.79-.26l.85.1,1.35.9a2.16,2.16,0,0,0,1.05,1.58,2.18,2.18,0,0,0,2.33-3.69,2.17,2.17,0,0,0-2-.23L38.32,44l-.44-.78a.89.89,0,0,1-.05-.78,10.61,10.61,0,0,0,.61-2.39,1,1,0,0,1,.52-.72l1.23-.59,1.62-.14A3.19,3.19,0,0,0,45,40.49a3.46,3.46,0,0,0,3-3.76A3.27,3.27,0,0,0,44.47,33.62Z"/><circle class="cls-3" cx="9.04" cy="34.47" r="2.3"/><path class="cls-3" d="M41.32,52.14a2.24,2.24,0,1,0,2.24,2.24A2.24,2.24,0,0,0,41.32,52.14Z"/><path class="cls-3" d="M53.86,18.92a1.48,1.48,0,0,0-1.52.39l-.71-.25-.45-.39a.37.37,0,0,1-.14-.35A5,5,0,0,0,51,16.88a.13.13,0,0,1,0-.12l.48-.47,1-.4a1,1,0,0,0,1.37-1.13,1,1,0,0,0-1.26-.57.9.9,0,0,0-.55.61l-1,.4h-.67a.14.14,0,0,1-.12-.06,4.74,4.74,0,0,0-1.92-1.64h0a.15.15,0,0,1-.08-.11l-.09-.72.19-.79a1.28,1.28,0,0,0,1.1-1,1.41,1.41,0,0,0-1.07-1.63,1.32,1.32,0,0,0-1.65,1,1.34,1.34,0,0,0,.49,1.34l-.2.83-.46.68a4.48,4.48,0,0,0-1.67.23L44.4,13l-.33-.62a.92.92,0,0,0-.08-.82A.95.95,0,1,0,43.07,13l.3.56V14a.31.31,0,0,1-.11.25A4.87,4.87,0,0,0,42,15.8l-.15.36a.3.3,0,0,1-.24.21l-.76.14-.9-.12a1.32,1.32,0,0,0-1.08-.83,1.33,1.33,0,1,0,1,2l.85.11.67.32a.38.38,0,0,1,.22.31,4.74,4.74,0,0,0,.46,1.57.42.42,0,0,1,0,.39l-.41.63-.95.78a.94.94,0,0,0-.84.23,1,1,0,0,0-.13,1.25.94.94,0,0,0,1.37.18.92.92,0,0,0,.35-.76l.94-.77.65-.26a.53.53,0,0,1,.5.07,4.21,4.21,0,0,0,.8.47h0a.53.53,0,0,1,.3.41l.09.68-.18.93a1.18,1.18,0,0,0,.14,2.26,1.18,1.18,0,0,0,1-2l.17-.94.36-.65a.42.42,0,0,1,.34-.22,4.86,4.86,0,0,0,1.26-.25.48.48,0,0,1,.37,0l.31.2.37.6a.94.94,0,1,0,1-.67l-.33-.54,0-.39a.38.38,0,0,1,.12-.32,5,5,0,0,0,.68-.83.4.4,0,0,1,.33-.18h.59l.67.24a1.37,1.37,0,0,0,.91,1.31,1.49,1.49,0,0,0,1.86-.93A1.43,1.43,0,0,0,53.86,18.92Z"/><path class="cls-3" d="M39.34,13.7a1,1,0,1,0,.84-1.81,1,1,0,0,0-1.32.49A1,1,0,0,0,39.34,13.7Z"/><path class="cls-3" d="M49.24,25.64a1,1,0,1,0,.47,1.29A1,1,0,0,0,49.24,25.64Z"/><path class="cls-4" d="M47.4,34.21a3.45,3.45,0,0,1-3,3.76,3.19,3.19,0,0,1-3.19-1.87l-1.62.14-1.23.59a.94.94,0,0,0-.51.72,11.19,11.19,0,0,1-.62,2.39.93.93,0,0,0,0,.78l.44.78,1.21.82a2.19,2.19,0,1,1-.33,3.92,2.16,2.16,0,0,1-1-1.58l-1.35-.9-.84-.1a1,1,0,0,0-.8.26,10.59,10.59,0,0,1-2.4,1.74,1,1,0,0,0-.51.79l-.1,1.72.53,2.12a2.68,2.68,0,0,1,1.9,2,2.71,2.71,0,0,1-5.21,1.51A2.69,2.69,0,0,1,29.47,51l-.54-2.13-.83-1.33a1.2,1.2,0,0,0-1-.57h0a10.66,10.66,0,0,1-2.12-.21,1.23,1.23,0,0,0-1.12.35l-1.09,1.16-1.22,2.54a2.19,2.19,0,1,1-2.46-1.17l1.23-2.55.25-1.72a.92.92,0,0,0-.33-.84,10.89,10.89,0,0,1-2.48-2.84.91.91,0,0,0-.77-.43l-1.71,0-1.88.59a3.06,3.06,0,1,1-.93-2.55l2-.63,1.46-1a.78.78,0,0,0,.31-.68,8.51,8.51,0,0,1,0-.88,11,11,0,0,1,1-4.55.73.73,0,0,0,0-.63L16.71,30l-1.17-.89a2.18,2.18,0,1,1,1.51-2.26l1.29,1,1.31.23a10.9,10.9,0,0,1,3.27-2.1l.31-1.86-.39-1.92a3.14,3.14,0,0,1-2.32-2.34,3.06,3.06,0,0,1,2.53-3.6,3.24,3.24,0,0,1,3.82,2.39,3,3,0,0,1-1.34,3.12l.36,1.82.9,1.43a.33.33,0,0,0,.27.15h0a10.83,10.83,0,0,1,5.62,1.56.35.35,0,0,0,.3,0l1.4-.65L36,24.27a2.22,2.22,0,0,1,.56-1.82,2.19,2.19,0,0,1,3.26,2.92,2.22,2.22,0,0,1-1.82.75l-1.64,1.77-.53,1.43a.32.32,0,0,0,0,.3,11.23,11.23,0,0,1,1.52,2.94.93.93,0,0,0,.62.6l1.34.38,1.73-.16a3.36,3.36,0,0,1,2.79-2.28,3.27,3.27,0,0,1,3.51,3.11Z"/><circle class="cls-5" cx="27.06" cy="36.03" r="8.08"/><circle class="cls-4" cx="8.46" cy="31.95" r="2.3"/><circle class="cls-4" cx="40.74" cy="51.86" r="2.24"/><circle class="cls-4" cx="24.58" cy="33.8" r="2.09"/><circle class="cls-4" cx="26.26" cy="40.28" r="1.42"/><circle class="cls-4" cx="30.72" cy="36.03" r="1.19"/><path class="cls-4" d="M54.09,18.27a1.49,1.49,0,0,1-1.86.93,1.37,1.37,0,0,1-.91-1.31l-.67-.24h-.59a.4.4,0,0,0-.33.18,4.56,4.56,0,0,1-.68.83.41.41,0,0,0-.12.32l0,.39.33.54a.95.95,0,0,1,.37,1.79.95.95,0,0,1-1.34-1.12L48,20l-.31-.2a.45.45,0,0,0-.36,0A5,5,0,0,1,46,20a.42.42,0,0,0-.34.22l-.36.65-.17.94a1.18,1.18,0,0,1-1,2A1.18,1.18,0,0,1,44,21.59l.18-.93L44.07,20a.51.51,0,0,0-.3-.41h0a4.54,4.54,0,0,1-.8-.47.53.53,0,0,0-.5-.07l-.64.26-.95.77a.94.94,0,0,1-.34.76,1,1,0,0,1-1.38-.18,1,1,0,0,1,.13-1.25.94.94,0,0,1,.84-.23l.95-.78.41-.63a.42.42,0,0,0,0-.39,4.74,4.74,0,0,1-.46-1.57.38.38,0,0,0-.22-.31l-.67-.32-.85-.11a1.32,1.32,0,0,1-1.3.63,1.33,1.33,0,1,1,1.4-1.81l.9.12.76-.14a.33.33,0,0,0,.25-.21c0-.12.09-.24.14-.36a4.87,4.87,0,0,1,1.22-1.6.32.32,0,0,0,.12-.25V11l-.3-.56A.95.95,0,1,1,43.41,9a.92.92,0,0,1,.08.82l.34.62.47.33A4.48,4.48,0,0,1,46,10.55l.46-.68.2-.83a1.34,1.34,0,0,1-.49-1.34,1.32,1.32,0,0,1,1.65-1,1.41,1.41,0,0,1,1.07,1.63,1.28,1.28,0,0,1-1.1,1l-.19.79.1.72a.12.12,0,0,0,.08.11h0a4.74,4.74,0,0,1,1.92,1.64.14.14,0,0,0,.12.06h.67l1-.4a.9.9,0,0,1,.55-.61,1,1,0,0,1,1.26.57,1,1,0,0,1-.51,1.17.94.94,0,0,1-.85,0l-1,.4-.47.47a.11.11,0,0,0,0,.12,5,5,0,0,1,.06,1.44.43.43,0,0,0,.14.35l.45.39.71.25a1.48,1.48,0,0,1,1.52-.39,1.42,1.42,0,0,1,.81,1.87Z"/><circle class="cls-5" cx="45.76" cy="15.27" r="3.5"/><circle class="cls-4" cx="39.18" cy="10.28" r="1"/><circle class="cls-4" cx="48.25" cy="24" r="0.97"/><circle class="cls-4" cx="45.19" cy="13.95" r="0.91"/><circle class="cls-4" cx="44.66" cy="16.8" r="0.62"/><circle class="cls-4" cx="47.2" cy="15.94" r="0.52"/></g></g></svg>