<svg xmlns="http://www.w3.org/2000/svg" viewBox="0 0 66.27 66.27"><defs><style>.cls-1{fill:#80e0c7;}.cls-2{fill:#24baba;}.cls-3{fill:#257b7a;}.cls-4{fill:#f2cd22;}.cls-5{fill:#ec996e;opacity:0.49;}.cls-6{fill:#e3b800;}</style></defs><g id="圖層_2" data-name="圖層 2"><g id="圖層_1-2" data-name="圖層 1"><circle class="cls-1" cx="33.13" cy="33.13" r="33.13"/><path class="cls-2" d="M9.33,56.16c.12.14.24.27.37.4A33.14,33.14,0,0,0,56.56,9.7l-.4-.37Z"/><path class="cls-3" d="M25.11,24.54,22.49,34.7a.89.89,0,0,0,.89.89H44.32a.89.89,0,0,0,.88-.89L42.67,24.54a.84.84,0,0,0-.15-.46.86.86,0,0,0-.74-.42H26A.88.88,0,0,0,25.11,24.54Z"/><path class="cls-3" d="M31,36.7a.89.89,0,0,0-.82-.54H14.38a.89.89,0,0,0-.88.89L10.88,47.21a.87.87,0,0,0,.88.88H32.7a.89.89,0,0,0,.89-.88L31.06,37.05A1,1,0,0,0,31,36.7Z"/><path class="cls-3" d="M54.28,36.91a.77.77,0,0,0-.07-.34A.88.88,0,0,0,53.4,36H37.61a.88.88,0,0,0-.88.89L34.1,47.07A.89.89,0,0,0,35,48H55.93a.88.88,0,0,0,.62-.26.9.9,0,0,0,.26-.63Z"/><path class="cls-3" d="M33.72,18.26a.45.45,0,0,0,.46-.45V11a.46.46,0,1,0-.91,0v6.78A.45.45,0,0,0,33.72,18.26Z"/><path class="cls-3" d="M41.14,20.18,46,15.35a.46.46,0,1,0-.65-.65L40.5,19.54a.45.45,0,0,0,0,.64A.47.47,0,0,0,41.14,20.18Z"/><path class="cls-3" d="M26.55,20.18a.47.47,0,0,0,.64,0,.45.45,0,0,0,0-.64L22.36,14.7a.46.46,0,1,0-.65.65Z"/><path class="cls-4" d="M41.68,33.17H20.74a.87.87,0,0,1-.88-.88l2.62-10.16a.89.89,0,0,1,.88-.89H39.15a.89.89,0,0,1,.89.89l2.53,10.16A.88.88,0,0,1,41.68,33.17Z"/><path class="cls-5" d="M40,22.13a.89.89,0,0,0-.89-.89H33.08L24.17,33.17H41.68a.88.88,0,0,0,.89-.88Z"/><path class="cls-4" d="M30.07,45.68H9.13a.89.89,0,0,1-.89-.89l2.63-10.16a.87.87,0,0,1,.88-.88H27.54a.88.88,0,0,1,.88.88L31,44.79A.88.88,0,0,1,30.07,45.68Z"/><path class="cls-5" d="M28.42,34.63a.88.88,0,0,0-.88-.88H22.27L13.93,45.68H30.07a.88.88,0,0,0,.88-.89Z"/><path class="cls-4" d="M53.29,45.54H32.35a.89.89,0,0,1-.88-.88l2.62-10.17a.89.89,0,0,1,.89-.88H50.76a.89.89,0,0,1,.89.88l2.53,10.17A.89.89,0,0,1,53.29,45.54Z"/><path class="cls-5" d="M51.65,34.49a.89.89,0,0,0-.89-.88H44.83l-5.5,11.93h14a.89.89,0,0,0,.89-.88Z"/><path class="cls-6" d="M31.54,15.39V8.61a.45.45,0,1,0-.9,0v6.78a.45.45,0,1,0,.9,0"/><path class="cls-6" d="M38.51,17.76l4.83-4.83a.45.45,0,0,0-.64-.64l-4.83,4.83a.45.45,0,0,0,.64.64"/><path class="cls-6" d="M24.55,17.12l-4.83-4.83a.45.45,0,0,0-.64.64l4.83,4.83a.45.45,0,0,0,.64-.64"/></g></g></svg>