<svg xmlns="http://www.w3.org/2000/svg" viewBox="0 0 66.27 66.27"><defs><style>.cls-1{fill:#80e0c7;}.cls-2{fill:#24baba;}.cls-3{fill:#257b7a;}.cls-4,.cls-5{fill:#eca024;}.cls-5,.cls-6,.cls-7{fill-rule:evenodd;}.cls-6{fill:#b87b2a;}.cls-7{fill:#969640;}</style></defs><g id="圖層_2" data-name="圖層 2"><g id="圖層_1-2" data-name="圖層 1"><circle class="cls-1" cx="33.13" cy="33.13" r="33.13"/><path class="cls-2" d="M9.33,56.16c.12.14.24.27.37.4A33.14,33.14,0,0,0,56.56,9.7l-.4-.37Z"/><path class="cls-3" d="M22.59,18.78s-4.74,3.93-.77,8.82C21.82,27.6,25.87,24.68,22.59,18.78Z"/><path class="cls-3" d="M28.31,14s-5.63,2.76-3.22,8.46C25.09,22.41,29.78,20.49,28.31,14Z"/><path class="cls-3" d="M21.78,31.67s4.95.74,7.83-5.58C29.61,26.09,23.38,25.57,21.78,31.67Z"/><path class="cls-3" d="M32.55,21.55s-6-1.37-8.62,4.48C23.93,26,28.66,27.45,32.55,21.55Z"/><path class="cls-3" d="M37,18.29a7.07,7.07,0,0,0-8.75,1.82S31.84,22.54,37,18.29Z"/><path class="cls-3" d="M35,10.82s-5.7.88-5.54,6.53C29.42,17.35,34,17,35,10.82Z"/><path class="cls-3" d="M40.49,9.7s-5.74.19-6.42,5.84C34.07,15.54,38.68,15.69,40.49,9.7Z"/><path class="cls-3" d="M34.92,16.25s2,3.19,7.84,1.18C42.76,17.43,39.9,13.66,34.92,16.25Z"/><path class="cls-3" d="M39.51,13s3.5,1.89,7.72-2.3A6.39,6.39,0,0,0,39.51,13Z"/><path class="cls-3" d="M52.12,12.71a5.77,5.77,0,0,0-7.28.83S47.56,15.81,52.12,12.71Z"/><path class="cls-3" d="M50.92,14.5s1,3.28,6.53,2.69C57.45,17.19,55.92,13.23,50.92,14.5Z"/><path class="cls-3" d="M47,14.88s.22,3.08,5.22,3.42C52.18,18.3,51.59,14.52,47,14.88Z"/><path class="cls-3" d="M40.7,14.21s.64,3.69,6.76,3.61C47.46,17.82,46.29,13.32,40.7,14.21Z"/><path class="cls-3" d="M25.48,53.45c-3.24-6.87-5.38-19.14,12.13-29.68,0,0-17.13,6.16-15.91,20.13a29.23,29.23,0,0,1-.77-11.33c.56-1.21,1.4-4.36-2.73-7.9a5.89,5.89,0,0,0,1.59,7.85c-1,9.33,2.93,17.44,6.05,22.22L26,55c.21.3.4.6.6.87l0,0c.65.93,1.23,1.68,1.69,2.24s.52.65.52.65l-.47-.59c.27.33.49.59.65.77-5.34-5.22-18.25-20.72-9.21-41.36,0,0-17.17,20.21,11.08,43.07-.32-.27-.92-.79-1.69-1.53A47,47,0,0,1,25.48,53.45Z"/><path class="cls-3" d="M25.41,36.33A4,4,0,0,0,26,41.71c-2.09,10,4.54,18.55,4.54,18.55C24.63,50.79,26.37,43,26.7,41.8,27.16,41,27.93,38.94,25.41,36.33Z"/><path class="cls-3" d="M28.74,32.61S25.31,35,27.63,38.5C27.63,38.5,30.53,36.77,28.74,32.61Z"/><path class="cls-3" d="M30.16,35.19s3.26-1,2.72-5.51C32.88,29.68,28.94,31.22,30.16,35.19Z"/><path class="cls-3" d="M27.33,41.24s3.25.77,5.6-3.32A5.14,5.14,0,0,0,27.33,41.24Z"/><path class="cls-3" d="M29.14,37.56S32.21,38.78,35.2,35A5.22,5.22,0,0,0,29.14,37.56Z"/><path class="cls-3" d="M32.39,33.82s2.27,1.83,6-.75A4.73,4.73,0,0,0,32.39,33.82Z"/><path class="cls-3" d="M33.39,32s3.11,0,4.14-4.09C37.53,27.94,33.67,28.21,33.39,32Z"/><path class="cls-3" d="M41.3,27.48a4.6,4.6,0,0,0-4.68,3.58S39.69,31.42,41.3,27.48Z"/><path class="cls-3" d="M37.14,31.59s1.15,2.26,5.15,1.23C42.29,32.82,40.64,30.12,37.14,31.59Z"/><path class="cls-3" d="M45.73,28.51a4.28,4.28,0,0,0-5.3,1.12S42.64,31.09,45.73,28.51Z"/><path class="cls-3" d="M48.86,30.16a3.84,3.84,0,0,0-4.92.15S45.61,32,48.86,30.16Z"/><path class="cls-3" d="M47.94,31.3s.42,2.25,4.17,2.17C52.11,33.47,51.36,30.72,47.94,31.3Z"/><path class="cls-3" d="M45.27,31.33s-.06,2.09,3.25,2.59C48.52,33.92,48.38,31.35,45.27,31.33Z"/><path class="cls-3" d="M41.14,30.53s.17,2.52,4.26,2.81C45.4,33.34,44.93,30.24,41.14,30.53Z"/><path class="cls-3" d="M31.16,60.92l-.26-.22Z"/><path class="cls-4" d="M18.29,32s2.84-3.9-2.44-8.43C15.85,23.55,12.71,28.61,18.29,32Z"/><path class="cls-4" d="M19.47,26.48s4.05-2.91.77-8.81C20.24,17.67,15.5,21.6,19.47,26.48Z"/><path class="cls-4" d="M22.74,21.29s4.69-1.92,3.22-8.45C26,12.84,20.33,15.59,22.74,21.29Z"/><path class="cls-4" d="M19.43,30.55s4.95.75,7.83-5.58C27.26,25,21,24.46,19.43,30.55Z"/><path class="cls-4" d="M21.58,24.92s4.74,1.42,8.62-4.49C30.2,20.43,24.17,19.07,21.58,24.92Z"/><path class="cls-4" d="M25.85,19s3.64,2.43,8.75-1.83A7.07,7.07,0,0,0,25.85,19Z"/><path class="cls-4" d="M27.07,16.24s4.62-.41,5.54-6.53C32.61,9.71,26.91,10.59,27.07,16.24Z"/><path class="cls-4" d="M31.72,14.42s4.61.16,6.42-5.84C38.14,8.58,32.4,8.77,31.72,14.42Z"/><path class="cls-4" d="M32.57,15.13s2,3.2,7.84,1.19C40.41,16.32,37.55,12.54,32.57,15.13Z"/><path class="cls-4" d="M37.16,11.84s3.5,1.9,7.72-2.29A6.4,6.4,0,0,0,37.16,11.84Z"/><path class="cls-4" d="M42.49,12.43s2.73,2.26,7.28-.83A5.76,5.76,0,0,0,42.49,12.43Z"/><path class="cls-4" d="M48.57,13.39s1,3.27,6.53,2.69C55.1,16.08,53.57,12.11,48.57,13.39Z"/><path class="cls-4" d="M44.61,13.77s.22,3.08,5.22,3.42C49.83,17.19,49.24,13.41,44.61,13.77Z"/><path class="cls-4" d="M38.35,13.09s.64,3.69,6.76,3.62C45.11,16.71,43.94,12.21,38.35,13.09Z"/><path class="cls-5" d="M18.63,31.15s-2.72,12.57,8.33,27c0,0-11.43-12.11-9.46-27.33Z"/><path class="cls-6" d="M26.39,31.5S23,33.88,25.28,37.39C25.28,37.39,28.18,35.65,26.39,31.5Z"/><path class="cls-6" d="M30.54,28.56s-3.95,1.54-2.73,5.51C27.81,34.07,31.08,33,30.54,28.56Z"/><path class="cls-6" d="M25,40.12s3.25.78,5.6-3.32A5.14,5.14,0,0,0,25,40.12Z"/><path class="cls-6" d="M26.79,36.45s3.07,1.22,6.06-2.54A5.22,5.22,0,0,0,26.79,36.45Z"/><path class="cls-6" d="M30.05,32.7s2.26,1.84,6-.74A4.73,4.73,0,0,0,30.05,32.7Z"/><path class="cls-6" d="M35.18,26.82s-3.86.28-4.14,4.09C31,30.91,34.15,30.89,35.18,26.82Z"/><path class="cls-6" d="M39,26.37A4.6,4.6,0,0,0,34.27,30S37.34,30.31,39,26.37Z"/><path class="cls-6" d="M34.79,30.47s1.15,2.27,5.15,1.23C39.94,31.7,38.29,29,34.79,30.47Z"/><path class="cls-6" d="M38.08,28.51s2.21,1.47,5.3-1.12A4.28,4.28,0,0,0,38.08,28.51Z"/><path class="cls-6" d="M46.51,29a3.83,3.83,0,0,0-4.91.16S43.26,30.88,46.51,29Z"/><path class="cls-6" d="M45.59,30.18s.42,2.26,4.17,2.17C49.76,32.35,49,29.6,45.59,30.18Z"/><path class="cls-6" d="M42.92,30.22s-.06,2.08,3.25,2.59C46.17,32.81,46,30.23,42.92,30.22Z"/><path class="cls-6" d="M38.79,29.42s.17,2.52,4.26,2.81C43.05,32.23,42.58,29.13,38.79,29.42Z"/><path class="cls-6" d="M24.35,40.68c.46-.78,1.23-2.86-1.29-5.47a4,4,0,0,0,.54,5.38c-2.09,10,4.54,18.55,4.54,18.55C22.28,49.67,24,41.93,24.35,40.68Z"/><path class="cls-7" d="M28.82,59.81S6.26,42.11,17.48,16.52C17.48,16.52.18,36.85,28.82,59.81Z"/><path class="cls-7" d="M26.5,57.69s-17.17-19.43,8.76-35C35.26,22.65,6.14,33.12,26.5,57.69Z"/></g></g></svg>