<svg xmlns="http://www.w3.org/2000/svg" viewBox="0 0 66.27 66.27"><defs><style>.cls-1{fill:#6ecb7a;}.cls-2{fill:#709d49;}.cls-3{fill:#5d7a3a;}.cls-4{fill:#fac677;}</style></defs><g id="圖層_2" data-name="圖層 2"><g id="圖層_1-2" data-name="圖層 1"><circle class="cls-1" cx="33.13" cy="33.13" r="33.13"/><path class="cls-2" d="M9.33,56.16c.12.14.24.27.37.4A33.14,33.14,0,0,0,56.56,9.7l-.4-.37Z"/><path class="cls-3" d="M49.87,28.66C46.15,26,39,25.6,37,25.6s-2.34-.45-4.42-1.71A17.67,17.67,0,0,0,29,22.17l-.81-1.53a7.29,7.29,0,0,0-2.8-2.53l-.09-1.26c-.09-1.54-.27-3.25-1-3.61s-3.25,3.34-3.25,3.34a32.79,32.79,0,0,0-6,.36c-5.33-3.79-3.7-1.18-3.7-1.18l1.08,3.79s-1.44,3.95-.69,7c.9,3.7,6,3.59,6,3.59a50.23,50.23,0,0,0,2.14,8.25C21.26,42.3,27,43.83,27,43.83s-.72,1.09-2.43,3.8A7.55,7.55,0,0,0,24,48.71,6.26,6.26,0,0,1,20.31,43s.31-1.73-.88-1.81-2,2.68-1.08,5.09a8.42,8.42,0,0,0,4.84,5.34,12.11,12.11,0,0,0-.13,2.05c-1.71.82-.36,3-.36,3l3.61-.72s.53-1.84.9-3.27c.66.11,1.36.2,2.07.27l-.17,1.74c-2.8-.55-2.08,2.07-2.08,2.07a9.91,9.91,0,0,0,3.88-.18c.73-.29,1.48-2,2-3.52a21.14,21.14,0,0,0,2.6-.3,19,19,0,0,0,2.15,1.38s-3.79-.27-4.78.73a1.41,1.41,0,0,0-.09,2s11.46.9,12.55.72a3.64,3.64,0,0,0,1.8-.9s7,.72,9.21-5.78S56.26,33.31,49.87,28.66ZM28.56,49.92a7.64,7.64,0,0,1,1.09-.85l-.09,1C29.23,50,28.9,50,28.56,49.92Z"/><path class="cls-4" d="M13.46,15.7a32.86,32.86,0,0,1,6.05-.36S22,11.64,22.76,12s.9,2.07,1,3.61l.09,1.26a7.22,7.22,0,0,1,2.8,2.53l.81,1.53A17.38,17.38,0,0,1,31,22.65c2.08,1.26,2.35,1.71,4.43,1.71s9.19.35,12.9,3.06c6.4,4.65,8.67,15.72,6.5,22.22s-9.21,5.77-9.21,5.77a3.64,3.64,0,0,1-1.8.9c-1.08.19-12.55-.72-12.55-.72a1.41,1.41,0,0,1,.09-2c1-1,4.79-.73,4.79-.73s-3.88-2.07-4-3.61c0,0-1.45,5.51-2.8,6a9.91,9.91,0,0,1-3.88.18s-.73-2.62,2.07-2.07l.54-5.6S26.19,49,25.92,50.27s-1.18,4.42-1.18,4.42l-3.61.72s-1.35-2.16.37-3a11.51,11.51,0,0,1,1.53-6c1.71-2.71,2.44-3.79,2.44-3.79s-5.78-1.54-7.22-5.42a49.66,49.66,0,0,1-2.15-8.25s-5.05.11-5.94-3.59c-.75-3.08.68-7,.68-7l-1.08-3.8S8.14,11.91,13.46,15.7Z"/><path class="cls-4" d="M38,45.93a16,16,0,0,1-14.77,1.85,6.41,6.41,0,0,1-4.47-6S19.06,40,17.86,40s-2,2.68-1.08,5.09,2.34,5,6.9,6,10.94,1.55,16-1.7S38,45.93,38,45.93Z"/><ellipse cx="12.89" cy="21.91" rx="0.75" ry="0.99"/><ellipse cx="18.49" cy="22.06" rx="0.75" ry="0.99"/><path d="M14.14,23.82s.3,1.73.67,1.39.36-.6.65-1.11C15.62,23.81,14.79,23.68,14.14,23.82Z"/></g></g></svg>