<svg xmlns="http://www.w3.org/2000/svg" viewBox="0 0 66.27 66.27"><defs><style>.cls-1{fill:#6ecb7a;}.cls-2{fill:#709d49;}.cls-3{fill:#f5ae23;}.cls-4{fill:#fff;}</style></defs><g id="圖層_2" data-name="圖層 2"><g id="圖層_1-2" data-name="圖層 1"><circle class="cls-1" cx="33.13" cy="33.13" r="33.13"/><path class="cls-2" d="M9.33,56.16c.12.14.24.27.37.4A33.14,33.14,0,0,0,56.56,9.7l-.4-.37Z"/><path class="cls-3" d="M38.75,16.36a13.28,13.28,0,1,1-17.7,6.31A13.29,13.29,0,0,1,38.75,16.36Z"/><path class="cls-3" d="M18.12,22.09a1.06,1.06,0,0,1-.8,0l-3-1.43a1,1,0,0,1-.5-1.38,1.05,1.05,0,0,1,1.39-.5l3,1.43a1,1,0,0,1,.59,1,1,1,0,0,1-.68.93Z"/><path class="cls-3" d="M16.54,30.7a1.1,1.1,0,0,1-.26.06L13,31a1,1,0,0,1-1.12-1A1,1,0,0,1,12.79,29l3.32-.27a1,1,0,0,1,.43,2Z"/><path class="cls-3" d="M16.74,40.84A1,1,0,0,1,15.81,39l2.73-1.89a1,1,0,1,1,1.18,1.71L17,40.72A.9.9,0,0,1,16.74,40.84Z"/><path class="cls-3" d="M32,12.47a.88.88,0,0,1-.27.06,1,1,0,0,1-1.12-.95l-.26-3.32a1,1,0,1,1,2.07-.16l.26,3.31A1,1,0,0,1,32,12.47Z"/><path class="cls-3" d="M23.79,15.42a1.05,1.05,0,0,1-1.2-.39L20.7,12.29A1,1,0,0,1,21,10.85a1,1,0,0,1,1.45.26l1.89,2.74a1.07,1.07,0,0,1,.16.78,1,1,0,0,1-.43.66A.92.92,0,0,1,23.79,15.42Z"/><path class="cls-3" d="M40.65,14.05a1,1,0,0,1-1.28-1.42l1.42-3a1,1,0,0,1,1.88.89l-1.43,3A1,1,0,0,1,40.65,14.05Z"/><path class="cls-3" d="M53.58,27.7a1.1,1.1,0,0,1-.26.06L50,28A1,1,0,1,1,49.83,26l3.32-.27a1,1,0,0,1,1.1.82,1,1,0,0,1-.67,1.19Z"/><path class="cls-3" d="M47.32,19.72a1,1,0,0,1-.93-1.83L49.12,16a1,1,0,1,1,1.18,1.71L47.57,19.6A1.15,1.15,0,0,1,47.32,19.72Z"/><path class="cls-3" d="M47.8,34.5a1.06,1.06,0,0,1,.8,0l3,1.43a1,1,0,0,1,.5,1.38,1.05,1.05,0,0,1-1.39.5l-3-1.43a1,1,0,0,1,.09-1.92Z"/><path class="cls-3" d="M33.88,44.12a.88.88,0,0,1,.27-.06,1,1,0,0,1,1.12.95l.26,3.32a1,1,0,1,1-2.07.16l-.26-3.31A1,1,0,0,1,33.88,44.12Z"/><path class="cls-3" d="M42.13,41.17a1.05,1.05,0,0,1,1.2.39l1.89,2.74a1,1,0,1,1-1.7,1.18l-1.9-2.74a1.07,1.07,0,0,1-.16-.78,1,1,0,0,1,.43-.66A1.41,1.41,0,0,1,42.13,41.17Z"/><path class="cls-3" d="M25.27,42.54A1,1,0,0,1,26.55,44l-1.42,3a1,1,0,0,1-1.88-.89l1.43-3A1,1,0,0,1,25.27,42.54Z"/><path class="cls-4" d="M57.44,39.64H55.28a2.17,2.17,0,0,0-1.19-4H30.92a2.15,2.15,0,0,0,1.39-2h0a2.16,2.16,0,0,0-2.16-2.16H18.34a2.16,2.16,0,1,0,0,4.32H28.2A2.16,2.16,0,0,0,29,40H47.81a2.16,2.16,0,0,0-1,1.81,2.13,2.13,0,0,0,.56,1.45H27.87a2.17,2.17,0,1,0,0,4.33H53A2.16,2.16,0,0,0,54.57,44h2.87A2.15,2.15,0,0,0,59.6,41.8h0A2.16,2.16,0,0,0,57.44,39.64Z"/><path class="cls-4" d="M22.74,40.58a2.17,2.17,0,0,0,2.16-2.17h0a2.16,2.16,0,0,0-2.16-2.16H10.93A2.16,2.16,0,0,0,9.48,40H7.53a1.83,1.83,0,0,0,0,3.65h10a1.83,1.83,0,0,0,1.83-1.83h0a1.81,1.81,0,0,0-.51-1.25Z"/><path class="cls-4" d="M31.87,48.53H23.43a2.17,2.17,0,1,0,0,4.33h8.44A2.17,2.17,0,0,0,34,50.69h0A2.17,2.17,0,0,0,31.87,48.53Z"/></g></g></svg>