<svg xmlns="http://www.w3.org/2000/svg" viewBox="0 0 66.27 66.27"><defs><style>.cls-1{fill:#5cd8df;}.cls-2{fill:#5ec0db;}.cls-3{fill:#4d819a;}.cls-3,.cls-5,.cls-7{fill-rule:evenodd;}.cls-4{fill:#fff;}.cls-5{fill:#d83567;}.cls-6{fill:#486f87;}.cls-7{fill:#a8a9b0;}</style></defs><g id="圖層_2" data-name="圖層 2"><g id="圖層_1-2" data-name="圖層 1"><circle class="cls-1" cx="33.13" cy="33.13" r="33.13"/><path class="cls-2" d="M9.33,56.16c.12.14.24.27.37.4A33.14,33.14,0,0,0,56.56,9.7l-.4-.37Z"/><path class="cls-3" d="M49.6,31h.48A2.66,2.66,0,1,0,50,29.54h-.41A18.88,18.88,0,0,0,45.36,18.9h5a2.66,2.66,0,1,0,0-1.43h-6a.82.82,0,0,0-.27.06,16.25,16.25,0,0,0-11.48-4.85c-8.14,0-14.94,6.18-16.58,14.43l-5.54,8.15,6.28,2.25.19.54v9.29a1.53,1.53,0,0,0,1.53,1.52h7.26v7H40.63V47.1a17.37,17.37,0,0,0,5.24-4.69.65.65,0,0,0,.28.08h3.63a2.65,2.65,0,1,0-.13-1.43H46.77A19.12,19.12,0,0,0,49.6,31Z"/><path class="cls-4" d="M48,27.85c0-10.09-7.6-18.28-17-18.28-8.14,0-14.94,6.18-16.58,14.43L8.88,32.15l6.27,2.24c.06.19.13.37.2.55v9.29a1.52,1.52,0,0,0,1.52,1.52h7.26v7H39V44A18.53,18.53,0,0,0,48,27.85Z"/><path class="cls-5" d="M51.26,12.43a2.65,2.65,0,1,0,2.65,2.65,2.65,2.65,0,0,0-2.65-2.65Z"/><path class="cls-5" d="M50.91,24.25a2.66,2.66,0,1,0,2.65,2.65A2.66,2.66,0,0,0,50.91,24.25Z"/><path class="cls-5" d="M50.6,35.78a2.66,2.66,0,1,0,2.66,2.65,2.65,2.65,0,0,0-2.66-2.65Z"/><path class="cls-6" d="M40.88,20.17H32.65a.71.71,0,0,1,0-1.42h7.76l1.68-4a.71.71,0,0,1,.66-.43h8.12a.71.71,0,1,1,0,1.42H43.22l-1.68,4A.72.72,0,0,1,40.88,20.17Z"/><path class="cls-6" d="M50.54,27.86H38.3a.72.72,0,0,1,0-1.43H50.54a.72.72,0,0,1,0,1.43Z"/><path class="cls-6" d="M50.43,39.38H44.5a.7.7,0,0,1-.63-.39l-2.66-5.21H32.87a.71.71,0,0,1,0-1.42h8.78a.7.7,0,0,1,.63.39L44.94,38h5.49a.72.72,0,0,1,0,1.43Z"/><path class="cls-7" d="M30.31,15.52l-.37.18a4.3,4.3,0,0,0-1.1-1l.14-.4a.4.4,0,0,0-.24-.51l-1-.37a.39.39,0,0,0-.51.24l-.14.39a4.35,4.35,0,0,0-1.48.08l-.18-.38a.41.41,0,0,0-.31-.23.54.54,0,0,0-.22,0l-1,.48a.4.4,0,0,0-.19.53l.18.38a4.14,4.14,0,0,0-1,1.1l-.39-.15a.4.4,0,0,0-.51.25l-.38,1.05a.41.41,0,0,0,.24.51l.4.14a4.35,4.35,0,0,0,.07,1.48l-.38.18h0a.39.39,0,0,0-.18.53l.47,1a.41.41,0,0,0,.54.19l.37-.18a4.3,4.3,0,0,0,1.1,1l-.14.39a.41.41,0,0,0,.24.51l1.06.38a.4.4,0,0,0,.5-.24l.15-.4a4.29,4.29,0,0,0,1.47-.07l.18.38a.41.41,0,0,0,.53.19l.56-.27.45-.21a.41.41,0,0,0,.19-.54l-.18-.37a4.3,4.3,0,0,0,1-1.1l.4.14a.38.38,0,0,0,.5-.24l.38-1.05a.41.41,0,0,0-.24-.51l-.4-.14a4.34,4.34,0,0,0-.07-1.48l.38-.18a.41.41,0,0,0,.19-.53l-.48-1A.4.4,0,0,0,30.31,15.52Zm-2.89,4.77a2.11,2.11,0,1,1,1-2.81A2.11,2.11,0,0,1,27.42,20.29Z"/><path class="cls-7" d="M35,21.85l-.27.52a5.76,5.76,0,0,0-2.06-.16l-.18-.56a.56.56,0,0,0-.7-.36l-1.48.48a.55.55,0,0,0-.36.7l.18.56a5.85,5.85,0,0,0-1.57,1.33L28,24.1a.57.57,0,0,0-.54,0,.52.52,0,0,0-.21.23l-.71,1.39a.56.56,0,0,0,.24.75l.52.26a6,6,0,0,0-.17,2.06l-.55.18a.56.56,0,0,0-.36.7l.48,1.48a.55.55,0,0,0,.7.36l.56-.18a6,6,0,0,0,1.33,1.58l-.26.51h0a.56.56,0,0,0,.24.75l1.39.71a.55.55,0,0,0,.75-.24l.27-.52a5.94,5.94,0,0,0,2.05.17l.18.56a.55.55,0,0,0,.7.35l1.49-.47a.57.57,0,0,0,.36-.71l-.18-.55a6.08,6.08,0,0,0,1.57-1.34l.52.27a.56.56,0,0,0,.75-.24l.39-.78.32-.61A.56.56,0,0,0,39.6,30l-.52-.27a5.93,5.93,0,0,0,.16-2.05l.56-.18a.57.57,0,0,0,.36-.7l-.48-1.49A.57.57,0,0,0,39,25l-.56.18a5.89,5.89,0,0,0-1.34-1.57l.27-.52a.56.56,0,0,0-.24-.75l-1.39-.71A.56.56,0,0,0,35,21.85Zm.84,7.74a2.94,2.94,0,1,1-1.27-4A2.94,2.94,0,0,1,35.81,29.59Z"/></g></g></svg>