<?xml version="1.0" encoding="utf-8"?>
<!-- Generator: Adobe Illustrator 24.2.3, SVG Export Plug-In . SVG Version: 6.00 Build 0)  -->
<svg version="1.1" id="圖層_1" xmlns="http://www.w3.org/2000/svg" xmlns:xlink="http://www.w3.org/1999/xlink" x="0px" y="0px"
	 viewBox="0 0 50 50" style="enable-background:new 0 0 50 50;" xml:space="preserve">
<style type="text/css">
	.st0{fill:#60821F;}
	.st1{fill:#FFFFFF;}
</style>
<g>
	<circle class="st0" cx="25.5" cy="24.8" r="24.2"/>
	<path class="st1" d="M37.2,20.6c-0.3-0.4-0.7-0.7-1.2-0.7h-7v-9.6c0-1.9-1.6-3.5-3.5-3.5S22,8.3,22,10.2v9.6h-7
		c-0.5,0-1,0.3-1.2,0.7c-0.3,0.4-0.3,1,0,1.4l10.5,18.2c0.3,0.4,0.7,0.7,1.2,0.7c0.5,0,1-0.3,1.2-0.7L37.2,22
		C37.5,21.5,37.5,21,37.2,20.6z"/>
</g>
</svg>
