<?xml version="1.0" encoding="utf-8"?>
<!-- Generator: Adobe Illustrator 16.0.0, SVG Export Plug-In . SVG Version: 6.00 Build 0)  -->
<!DOCTYPE svg PUBLIC "-//W3C//DTD SVG 1.1//EN" "http://www.w3.org/Graphics/SVG/1.1/DTD/svg11.dtd">
<svg version="1.1" id="圖層_1" xmlns="http://www.w3.org/2000/svg" xmlns:xlink="http://www.w3.org/1999/xlink" x="0px" y="0px"
	 width="80px" height="80px" viewBox="0 0 80 80" enable-background="new 0 0 80 80" xml:space="preserve">
<g>
	<g>
		<path fill="#F2E4A0" d="M45.732,33.133C44.6,25,36.533,19.8,28.667,22.2c-6.2,1.933-10.133,8.066-9.2,14.466
			C20.6,44.8,28.667,50,36.533,47.6C42.666,45.732,46.6,39.6,45.732,33.133z"/>
	</g>
	<g>
		<path fill="#F1BE5B" d="M43.666,33.667c-0.799-7-7.733-11.4-14.399-9.267C24.333,26,21.133,31,21.8,36.133
			c0.8,6.934,7.733,11.4,14.467,9.201C41.133,43.8,44.268,38.8,43.666,33.667z"/>
	</g>
	<path fill="#F2E4A0" d="M38.4,36.333c-0.135-0.467-0.27-0.867-0.467-1.133c-0.201-0.333-0.469-0.6-0.733-0.733
		c-0.267-0.2-0.6-0.4-0.934-0.467c-0.333-0.133-0.733-0.2-1.133-0.267c-0.4-0.067-0.8-0.133-1.333-0.133c-0.133,0-0.333,0-0.533,0
		l-0.8-3.667c1.2-0.066,2,0.467,2.333,1.6l2-0.467c-0.133-0.6-0.466-1.066-0.733-1.533c-0.267-0.467-0.733-0.733-1.267-1
		c-0.466-0.2-1-0.4-1.667-0.467c-0.333,0-0.733,0-1.066,0.067l-0.4-1.733l-1.8,0.4l0.4,1.8c-0.4,0.133-0.733,0.267-1,0.466
		c-0.533,0.333-1,0.667-1.333,1c-0.333,0.4-0.6,0.867-0.733,1.333c-0.133,0.466-0.133,1,0,1.534c0.133,0.466,0.267,0.866,0.533,1.2
		c0.2,0.333,0.533,0.6,0.933,0.8c0.4,0.2,0.8,0.4,1.333,0.466c0.533,0.133,1.067,0.133,1.8,0.133l0.867,4.067
		c-0.066,0-0.133,0-0.133,0c-0.466,0-0.8-0.133-1.133-0.267c-0.333-0.133-0.667-0.4-0.933-0.667c-0.267-0.267-0.467-0.6-0.6-1
		l-2,0.467c0.133,0.667,0.467,1.267,0.8,1.733c0.4,0.467,0.8,0.867,1.333,1.133s1.133,0.467,1.867,0.467c0.4,0.066,0.733,0,1.2,0
		l0.466,1.934l1.8-0.398l-0.467-1.867C35.333,41,35.733,40.8,36.133,40.6c0.533-0.333,1-0.731,1.333-1.133
		c0.4-0.467,0.601-0.934,0.733-1.4C38.467,37.4,38.467,36.867,38.4,36.333z M31.067,33.4c-0.4-0.066-0.733-0.133-0.934-0.2
		c-0.267-0.134-0.467-0.2-0.533-0.4c-0.067-0.2-0.2-0.333-0.267-0.533C29.267,32,29.267,31.8,29.4,31.533
		c0.067-0.2,0.2-0.466,0.467-0.667c0.2-0.2,0.467-0.4,0.733-0.533c0.066-0.067,0.133-0.067,0.2-0.133l0.733,3.133
		C31.267,33.467,31.133,33.4,31.067,33.4z M36.333,37.733c-0.133,0.267-0.2,0.533-0.467,0.733c-0.2,0.2-0.467,0.467-0.8,0.6
		c-0.134,0.067-0.333,0.134-0.467,0.2L33.8,35.6h0.067c0.533,0,1,0.066,1.333,0.133c0.333,0.133,0.667,0.2,0.8,0.4
		c0.2,0.133,0.333,0.467,0.4,0.733C36.4,37.2,36.4,37.467,36.333,37.733z"/>
</g>
</svg>
