<?xml version="1.0" encoding="utf-8"?>
<!-- Generator: Adobe Illustrator 16.0.0, SVG Export Plug-In . SVG Version: 6.00 Build 0)  -->
<!DOCTYPE svg PUBLIC "-//W3C//DTD SVG 1.1//EN" "http://www.w3.org/Graphics/SVG/1.1/DTD/svg11.dtd">
<svg version="1.1" id="圖層_1" xmlns="http://www.w3.org/2000/svg" xmlns:xlink="http://www.w3.org/1999/xlink" x="0px" y="0px"
	 width="80px" height="80px" viewBox="0 0 80 80" enable-background="new 0 0 80 80" xml:space="preserve">
<g>
	<g>
		<g>
			<path fill="#65D8C5" d="M64.867,40.6l1.266-0.266c1.134-0.267,1.934-1.4,1.601-2.534l-0.399-1.733
				c-0.268-1.133-1.4-1.934-2.534-1.6L13.333,45.934c-1.133,0.267-1.934,1.4-1.6,2.533l0.4,1.733c0.267,1.134,1.4,1.933,2.533,1.6
				l1.267-0.267l7.4,18.267c0.466,1.934,2.267,3.067,4.2,2.601L65,64c1.934-0.467,3.066-2.267,2.6-4.2L64.867,40.6z"/>
			<path fill="#55BFAB" d="M64.867,40.533l2-0.467c0.732-0.133,1.199-0.933,1-1.6l-0.734-3.333c-0.133-0.533-0.6-1-1.066-1l-3,6.867
				l-46.8,10.533L61.733,43.8L51.666,66.934l13.334-3c1.934-0.467,3.066-2.268,2.6-4.2L64.867,40.533z"/>
		</g>
		<path fill="#FFFFFF" d="M33.8,66.133L33.8,66.133c-0.933,0.201-1.8-0.399-2-1.266l-2.4-10.734c-0.2-0.933,0.4-1.799,1.267-2l0,0
			c0.934-0.199,1.8,0.4,2,1.268l2.4,10.732C35.267,65.066,34.733,66,33.8,66.133z"/>
		<path fill="#FFFFFF" d="M43.733,64L43.733,64c-0.934,0.2-1.8-0.4-2-1.267L39.333,52c-0.2-0.934,0.4-1.8,1.266-2l0,0
			c0.934-0.2,1.801,0.4,2,1.267L45,62C45.2,62.8,44.6,63.733,43.733,64z"/>
		<path fill="#FFFFFF" d="M53.533,61.733L53.533,61.733c-0.934,0.2-1.8-0.399-2-1.267l-2.4-10.733c-0.199-0.934,0.4-1.8,1.268-2l0,0
			c0.934-0.2,1.8,0.399,2,1.267L54.8,59.733C55.066,60.6,54.467,61.533,53.533,61.733z"/>
	</g>
	<path fill="#2B2B3A" d="M27.267,46.467L27.267,46.467c-0.467,0.733-1.333,1.066-2.2,0.666L9.2,38.8
		c-0.733-0.466-1.067-1.333-0.667-2.2l0,0c0.467-0.733,1.333-1.067,2.2-0.667l15.933,8.4C27.333,44.733,27.667,45.733,27.267,46.467
		z"/>
	<path fill="#2B2B3A" d="M54.066,40L54.066,40c0.667,0.533,1.667,0.467,2.268-0.133L68,26.066c0.533-0.667,0.467-1.667-0.133-2.267
		l0,0C67.2,23.267,66.2,23.333,65.6,23.933L53.867,37.667C53.334,38.4,53.4,39.4,54.066,40z"/>
</g>
</svg>
