<?xml version="1.0" encoding="utf-8"?>
<!-- Generator: Adobe Illustrator 16.0.0, SVG Export Plug-In . SVG Version: 6.00 Build 0)  -->
<!DOCTYPE svg PUBLIC "-//W3C//DTD SVG 1.1//EN" "http://www.w3.org/Graphics/SVG/1.1/DTD/svg11.dtd">
<svg version="1.1" id="圖層_1" xmlns="http://www.w3.org/2000/svg" xmlns:xlink="http://www.w3.org/1999/xlink" x="0px" y="0px"
	 width="80px" height="80px" viewBox="0 0 80 80" enable-background="new 0 0 80 80" xml:space="preserve">
<g>
	<path fill="#DA565D" d="M59.4,61.4c-0.134-0.2-0.334-0.334-0.533-0.334H54L54.066,45.6c0-0.199-0.066-0.333-0.199-0.399
		c-0.134-0.067-0.268-0.2-0.4-0.2h-8.133l0,0c-0.334,0-0.601,0.267-0.601,0.6l-0.067,15.467H39.8l0,0
		c-0.267,0-0.4,0.134-0.533,0.334c-0.133,0.199-0.066,0.467,0.067,0.666L48.8,74.533c0.134,0.133,0.333,0.267,0.467,0.267l0,0
		c0.2,0,0.333-0.066,0.467-0.267L59.334,62.2C59.467,61.934,59.533,61.666,59.4,61.4z"/>
</g>
</svg>
