<?xml version="1.0" encoding="utf-8"?>
<!-- Generator: Adobe Illustrator 24.2.3, SVG Export Plug-In . SVG Version: 6.00 Build 0)  -->
<svg version="1.1" id="圖層_1" xmlns="http://www.w3.org/2000/svg" xmlns:xlink="http://www.w3.org/1999/xlink" x="0px" y="0px"
	 viewBox="0 0 50 50" style="enable-background:new 0 0 50 50;" xml:space="preserve">
<style type="text/css">
	.st0{fill:#FFFFFF;}
</style>
<g>
	<g>
		<path class="st0" d="M25.1,21.4c-4.9,4.5-2.7,14-1.7,16c1.6-4,4.7-8.4,10.8-11.4c0.3-0.2,0.7,0,0.9,0.3c0.2,0.3,0,0.7-0.3,0.9
			c-5.9,2.9-8.9,7.3-10.3,11.2c21,5.4,21.9-22.5,21.9-22.5C36.8,16.3,31.3,15.6,25.1,21.4z"/>
	</g>
	<g>
		<path class="st0" d="M18.9,29.9c3.7,2.9,2.6,6.6,2,8.1c-1.3-2.7-3.8-5.7-8.2-7.4c-0.2-0.1-0.5,0-0.6,0.3c-0.1,0.2,0,0.5,0.3,0.6
			c4.3,1.7,6.6,4.7,7.8,7.3C5.8,43.6,3.7,24,3.7,24C9.6,26.2,14.2,26.1,18.9,29.9z"/>
	</g>
	<g>
		<path class="st0" d="M19.2,17.1c1.4,3.3,0.3,5.7-0.4,6.7c-0.5-2.2-1.8-4.9-4.8-6.9c-0.2-0.1-0.4-0.1-0.5,0.1
			c-0.1,0.2-0.1,0.4,0.1,0.5c2.9,2,4.1,4.6,4.6,6.8C6.6,25.4,8.4,10.5,8.4,10.5C18.1,13.8,18,14.1,19.2,17.1z"/>
	</g>
</g>
</svg>
