<?xml version="1.0" encoding="utf-8"?>
<!-- Generator: Adobe Illustrator 24.2.3, SVG Export Plug-In . SVG Version: 6.00 Build 0)  -->
<svg version="1.1" id="圖層_1" xmlns="http://www.w3.org/2000/svg" xmlns:xlink="http://www.w3.org/1999/xlink" x="0px" y="0px"
	 viewBox="0 0 50 50" style="enable-background:new 0 0 50 50;" xml:space="preserve">
<style type="text/css">
	.st0{fill:#FFFFFF;}
</style>
<path class="st0" d="M42.5,21.8c0.2-0.5,0.2-1,0-1.4l-1.4-3.6c-0.2-0.5-0.5-0.8-1-1c-0.5-0.2-1-0.2-1.4,0l-1,0.4
	c-0.9-1.2-1.9-2.3-3.1-3.3l0.4-1c0.4-0.9,0-2.1-1-2.5l-3.5-1.6c-0.5-0.2-1-0.2-1.4,0c-0.5,0.2-0.8,0.5-1,1l-0.4,1
	c-1.5-0.3-3-0.3-4.5-0.1l-0.4-1c-0.2-0.6-0.8-1-1.4-1.2c-0.3-0.1-0.7,0-1,0.1l-3.6,1.4c-0.5,0.2-0.8,0.5-1,1c-0.2,0.5-0.2,1,0,1.4
	l0.4,1c-1.2,0.9-2.3,1.9-3.3,3.1l-1-0.4c-0.5-0.2-1-0.2-1.4,0c-0.5,0.2-0.8,0.5-1,1l-1.6,3.5c-0.4,0.9,0,2.1,1,2.5l1,0.4
	c-0.3,1.5-0.3,3-0.1,4.5l-1,0.4c-0.5,0.2-0.8,0.5-1,1c-0.2,0.5-0.2,1,0,1.4l1.4,3.6c0.4,1,1.5,1.5,2.4,1.1l1-0.4
	c0.9,1.2,1.9,2.3,3.1,3.3l-0.4,1c-0.4,0.9,0,2.1,1,2.5l3.5,1.6c0.5,0.2,1,0.2,1.4,0c0.5-0.2,0.8-0.5,1-1l0.4-1
	c1.5,0.3,3,0.3,4.5,0.1l0.4,1c0.2,0.5,0.5,0.8,1,1c0.2,0.1,0.5,0.2,0.8,0.2c0.2,0,0.5,0,0.7-0.1l3.6-1.4c1-0.4,1.5-1.5,1.1-2.4
	l-0.4-1c1.2-0.9,2.3-1.9,3.3-3.1l1,0.4c1,0.4,2.1,0,2.5-1l1.6-3.5c0.4-0.9,0-2.1-1-2.5l-1-0.4c0.3-1.5,0.3-3,0.1-4.5l1-0.4
	C41.9,22.6,42.3,22.2,42.5,21.8z M31.2,27.8c-0.7,1.7-2.1,2.9-3.8,3.6c-3.5,1.3-7.5-0.4-8.8-3.9c-1.3-3.5,0.4-7.5,3.9-8.8
	c0.8-0.3,1.6-0.5,2.4-0.5c0.9,0,1.9,0.2,2.8,0.6c1.7,0.7,2.9,2.1,3.6,3.8C32,24.3,32,26.1,31.2,27.8z"/>
</svg>
