<?xml version="1.0" encoding="utf-8"?>
<!-- Generator: Adobe Illustrator 16.0.0, SVG Export Plug-In . SVG Version: 6.00 Build 0)  -->
<!DOCTYPE svg PUBLIC "-//W3C//DTD SVG 1.1//EN" "http://www.w3.org/Graphics/SVG/1.1/DTD/svg11.dtd">
<svg version="1.1" id="圖層_1" xmlns="http://www.w3.org/2000/svg" xmlns:xlink="http://www.w3.org/1999/xlink" x="0px" y="0px"
	 width="80px" height="80px" viewBox="0 0 80 80" enable-background="new 0 0 80 80" xml:space="preserve">
<g>
	<g>
		<path fill="#FFFFFF" d="M46.24,41.12c-1.28,1.12-2.4,2.08-3.68,3.2c-1.44,1.439-2.081,2.72-2.081,4.16V49.6h-7.36V48.32
			c0-2.4,0.64-4.48,1.76-6.4c0.8-1.279,2.08-2.72,4-4.32c2.08-1.76,3.2-2.88,3.841-3.52c1.279-1.44,1.92-3.04,1.92-4.64
			c0-2.72-2.24-4.16-6.561-4.16c-4.16,0-7.68,0.8-10.24,2.08v-7.84c2.72-0.96,6.24-1.44,10.24-1.44c3.84,0,7.199,0.96,9.76,2.88
			c2.721,2.08,4,4.96,4,8.48C52,33.92,50.08,37.76,46.24,41.12z M32.64,61.6v-8.32h8.32v8.32H32.64z"/>
	</g>
</g>
</svg>
