<svg xmlns="http://www.w3.org/2000/svg" xmlns:xlink="http://www.w3.org/1999/xlink" viewBox="0 0 66.27 66.27"><defs><style>.cls-1{fill:none;}.cls-2{fill:#ffba31;}.cls-3{fill:#e88949;}.cls-4{fill:#a36239;}.cls-5{fill:#d5e7e5;}.cls-6{fill:#d2a384;}.cls-7{fill:#333;}.cls-8{clip-path:url(#clip-path);}.cls-9{fill:#eea86a;}.cls-10{fill:#7b262d;}.cls-11{fill:#a7412d;}.cls-12{clip-path:url(#clip-path-2);}.cls-13{fill:#d0412d;}.cls-14{fill:#cc602d;}.cls-15{clip-path:url(#clip-path-3);}</style><clipPath id="clip-path"><path class="cls-1" d="M29.33,39.87C29,40,14.21,42.53,13.18,43.23A5.15,5.15,0,0,0,11,46.37,14.7,14.7,0,0,0,10.52,49H56.28s-1.14-5.15-3.42-6-15.12-2.71-15.12-2.71Z"/></clipPath><clipPath id="clip-path-2"><path class="cls-1" d="M45.63,22.42s-7,3-13.23-1.1a29.93,29.93,0,0,1-8.9-8.66s6.43-6.4,11.84-4.29S45.8,13.71,45.63,22.42Z"/></clipPath><clipPath id="clip-path-3"><path class="cls-1" d="M41.1,11.3a14,14,0,0,1-8.46,9.43c-3.15,1.16-6.66,3-8.78,3.25-2.56.31-3.42-1.08-3.42-1.08s-1.57-8.24,3.26-11.23S34.05,6.58,41.1,11.3Z"/></clipPath></defs><g id="圖層_2" data-name="圖層 2"><g id="圖層_1-2" data-name="圖層 1"><circle class="cls-2" cx="33.13" cy="33.13" r="33.13"/><path class="cls-3" d="M9.33,56.16c.12.14.24.27.37.4A33.14,33.14,0,0,0,56.56,9.7l-.4-.37Z"/><path class="cls-4" d="M57.63,50.48s-1.13-5.16-3.41-6c-.82-.31-13.65-2.5-14.1-2.56V37.39c.46-.53,6.26-7.46,6.82-15.19.6-8.26-7.89-18-17.56-14.27-13,5-7.08,25.56-1.87,29.61a8.42,8.42,0,0,0,.63.73v3.57L19.3,43.53c-2.45.5-6.61,2.82-7,4.34a15.42,15.42,0,0,0-.44,2.61Z"/><path class="cls-5" d="M29.33,39.87C29,40,14.21,42.53,13.18,43.23A5.15,5.15,0,0,0,11,46.37,14.7,14.7,0,0,0,10.52,49H56.28s-1.14-5.15-3.42-6-15.12-2.71-15.12-2.71Z"/><rect class="cls-6" x="26.79" y="34.23" width="11.98" height="6.29"/><ellipse class="cls-6" cx="32.78" cy="40.68" rx="5.99" ry="2.44"/><ellipse class="cls-7" cx="32.99" cy="46.89" rx="0.62" ry="0.84"/><g class="cls-8"><rect class="cls-9" x="17.95" y="40.76" width="6.99" height="13.48"/><rect class="cls-9" x="40.45" y="38.75" width="6.99" height="15.61"/></g><path class="cls-10" d="M20.44,22.9s.6,10.9,7.32,14.15l-2.93-7.59s-.7-5.31.38-7.7S20.44,22.9,20.44,22.9Z"/><path class="cls-10" d="M45.71,22.41S42.45,36.29,37.3,36.72l4-7.75s-.71-5.31-1.79-7.7S45.71,22.41,45.71,22.41Z"/><ellipse class="cls-6" cx="32.7" cy="26.21" rx="9.04" ry="12.29"/><ellipse class="cls-6" cx="24.31" cy="26.51" rx="1.52" ry="2.57"/><ellipse class="cls-6" cx="41.62" cy="26.51" rx="1.52" ry="2.57"/><circle class="cls-11" cx="32.84" cy="24.42" r="0.69"/><path class="cls-11" d="M45.63,22.42s-2.25,2.51-4.69,1.18C38,22,33.49,22.35,30.74,21.05,24,17.87,23.5,12.66,23.5,12.66s6.43-6.4,11.84-4.29S45.8,13.71,45.63,22.42Z"/><g class="cls-12"><path class="cls-13" d="M47.16,20.19s-7,3-13.23-1.09A30,30,0,0,1,25,10.43S31.47,4,36.88,6.15,47.33,11.49,47.16,20.19Z"/><path class="cls-14" d="M48.73,17.51s-7,3-13.23-1.09a30,30,0,0,1-8.9-8.67S33,1.36,38.45,3.47,48.9,8.81,48.73,17.51Z"/></g><path class="cls-11" d="M41.1,11.3S40,20.09,32.64,20.73c-4.39.38-6.59,3-8.78,3.25a4.52,4.52,0,0,1-3.42-1.08s-1.57-8.24,3.26-11.23S34.05,6.58,41.1,11.3Z"/><g class="cls-15"><path class="cls-13" d="M40.15,9s-2.52,7.22-9.46,9.76-11.2,1.85-11.2,1.85-1.57-8.24,3.26-11.23S33.1,4.25,40.15,9Z"/><path class="cls-14" d="M38.85,6.36a14,14,0,0,1-8.46,9.44,49.56,49.56,0,0,1-12.06,2.92s-1.71-9,3.12-12S31.8,1.64,38.85,6.36Z"/></g><path class="cls-7" d="M32.82,30.76a4.42,4.42,0,0,0-2.37.84c-1.15.83-3.84.57-4.1-.07,0,0,1.73,3.4,4,2.63a16,16,0,0,0,2.5-1,4.54,4.54,0,0,0,3,1c1.73-.13,3.26-2.56,3.26-2.56a4,4,0,0,1-3.13.25C34.16,31.28,34.1,30.57,32.82,30.76Z"/><path class="cls-7" d="M29.17,34.12s-.16,2.77,1,2.55,1.36-1.36,3.09-.81,2.28,1.51,2.77.43a6,6,0,0,0,.43-2.39,1.54,1.54,0,0,1,1.25-.59A4,4,0,0,0,40.83,29h1a24.42,24.42,0,0,1-1.35,5.43C39.15,36.83,36.6,40,32.8,40c-2.33,0-6.66-2.77-7.75-5.86a50.14,50.14,0,0,1-1.46-5.26h1.35s.92,4.39,2,4.45S29,33.53,29.17,34.12Z"/><ellipse class="cls-7" cx="28.95" cy="26.67" rx="0.76" ry="0.89"/><ellipse class="cls-7" cx="37" cy="26.63" rx="0.76" ry="0.89"/><path class="cls-7" d="M32.87,35.4a4.8,4.8,0,0,1-2.39-.64.49.49,0,0,1-.16-.69.51.51,0,0,1,.69-.16,3.63,3.63,0,0,0,3.46.09.5.5,0,0,1,.67.21.5.5,0,0,1-.21.68A4.37,4.37,0,0,1,32.87,35.4Z"/><path class="cls-7" d="M32.8,31.23h-.06a2.21,2.21,0,0,1-1.59-1.08.49.49,0,0,1,.16-.69.51.51,0,0,1,.69.17c.09.15.44.58.78.6s.5-.25.66-.48a.51.51,0,0,1,.7-.1.5.5,0,0,1,.11.7A1.84,1.84,0,0,1,32.8,31.23Z"/></g></g></svg>