<svg xmlns="http://www.w3.org/2000/svg" viewBox="0 0 66.27 66.27"><defs><style>.cls-1{fill:#ffba31;}.cls-2{fill:#e88949;}.cls-3{fill:#a36239;}.cls-4{fill:#b79248;}.cls-5{fill:#333;}.cls-6{fill:#edca9f;}.cls-7{fill:#edc20f;}.cls-8{fill:#ce9959;}.cls-9{fill:#d2a384;}.cls-10{fill:#db5e9d;}.cls-11{fill:#aa5081;}.cls-12{opacity:0.32;}.cls-13{fill:#f7c1e8;}</style></defs><g id="圖層_2" data-name="圖層 2"><g id="圖層_1-2" data-name="圖層 1"><circle class="cls-1" cx="33.13" cy="33.13" r="33.13"/><path class="cls-2" d="M9.33,56.16c.12.14.24.27.37.4A33.14,33.14,0,0,0,56.56,9.7l-.4-.37Z"/><path class="cls-3" d="M55.19,26.53a1.4,1.4,0,0,0-.43-.91l.12,0-.32-.22a3.89,3.89,0,0,0-.73-.51L33.35,10.67,13.82,26.09c-.91.57-1.43,1.17-1.41,1.78.06,1.76,4.55,3.25,11,3.95-.37,3.93-1.32,10.37-1.87,13.91-1.85.44-3.66,1-4.24,1.72C16,49,16,52.87,16,52.87H53.57l0-.43c-.22-1.42-1.54-5-2.64-5.7a43.2,43.2,0,0,0-6.73-1.66c0-3.07,0-7.89-.24-12.39a3.13,3.13,0,0,0,.57-1.46C51,30.15,55.25,28.34,55.19,26.53Z"/><path class="cls-4" d="M53.45,24.3c.08,2.64-9,5.29-20.77,5.66s-21.93-1.67-22-4.32,9.43-5.09,21.25-5.46S53.36,21.65,53.45,24.3Z"/><path class="cls-5" d="M22.77,20.36a27.12,27.12,0,0,0-.94,6.91c0,4.07-2.41,18.77-2.41,18.77h23s.33-24-1.81-26.56S22.77,20.36,22.77,20.36Z"/><ellipse class="cls-6" cx="32.41" cy="28.1" rx="9.04" ry="12.29"/><ellipse class="cls-6" cx="41.63" cy="29.58" rx="2.57" ry="1.52" transform="translate(3.37 63.42) rotate(-76.89)"/><ellipse class="cls-5" cx="28.59" cy="28.79" rx="0.76" ry="0.89"/><ellipse class="cls-5" cx="36.64" cy="28.75" rx="0.76" ry="0.89"/><path class="cls-5" d="M32.51,36.76a4.76,4.76,0,0,1-2.39-.65.49.49,0,0,1-.16-.69.5.5,0,0,1,.69-.15,3.7,3.7,0,0,0,3.46.09.5.5,0,1,1,.46.88A4.42,4.42,0,0,1,32.51,36.76Z"/><path class="cls-5" d="M32.44,33.22h-.06a2.1,2.1,0,0,1-1.49-1,.37.37,0,0,1,.64-.39c.11.18.49.65.88.66.22,0,.51-.17.77-.52a.37.37,0,0,1,.53-.08.38.38,0,0,1,.08.52A1.72,1.72,0,0,1,32.44,33.22Z"/><path class="cls-5" d="M27.77,16.66S28,26.87,41.42,27.12c0,0,1.72-9.14-4.8-11.26S27.77,16.66,27.77,16.66Z"/><path class="cls-5" d="M31.32,22.51c.57.37-4.3,5.34-7.73,3.61-.39-.19-.78.55-.85,1.3S19.49,16,29.67,16.25Z"/><ellipse class="cls-6" cx="23.73" cy="30.1" rx="1.52" ry="2.57" transform="translate(-7.62 8.05) rotate(-16.62)"/><path class="cls-5" d="M27.92,28.72a1.12,1.12,0,0,1-.53-.13.39.39,0,0,1-.14-.52.38.38,0,0,1,.52-.13,1,1,0,0,0,.71-.13.37.37,0,0,1,.35.66A2.13,2.13,0,0,1,27.92,28.72Z"/><path class="cls-5" d="M36.1,28.6a1,1,0,0,1-.52-.13.37.37,0,0,1-.14-.51.37.37,0,0,1,.51-.14,1,1,0,0,0,.71-.12.38.38,0,0,1,.51.15.39.39,0,0,1-.15.51A2.24,2.24,0,0,1,36.1,28.6Z"/><circle class="cls-7" cx="41.56" cy="32.17" r="0.62"/><path class="cls-8" d="M11.13,24.61,31.61,8.44l21.53,15S39.36,18.12,11.13,24.61Z"/><path class="cls-9" d="M29.69,41.53c-.27.11-12.43,2.66-13.27,3.36A5.19,5.19,0,0,0,14.59,48a18.56,18.56,0,0,0-.36,2.6H51.82s-.93-5.15-2.8-6-12.43-2.71-12.43-2.71Z"/><rect class="cls-6" x="28.65" y="38.59" width="7.18" height="4.9"/><ellipse class="cls-9" cx="32.24" cy="43.62" rx="3.59" ry="1.9"/><path class="cls-10" d="M28.58,40,32.24,41l3.59-1.14.33,1.75s12,2.14,13.06,2.86,2.41,4.28,2.63,5.7l0,.43H14.23s0-3.83,1.35-5.42,9-2.58,9-2.58l4-1.1Z"/><path class="cls-11" d="M35.83,39.9a19.67,19.67,0,0,0-3.74,1.31v1.65l4.07-1.21"/><circle class="cls-7" cx="23.62" cy="32.2" r="0.62"/><g class="cls-12"><circle class="cls-13" cx="27.24" cy="31.96" r="1.79"/></g><g class="cls-12"><circle class="cls-13" cx="38.13" cy="32.25" r="1.79"/></g></g></g></svg>