<svg xmlns="http://www.w3.org/2000/svg" viewBox="0 0 66.27 66.27"><defs><style>.cls-1{fill:#ffba31;}.cls-2{fill:#e88949;}.cls-3{fill:#a36239;}.cls-4{fill:#59a8d8;}.cls-5{fill:#f4d3a4;}.cls-6{fill:#704832;}.cls-7{fill:#333;}.cls-8{opacity:0.32;}.cls-9{fill:#f7c1e8;}.cls-10{fill:#2d689e;}.cls-11{fill:#1f4968;}</style></defs><g id="圖層_2" data-name="圖層 2"><g id="圖層_1-2" data-name="圖層 1"><circle class="cls-1" cx="33.13" cy="33.13" r="33.13"/><path class="cls-2" d="M9.33,56.16c.12.14.24.27.37.4A33.14,33.14,0,0,0,56.56,9.7l-.4-.37Z"/><path class="cls-3" d="M52.85,43.55a4.79,4.79,0,0,0-2.2-1,.71.71,0,0,0,.21-.35c0-.48-1.83-.16-4.06-2.87S44,34.87,44.25,33.44c1.12-7.16.4-9.39-.16-11.3s-1.83-5.66-3.1-6.69-4.54-3.74-6.05-3.34c0,0-4.5.51-6.17,1.87a10.32,10.32,0,0,0-3.66,5.25l-.36,1.23a13.84,13.84,0,0,0-.42,1.47,23.2,23.2,0,0,0-1,4.74c0,6.85-1.35,4.22-1.51,9a8.14,8.14,0,0,1-2,4.94c-1.19,1.27-3.66,1.91-4.62,3.26a.37.37,0,0,0,0,.39c-1.62,2.08-1.78,6.06-1.78,6.06l13.64.1.14.06h7.24l21,.16S53.73,44.91,52.85,43.55Z"/><path class="cls-4" d="M24.57,39.21s1.68,3.39,6.85,3.39a8.3,8.3,0,0,0,7.25-3.71s11.22,1.51,12.1,2.86,2.63,7.09,2.63,7.09l-42-.32s.24-6.53,3.5-7.24S24.57,39.21,24.57,39.21Z"/><ellipse class="cls-5" cx="31.61" cy="24.19" rx="9.83" ry="13.37"/><path class="cls-6" d="M28.56,15.72s.89,2.86,5.71,5.53a31.2,31.2,0,0,0,7.94,3.11S39,14.37,28.56,15.72Z"/><path class="cls-6" d="M32.06,16.12s-3.85,1.74-4.3,3.9c-.54,2.55-4.54,6.43-4.54,6.43s0-7.78,2.87-9.22A12.13,12.13,0,0,1,32.06,16.12Z"/><ellipse class="cls-7" cx="27.54" cy="24.69" rx="0.83" ry="0.97"/><ellipse class="cls-7" cx="36.29" cy="24.65" rx="0.83" ry="0.97"/><path class="cls-7" d="M32,32.9a5.24,5.24,0,0,1-2.58-.69.5.5,0,1,1,.53-.85,4,4,0,0,0,3.81.1.5.5,0,0,1,.46.89A4.74,4.74,0,0,1,32,32.9Z"/><path class="cls-7" d="M31.62,29.56h0a2,2,0,0,1-1.46-.87.37.37,0,1,1,.61-.42,1.33,1.33,0,0,0,.86.54h0c.3,0,.62-.22.94-.66a.38.38,0,0,1,.53-.08.39.39,0,0,1,.08.53A2,2,0,0,1,31.62,29.56Z"/><g class="cls-8"><circle class="cls-9" cx="25.61" cy="28.54" r="1.79"/></g><g class="cls-8"><circle class="cls-9" cx="38.84" cy="29.19" r="1.79"/></g><path class="cls-10" d="M44.72,37.53c-2.23-2.7-2.77-4.46-2.55-5.89,1.11-7.16.4-9.39-.16-11.3s-1.83-5.66-3.1-6.69-4.54-3.74-6.06-3.34c0,0-4.49.51-6.17,1.87A10.38,10.38,0,0,0,23,17.43c-.63,2.23-1.79,5.92-1.79,7.45,0,6.84-1.35,4.22-1.51,9a8.24,8.24,0,0,1-2,4.94c-1.2,1.27-3.66,1.91-4.62,3.26s12,6.61,12,6.61H40.9A7,7,0,0,0,45,45.18c1.11-2.63,3.74-4.3,3.74-4.78S47,40.24,44.72,37.53Zm-4.3-10.35c-.48,2.47-2.15,6.93-4,7.81s-3.35,2.31-5,1.91-7.48-3-7.08-12c0,0-.85-2.82,3-6.69,2.31-2.31,7.72-1.75,10.35,1S40.9,24.72,40.42,27.18Z"/><path class="cls-11" d="M20.59,34.91A12.82,12.82,0,0,0,28.79,44S23.14,39.52,20.59,34.91Z"/><path class="cls-11" d="M41.69,37.93s-5.33,5.42-11.54,2.55A14.56,14.56,0,0,0,41.69,37.93Z"/><path class="cls-11" d="M43.12,42.79a12.49,12.49,0,0,1-10.82,4.7"/><path class="cls-7" d="M26.67,24.58a1.12,1.12,0,0,1-.53-.13.39.39,0,0,1-.14-.52.37.37,0,0,1,.51-.14,1,1,0,0,0,.71-.12.38.38,0,0,1,.36.66A2.13,2.13,0,0,1,26.67,24.58Z"/><path class="cls-7" d="M35.58,24.53a1,1,0,0,1-.53-.13.38.38,0,0,1-.14-.51.39.39,0,0,1,.52-.14,1,1,0,0,0,.71-.12.36.36,0,0,1,.5.15.37.37,0,0,1-.14.51A2.3,2.3,0,0,1,35.58,24.53Z"/></g></g></svg>