<?xml version="1.0" encoding="utf-8"?>
<!-- Generator: Adobe Illustrator 25.2.3, SVG Export Plug-In . SVG Version: 6.00 Build 0)  -->
<svg version="1.1" id="圖層_1" xmlns="http://www.w3.org/2000/svg" xmlns:xlink="http://www.w3.org/1999/xlink" x="0px" y="0px"
	 viewBox="0 0 66.3 66.3" style="enable-background:new 0 0 66.3 66.3;" xml:space="preserve">
<style type="text/css">
	.st0{fill:#A985DD;}
	.st1{fill:#9263D3;}
	.st2{fill:#5F428A;}
	.st3{fill:#FFF3FD;}
	.st4{fill:url(#SVGID_1_);}
	.st5{fill:url(#SVGID_2_);}
	.st6{fill:url(#SVGID_3_);}
	.st7{fill:url(#SVGID_4_);}
	.st8{fill:url(#SVGID_5_);}
	.st9{fill:url(#SVGID_6_);}
	.st10{fill:url(#SVGID_7_);}
	.st11{fill:url(#SVGID_8_);}
	.st12{fill:url(#SVGID_9_);}
	.st13{fill:url(#SVGID_10_);}
	.st14{fill:url(#SVGID_11_);}
	.st15{fill:url(#SVGID_12_);}
	.st16{fill:url(#SVGID_13_);}
	.st17{fill:url(#SVGID_14_);}
	.st18{fill:url(#SVGID_15_);}
	.st19{fill:#FFFFFF;}
</style>
<g id="圖層_2_1_">
	<g id="圖層_1-2">
		<circle class="st0" cx="33.1" cy="33.1" r="33.1"/>
		<path class="st1" d="M9.3,56.2c0.1,0.1,0.2,0.3,0.4,0.4c13.2,12.7,34.1,12.4,46.9-0.8c12.4-12.8,12.4-33.2,0-46l-0.4-0.4L9.3,56.2
			z"/>
		<g>
			<path class="st2" d="M37.9,8.1c-2,1.3-3.8,2.8-5.3,4.6c-1.5,1.7-2.7,3.7-3.3,5.8c-0.3,1.1-0.5,2.2-0.5,3.3c0,0.5,0,1.1,0.1,1.7
				c0,0.6,0.1,1.1,0.2,1.7c0.2,1.1,0.4,2.2,0.7,3.3c0.4,1.1,0.7,2.1,1.2,3.2c1.8,4.2,4.4,8.7,3.4,14c-0.8,2.6-2.7,4.3-4.6,5.8
				c-1.9,1.4-4,2.6-6.2,3.5c2-1.3,3.9-2.7,5.5-4.3c1.7-1.6,3.2-3.4,3.7-5.4c0.1-0.5,0.2-1,0.1-1.5c-0.1-0.5-0.1-1.1-0.2-1.7
				c-0.2-1.1-0.5-2.2-0.9-3.3c-0.7-2.1-1.8-4.2-2.8-6.4c-1-2.2-1.7-4.6-2-7c-0.1-0.6-0.1-1.2-0.1-1.8c0-0.6,0-1.2,0-1.9
				c0.1-1.3,0.3-2.5,0.8-3.7c0.8-2.4,2.3-4.4,4.1-6C33.7,10.3,35.7,9,37.9,8.1z"/>
			<circle class="st2" cx="39.4" cy="7.6" r="2"/>
			<circle class="st2" cx="23" cy="54.6" r="2"/>
			<circle class="st2" cx="41" cy="11.2" r="1.5"/>
			<circle class="st2" cx="42.1" cy="15.1" r="1.5"/>
			<circle class="st2" cx="42.3" cy="19.1" r="1.5"/>
			<circle class="st2" cx="41.5" cy="22.6" r="1.5"/>
			<circle class="st2" cx="39.4" cy="25.8" r="1.5"/>
			<circle class="st2" cx="36.7" cy="28.8" r="1.5"/>
			<circle class="st2" cx="33.8" cy="31.1" r="1.5"/>
			<g>
				<path class="st2" d="M35.2,12.7c0.1,0,0.1,0,0.2,0l5.1-0.7c0.1,0,0.2-0.1,0.2-0.2c0.1-0.1,0.1-0.2,0.1-0.3L40.6,11
					c0-0.1-0.1-0.2-0.2-0.2c-0.1-0.1-0.2-0.1-0.3,0l-5,1.3c-0.2,0-0.3,0.2-0.3,0.4C35,12.6,35.1,12.7,35.2,12.7z"/>
				<path class="st2" d="M31.6,17.1c0.1,0,0.1,0,0.2,0l9.5-1.3c0.1,0,0.2-0.1,0.2-0.2c0.1-0.1,0.1-0.2,0.1-0.3l-0.1-0.6
					c0-0.2-0.2-0.3-0.4-0.3l-9.4,1.8c-0.2,0-0.3,0.2-0.3,0.4C31.4,16.9,31.5,17,31.6,17.1z"/>
				<path class="st2" d="M30.2,21.2c0.1,0,0.1,0,0.2,0l11.4-1.5c0.2,0,0.3-0.2,0.3-0.4c0-0.1-0.1-0.2-0.2-0.3
					c0.1-0.1,0.1-0.2,0.1-0.3c0-0.2-0.2-0.3-0.4-0.3l-11.2,2.1c-0.2,0-0.3,0.2-0.3,0.4C29.9,21.1,30,21.2,30.2,21.2z"/>
				<path class="st2" d="M40.5,22.9c0.1-0.1,0.1-0.2,0.1-0.3c0-0.2-0.2-0.3-0.4-0.3l-9.4,1.8c-0.2,0-0.3,0.2-0.3,0.4
					c0,0.1,0.1,0.2,0.2,0.3c0.1,0,0.1,0,0.2,0l9.5-1.3c0.2,0,0.3-0.2,0.3-0.4C40.7,23,40.6,22.9,40.5,22.9z"/>
				<path class="st2" d="M28.3,50l-6.9,0.2c-0.1,0-0.2,0.1-0.3,0.1c-0.1,0.1-0.1,0.2-0.1,0.3l0.1,0.6c0,0.1,0.1,0.2,0.2,0.3
					c0.1,0,0.1,0,0.2,0l6.7-0.9c0.2,0,0.3-0.2,0.3-0.4C28.6,50.2,28.5,50,28.3,50z"/>
				<path class="st2" d="M30.8,46.6l-10.2,0.1c-0.1,0-0.2,0.1-0.3,0.1c-0.1,0.1-0.1,0.2-0.1,0.3l0.2,0.8c0,0.1,0.1,0.2,0.2,0.3
					c0,0,0.1,0,0.1,0l10-0.9c0.2,0,0.3-0.2,0.3-0.4C31.2,46.8,31,46.6,30.8,46.6z"/>
				<path class="st2" d="M31.3,43.7c0-0.2-0.2-0.4-0.4-0.4L20.3,43c-0.2,0-0.4,0.1-0.4,0.4c0,0.2,0.1,0.3,0.3,0.4l0,0.2l-0.1,0
					c-0.2,0-0.4,0.2-0.3,0.4c0,0.2,0.1,0.3,0.2,0.3c0,0,0.1,0,0.1,0L31,44.1C31.2,44.1,31.3,43.9,31.3,43.7z"/>
				<path class="st2" d="M21.4,39.8c-0.1,0.1-0.1,0.1-0.1,0.2c0,0.2,0.1,0.3,0.2,0.4c0,0,0.1,0,0.1,0l8.2,0.6c0.2,0,0.4-0.1,0.4-0.3
					c0-0.2-0.1-0.4-0.3-0.4l-8.3-1.2c-0.2,0-0.4,0.1-0.4,0.3C21.2,39.6,21.3,39.8,21.4,39.8z"/>
			</g>
			<circle class="st2" cx="20.8" cy="51" r="1.5"/>
			<circle class="st2" cx="19.5" cy="47.6" r="1.5"/>
			<circle class="st2" cx="19.5" cy="43.6" r="1.5"/>
			<circle class="st2" cx="21.3" cy="39.9" r="1.5"/>
			<circle class="st2" cx="24" cy="37.4" r="1.5"/>
			<circle class="st2" cx="27.1" cy="35.3" r="1.5"/>
		</g>
		<g>
			<path class="st3" d="M36.6,7.3c-2,1.3-3.8,2.8-5.3,4.6c-1.5,1.7-2.7,3.7-3.3,5.8c-0.3,1.1-0.5,2.2-0.5,3.3c0,0.5,0,1.1,0.1,1.7
				c0,0.6,0.1,1.1,0.2,1.7c0.2,1.1,0.4,2.2,0.7,3.3c0.4,1.1,0.7,2.1,1.2,3.2c1.8,4.2,4.4,8.7,3.4,14c-0.8,2.6-2.7,4.3-4.6,5.8
				c-1.9,1.4-4,2.6-6.2,3.5c2-1.3,3.9-2.7,5.5-4.3c1.7-1.6,3.2-3.4,3.7-5.4c0.1-0.5,0.2-1,0.1-1.5c-0.1-0.5-0.1-1.1-0.2-1.7
				c-0.2-1.1-0.5-2.2-0.9-3.3c-0.7-2.1-1.8-4.2-2.8-6.4c-1-2.2-1.7-4.6-2-7c-0.1-0.6-0.1-1.2-0.1-1.8c0-0.6,0-1.2,0-1.9
				c0.1-1.3,0.3-2.5,0.8-3.7c0.8-2.4,2.3-4.4,4.1-6C32.4,9.6,34.4,8.3,36.6,7.3z"/>
			<g>
				<linearGradient id="SVGID_1_" gradientUnits="userSpaceOnUse" x1="40.9889" y1="1.0031" x2="13.6556" y2="56.003">
					<stop  offset="0" style="stop-color:#FF7C8F"/>
					<stop  offset="0.4723" style="stop-color:#FCD0EB"/>
					<stop  offset="1" style="stop-color:#4EB5FF"/>
				</linearGradient>
				<path class="st4" d="M37.5,8.7c1,0.4,2.1-0.2,2.5-1.2c0.4-1-0.2-2.1-1.2-2.5c-1-0.4-2.1,0.2-2.5,1.2C35.9,7.2,36.4,8.3,37.5,8.7
					z"/>
				<linearGradient id="SVGID_2_" gradientUnits="userSpaceOnUse" x1="46.6083" y1="3.7958" x2="19.275" y2="58.7957">
					<stop  offset="0" style="stop-color:#FF7C8F"/>
					<stop  offset="0.4723" style="stop-color:#FCD0EB"/>
					<stop  offset="1" style="stop-color:#4EB5FF"/>
				</linearGradient>
				<path class="st5" d="M22.3,52c-1-0.4-2.1,0.2-2.5,1.2c-0.4,1,0.2,2.1,1.2,2.5c1,0.4,2.1-0.2,2.5-1.2
					C23.9,53.5,23.4,52.4,22.3,52z"/>
				<linearGradient id="SVGID_3_" gradientUnits="userSpaceOnUse" x1="43.986" y1="2.4926" x2="16.6527" y2="57.4925">
					<stop  offset="0" style="stop-color:#FF7C8F"/>
					<stop  offset="0.4723" style="stop-color:#FCD0EB"/>
					<stop  offset="1" style="stop-color:#4EB5FF"/>
				</linearGradient>
				<path class="st6" d="M42.6,18.2c-0.1-0.8-0.9-1.5-1.7-1.4c-0.6,0.1-1.1,0.5-1.3,1l-10.7,2c-0.2,0-0.3,0.2-0.3,0.4
					c0,0.1,0.1,0.2,0.2,0.3c0.1,0,0.1,0,0.2,0l10.7-1.4c0.3,0.5,0.9,0.9,1.5,0.8C42,19.8,42.7,19,42.6,18.2z"/>
				<linearGradient id="SVGID_4_" gradientUnits="userSpaceOnUse" x1="45.2673" y1="3.1293" x2="17.934" y2="58.1292">
					<stop  offset="0" style="stop-color:#FF7C8F"/>
					<stop  offset="0.4723" style="stop-color:#FCD0EB"/>
					<stop  offset="1" style="stop-color:#4EB5FF"/>
				</linearGradient>
				<path class="st7" d="M40.7,20.4c-0.8-0.3-1.7,0.2-1.9,1c0,0.1,0,0.1,0,0.2l-9.2,1.8c-0.2,0-0.3,0.2-0.3,0.4
					c0,0.1,0.1,0.2,0.2,0.3c0.1,0,0.1,0,0.2,0l9.4-1.3c0.2,0.2,0.4,0.4,0.7,0.5c0.8,0.3,1.7-0.2,1.9-1
					C41.9,21.6,41.5,20.7,40.7,20.4z"/>
				<linearGradient id="SVGID_5_" gradientUnits="userSpaceOnUse" x1="48.2975" y1="4.6353" x2="20.9643" y2="59.6352">
					<stop  offset="0" style="stop-color:#FF7C8F"/>
					<stop  offset="0.4723" style="stop-color:#FCD0EB"/>
					<stop  offset="1" style="stop-color:#4EB5FF"/>
				</linearGradient>
				<path class="st8" d="M38.6,23.6c-0.8-0.3-1.7,0.2-1.9,1s0.2,1.7,1,1.9s1.7-0.2,1.9-1C39.9,24.7,39.4,23.9,38.6,23.6z"/>
				<linearGradient id="SVGID_6_" gradientUnits="userSpaceOnUse" x1="47.2792" y1="4.1292" x2="19.9459" y2="59.1291">
					<stop  offset="0" style="stop-color:#FF7C8F"/>
					<stop  offset="0.4723" style="stop-color:#FCD0EB"/>
					<stop  offset="1" style="stop-color:#4EB5FF"/>
				</linearGradient>
				<path class="st9" d="M35.9,26.6c-0.8-0.3-1.7,0.2-1.9,1s0.2,1.7,1,1.9c0.8,0.3,1.7-0.2,1.9-1S36.7,26.9,35.9,26.6z"/>
				<linearGradient id="SVGID_7_" gradientUnits="userSpaceOnUse" x1="45.8683" y1="3.428" x2="18.535" y2="58.4279">
					<stop  offset="0" style="stop-color:#FF7C8F"/>
					<stop  offset="0.4723" style="stop-color:#FCD0EB"/>
					<stop  offset="1" style="stop-color:#4EB5FF"/>
				</linearGradient>
				<path class="st10" d="M33,28.9c-0.8-0.3-1.7,0.2-1.9,1s0.2,1.7,1,1.9s1.7-0.2,1.9-1S33.8,29.1,33,28.9z"/>
				<linearGradient id="SVGID_8_" gradientUnits="userSpaceOnUse" x1="42.2172" y1="1.6135" x2="14.8839" y2="56.6134">
					<stop  offset="0" style="stop-color:#FF7C8F"/>
					<stop  offset="0.4723" style="stop-color:#FCD0EB"/>
					<stop  offset="1" style="stop-color:#4EB5FF"/>
				</linearGradient>
				<path class="st11" d="M33.9,12c0.1,0,0.1,0,0.2,0l4.5-0.6c0.2,0.2,0.4,0.4,0.7,0.5c0.8,0.3,1.7-0.2,1.9-1c0.3-0.8-0.2-1.7-1-1.9
					s-1.7,0.2-1.9,1c0,0.1,0,0.1,0,0.2l-4.3,1.1c-0.2,0-0.3,0.2-0.3,0.4C33.7,11.8,33.8,11.9,33.9,12z"/>
				<linearGradient id="SVGID_9_" gradientUnits="userSpaceOnUse" x1="42.8187" y1="1.9125" x2="15.4855" y2="56.9124">
					<stop  offset="0" style="stop-color:#FF7C8F"/>
					<stop  offset="0.4723" style="stop-color:#FCD0EB"/>
					<stop  offset="1" style="stop-color:#4EB5FF"/>
				</linearGradient>
				<path class="st12" d="M30.3,16.3c0.1,0,0.1,0,0.2,0l9.1-1.2c0.2,0.3,0.5,0.5,0.8,0.6c0.8,0.3,1.7-0.2,1.9-1s-0.2-1.7-1-1.9
					s-1.7,0.2-1.9,1c0,0,0,0,0,0l-9,1.8c-0.2,0-0.3,0.2-0.3,0.4C30.1,16.2,30.2,16.3,30.3,16.3z"/>
				<linearGradient id="SVGID_10_" gradientUnits="userSpaceOnUse" x1="45.7328" y1="3.3607" x2="18.3996" y2="58.3606">
					<stop  offset="0" style="stop-color:#FF7C8F"/>
					<stop  offset="0.4723" style="stop-color:#FCD0EB"/>
					<stop  offset="1" style="stop-color:#4EB5FF"/>
				</linearGradient>
				<path class="st13" d="M27,49.3l-6.2,0.2c-0.2-0.3-0.5-0.6-0.8-0.7c-0.8-0.3-1.7,0.2-1.9,1s0.2,1.7,1,1.9
					c0.8,0.3,1.6-0.1,1.9-0.9L27,50c0.2,0,0.3-0.2,0.3-0.4C27.3,49.4,27.2,49.3,27,49.3z"/>
				<linearGradient id="SVGID_11_" gradientUnits="userSpaceOnUse" x1="44.8501" y1="2.922" x2="17.5168" y2="57.9219">
					<stop  offset="0" style="stop-color:#FF7C8F"/>
					<stop  offset="0.4723" style="stop-color:#FCD0EB"/>
					<stop  offset="1" style="stop-color:#4EB5FF"/>
				</linearGradient>
				<path class="st14" d="M29.5,45.9l-10,0.1c-0.2-0.3-0.4-0.5-0.8-0.6c-0.8-0.3-1.7,0.2-1.9,1c-0.3,0.8,0.2,1.7,1,1.9
					c0.8,0.3,1.6-0.1,1.9-0.8l10-0.9c0.2,0,0.3-0.2,0.3-0.4S29.7,45.8,29.5,45.9z"/>
				<linearGradient id="SVGID_12_" gradientUnits="userSpaceOnUse" x1="43.5089" y1="2.2554" x2="16.1756" y2="57.2553">
					<stop  offset="0" style="stop-color:#FF7C8F"/>
					<stop  offset="0.4723" style="stop-color:#FCD0EB"/>
					<stop  offset="1" style="stop-color:#4EB5FF"/>
				</linearGradient>
				<path class="st15" d="M29.7,42.6l-10-0.4c-0.3-0.6-0.9-1-1.6-0.9c-0.8,0.1-1.5,0.9-1.4,1.7c0.1,0.8,0.9,1.5,1.7,1.4
					c0.4,0,0.8-0.3,1-0.6l10.2-0.5c0.2,0,0.3-0.2,0.3-0.4C30,42.8,29.9,42.6,29.7,42.6z"/>
				<linearGradient id="SVGID_13_" gradientUnits="userSpaceOnUse" x1="42.42" y1="1.7143" x2="15.0867" y2="56.7142">
					<stop  offset="0" style="stop-color:#FF7C8F"/>
					<stop  offset="0.4723" style="stop-color:#FCD0EB"/>
					<stop  offset="1" style="stop-color:#4EB5FF"/>
				</linearGradient>
				<path class="st16" d="M19.5,40.7c0.8,0.3,1.6-0.1,1.9-0.9l7.1,0.5c0.2,0,0.4-0.1,0.4-0.3s-0.1-0.4-0.3-0.4l-7.2-1
					c-0.2-0.4-0.5-0.7-0.9-0.8c-0.8-0.3-1.7,0.2-1.9,1S18.7,40.4,19.5,40.7z"/>
				<linearGradient id="SVGID_14_" gradientUnits="userSpaceOnUse" x1="40.541" y1="0.7805" x2="13.2077" y2="55.7804">
					<stop  offset="0" style="stop-color:#FF7C8F"/>
					<stop  offset="0.4723" style="stop-color:#FCD0EB"/>
					<stop  offset="1" style="stop-color:#4EB5FF"/>
				</linearGradient>
				<path class="st17" d="M22.2,38.2c0.8,0.3,1.7-0.2,1.9-1s-0.2-1.7-1-1.9s-1.7,0.2-1.9,1S21.4,37.9,22.2,38.2z"/>
				<linearGradient id="SVGID_15_" gradientUnits="userSpaceOnUse" x1="42.1904" y1="1.6002" x2="14.8572" y2="56.6001">
					<stop  offset="0" style="stop-color:#FF7C8F"/>
					<stop  offset="0.4723" style="stop-color:#FCD0EB"/>
					<stop  offset="1" style="stop-color:#4EB5FF"/>
				</linearGradient>
				<path class="st18" d="M25.3,36c0.8,0.3,1.7-0.2,1.9-1c0.3-0.8-0.2-1.7-1-1.9s-1.7,0.2-1.9,1S24.5,35.7,25.3,36z"/>
			</g>
		</g>
		<g>
			<path class="st2" d="M51.4,37.6c-1.2,0.2-2.3,0.6-3.3,1.1c-1,0.5-1.9,1.2-2.6,2.1c-0.3,0.4-0.6,0.9-0.9,1.4
				c-0.1,0.2-0.2,0.5-0.3,0.8c-0.1,0.3-0.2,0.5-0.2,0.8c-0.1,0.5-0.2,1.1-0.3,1.7c0,0.6-0.1,1.1,0,1.7c0,2.3,0.4,4.9-1.1,7.1
				c-0.9,1-2.1,1.5-3.2,1.8c-1.2,0.3-2.4,0.4-3.5,0.4c1.2-0.2,2.3-0.5,3.4-0.9c1.1-0.4,2.1-1,2.7-1.8c0.1-0.2,0.3-0.4,0.3-0.7
				c0.1-0.3,0.2-0.5,0.2-0.8c0.1-0.5,0.2-1.1,0.2-1.7c0.1-1.1,0-2.3-0.1-3.5c0-1.2,0.1-2.4,0.4-3.6c0.1-0.3,0.2-0.6,0.3-0.9
				c0.1-0.3,0.2-0.6,0.4-0.9c0.3-0.6,0.6-1.1,1.1-1.5c0.8-0.9,1.9-1.6,3-2C49,37.9,50.2,37.6,51.4,37.6z"/>
			<circle class="st2" cx="52.2" cy="37.7" r="1"/>
			<circle class="st2" cx="35.6" cy="56.2" r="1"/>
			<circle class="st2" cx="52.3" cy="39.7" r="0.8"/>
			<circle class="st2" cx="52" cy="41.6" r="0.8"/>
			<circle class="st2" cx="51.4" cy="43.5" r="0.8"/>
			<circle class="st2" cx="50.3" cy="45" r="0.8"/>
			<circle class="st2" cx="48.7" cy="46.1" r="0.8"/>
			<circle class="st2" cx="46.9" cy="46.9" r="0.8"/>
			<circle class="st2" cx="45.1" cy="47.4" r="0.8"/>
			<g>
				<path class="st2" d="M49.3,39.2C49.3,39.3,49.3,39.3,49.3,39.2l2.5,0.7c0,0,0.1,0,0.1,0c0,0,0.1-0.1,0.1-0.1l0.1-0.3
					c0,0,0-0.1,0-0.1c0,0-0.1-0.1-0.1-0.1l-2.5-0.4c-0.1,0-0.2,0-0.2,0.1C49.2,39.1,49.2,39.2,49.3,39.2z"/>
				<path class="st2" d="M46.8,40.5C46.8,40.6,46.8,40.6,46.8,40.5l4.7,1.3c0,0,0.1,0,0.1,0c0,0,0.1-0.1,0.1-0.1l0.1-0.3
					c0-0.1,0-0.2-0.1-0.2l-4.7-1c-0.1,0-0.2,0-0.2,0.1C46.7,40.4,46.7,40.5,46.8,40.5z"/>
				<path class="st2" d="M45.3,42.2C45.3,42.2,45.4,42.2,45.3,42.2l5.6,1.5c0.1,0,0.2,0,0.2-0.1c0-0.1,0-0.1,0-0.2
					c0,0,0.1-0.1,0.1-0.1c0-0.1,0-0.2-0.1-0.2l-5.6-1.2c-0.1,0-0.2,0-0.2,0.1C45.2,42.1,45.3,42.2,45.3,42.2z"/>
				<path class="st2" d="M49.8,44.9c0,0,0.1-0.1,0.1-0.1c0-0.1,0-0.2-0.1-0.2l-4.7-1c-0.1,0-0.2,0-0.2,0.1c0,0.1,0,0.1,0.1,0.2
					c0,0,0,0,0.1,0l4.6,1.2c0.1,0,0.2,0,0.2-0.1C49.8,45,49.8,45,49.8,44.9z"/>
				<path class="st2" d="M38.9,55.1l-3.2-1.2c-0.1,0-0.1,0-0.2,0c0,0-0.1,0.1-0.1,0.1l-0.1,0.3c0,0.1,0,0.1,0.1,0.2c0,0,0,0,0.1,0
					l3.3,0.9c0.1,0,0.2,0,0.2-0.1C39.1,55.3,39,55.2,38.9,55.1z"/>
				<path class="st2" d="M40.7,54L36,52.1c-0.1,0-0.1,0-0.2,0s-0.1,0.1-0.1,0.1l-0.1,0.4c0,0.1,0,0.1,0.1,0.2c0,0,0,0,0.1,0l4.8,1.5
					c0.1,0,0.2,0,0.2-0.1C40.9,54.2,40.8,54.1,40.7,54z"/>
				<path class="st2" d="M41.5,52.8c0-0.1,0-0.2-0.1-0.2l-4.9-2.2c-0.1,0-0.2,0-0.2,0.1c0,0.1,0,0.2,0.1,0.2l-0.1,0.1l0,0
					c-0.1,0-0.2,0-0.2,0.1c0,0.1,0,0.2,0.1,0.2c0,0,0,0,0.1,0l5.1,1.9C41.4,52.9,41.5,52.9,41.5,52.8z"/>
				<path class="st2" d="M37.7,49.1C37.7,49.1,37.6,49.1,37.7,49.1c-0.1,0.2-0.1,0.2,0,0.3c0,0,0,0,0,0l3.7,1.8c0.1,0,0.2,0,0.2-0.1
					c0-0.1,0-0.2-0.1-0.2l-3.6-2.1c-0.1-0.1-0.2,0-0.2,0.1C37.6,49,37.7,49,37.7,49.1z"/>
			</g>
			<circle class="st2" cx="35.3" cy="54.1" r="0.8"/>
			<circle class="st2" cx="35.3" cy="52.3" r="0.8"/>
			<circle class="st2" cx="36.1" cy="50.5" r="0.8"/>
			<circle class="st2" cx="37.6" cy="49.1" r="0.8"/>
			<circle class="st2" cx="39.4" cy="48.5" r="0.8"/>
			<circle class="st2" cx="41.2" cy="48.1" r="0.8"/>
		</g>
		<g>
			<path class="st19" d="M50.7,36.8c-1.2,0.2-2.3,0.6-3.3,1.1c-1,0.5-1.9,1.2-2.6,2.1c-0.3,0.4-0.6,0.9-0.9,1.4
				c-0.1,0.2-0.2,0.5-0.3,0.8c-0.1,0.3-0.2,0.5-0.2,0.8c-0.1,0.5-0.2,1.1-0.3,1.7c0,0.6-0.1,1.1,0,1.7c0,2.3,0.4,4.9-1.1,7.1
				c-0.9,1-2.1,1.5-3.2,1.8c-1.2,0.3-2.4,0.4-3.5,0.4c1.2-0.2,2.3-0.5,3.4-0.9c1.1-0.4,2.1-1,2.7-1.8c0.1-0.2,0.3-0.4,0.3-0.7
				c0.1-0.3,0.2-0.5,0.2-0.8c0.1-0.5,0.2-1.1,0.2-1.7c0.1-1.1,0-2.3-0.1-3.5c0-1.2,0.1-2.4,0.4-3.6c0.1-0.3,0.2-0.6,0.3-0.9
				c0.1-0.3,0.2-0.6,0.4-0.9c0.3-0.6,0.6-1.1,1.1-1.5c0.8-0.9,1.9-1.6,3-2C48.3,37.1,49.5,36.8,50.7,36.8z"/>
			<circle class="st19" cx="51.5" cy="36.9" r="1"/>
			<circle class="st19" cx="34.9" cy="55.5" r="1"/>
			<circle class="st19" cx="51.6" cy="38.9" r="0.8"/>
			<circle class="st19" cx="51.3" cy="40.9" r="0.8"/>
			<circle class="st19" cx="50.6" cy="42.8" r="0.8"/>
			<circle class="st19" cx="49.6" cy="44.2" r="0.8"/>
			<circle class="st19" cx="48" cy="45.3" r="0.8"/>
			<circle class="st19" cx="46.2" cy="46.2" r="0.8"/>
			<circle class="st19" cx="44.4" cy="46.7" r="0.8"/>
			<g>
				<path class="st19" d="M48.6,38.5C48.6,38.5,48.6,38.5,48.6,38.5l2.5,0.7c0,0,0.1,0,0.1,0c0,0,0.1-0.1,0.1-0.1l0.1-0.3
					c0,0,0-0.1,0-0.1c0,0-0.1-0.1-0.1-0.1l-2.5-0.4c-0.1,0-0.2,0-0.2,0.1C48.5,38.4,48.5,38.4,48.6,38.5z"/>
				<path class="st19" d="M46.1,39.8C46.1,39.8,46.1,39.8,46.1,39.8l4.7,1.3c0,0,0.1,0,0.1,0c0,0,0.1-0.1,0.1-0.1l0.1-0.3
					c0-0.1,0-0.2-0.1-0.2l-4.7-1c-0.1,0-0.2,0-0.2,0.1C46,39.7,46,39.7,46.1,39.8z"/>
				<path class="st19" d="M44.6,41.4C44.6,41.4,44.7,41.5,44.6,41.4l5.6,1.5c0.1,0,0.2,0,0.2-0.1c0-0.1,0-0.1,0-0.2
					c0,0,0.1-0.1,0.1-0.1c0-0.1,0-0.2-0.1-0.2l-5.6-1.2c-0.1,0-0.2,0-0.2,0.1C44.5,41.3,44.6,41.4,44.6,41.4z"/>
				<path class="st19" d="M49.1,44.2c0,0,0.1-0.1,0.1-0.1c0-0.1,0-0.2-0.1-0.2l-4.7-1c-0.1,0-0.2,0-0.2,0.1c0,0.1,0,0.1,0.1,0.2
					c0,0,0,0,0.1,0l4.6,1.2c0.1,0,0.2,0,0.2-0.1C49.1,44.3,49.1,44.2,49.1,44.2z"/>
				<path class="st19" d="M38.2,54.3L35,53.1c-0.1,0-0.1,0-0.2,0c0,0-0.1,0.1-0.1,0.1l-0.1,0.3c0,0.1,0,0.1,0.1,0.2c0,0,0,0,0.1,0
					l3.3,0.9c0.1,0,0.2,0,0.2-0.1C38.4,54.5,38.3,54.4,38.2,54.3z"/>
				<path class="st19" d="M40,53.2l-4.7-1.9c-0.1,0-0.1,0-0.2,0s-0.1,0.1-0.1,0.1L35,51.9c0,0.1,0,0.1,0.1,0.2c0,0,0,0,0.1,0
					l4.8,1.5c0.1,0,0.2,0,0.2-0.1C40.2,53.4,40.1,53.3,40,53.2z"/>
				<path class="st19" d="M40.8,52c0-0.1,0-0.2-0.1-0.2l-4.9-2.2c-0.1,0-0.2,0-0.2,0.1c0,0.1,0,0.2,0.1,0.2l-0.1,0.1l0,0
					c-0.1,0-0.2,0-0.2,0.1c0,0.1,0,0.2,0.1,0.2c0,0,0,0,0.1,0l5.1,1.9C40.7,52.2,40.8,52.1,40.8,52z"/>
				<path class="st19" d="M37,48.3C37,48.3,36.9,48.4,37,48.3c-0.1,0.2-0.1,0.2,0,0.3c0,0,0,0,0,0l3.7,1.8c0.1,0,0.2,0,0.2-0.1
					c0-0.1,0-0.2-0.1-0.2L37.2,48C37.1,48,37,48,37,48.1C36.9,48.2,37,48.3,37,48.3z"/>
			</g>
			<circle class="st19" cx="34.6" cy="53.4" r="0.8"/>
			<circle class="st19" cx="34.6" cy="51.5" r="0.8"/>
			<circle class="st19" cx="35.4" cy="49.7" r="0.8"/>
			<circle class="st19" cx="36.9" cy="48.4" r="0.8"/>
			<circle class="st19" cx="38.7" cy="47.7" r="0.8"/>
			<circle class="st19" cx="40.5" cy="47.3" r="0.8"/>
		</g>
	</g>
</g>
</svg>
