<?xml version="1.0" encoding="utf-8"?>
<!-- Generator: Adobe Illustrator 25.2.3, SVG Export Plug-In . SVG Version: 6.00 Build 0)  -->
<svg version="1.1" id="圖層_1" xmlns="http://www.w3.org/2000/svg" xmlns:xlink="http://www.w3.org/1999/xlink" x="0px" y="0px"
	 viewBox="0 0 66.3 66.3" style="enable-background:new 0 0 66.3 66.3;" xml:space="preserve">
<style type="text/css">
	.st0{fill:#A985DD;}
	.st1{fill:#9263D3;}
	.st2{fill:#5F428A;stroke:#5F428A;stroke-width:0.5;stroke-miterlimit:10;}
	.st3{fill:#60ADF4;}
	.st4{fill:#C0E1F2;}
	.st5{fill:#F2C611;}
	.st6{fill:#E27A24;}
	.st7{fill:#E0E0E0;}
	.st8{fill:#FFFFFF;}
	.st9{fill:#E0B027;}
	.st10{fill:#4469D3;}
	.st11{fill:#BFEFEE;}
	.st12{fill:#42C0C6;}
	.st13{fill:#97CC6E;}
	.st14{fill:#DDBFEF;}
</style>
<g>
	<circle class="st0" cx="33.1" cy="33.1" r="33.1"/>
	<path class="st1" d="M9.7,56.6c0.1,0.1,0.2,0.3,0.4,0.4C23.3,69.7,44.2,69.3,57,56.1c12.4-12.8,12.4-33.2,0-46l-0.4-0.4L9.7,56.6z"
		/>
	<g>
		<g>
			<path class="st2" d="M53.4,34.5H43.4l-5-8.7l5-8.7h10.1l5,8.7L53.4,34.5z M43.9,33.5h8.9l4.5-7.7L52.9,18h-8.9l-4.5,7.7
				L43.9,33.5z"/>
			<path class="st2" d="M53.4,50.9H43.4l-5-8.7l5-8.7h10.1l5,8.7L53.4,50.9z M43.9,49.9h8.9l4.5-7.7l-4.5-7.7h-8.9l-4.5,7.7
				L43.9,49.9z"/>
			<path class="st2" d="M39.2,26.2H29.1l-5-8.7l5-8.7h10.1l5,8.7L39.2,26.2z M29.7,25.2h8.9l4.5-7.7l-4.5-7.7h-8.9l-4.5,7.7
				L29.7,25.2z"/>
			<path class="st2" d="M24.9,34.5H14.9l-5-8.7l5-8.7h10.1l5,8.7L24.9,34.5z M15.4,33.5h8.9l4.5-7.7L24.4,18h-8.9L11,25.7L15.4,33.5
				z"/>
			<path class="st2" d="M39.2,59.1H29.1l-5-8.7l5-8.7h10.1l5,8.7L39.2,59.1z M29.7,58.1h8.9l4.5-7.7l-4.5-7.7h-8.9l-4.5,7.7
				L29.7,58.1z"/>
			<path class="st2" d="M24.9,50.9H14.9l-5-8.7l5-8.7h10.1l5,8.7L24.9,50.9z M15.4,49.9h8.9l4.5-7.7l-4.5-7.7h-8.9L11,42.2
				L15.4,49.9z"/>
			<path class="st2" d="M39.2,42.7H29.1l-5-8.7l5-8.7h10.1l5,8.7L39.2,42.7z M29.7,41.7h8.9l4.5-7.7l-4.5-7.7h-8.9L25.2,34
				L29.7,41.7z"/>
			<circle class="st2" cx="24.7" cy="34" r="1.2"/>
			<circle class="st2" cx="29.4" cy="25.7" r="1.6"/>
			<circle class="st2" cx="43.5" cy="34" r="1.6"/>
			<circle class="st2" cx="38.9" cy="25.7" r="1.2"/>
			<circle class="st2" cx="29.5" cy="41.8" r="1.3"/>
			<circle class="st2" cx="39.1" cy="42.2" r="1.3"/>
			<circle class="st2" cx="15.1" cy="34" r="1.2"/>
			<circle class="st2" cx="24.7" cy="50.4" r="1.2"/>
			<circle class="st2" cx="24.7" cy="17.3" r="1.6"/>
			<circle class="st2" cx="53.1" cy="33.8" r="1.6"/>
			<circle class="st2" cx="43.7" cy="50.2" r="1.6"/>
			<circle class="st2" cx="43.8" cy="17.3" r="1.2"/>
			<g>
				<path class="st2" d="M33.6,40.3v-1.5c-0.9,0-1.8-0.3-2.3-0.7l0.4-1c0.5,0.4,1.3,0.6,2.1,0.6c1.1,0,1.8-0.6,1.8-1.5
					c0-0.8-0.6-1.3-1.7-1.8c-1.5-0.6-2.5-1.3-2.5-2.6c0-1.2,0.9-2.2,2.3-2.4v-1.5h0.9v1.4c0.9,0,1.5,0.3,1.9,0.5l-0.4,1
					c-0.3-0.2-0.9-0.5-1.9-0.5c-1.1,0-1.6,0.7-1.6,1.3c0,0.8,0.6,1.2,1.8,1.7c1.5,0.6,2.3,1.4,2.3,2.7c0,1.2-0.8,2.3-2.4,2.5v1.5
					H33.6z"/>
			</g>
			<g>
				<g>
					<rect x="15.1" y="27" class="st2" width="2.3" height="2.8"/>
				</g>
				<g>
					<rect x="18.3" y="23.8" class="st2" width="2.3" height="6"/>
				</g>
				<g>
					<rect x="21.5" y="21.6" class="st2" width="2.3" height="8.2"/>
				</g>
			</g>
		</g>
		<g>
			<g>
				<g>
					<path class="st2" d="M50.3,27.6c0.1-0.3,0.1-0.6,0.1-1l0.8-0.5l-0.3-0.9l-0.9,0.1c0,0,0,0,0-0.1c-0.2-0.3-0.4-0.5-0.6-0.7
						l0.3-0.9l-0.8-0.4L48.1,24c-0.3-0.1-0.7-0.1-1-0.1l-0.5-0.8l-0.8,0.3l0.1,0.9c0,0,0,0-0.1,0c-0.3,0.2-0.5,0.4-0.7,0.6l-0.9-0.2
						l-0.4,0.8l0.7,0.5c-0.1,0.3-0.1,0.7-0.1,1l-0.8,0.6l0.3,0.9l0.9-0.1c0,0,0,0,0,0c0.2,0.3,0.4,0.5,0.6,0.7l-0.2,1l0.8,0.4
						l0.5-0.8c0.3,0.1,0.7,0.1,1,0.1l0.5,0.8l0.8-0.3L49,29.5c0,0,0,0,0,0c0.3-0.2,0.5-0.4,0.7-0.7l0.9,0.2l0.4-0.8L50.3,27.6z
						 M48.5,28.7c-0.9,0.6-2.2,0.3-2.8-0.7c-0.6-1-0.3-2.3,0.6-2.9c0.9-0.6,2.2-0.3,2.8,0.7C49.7,26.8,49.5,28.1,48.5,28.7z"/>
				</g>
			</g>
		</g>
		<g>
			<g>
				<g>
					<path class="st2" d="M53.1,24.3c0.1-0.1,0.2-0.3,0.3-0.5l0.6-0.1l0.1-0.5L53.5,23c0,0,0,0,0,0c0-0.2-0.1-0.4-0.1-0.5l0.4-0.4
						l-0.3-0.4l-0.5,0.2c-0.1-0.1-0.3-0.2-0.5-0.3l0-0.5l-0.5-0.1l-0.2,0.5c0,0,0,0,0,0c-0.2,0-0.4,0.1-0.5,0.2l-0.4-0.3l-0.4,0.4
						l0.2,0.5c-0.1,0.2-0.2,0.3-0.3,0.5l-0.6,0.1l-0.1,0.5l0.5,0.2c0,0,0,0,0,0c0,0.2,0.1,0.4,0.1,0.5l-0.4,0.5l0.3,0.4l0.5-0.3
						c0.2,0.1,0.3,0.2,0.5,0.3l0.1,0.6l0.5,0l0.2-0.5c0,0,0,0,0,0c0.2,0,0.4-0.1,0.6-0.2l0.4,0.4l0.4-0.3L53.1,24.3z M51.9,24.4
						c-0.7,0.1-1.2-0.4-1.3-1.1c-0.1-0.7,0.4-1.3,1.1-1.4c0.7-0.1,1.2,0.4,1.3,1.1C53.1,23.7,52.6,24.3,51.9,24.4z"/>
				</g>
			</g>
		</g>
		<g>
			<g>
				<g>
					<g>
						<path class="st2" d="M45,45.8c-0.1,0-0.1-0.1-0.1-0.1v-5.2c0-0.1,0.1-0.1,0.1-0.1c0.1,0,0.1,0.1,0.1,0.1v5.2
							C45.2,45.8,45.1,45.8,45,45.8z"/>
					</g>
					<g>
						<polygon class="st2" points="45.5,40.9 44.6,40.6 44.6,44.7 45.5,45.1 						"/>
					</g>
				</g>
				<g>
					<g>
						<path class="st2" d="M50.3,43.5c-0.1,0-0.1-0.1-0.1-0.1v-5.2c0-0.1,0.1-0.1,0.1-0.1s0.1,0.1,0.1,0.1v5.2
							C50.5,43.5,50.4,43.5,50.3,43.5z"/>
					</g>
					<g>
						<rect x="49.9" y="38.6" class="st2" width="0.9" height="4.2"/>
					</g>
				</g>
				<g>
					<g>
						<path class="st2" d="M46.3,47.1c-0.1,0-0.1-0.1-0.1-0.1v-3.2c0-0.1,0.1-0.1,0.1-0.1c0.1,0,0.1,0.1,0.1,0.1V47
							C46.4,47,46.3,47.1,46.3,47.1z"/>
					</g>
					<g>
						<rect x="45.8" y="44.1" class="st2" width="0.9" height="2.3"/>
					</g>
				</g>
				<g>
					<g>
						<path class="st2" d="M51.8,45.5c-0.1,0-0.1-0.1-0.1-0.1v-3.2c0-0.1,0.1-0.1,0.1-0.1c0.1,0,0.1,0.1,0.1,0.1v3.2
							C51.9,45.4,51.9,45.5,51.8,45.5z"/>
					</g>
					<g>
						<rect x="51.4" y="42.5" class="st2" width="0.9" height="2.3"/>
					</g>
				</g>
				<g>
					<g>
						<path class="st2" d="M47.6,45.2c-0.1,0-0.1-0.1-0.1-0.1v-1.8c0-0.1,0.1-0.1,0.1-0.1c0.1,0,0.1,0.1,0.1,0.1v1.8
							C47.7,45.2,47.6,45.2,47.6,45.2z"/>
					</g>
					<g>
						<rect x="47.2" y="43.5" class="st2" width="0.8" height="1.3"/>
					</g>
				</g>
				<g>
					<g>
						<path class="st2" d="M48.9,44.5c-0.1,0-0.1-0.1-0.1-0.1v-3.3c0-0.1,0.1-0.1,0.1-0.1c0.1,0,0.1,0.1,0.1,0.1v3.3
							C49,44.5,49,44.5,48.9,44.5z"/>
					</g>
					<g>
						<rect x="48.5" y="41.2" class="st2" width="0.8" height="2.3"/>
					</g>
				</g>
			</g>
		</g>
		<g>
			<path class="st2" d="M34.5,18.9l2.8,0.9c-0.3,0.5-0.7,1-1.1,1.4L34.5,18.9z"/>
			<path class="st2" d="M33.8,17.9v-4.8c0.5,0,0.9,0.1,1.4,0.2c1.2,0.4,2.3,1.3,2.8,2.4c0.6,1.1,0.7,2.4,0.3,3.6L33.8,17.9z"/>
			<path class="st2" d="M33.7,22c-1.1,0-2.1-0.4-2.8-1.2c-1.6-1.6-1.6-4.1,0-5.7c0.6-0.6,1.4-1,2.2-1.1v4.2l0.2,0.3l2.2,3.1
				C35,21.8,34.3,22,33.7,22L33.7,22z"/>
		</g>
		<g>
			<g>
				<path class="st2" d="M24.4,45.8h-9c-0.3,0-0.5-0.2-0.5-0.5V40c0-0.3,0.2-0.5,0.5-0.5h9c0.3,0,0.5,0.2,0.5,0.5v5.4
					C24.9,45.6,24.7,45.8,24.4,45.8z"/>
				<rect x="14.9" y="40.5" class="st2" width="10" height="0.8"/>
			</g>
			<path class="st2" d="M17.2,43.5h-1.5c-0.1,0-0.2-0.1-0.2-0.2v-1c0-0.1,0.1-0.2,0.2-0.2h1.5c0.1,0,0.2,0.1,0.2,0.2v1
				C17.4,43.4,17.4,43.5,17.2,43.5z"/>
		</g>
		<g>
			<polygon class="st2" points="33.8,48.5 28.4,48.5 31.1,47.1 33.8,45.7 36.5,47.1 39.1,48.5 			"/>
			<g>
				<rect x="30.4" y="49.4" class="st2" width="1.4" height="4.2"/>
				<rect x="35.8" y="49.4" class="st2" width="1.4" height="4.2"/>
				<rect x="33.1" y="49.4" class="st2" width="1.4" height="4.2"/>
			</g>
			<rect x="29.3" y="54.2" class="st2" width="8.8" height="1.3"/>
		</g>
	</g>
	<g>
		<g>
			<path class="st3" d="M52.7,33.6H42.7l-5-8.7l5-8.7h10.1l5,8.7L52.7,33.6z M43.2,32.6h8.9l4.5-7.7l-4.5-7.7h-8.9l-4.5,7.7
				L43.2,32.6z"/>
			<path class="st4" d="M52.7,50.1H42.7l-5-8.7l5-8.7h10.1l5,8.7L52.7,50.1z M43.2,49.1h8.9l4.5-7.7l-4.5-7.7h-8.9l-4.5,7.7
				L43.2,49.1z"/>
			<path class="st3" d="M38.5,25.4H28.4l-5-8.7l5-8.7h10.1l5,8.7L38.5,25.4z M29,24.4h8.9l4.5-7.7L37.9,9H29l-4.5,7.7L29,24.4z"/>
			<path class="st4" d="M24.2,33.6H14.2l-5-8.7l5-8.7h10.1l5,8.7L24.2,33.6z M14.7,32.6h8.9l4.5-7.7l-4.5-7.7h-8.9l-4.5,7.7
				L14.7,32.6z"/>
			<path class="st3" d="M38.5,58.3H28.4l-5-8.7l5-8.7h10.1l5,8.7L38.5,58.3z M29,57.3h8.9l4.5-7.7l-4.5-7.7H29l-4.5,7.7L29,57.3z"/>
			<path class="st3" d="M24.2,50.1H14.2l-5-8.7l5-8.7h10.1l5,8.7L24.2,50.1z M14.7,49.1h8.9l4.5-7.7l-4.5-7.7h-8.9l-4.5,7.7
				L14.7,49.1z"/>
			<path class="st4" d="M38.5,41.9H28.4l-5-8.7l5-8.7h10.1l5,8.7L38.5,41.9z M29,40.9h8.9l4.5-7.7l-4.5-7.7H29l-4.5,7.7L29,40.9z"/>
			<circle class="st4" cx="24" cy="33.1" r="1.2"/>
			<circle class="st4" cx="28.7" cy="24.9" r="1.6"/>
			<circle class="st4" cx="42.8" cy="33.1" r="1.6"/>
			<circle class="st3" cx="38.2" cy="24.9" r="1.2"/>
			<circle class="st3" cx="28.8" cy="41" r="1.3"/>
			<circle class="st3" cx="38.4" cy="41.4" r="1.3"/>
			<circle class="st3" cx="14.4" cy="33.1" r="1.2"/>
			<circle class="st3" cx="24" cy="49.6" r="1.2"/>
			<circle class="st4" cx="24" cy="16.5" r="1.6"/>
			<circle class="st4" cx="52.4" cy="33" r="1.6"/>
			<circle class="st4" cx="43" cy="49.4" r="1.6"/>
			<circle class="st3" cx="43.1" cy="16.5" r="1.2"/>
			<g>
				<path class="st5" d="M33,39.5V38c-0.9,0-1.8-0.3-2.3-0.7l0.4-1c0.5,0.4,1.3,0.6,2.1,0.6c1.1,0,1.8-0.6,1.8-1.5
					c0-0.8-0.6-1.3-1.7-1.8c-1.5-0.6-2.5-1.3-2.5-2.6c0-1.2,0.9-2.2,2.3-2.4v-1.5H34v1.4c0.9,0,1.5,0.3,1.9,0.5l-0.4,1
					c-0.3-0.2-0.9-0.5-1.9-0.5c-1.1,0-1.6,0.7-1.6,1.3c0,0.8,0.6,1.2,1.8,1.7c1.5,0.6,2.3,1.4,2.3,2.7c0,1.2-0.8,2.3-2.4,2.5v1.5H33
					z"/>
			</g>
			<g>
				<g>
					<rect x="14.4" y="26.2" class="st6" width="2.3" height="2.8"/>
				</g>
				<g>
					<rect x="17.6" y="23" class="st6" width="2.3" height="6"/>
				</g>
				<g>
					<rect x="20.8" y="20.8" class="st6" width="2.3" height="8.2"/>
				</g>
			</g>
		</g>
		<g>
			<g>
				<g>
					<path class="st7" d="M49.6,26.8c0.1-0.3,0.1-0.6,0.1-1l0.8-0.5l-0.3-0.9l-0.9,0.1c0,0,0,0,0-0.1c-0.2-0.3-0.4-0.5-0.6-0.7
						l0.3-0.9L48,22.5l-0.6,0.8c-0.3-0.1-0.7-0.1-1-0.1L46,22.4l-0.8,0.3l0.1,0.9c0,0,0,0-0.1,0c-0.3,0.2-0.5,0.4-0.7,0.6l-0.9-0.2
						l-0.4,0.8l0.7,0.5c-0.1,0.3-0.1,0.7-0.1,1L43,27l0.3,0.9l0.9-0.1c0,0,0,0,0,0c0.2,0.3,0.4,0.5,0.6,0.7l-0.2,1l0.8,0.4l0.5-0.8
						c0.3,0.1,0.7,0.1,1,0.1l0.5,0.8l0.8-0.3l-0.1-0.9c0,0,0,0,0,0c0.3-0.2,0.5-0.4,0.7-0.7l0.9,0.2l0.4-0.8L49.6,26.8z M47.8,27.9
						c-0.9,0.6-2.2,0.3-2.8-0.7c-0.6-1-0.3-2.3,0.6-2.9c0.9-0.6,2.2-0.3,2.8,0.7C49,26,48.8,27.3,47.8,27.9z"/>
				</g>
			</g>
		</g>
		<g>
			<g>
				<g>
					<path class="st7" d="M52.4,23.5c0.1-0.1,0.2-0.3,0.3-0.5l0.6-0.1l0.1-0.5l-0.5-0.2c0,0,0,0,0,0c0-0.2-0.1-0.4-0.1-0.5l0.4-0.4
						l-0.3-0.4L52.2,21c-0.1-0.1-0.3-0.2-0.5-0.3l0-0.5l-0.5-0.1L51,20.6c0,0,0,0,0,0c-0.2,0-0.4,0.1-0.5,0.2L50,20.4l-0.4,0.4
						l0.2,0.5c-0.1,0.2-0.2,0.3-0.3,0.5l-0.6,0.1l-0.1,0.5l0.5,0.2c0,0,0,0,0,0c0,0.2,0.1,0.4,0.1,0.5l-0.4,0.5l0.3,0.4l0.5-0.3
						c0.2,0.1,0.3,0.2,0.5,0.3l0.1,0.6l0.5,0l0.2-0.5c0,0,0,0,0,0c0.2,0,0.4-0.1,0.6-0.2l0.4,0.4l0.4-0.3L52.4,23.5z M51.2,23.6
						c-0.7,0.1-1.2-0.4-1.3-1.1c-0.1-0.7,0.4-1.3,1.1-1.4c0.7-0.1,1.2,0.4,1.3,1.1C52.4,22.9,51.9,23.5,51.2,23.6z"/>
				</g>
			</g>
		</g>
		<g>
			<g>
				<g>
					<g>
						<path class="st8" d="M44.3,45c-0.1,0-0.1-0.1-0.1-0.1v-5.2c0-0.1,0.1-0.1,0.1-0.1c0.1,0,0.1,0.1,0.1,0.1v5.2
							C44.5,45,44.4,45,44.3,45z"/>
					</g>
					<g>
						<polygon class="st9" points="44.8,40.1 43.9,39.8 43.9,43.9 44.8,44.3 						"/>
					</g>
				</g>
				<g>
					<g>
						<path class="st8" d="M49.6,42.7c-0.1,0-0.1-0.1-0.1-0.1v-5.2c0-0.1,0.1-0.1,0.1-0.1c0.1,0,0.1,0.1,0.1,0.1v5.2
							C49.8,42.6,49.7,42.7,49.6,42.7z"/>
					</g>
					<g>
						<rect x="49.2" y="37.8" class="st9" width="0.9" height="4.2"/>
					</g>
				</g>
				<g>
					<g>
						<path class="st8" d="M45.6,46.3c-0.1,0-0.1-0.1-0.1-0.1v-3.2c0-0.1,0.1-0.1,0.1-0.1c0.1,0,0.1,0.1,0.1,0.1v3.2
							C45.7,46.2,45.6,46.3,45.6,46.3z"/>
					</g>
					<g>
						<rect x="45.1" y="43.3" class="st10" width="0.9" height="2.3"/>
					</g>
				</g>
				<g>
					<g>
						<path class="st8" d="M51.1,44.7c-0.1,0-0.1-0.1-0.1-0.1v-3.2c0-0.1,0.1-0.1,0.1-0.1s0.1,0.1,0.1,0.1v3.2
							C51.2,44.6,51.2,44.7,51.1,44.7z"/>
					</g>
					<g>
						<rect x="50.7" y="41.7" class="st10" width="0.9" height="2.3"/>
					</g>
				</g>
				<g>
					<g>
						<path class="st8" d="M46.9,44.4c-0.1,0-0.1-0.1-0.1-0.1v-1.8c0-0.1,0.1-0.1,0.1-0.1c0.1,0,0.1,0.1,0.1,0.1v1.8
							C47,44.3,47,44.4,46.9,44.4z"/>
					</g>
					<g>
						<rect x="46.5" y="42.7" class="st9" width="0.8" height="1.3"/>
					</g>
				</g>
				<g>
					<g>
						<path class="st8" d="M48.2,43.7c-0.1,0-0.1-0.1-0.1-0.1v-3.3c0-0.1,0.1-0.1,0.1-0.1s0.1,0.1,0.1,0.1v3.3
							C48.3,43.6,48.3,43.7,48.2,43.7z"/>
					</g>
					<g>
						<rect x="47.8" y="40.4" class="st10" width="0.8" height="2.3"/>
					</g>
				</g>
			</g>
		</g>
		<g>
			<path class="st11" d="M33.8,18l2.8,0.9c-0.3,0.5-0.7,1-1.1,1.4L33.8,18z"/>
			<path class="st11" d="M33.1,17.1v-4.8c0.5,0,0.9,0.1,1.4,0.2c1.2,0.4,2.3,1.3,2.8,2.4c0.6,1.1,0.7,2.4,0.3,3.6L33.1,17.1z"/>
			<path class="st12" d="M33,21.1c-1.1,0-2.1-0.4-2.8-1.2c-1.6-1.6-1.6-4.1,0-5.7c0.6-0.6,1.4-1,2.2-1.1v4.2l0.2,0.3l2.2,3.1
				C34.3,21,33.6,21.1,33,21.1L33,21.1z"/>
		</g>
		<g>
			<g>
				<path class="st13" d="M23.7,45h-9c-0.3,0-0.5-0.2-0.5-0.5v-5.4c0-0.3,0.2-0.5,0.5-0.5h9c0.3,0,0.5,0.2,0.5,0.5v5.4
					C24.2,44.8,24,45,23.7,45z"/>
				<rect x="14.2" y="39.6" class="st8" width="10" height="0.8"/>
			</g>
			<path class="st8" d="M16.5,42.6h-1.5c-0.1,0-0.2-0.1-0.2-0.2v-1c0-0.1,0.1-0.2,0.2-0.2h1.5c0.1,0,0.2,0.1,0.2,0.2v1
				C16.7,42.6,16.7,42.6,16.5,42.6z"/>
		</g>
		<g>
			<polygon class="st14" points="33.1,47.7 27.7,47.7 30.4,46.3 33.1,44.8 35.8,46.3 38.4,47.7 			"/>
			<g>
				<rect x="29.7" y="48.6" class="st14" width="1.4" height="4.2"/>
				<rect x="35.1" y="48.6" class="st14" width="1.4" height="4.2"/>
				<rect x="32.4" y="48.6" class="st14" width="1.4" height="4.2"/>
			</g>
			<rect x="28.6" y="53.4" class="st14" width="8.8" height="1.3"/>
		</g>
	</g>
</g>
</svg>
