<svg xmlns="http://www.w3.org/2000/svg" viewBox="0 0 66.27 66.27"><defs><style>.cls-1{fill:#80e0c7;}.cls-2{fill:#24baba;}.cls-3{fill:#257b7a;}.cls-4{fill:#f5ae23;}.cls-5{fill:#939393;}.cls-6{fill:#707070;}.cls-7{fill:#becbcc;}.cls-8{fill:#ffeb40;}.cls-9{fill:#fff3ff;}</style></defs><g id="圖層_2" data-name="圖層 2"><g id="圖層_1-2" data-name="圖層 1"><circle class="cls-1" cx="33.13" cy="33.13" r="33.13"/><path class="cls-2" d="M9.33,56.16c.12.14.24.27.37.4A33.14,33.14,0,0,0,56.56,9.7l-.4-.37Z"/><polygon class="cls-3" points="14.22 22.45 14.22 22.45 14.22 22.45 14.22 22.45"/><path class="cls-3" d="M11.69,21.47l2,1a.68.68,0,0,0,1-.59.68.68,0,0,0-.39-.66l-2-1a.7.7,0,0,0-.92.33A.69.69,0,0,0,11.69,21.47Z"/><path class="cls-3" d="M13.17,28.18h0a.69.69,0,0,0,.44-.79.7.7,0,0,0-.73-.55L10.67,27a.69.69,0,0,0-.63.75.69.69,0,0,0,.74.63L13,28.22A.58.58,0,0,0,13.17,28.18Z"/><path class="cls-3" d="M14.5,32.45l-1.82,1.26a.69.69,0,0,0-.22.89.67.67,0,0,0,.84.33l.16-.08,1.83-1.26a.69.69,0,0,0,.17-1A.7.7,0,0,0,14.5,32.45Z"/><path class="cls-3" d="M23.31,16.09l.17,0a.7.7,0,0,0,.46-.71l-.18-2.2A.69.69,0,0,0,23,12.5a.7.7,0,0,0-.64.75l.18,2.2A.7.7,0,0,0,23.31,16.09Z"/><path class="cls-3" d="M17.19,17.75A.7.7,0,0,0,18,18l.16-.08a.71.71,0,0,0,.29-.45.74.74,0,0,0-.11-.52l-1.26-1.82a.69.69,0,0,0-1-.17.7.7,0,0,0-.18,1Z"/><path class="cls-3" d="M29.22,17.1a.71.71,0,0,0,.39-.35l.95-2a.69.69,0,0,0-1.25-.59l-.95,2a.7.7,0,0,0,.86,1Z"/><path class="cls-3" d="M34.7,25.77a.68.68,0,0,0,.74.63l2.21-.17.18,0h0a.7.7,0,0,0,.44-.8.69.69,0,0,0-.73-.54L35.33,25A.69.69,0,0,0,34.7,25.77Z"/><path class="cls-3" d="M33.66,20.88a.51.51,0,0,0,.16-.09l1.82-1.25a.69.69,0,1,0-.78-1.14L33,19.66a.69.69,0,0,0-.22.88A.7.7,0,0,0,33.66,20.88Z"/><path class="cls-3" d="M19,36.06a.71.71,0,0,0-.4.36l-.94,2a.69.69,0,0,0,1.24.59l.95-2a.69.69,0,0,0-.85-.95Z"/><path class="cls-3" d="M57.33,27.24H33a8.82,8.82,0,1,0-9.21,8.22V49.35a.45.45,0,0,0,.45.45H39.37v2.89h-3a.87.87,0,1,0,0,1.74h8.78a.87.87,0,0,0,0-1.74h-3V49.8H57.33a.45.45,0,0,0,.45-.45V27.7A.46.46,0,0,0,57.33,27.24Z"/><path class="cls-4" d="M26.61,17.73a8.84,8.84,0,1,1-11.77,4.2A8.83,8.83,0,0,1,26.61,17.73Z"/><path class="cls-4" d="M12.88,21.54a.75.75,0,0,1-.53,0l-2-.95a.7.7,0,0,1-.33-.92.68.68,0,0,1,.92-.33l2,.95a.68.68,0,0,1-.06,1.27Z"/><path class="cls-4" d="M11.83,27.28a.47.47,0,0,1-.17,0l-2.21.18a.69.69,0,1,1-.11-1.37l2.2-.18a.69.69,0,0,1,.29,1.34Z"/><path class="cls-4" d="M12,34a.7.7,0,0,1-.85-.34.69.69,0,0,1,.22-.88l1.83-1.26a.69.69,0,0,1,1,.17.71.71,0,0,1-.18,1l-1.82,1.25A.65.65,0,0,1,12,34Z"/><path class="cls-4" d="M22.15,15.14a.58.58,0,0,1-.18,0,.69.69,0,0,1-.74-.63l-.18-2.21a.69.69,0,0,1,1.38-.11l.17,2.21A.67.67,0,0,1,22.15,15.14Z"/><path class="cls-4" d="M16.66,17.1a.68.68,0,0,1-.8-.26L14.6,15a.69.69,0,0,1,.17-1,.7.7,0,0,1,1,.17L17,16.06a.69.69,0,0,1,.12.52.71.71,0,0,1-.29.44Z"/><path class="cls-4" d="M27.88,16.19a.68.68,0,0,1-.85-.94l.95-2a.69.69,0,0,1,1.24.6l-.95,2A.65.65,0,0,1,27.88,16.19Z"/><path class="cls-4" d="M36.49,25.28l-.18,0-2.2.18A.69.69,0,0,1,34,24.12l2.21-.18a.69.69,0,0,1,.29,1.34Z"/><path class="cls-4" d="M32.32,20a.69.69,0,0,1-.62-1.22l1.82-1.26a.68.68,0,0,1,1,.18.69.69,0,0,1-.17,1l-1.83,1.26A.8.8,0,0,1,32.32,20Z"/><path class="cls-4" d="M32.64,29.81a.75.75,0,0,1,.53,0l2,1a.69.69,0,0,1,.33.92.68.68,0,0,1-.92.33l-2-1a.68.68,0,0,1-.39-.66.67.67,0,0,1,.45-.61Z"/><path class="cls-4" d="M23.38,36.21a.47.47,0,0,1,.17,0,.69.69,0,0,1,.75.63L24.48,39a.69.69,0,0,1-.64.74.68.68,0,0,1-.74-.63l-.18-2.21A.67.67,0,0,1,23.38,36.21Z"/><path class="cls-4" d="M28.87,34.25a.68.68,0,0,1,.8.26l1.26,1.82a.7.7,0,0,1-.18,1,.69.69,0,0,1-1-.17l-1.26-1.83a.68.68,0,0,1-.11-.52.67.67,0,0,1,.29-.44Z"/><path class="cls-4" d="M17.64,35.16a.68.68,0,0,1,.74.18.69.69,0,0,1,.12.76l-.95,2a.69.69,0,0,1-1.25-.6l.95-2A.71.71,0,0,1,17.64,35.16Z"/><rect class="cls-5" x="38.04" y="46.38" width="2.8" height="5.97"/><rect class="cls-6" x="34.18" y="51.78" width="10.52" height="1.74" rx="0.87"/><rect class="cls-7" x="22.43" y="26.34" width="34.02" height="22.56" rx="0.45"/><rect class="cls-8" x="24.93" y="28.48" width="9.04" height="5.41" rx="0.16"/><rect class="cls-8" x="24.93" y="34.91" width="9.04" height="5.41" rx="0.16"/><rect class="cls-8" x="24.93" y="41.06" width="9.04" height="5.41" rx="0.16"/><rect class="cls-8" x="34.9" y="28.48" width="9.04" height="5.41" rx="0.16"/><rect class="cls-8" x="34.9" y="34.91" width="9.04" height="5.41" rx="0.16"/><rect class="cls-8" x="34.9" y="41.06" width="9.04" height="5.41" rx="0.16"/><rect class="cls-8" x="44.96" y="28.48" width="9.04" height="5.41" rx="0.16"/><rect class="cls-8" x="44.96" y="34.91" width="9.04" height="5.41" rx="0.16"/><rect class="cls-8" x="44.96" y="41.06" width="9.04" height="5.41" rx="0.16"/><rect class="cls-9" x="30.1" y="28.48" width="3.86" height="5.41" rx="0.16"/><rect class="cls-9" x="30.1" y="34.91" width="3.86" height="5.41" rx="0.16"/><rect class="cls-9" x="30.1" y="41.06" width="3.86" height="5.41" rx="0.16"/><rect class="cls-9" x="40.08" y="28.48" width="3.86" height="5.41" rx="0.16"/><rect class="cls-9" x="40.08" y="34.91" width="3.86" height="5.41" rx="0.16"/><rect class="cls-9" x="40.08" y="41.06" width="3.86" height="5.41" rx="0.16"/><rect class="cls-9" x="50.14" y="28.48" width="3.86" height="5.41" rx="0.16"/><rect class="cls-9" x="50.14" y="34.91" width="3.86" height="5.41" rx="0.16"/><rect class="cls-9" x="50.14" y="41.06" width="3.86" height="5.41" rx="0.16"/></g></g></svg>