<?xml version="1.0" encoding="utf-8"?>
<!-- Generator: Adobe Illustrator 24.2.3, SVG Export Plug-In . SVG Version: 6.00 Build 0)  -->
<svg version="1.1" id="圖層_1" xmlns="http://www.w3.org/2000/svg" xmlns:xlink="http://www.w3.org/1999/xlink" x="0px" y="0px"
	 viewBox="0 0 66.3 66.3" style="enable-background:new 0 0 66.3 66.3;" xml:space="preserve">
<style type="text/css">
	.st0{fill:#6ECB7A;}
	.st1{fill:#709D49;}
	.st2{fill:#5D7A3A;}
	.st3{fill:#FDEB26;}
	.st4{clip-path:url(#SVGID_2_);}
	.st5{opacity:0.46;fill:#F8A952;enable-background:new    ;}
	.st6{fill:#F7AC0D;}
	.st7{clip-path:url(#SVGID_4_);}
	.st8{opacity:0.37;fill:#8E1D14;enable-background:new    ;}
	.st9{opacity:0.48;fill:#FCEE5C;enable-background:new    ;}
	.st10{clip-path:url(#SVGID_6_);}
	.st11{clip-path:url(#SVGID_8_);}
	.st12{clip-path:url(#SVGID_10_);}
	.st13{clip-path:url(#SVGID_12_);}
	.st14{clip-path:url(#SVGID_14_);}
	.st15{clip-path:url(#SVGID_16_);}
	.st16{clip-path:url(#SVGID_18_);}
	.st17{clip-path:url(#SVGID_20_);}
	.st18{clip-path:url(#SVGID_22_);}
	.st19{clip-path:url(#SVGID_24_);}
	.st20{fill:#FFCA40;}
</style>
<g id="圖層_2_1_">
	<g id="圖層_1-2">
		<circle class="st0" cx="33.1" cy="33.1" r="33.1"/>
		<path class="st1" d="M9.3,56.2c0.1,0.1,0.2,0.3,0.4,0.4c13.2,12.7,34.1,12.4,46.9-0.8c12.4-12.8,12.4-33.2,0-46l-0.4-0.4L9.3,56.2
			z"/>
		<path class="st2" d="M61.4,39.7c-0.3-0.4-0.7-0.6-1.2-0.6h-6.7h-1.4c0.1-0.2,0.1-0.4,0.1-0.5c0,0-1.3-4.8-1.3-4.9
			c-0.2-0.6-0.4-1.2-0.7-1.7c-0.3-0.4-0.7-0.6-1.2-0.6h-7.8c0.1-0.2,0.2-0.5,0.2-0.7c0,0-1.7-6.3-1.9-6.7c-0.3-0.4-0.7-0.6-1.2-0.6
			l-16,7.4c0,0.1-6.4,0.8-6.4,0.8l-2.3,7c0,0.2-1.5,0.7-2.3,0.7c-1.6,0-2.9,0-3.1,0c-0.8,0-0.9,0.4-0.9,0.4s-1.2,1.9-1.2,2
			C6.1,41.9,6,42.1,6,42.4l-1,4.1c0,0.7,0.5,1.4,1.2,1.5h13.6h3h0.1c0.1,0,0.2,0,0.2,0c0.6-0.2,1-0.8,1-1.5c0,0-1.6-6-1.8-6.4h4.1
			l-0.9,1.4l-1.2,5.1c0,0.7,0.5,1.2,1.2,1.3l16.6-0.1h0.1c0.1,0,0.2,0,0.2,0c0.6-0.2,1-0.8,1-1.5c0,0-1.5-5.8-1.7-6.2h4.2l-1.8,6.3
			c0,0.7,0.5,1.4,1.2,1.5L62,47.9h0.1c0.1,0,0.2,0,0.2,0c0.6-0.2,1-0.8,1-1.5C63.4,46.4,61.7,40.1,61.4,39.7z M32.8,38.4
			c0,0-1.5-5.8-1.7-6.2h4C35.1,32.2,32.8,38.7,32.8,38.4z"/>
		<path class="st3" d="M5.4,40.6l1.2-1.8c0,0,0.2-0.4,0.9-0.4s12.8,0,12.8,0c0.5,0,0.9,0.2,1.1,0.6c0.3,0.7,0.6,1.4,0.8,2.1
			L5.4,40.6z"/>
		<g>
			<defs>
				<path id="SVGID_1_" d="M5.6,39.9l1-1.2c0,0,0.2-0.4,0.9-0.4s12.8,0,12.8,0c0.5,0,0.9,0.2,1.1,0.6c0.4,0.9,0.7,1.8,0.9,2.8
					L5.6,39.9z"/>
			</defs>
			<clipPath id="SVGID_2_">
				<use xlink:href="#SVGID_1_"  style="overflow:visible;"/>
			</clipPath>
			<g class="st4">
				<polygon class="st5" points="10.7,38.1 9.6,40.4 12.5,40.4 13.8,38 				"/>
			</g>
		</g>
		<path class="st6" d="M22.2,47.1L5.4,47.2c-0.7-0.1-1.3-0.8-1.2-1.5l0.9-4.2c-0.1-0.8,0.5-1.4,1.2-1.5H21c0.7,0,1.1,0.3,1.3,1.2
			l1,4.3C23.5,46.3,22.9,47,22.2,47.1C22.2,47.1,22.2,47.1,22.2,47.1z"/>
		<g>
			<defs>
				<path id="SVGID_3_" d="M22.2,47.1L5.4,47.2c-0.7-0.1-1.3-0.8-1.2-1.5l0.9-4.2c-0.1-0.8,0.5-1.4,1.2-1.5h15c0.7,0,1,1,1.2,2
					l0.8,3.5C23.5,46.3,22.9,47,22.2,47.1z"/>
			</defs>
			<clipPath id="SVGID_4_">
				<use xlink:href="#SVGID_3_"  style="overflow:visible;"/>
			</clipPath>
			<g class="st7">
				<path class="st8" d="M11,38.3c0,0,1,3.5,2.9,4.3s5,3.9,6,5.6S22,48,22,48s0.5-1.2-1.5-3.4s-1.6-0.9-2.6-2.8
					c-0.6-1.2-1.2-2.3-1.9-3.4L11,38.3z"/>
				<path class="st8" d="M18.2,38.9c0,0,0.4,2.4,1.6,3.2s1.8,3.5,2.2,4.2c0.3,0.6,0.6,1.2,0.8,1.9c0,0,4.9,1,2-5.5
					S18.1,38.1,18.2,38.9z"/>
				<polygon class="st9" points="6.6,38.7 10,49.2 9.5,49.8 4.2,38.1 				"/>
			</g>
		</g>
		<path class="st3" d="M24.9,40.6l1.1-1.9c0,0,0.1-0.4,0.9-0.4s12.8,0,12.8,0c0.5,0,0.9,0.2,1.2,0.6c0.3,0.7,0.6,1.4,0.8,2.1
			L24.9,40.6z"/>
		<g>
			<defs>
				<path id="SVGID_5_" d="M25.1,39.9l1-1.2c0,0,0.1-0.4,0.9-0.4s12.8,0,12.8,0c0.5,0,0.9,0.2,1.2,0.6c0.4,0.9,0.7,1.8,0.9,2.8
					L25.1,39.9z"/>
			</defs>
			<clipPath id="SVGID_6_">
				<use xlink:href="#SVGID_5_"  style="overflow:visible;"/>
			</clipPath>
			<g class="st10">
				<polygon class="st5" points="30.2,38.1 29,40.4 31.9,40.4 33.2,38 				"/>
			</g>
		</g>
		<path class="st6" d="M41.6,47.1l-16.7,0.1c-0.7-0.1-1.3-0.8-1.2-1.5l0.9-4.2c-0.1-0.8,0.4-1.4,1.2-1.5h14.6c0.7,0,1.1,0.3,1.3,1.2
			l1,4.3C42.9,46.3,42.4,47,41.6,47.1C41.6,47.1,41.6,47.1,41.6,47.1z"/>
		<g>
			<defs>
				<path id="SVGID_7_" d="M41.6,47.1l-16.7,0.1c-0.7-0.1-1.3-0.8-1.2-1.5l0.9-4.2c-0.1-0.8,0.4-1.4,1.2-1.5h15c0.7,0,1,1,1.2,2
					l0.8,3.5C42.9,46.3,42.4,47,41.6,47.1z"/>
			</defs>
			<clipPath id="SVGID_8_">
				<use xlink:href="#SVGID_7_"  style="overflow:visible;"/>
			</clipPath>
			<g class="st11">
				<path class="st8" d="M30.4,38.3c0,0,1,3.5,2.9,4.3s5,3.9,6,5.6s2.2-0.2,2.2-0.2s0.5-1.2-1.5-3.4s-1.6-0.9-2.6-2.8
					c-0.6-1.2-1.3-2.3-2-3.4L30.4,38.3z"/>
				<path class="st8" d="M37.7,38.9c0,0,0.4,2.4,1.6,3.2s1.8,3.5,2.2,4.2c0.3,0.6,0.6,1.2,0.8,1.9c0,0,4.9,1,2-5.5
					S37.5,38.1,37.7,38.9z"/>
				<polygon class="st9" points="26.1,38.7 29.5,49.2 28.9,49.8 23.6,38.1 				"/>
			</g>
		</g>
		<path class="st3" d="M44.6,40.6l1.2-1.8c0,0,0.2-0.4,0.9-0.4s12.8,0,12.8,0c0.5,0,0.9,0.2,1.2,0.6c0.3,0.7,0.6,1.4,0.7,2.1
			L44.6,40.6z"/>
		<g>
			<defs>
				<path id="SVGID_9_" d="M44.8,39.9l1-1.2c0,0,0.2-0.4,0.9-0.4s12.8,0,12.8,0c0.5,0,0.9,0.2,1.2,0.6c0.4,0.9,0.7,1.8,0.9,2.8
					L44.8,39.9z"/>
			</defs>
			<clipPath id="SVGID_10_">
				<use xlink:href="#SVGID_9_"  style="overflow:visible;"/>
			</clipPath>
			<g class="st12">
				<polygon class="st5" points="50,38.1 48.8,40.4 51.7,40.4 53,38 				"/>
			</g>
		</g>
		<path class="st6" d="M61.4,47.1l-16.7,0.1c-0.7-0.1-1.3-0.8-1.2-1.5l0.9-4.2c-0.1-0.8,0.4-1.4,1.2-1.5h14.6c0.7,0,1.1,0.3,1.3,1.2
			l1,4.3C62.6,46.3,62.1,47,61.4,47.1z"/>
		<g>
			<defs>
				<path id="SVGID_11_" d="M61.4,47.1l-16.7,0.1c-0.7-0.1-1.3-0.8-1.2-1.5l0.9-4.2c-0.1-0.8,0.4-1.4,1.2-1.5h15c0.7,0,1,1,1.2,2
					l0.8,3.5C62.7,46.3,62.1,47,61.4,47.1C61.4,47.1,61.4,47.1,61.4,47.1z"/>
			</defs>
			<clipPath id="SVGID_12_">
				<use xlink:href="#SVGID_11_"  style="overflow:visible;"/>
			</clipPath>
			<g class="st13">
				<path class="st8" d="M50.2,38.3c0,0,1,3.5,2.9,4.3s5,3.9,6,5.6s2.2-0.2,2.2-0.2s0.5-1.2-1.5-3.4s-1.6-0.9-2.6-2.8
					c-0.6-1.2-1.3-2.3-2-3.4L50.2,38.3z"/>
				<path class="st8" d="M57.4,38.9c0,0,0.4,2.4,1.6,3.2s1.8,3.5,2.2,4.2c0.3,0.6,0.6,1.2,0.8,1.9c0,0,4.9,1,2-5.5
					S57.3,38.1,57.4,38.9z"/>
				<polygon class="st9" points="45.8,38.7 49.2,49.2 48.7,49.8 43.4,38.1 				"/>
			</g>
		</g>
		<path class="st3" d="M14.1,32.5l1.2-1.9c0,0,0.1-0.4,0.9-0.4s12.8,0,12.8,0c0.5,0,0.9,0.2,1.1,0.6c0.3,0.7,0.5,1.4,0.7,2.1
			L14.1,32.5z"/>
		<g>
			<defs>
				<path id="SVGID_13_" d="M14.3,31.9l1-1.2c0,0,0.1-0.4,0.9-0.4c0.8,0,12.8,0,12.8,0c0.5,0,0.9,0.2,1.1,0.6
					c0.4,0.9,0.6,1.8,0.9,2.8L14.3,31.9z"/>
			</defs>
			<clipPath id="SVGID_14_">
				<use xlink:href="#SVGID_13_"  style="overflow:visible;"/>
			</clipPath>
			<g class="st14">
				<polygon class="st5" points="19.4,30.1 18.2,32.4 21.1,32.4 22.5,30 				"/>
			</g>
		</g>
		<path class="st6" d="M30.8,39.1l-16.7,0.1c-0.7-0.1-1.3-0.8-1.2-1.5l0.9-4.2c-0.1-0.7,0.4-1.4,1.2-1.5h14.6c0.7,0,1.1,0.3,1.3,1.2
			l1.1,4.3C32.1,38.3,31.6,39,30.8,39.1z"/>
		<g>
			<defs>
				<path id="SVGID_15_" d="M30.8,39.1l-16.7,0.1c-0.7-0.1-1.3-0.8-1.2-1.5l0.9-4.2c-0.1-0.7,0.4-1.4,1.2-1.5h15c0.7,0,1,1,1.2,2
					l0.8,3.6C32.1,38.3,31.6,39,30.8,39.1z"/>
			</defs>
			<clipPath id="SVGID_16_">
				<use xlink:href="#SVGID_15_"  style="overflow:visible;"/>
			</clipPath>
			<g class="st15">
				<path class="st8" d="M19.6,30.3c0,0,1,3.5,2.9,4.3s5,3.9,6,5.5s2.2-0.2,2.2-0.2s0.5-1.2-1.5-3.4s-1.6-0.9-2.6-2.8
					c-0.6-1.2-1.3-2.3-2-3.4L19.6,30.3z"/>
				<path class="st8" d="M26.9,30.9c0,0,0.4,2.4,1.6,3.2s1.8,3.5,2.2,4.2c0.3,0.6,0.6,1.2,0.8,1.9c0,0,4.9,1,2-5.5
					S26.7,30.1,26.9,30.9z"/>
				<polygon class="st9" points="15.3,30.7 18.7,41.2 18.1,41.8 12.8,30 				"/>
			</g>
		</g>
		<path class="st3" d="M33.5,32.8l1.2-1.9c0,0,0.2-0.4,0.9-0.4s12.8,0,12.8,0c0.5,0,0.9,0.2,1.2,0.6c0.3,0.7,0.6,1.4,0.7,2.1
			L33.5,32.8z"/>
		<g>
			<defs>
				<path id="SVGID_17_" d="M33.7,32.2l1-1.2c0,0,0.2-0.4,0.9-0.4s12.8,0,12.8,0c0.5,0,0.9,0.2,1.2,0.6c0.4,0.9,0.7,1.8,0.9,2.8
					L33.7,32.2z"/>
			</defs>
			<clipPath id="SVGID_18_">
				<use xlink:href="#SVGID_17_"  style="overflow:visible;"/>
			</clipPath>
			<g class="st16">
				<polygon class="st5" points="38.9,30.3 37.7,32.7 40.6,32.7 41.9,30.2 				"/>
			</g>
		</g>
		<path class="st6" d="M50.3,39.3l-16.7,0.1c-0.7-0.1-1.3-0.8-1.2-1.5l0.9-4.2c-0.1-0.7,0.5-1.4,1.2-1.5h14.6c0.7,0,1.1,0.3,1.3,1.2
			l1,4.3C51.5,38.5,51,39.2,50.3,39.3z"/>
		<g>
			<defs>
				<path id="SVGID_19_" d="M50.3,39.3l-16.7,0.1c-0.7-0.1-1.3-0.8-1.2-1.5l0.9-4.2c-0.1-0.7,0.5-1.4,1.2-1.5h15c0.7,0,1,1,1.2,2
					l0.8,3.6C51.6,38.6,51,39.2,50.3,39.3z"/>
			</defs>
			<clipPath id="SVGID_20_">
				<use xlink:href="#SVGID_19_"  style="overflow:visible;"/>
			</clipPath>
			<g class="st17">
				<path class="st8" d="M39.1,30.6c0,0,1,3.5,2.9,4.3s5,3.9,6,5.6s2.2-0.2,2.2-0.2s0.5-1.2-1.5-3.4S47,35.9,46.1,34
					c-0.6-1.2-1.3-2.3-2-3.4L39.1,30.6z"/>
				<path class="st8" d="M46.3,31.2c0,0,0.4,2.4,1.6,3.2s1.8,3.5,2.2,4.2c0.3,0.6,0.6,1.2,0.8,1.9c0,0,4.9,1,2-5.5
					S46.2,30.3,46.3,31.2z"/>
				<polygon class="st9" points="34.8,30.9 38.1,41.5 37.6,42 32.3,30.3 				"/>
			</g>
		</g>
		<path class="st3" d="M22.8,24.8L24,23c0,0,0.2-0.4,0.9-0.4s12.8,0,12.8,0c0.5,0,0.9,0.2,1.2,0.6c0.3,0.7,0.6,1.4,0.7,2.1
			L22.8,24.8z"/>
		<g>
			<defs>
				<path id="SVGID_21_" d="M23,24.2l1-1.2c0,0,0.2-0.4,0.9-0.4s12.8,0,12.8,0c0.5,0,0.9,0.2,1.2,0.6c0.4,0.9,0.7,1.8,0.9,2.8
					L23,24.2z"/>
			</defs>
			<clipPath id="SVGID_22_">
				<use xlink:href="#SVGID_21_"  style="overflow:visible;"/>
			</clipPath>
			<g class="st18">
				<polygon class="st5" points="28.2,22.4 27,24.7 29.9,24.7 31.2,22.2 				"/>
			</g>
		</g>
		<path class="st6" d="M39.6,31.4l-16.7,0.1c-0.7-0.1-1.3-0.8-1.2-1.5l0.9-4.1c-0.1-0.7,0.5-1.4,1.2-1.5h14.6c0.7,0,1.1,0.3,1.3,1.2
			l1,4.3C40.8,30.5,40.3,31.2,39.6,31.4z"/>
		<g>
			<defs>
				<path id="SVGID_23_" d="M39.6,31.4l-16.7,0.1c-0.7-0.1-1.3-0.8-1.2-1.5l0.9-4.1c-0.1-0.7,0.5-1.4,1.2-1.5h15c0.7,0,1,1,1.2,2
					l0.8,3.5C40.9,30.6,40.4,31.3,39.6,31.4z"/>
			</defs>
			<clipPath id="SVGID_24_">
				<use xlink:href="#SVGID_23_"  style="overflow:visible;"/>
			</clipPath>
			<g class="st19">
				<path class="st8" d="M28.4,22.6c0,0,1,3.5,2.9,4.3s5,3.9,6,5.6s2.2-0.2,2.2-0.2s0.4-1.2-1.5-3.4s-1.6-0.9-2.6-2.8
					c-0.6-1.2-1.3-2.3-2-3.4L28.4,22.6z"/>
				<path class="st8" d="M35.6,23.2c0,0,0.4,2.4,1.6,3.2s1.8,3.5,2.2,4.2c0.3,0.6,0.6,1.2,0.8,1.9c0,0,4.9,1,2-5.5
					S35.5,22.4,35.6,23.2z"/>
				<polygon class="st9" points="24.1,23 27.4,33.5 26.9,34 21.6,22.3 				"/>
			</g>
		</g>
		<ellipse class="st2" cx="41.2" cy="16.8" rx="7.1" ry="7.3"/>
		<ellipse class="st2" cx="45.5" cy="24" rx="4.1" ry="4.2"/>
		<path class="st20" d="M39.5,9.5c-1.2,5.5-2.5,6.3-7.1,7.3c4.7,1,6.2,2.2,7.1,7.3c1.1-5.1,1.9-6.1,7.1-7.3
			C41.8,15.8,40,14.8,39.5,9.5z"/>
		<path class="st20" d="M44.1,19.1c-0.8,3.7-1.7,4.2-4.7,4.9c3.1,0.7,4.2,1.4,4.7,4.9c0.8-3.4,1.3-4.1,4.7-4.9
			C45.6,23.3,44.5,22.6,44.1,19.1z"/>
	</g>
</g>
</svg>
