<svg xmlns="http://www.w3.org/2000/svg" viewBox="0 0 66.27 66.27"><defs><style>.cls-1{fill:#5cd8df;}.cls-2{fill:#5ec0db;}.cls-3{fill:#4d819a;}.cls-4{fill:#fff;}.cls-5{fill:#eef0f2;}.cls-6{fill:#cdcecf;}.cls-7{fill:#eef0ee;}.cls-8{fill:#d1d3d5;}.cls-9{fill:#d3d5d7;}.cls-10{fill:#343748;}.cls-11,.cls-12{fill:#4beee0;}.cls-12{stroke:#4beee0;stroke-linecap:round;stroke-linejoin:round;}</style></defs><g id="圖層_2" data-name="圖層 2"><g id="圖層_1-2" data-name="圖層 1"><circle class="cls-1" cx="33.13" cy="33.13" r="33.13"/><path class="cls-2" d="M9.33,56.16c.12.14.24.27.37.4A33.14,33.14,0,0,0,56.56,9.7l-.4-.37Z"/><path class="cls-3" d="M52.05,28.54a5,5,0,0,0-2.51-4.35V13.62a1.73,1.73,0,1,0-1.15,0V23.7a4.62,4.62,0,0,0-.84-.16,14.37,14.37,0,0,0-13.44-9.3A15.43,15.43,0,0,0,20,23.51a4.69,4.69,0,0,0-.65.14v-10a1.72,1.72,0,0,0,.87-2,1.72,1.72,0,1,0-3.29,1,1.71,1.71,0,0,0,1.27,1.16V24.13a5,5,0,0,0,.45,9v1.25a9.07,9.07,0,0,0,.06.91v0a4.35,4.35,0,0,0,.91,2.64,7.08,7.08,0,0,0,6.12,3.52H27a3,3,0,0,0,.76.79c-5,2.58-8.46,8.36-8.46,15.09q0,.89.09,1.83H47.72c.05-.63.07-1.24.07-1.83,0-6.56-3.31-12.22-8.09-14.89a3.13,3.13,0,0,0,1.07-1h.57a7.08,7.08,0,0,0,5.78-3,4.39,4.39,0,0,0,1.38-3.18V33.35A5.05,5.05,0,0,0,52.05,28.54Z"/><path class="cls-4" d="M46.4,56.7c.05-.63.08-1.24.08-1.83,0-9.13-6.39-16.53-14.27-16.53S18,45.74,18,54.87c0,.59,0,1.2.08,1.83Z"/><path class="cls-5" d="M43.33,56.7c0-.66.07-1.31.07-1.93,0-9.17-5-16.6-11.19-16.6S21,45.6,21,54.77c0,.62,0,1.27.07,1.93Z"/><ellipse class="cls-6" cx="32.55" cy="38.17" rx="7.17" ry="3.13"/><rect class="cls-7" x="16.85" y="10.21" width="1.15" height="15.05"/><rect class="cls-7" x="47.08" y="8.93" width="1.15" height="15.05"/><circle class="cls-8" cx="19.35" cy="26.04" r="5.06"/><circle class="cls-8" cx="45.68" cy="26.08" r="5.06"/><circle class="cls-8" cx="47.66" cy="9.54" r="1.72"/><circle class="cls-8" cx="17.22" cy="9.63" r="1.72"/><rect class="cls-6" x="17.29" y="22.33" width="29.82" height="16.67" rx="7.09"/><path class="cls-4" d="M32.79,11.78h0A14.39,14.39,0,0,1,47.18,26.17v6.67a4.38,4.38,0,0,1-4.38,4.38H21.74a4.38,4.38,0,0,1-4.38-4.38V27.21A15.44,15.44,0,0,1,32.79,11.78Z"/><path class="cls-9" d="M32.92,15.33h0a11,11,0,0,1,11,11v5.93a3.34,3.34,0,0,1-3.34,3.34H24.47a3.34,3.34,0,0,1-3.34-3.34V27.12A11.79,11.79,0,0,1,32.92,15.33Z"/><path class="cls-10" d="M32.92,16.17h0a11,11,0,0,1,11,11v5.09a3.34,3.34,0,0,1-3.34,3.34H24.47a3.34,3.34,0,0,1-3.34-3.34V28A11.79,11.79,0,0,1,32.92,16.17Z"/><circle class="cls-11" cx="27.46" cy="23.81" r="1.32"/><circle class="cls-11" cx="37.64" cy="23.81" r="1.32"/><path class="cls-12" d="M28.94,27.29h7.29a3.48,3.48,0,0,1-3.81,3.59A3.14,3.14,0,0,1,28.94,27.29Z"/></g></g></svg>