<svg xmlns="http://www.w3.org/2000/svg" xmlns:xlink="http://www.w3.org/1999/xlink" viewBox="0 0 66.27 66.27"><defs><style>.cls-1{fill:none;}.cls-2{fill:#5cd8df;}.cls-3{fill:#5ec0db;}.cls-4{clip-path:url(#clip-path);}.cls-5{fill:#4d819a;}.cls-6{fill:#0074d0;}.cls-7{fill:#eac615;}.cls-8{fill:#fff;}</style><clipPath id="clip-path"><circle class="cls-1" cx="33.13" cy="33.13" r="31.47"/></clipPath></defs><g id="圖層_2" data-name="圖層 2"><g id="圖層_1-2" data-name="圖層 1"><circle class="cls-2" cx="33.13" cy="33.13" r="33.13"/><path class="cls-3" d="M9.33,56.16c.12.14.24.27.37.4A33.14,33.14,0,0,0,56.56,9.7l-.4-.37Z"/><g class="cls-4"><path class="cls-5" d="M45,32.2a1.41,1.41,0,1,0,1.4,1.41A1.41,1.41,0,0,0,45,32.2Z"/><path class="cls-5" d="M65.26,33.19,59.8,33a3.24,3.24,0,0,0-3.21-2.88h0l-3.39-11.8a3.22,3.22,0,0,0,.89-2.22,3.17,3.17,0,0,0-.26-1.27l3.41-3.19-1-1.06-3.3,3.08a3.21,3.21,0,0,0-4.33.08L36.4,10.2c0-.06,0-.12,0-.19a3.25,3.25,0,0,0-2.25-3.07l.2-5.42-1.44-.05-.2,5.34a3.24,3.24,0,0,0-2.8,3.2c0,.09,0,.17,0,.26L18.33,13.59l.14-.2c.15-.21-1.12-.09-1.12-.09a3.22,3.22,0,0,0-3.51.06l-2.38-2.44-1,1,2.43,2.49a3.25,3.25,0,0,0-.46,1.63,3.21,3.21,0,0,0,1,2.31c-.32,1.13-1.16,4.05-3.35,11.71h0a3.24,3.24,0,0,0-3,2.18l-4.71-.18,0,1.45,4.61.16a3.23,3.23,0,0,0,3.09,2.87c2.36,8.24,3.21,11.22,3.52,12.31a3.23,3.23,0,0,0-1,2.33,3.16,3.16,0,0,0,.48,1.66L10.61,55l1,1.05,2.28-2.13a3.27,3.27,0,0,0,1.78.53,3.21,3.21,0,0,0,2.32-1l12,3.43a1.64,1.64,0,0,0,0,.22,3.24,3.24,0,0,0,2.09,3l-.19,5.13,1.44,0,.18-5a3.24,3.24,0,0,0,3-3.22c0-.05,0-.1,0-.16l12.13-3.46a3.23,3.23,0,0,0,2.3,1,3.19,3.19,0,0,0,2-.71l2.9,3,1-1-3-3.11a3.16,3.16,0,0,0-.33-3.34S55,42.72,56.72,36.54a3.22,3.22,0,0,0,2.92-2.15l5.55.25ZM47.79,50.06H40.87l2.73-2.72a2.35,2.35,0,0,0,1.09.28,2.26,2.26,0,0,0,1.18-.34l2.21,2.2A3.49,3.49,0,0,0,47.79,50.06Zm-13.19,4a1.66,1.66,0,0,0-.4-.05l-.11,0V51.65H37Zm-5.05-2.44H32.5v2.28a4.48,4.48,0,0,0-.52.16ZM18.68,50.06q-.11-.26-.24-.51l2.26-2.26a2.22,2.22,0,0,0,2.23,0l2.78,2.77Zm-5.5-17.28a3,3,0,0,0-.2-.73l2.23-2.22v3Zm-.13,1.59h2.16v3L12.8,34.91A3.32,3.32,0,0,0,13.05,34.37Zm5.66-17.29h7l-3,3a2.26,2.26,0,0,0-1-.22,2.32,2.32,0,0,0-.84.16l-2.41-2.41A3,3,0,0,0,18.71,17.08Zm13.28-4,.17,0,.34.11v2.3H29.55Zm2.61,0L37,15.49H34.09V13.11h0A1.61,1.61,0,0,0,34.6,13.05Zm13.16,4a4.34,4.34,0,0,0,.28.62l-2.43,2.43A2.38,2.38,0,0,0,45,20a2.26,2.26,0,0,0-.94.2l-3.15-3.15Zm-2.25,26.1a2.26,2.26,0,0,0-.82-.16,2.28,2.28,0,0,0-.7.12l-3.57-3.56a9.33,9.33,0,0,0,2.31-5.72.72.72,0,0,0,.06-.29,1,1,0,0,0,0-.17h0a9.28,9.28,0,0,0-1.67-5.32l.22-.31a1.19,1.19,0,0,0,.11-1.19l2.31-2.31a2.22,2.22,0,0,0,1.23.36,2.31,2.31,0,0,0,1-.22l3.84,3.84v4.54H48.17a.79.79,0,0,0-.8.79.8.8,0,0,0,.8.8h1.61v4.54Zm-22.91,0a2.27,2.27,0,0,0-1.57,0L16.8,38.91V34.37h7.27a9.28,9.28,0,0,0,2.19,5.1ZM16.8,19.08a3.92,3.92,0,0,0,.58-.29L19.7,21.1a2.34,2.34,0,0,0-.28,1.08,2.26,2.26,0,0,0,.22,1L16.8,26Zm4.92,5.4a2.27,2.27,0,0,0,1.07-.28l3.31,3.31a9.32,9.32,0,0,0-2.05,5.27H16.8V28.24l4-4A2.32,2.32,0,0,0,21.72,24.48Zm28.06-5.37V26l-2.73-2.73a2.2,2.2,0,0,0-.16-2.16l2.27-2.28A2.91,2.91,0,0,0,49.78,19.11Zm-6.89,2.23a2.32,2.32,0,0,0-.23,1,2.38,2.38,0,0,0,.1.65l-3,3a1.18,1.18,0,0,0-.26.24,9.33,9.33,0,0,0-5.37-2.2v-7h4.53ZM32.5,17.08v7a9.36,9.36,0,0,0-5.29,2.29L23.85,23a2.12,2.12,0,0,0,.17-.83,2.32,2.32,0,0,0-.21-.95L28,17.08ZM16.8,48.16v-7l3,3a2.26,2.26,0,0,0-.16,1.91l-2.34,2.34A3.6,3.6,0,0,0,16.8,48.16ZM24,46.07a2.22,2.22,0,0,0-.16-1.89l3.58-3.59a9.28,9.28,0,0,0,5.11,2.13v7.34H28Zm10.12,4V42.73a9.39,9.39,0,0,0,5.18-2l3.46,3.45a2.29,2.29,0,0,0-.34,1.19,2.22,2.22,0,0,0,.16.82l-3.93,3.92Zm12.77-4a2,2,0,0,0,.12-.7,2.2,2.2,0,0,0-.28-1.08l3.08-3.09v7a4,4,0,0,0-.56.25Zm4.51,2V39.57l3.51-3.51.28.16L51.75,48.09C51.63,48.06,51.5,48,51.37,48Zm2-15.22h-2v-3l2.23,2.22A3,3,0,0,0,53.4,32.78Zm.13,1.59a3.32,3.32,0,0,0,.25.54l-2.41,2.41v-3Zm1-3.58-3.21-3.21c0-5.4,0-7.52,0-8.34a2.6,2.6,0,0,0,.4-.1L55,30.48A2.47,2.47,0,0,0,54.58,30.79ZM47.74,15.1a2.79,2.79,0,0,0-.1.39H39.28L35.75,12l.17-.24Zm-17-3-3.4,3.4H18.84c0-.13-.06-.25-.1-.37l11.71-3.34A3.76,3.76,0,0,0,30.7,12.09ZM14.8,19.17a2.7,2.7,0,0,0,.41.08v8.33L12,30.79a3.3,3.3,0,0,0-.43-.3Zm-3.36,17,.26-.14,3.51,3.51V48l-.39.07ZM18.77,52c0-.12.06-.25.08-.37.72,0,2.78,0,8.45,0L30.69,55a3.49,3.49,0,0,0-.25.32Zm17.16,3.39a1.84,1.84,0,0,0-.17-.25l3.52-3.52h8.35c0,.14,0,.28.08.41Z"/><circle class="cls-6" cx="43.94" cy="33.5" r="1.41"/><path class="cls-6" d="M58.73,32.85A3.25,3.25,0,0,0,55.52,30h0c-2.26-7.87-3.09-10.74-3.39-11.79A3.22,3.22,0,0,0,53,15.94a3.17,3.17,0,0,0-.26-1.27l3.41-3.19-1-1.06L51.87,13.5a3.21,3.21,0,0,0-4.33.08L35.33,10.09c0-.06,0-.12,0-.18A3.23,3.23,0,0,0,33.1,6.84l.2-5.43-1.44,0-.2,5.35a3.23,3.23,0,0,0-2.8,3.2c0,.08,0,.17,0,.25C15.48,14,16.39,13.73,16.3,13.77c-.31-.1-.32-.08-2.26-.08a1.6,1.6,0,0,0-.69.17l-3-3-1,1L12.48,15a1.07,1.07,0,0,0,0,.25,8.59,8.59,0,0,0,.07,2.26c0,.09.22-.8-3.56,12.43h0a3.24,3.24,0,0,0-3,2.18L1.16,32l0,1.44,4.61.17a3.23,3.23,0,0,0,3.09,2.86l3.52,12.31a3.23,3.23,0,0,0-1,2.33,3.19,3.19,0,0,0,.48,1.67L9.54,54.87l1,1.05,2.28-2.13a3.19,3.19,0,0,0,1.78.53,3.24,3.24,0,0,0,2.32-1l11.31,3.23a4,4,0,0,0,2,3A3.4,3.4,0,0,0,31,60l-.19,5.13,1.44,0,.18-5a3.28,3.28,0,0,0,1.17-.32,4,4,0,0,0,2.57-3.28c12.81-3.66,11.94-3.41,12-3.45.31.1.32.08,2.26.08a1.64,1.64,0,0,0,.79-.22l3.47,3.57,1-1L52,51.79l0,0a.88.88,0,0,0,0-.16,8.59,8.59,0,0,0-.07-2.26c0-.1-.23.84,3.73-13a3.25,3.25,0,0,0,2.92-2.16l5.55.25.07-1.44ZM50.3,19.13a2.6,2.6,0,0,0,.4-.1L54,30.37a2.77,2.77,0,0,0-.45.31L50.3,27.47C50.3,22.07,50.29,20,50.3,19.13Zm2.16,15.13a3.32,3.32,0,0,0,.25.54L50.3,37.21v-3ZM50.3,32.67v-3L52.53,32a2.84,2.84,0,0,0-.2.72Zm-2.21-14a3.46,3.46,0,0,0,.62.28v6.88L44.82,22Zm-1,15.54h1.61V38.8l-5,5-5.56-5.56.8-.46a.78.78,0,0,0,.4-.68V34.26h1.59a.8.8,0,0,0,0-1.59H39.34V29.81a.78.78,0,0,0-.4-.68l-.8-.46,5.56-5.56,5,5v4.54H47.1a.8.8,0,1,0,0,1.59ZM36.72,39.09l5.85,5.85-5,5H33V41.23ZM47,17.59,43.7,20.87,39.8,17h6.89A3.89,3.89,0,0,0,47,17.59Zm-12.12-6L46.67,15a2.79,2.79,0,0,0-.1.39c-.81,0-2.92,0-8.36,0l-3.53-3.53ZM33,13h0a1.55,1.55,0,0,0,.49-.06L36,15.38H33Zm0,4h4.53l5,5-5.85,5.85L33,25.7Zm-2.1-4,.16,0,.35.11v2.3H28.48ZM25.1,34.26v2.86a.78.78,0,0,0,.4.68l.8.46-5.55,5.56-5-5V34.26Zm-9.37-1.59V28.13l5-5,5.55,5.56-.8.46a.78.78,0,0,0-.4.68v2.86ZM21.87,22l5-5h4.54V25.7l-3.71,2.14Zm7.51-10.32a3.76,3.76,0,0,0,.25.31l-3.4,3.4H17.42a1.46,1.46,0,0,0,0-.29Zm-12,5.3h7.22l-3.89,3.9-3.39-3.39A1.7,1.7,0,0,0,17.42,17Zm2.2,5-3.89,3.89V18.66a1.67,1.67,0,0,0,.51-.05ZM14.14,47.88l-.39.07L10.37,36.1a2.2,2.2,0,0,0,.26-.15l3.51,3.51Zm0-10.67L11.73,34.8a3.32,3.32,0,0,0,.25-.54h2.16Zm0-4.54h-2a2.84,2.84,0,0,0-.2-.72l2.23-2.23Zm0-5.2-3.21,3.21a2.83,2.83,0,0,0-.44-.3l3.36-11.73h.29Zm2.11,20.84a3.54,3.54,0,0,0-.52-.25v-7l3.89,3.89Zm1.12,1.13,3.38-3.38L24.64,50h-7A4.9,4.9,0,0,0,17.37,49.44Zm11,5.53-10.66-3c0-.12.06-.24.08-.37.72,0,2.78,0,8.45,0l2.52,2.52A4.53,4.53,0,0,0,28.36,55Zm3.07-2.76a4,4,0,0,0-1.6.69l-1.35-1.35h2.95Zm0-2.25H26.89l-5-5,5.85-5.85,3.71,2.14Zm3.13,3A3.88,3.88,0,0,0,33,52.24v-.69H36ZM36,55a3.59,3.59,0,0,0-.37-.85l2.6-2.6H47a1.46,1.46,0,0,0,0,.29Zm11-5H39.8l3.9-3.9,3.38,3.39A1.7,1.7,0,0,0,47,50Zm-2.2-5,3.89-3.89v7.22a1.67,1.67,0,0,0-.51,0Zm5.77,3.34H50.3V39.46L53.81,36l.28.16Z"/><circle class="cls-6" cx="20.65" cy="22.07" r="2.3"/><circle class="cls-6" cx="43.62" cy="45.21" r="2.3"/><circle class="cls-6" cx="20.74" cy="45.19" r="2.3"/><circle class="cls-6" cx="43.89" cy="22.22" r="2.3"/></g><circle class="cls-7" cx="14.58" cy="15.94" r="3.24"/><circle class="cls-7" cx="49.76" cy="51.08" r="3.24"/><circle class="cls-7" cx="32.32" cy="33.29" r="9.37"/><path class="cls-8" d="M31.81,38.42a1.2,1.2,0,0,1-.89-.39l-4.16-4.56a1.2,1.2,0,0,1,1.78-1.62l3.16,3.47,6.59-9.08a1.2,1.2,0,0,1,2,1.41L32.78,37.93a1.21,1.21,0,0,1-.91.49Z"/></g></g></svg>