<?xml version="1.0" encoding="utf-8"?>
<!-- Generator: Adobe Illustrator 24.2.3, SVG Export Plug-In . SVG Version: 6.00 Build 0)  -->
<svg version="1.1" id="圖層_1" xmlns="http://www.w3.org/2000/svg" xmlns:xlink="http://www.w3.org/1999/xlink" x="0px" y="0px"
	 viewBox="0 0 260 222" style="enable-background:new 0 0 260 222;" xml:space="preserve">
<style type="text/css">
	.st0{fill:#4F201C;}
	.st1{fill:#EDCBAB;}
	.st2{fill:#2D2044;}
	.st3{fill:#FFFEFC;}
	.st4{fill:#C36A5B;}
	.st5{fill:#FFFFFF;}
	.st6{fill:#E0A97C;}
	.st7{fill:#658047;}
</style>
<g>
	<path class="st0" d="M69.2-12c0,0,2.3,5.5,2.6,19.4c0.4,14,11.6,21.6,19.9,31.3s3.7,16.2-1.9,13.8c-5.6-2.4-25.2-24-42.5-15.6
		s-20.5,1.6-17.6-6.4c2.9-8,10-9.2,9.7-14.2c-0.2-4.9-2.2-26,4.6-35.3L69.2-12z"/>
	<path class="st1" d="M93.5,192.2c-1.3,1.2-2.6,2.5-3.7,4l-0.1-0.1c-0.2-0.2-0.6,0.1-0.5,0.4c1.3,1.4,16.9,21.8,18.2,23.3
		c0.6,0.6,1.1,1.3,1.7,1.9c1.3,1.6,2.6,3.1,3.8,4.7c0.1,0.1,0.2,0.1,0.4,0c1-0.7,1.9-1.4,2.8-2.3c0.1-0.1,0.1-0.2,0-0.4
		c-1.3-1.8-2.5-3.6-3.6-5.5c-0.2-0.4-0.5-0.8-0.7-1.2c-0.1-0.2-0.2-0.4-0.4-0.6c-1-1.8-13.8-23.5-15-25.2
		C96.3,191.1,93.6,192.1,93.5,192.2z"/>
	<path class="st2" d="M117.6,223.3c-4.6-5.8-3.8-7.4-9.1-0.8c3.4,6.2-7.4,16.1-1.9,20.2c4.3-5.2,8.5-10.6,12.6-16
		C119.6,225.3,118.3,224.2,117.6,223.3z"/>
	<path class="st1" d="M-21.9,12.3c0.1,0.5,0.5,1,0.8,1.3c-1.6,5.3,8.3,6.4,10.9,9.4c4.2,2.9,5.6,9.6,11.5,6.2
		c-4.2-4.6-4-12.3-8.8-16.2c-1.9-0.7-2.8-4.2-4.9-3.7c-1.1,2,1.8,3.7,3,5.5c-1-0.5-1.8-1.1-2.6-1.8l0,0c-2-1.9-2.8-2.2-4.4-4.4
		c-0.2-0.8-3.7-5.2-3-1.7c-0.6-0.5-1.2-0.8-1.7-0.1c-0.6,3.7,3.9,6.6,6.4,8.8c-0.1,0.1-0.2,0.2-0.2,0.4
		C-16.6,16.1-22.3,8.8-21.9,12.3z"/>
	<path class="st3" d="M47,121.4c0.2,2,1.2,4.1,1.9,6c0.8,2.3,1.6,4.4,2.4,6.7c3.2,9.1,6.4,18.4,9.7,27.5c3,8.3,6.6,16.2,11.2,23.6
		c4.4,7.3,9.5,14.3,14.9,21c2.6,3.4,5.4,6.7,8.2,10.1c0.7,0.8,1.4,1.7,2,2.5c0.4,0.5,0.7,1.1,1.3,1.2s1.2-0.2,1.7-0.6
		c0.8-0.6,1.7-1.2,2.5-1.8c1.7-1.3,3.4-2.6,4.9-4.1c0.8-0.7,2.9-2,2.8-3.4c-0.1-0.8-0.8-1.7-1.3-2.4c-0.5-0.8-1-1.8-1.4-2.6
		c-1.1-1.9-2-4-3-5.9c-3.8-7.9-7.2-16.1-10-24.5c-5.3-16.3-8.4-33.4-9.1-50.5h0.1c0.4,0.1,0.5-0.5,0.1-0.5c-0.1,0-0.2,0-0.4-0.1
		c0-0.2,0-0.4,0-0.6c0-0.4-0.6-0.4-0.5,0c0,0.1,0,0.4,0,0.5c0,0,0,0-0.1,0c0-0.1,0-0.2-0.2-0.2c-0.6-0.1-1.1-0.2-1.6-0.2l-1.2-0.4
		c-0.1,0-0.1,0-0.2,0c-1.2-0.2-2.4-0.6-3.6-1c-8.2-2.5-16.3-6.7-25.1-5.6c-1.7,0.2-3.8,0.5-5.2,1.7C47,118.8,46.8,120.1,47,121.4z"
		/>
	<path class="st1" d="M43.7,196.1c-1.8,0.1-3.6,0.4-5.4,0.8c0-0.1,0-0.1,0-0.2c0-0.4-0.6-0.4-0.5,0c0.1,1.9,0.1,27.6,0.2,29.5
		c0,0.8,0.1,1.7,0.1,2.5c0.1,2,0.1,4.1,0.2,6.1c0,0.1,0.1,0.2,0.2,0.2c1.2,0,2.4,0,3.6-0.1c0.1,0,0.2-0.1,0.2-0.2
		c0.1-2.2,0.2-4.3,0.5-6.5c0-0.5,0.1-1,0.1-1.3c0-0.2,0.1-0.5,0.1-0.7c0.2-2,3.5-27,3.5-29C46.5,197,43.8,196.1,43.7,196.1z"/>
	<path class="st2" d="M43.8,235.8c0.6-7.6,2-8-6.3-6.7c-2.3,7.2-14.3,6-15.4,13.3c6.5-0.1,14.1-2.1,20.5-3
		C43.8,238.8,43.7,236.8,43.8,235.8z"/>
	<path class="st3" d="M37.7,94.9c1.4-10.6,4-13.3,5.6-22.7c0-0.1,0.1-0.2,0.2-0.2c1.6-0.1,3.2-0.2,4.8-0.2c0.1-0.5,0.4-0.8,0.8-1
		c1.1-0.5,2.5-0.2,3.7-0.4c1.4-0.1,2.9-0.2,4.3-0.2c2.8-0.2,5.6-0.6,8.5-0.5c1.8,0,3.5,0.4,4.8,1.4c0-0.1,0-0.1,0-0.2
		c0-0.4,0.6-0.4,0.6,0c0,0.2,0,0.5,0,0.8c0,0.1,0,0.1,0,0.2c0.6,8,5.5,13.6,8.6,20.9c7.7,18.4,6.5,43.9,7.4,52.6
		c0.2,2.4,0.5,4.8,0.7,7.1c-1.1,0.5-2.2,1.2-2.8,2.4c-1.6,3.1-2.8,6.4-3.7,9.6c-0.1-0.4-0.2-0.7-0.2-1.1c-1.1-3.7-4.7-4.9-7.7-4
		c-0.2-1.9-0.6-3.8-1.2-5.6c-1.4-4.4-8.8-6.5-10.9-1.4c-0.6,1.3-1.1,2.5-1.4,3.8c-0.4-2.9-0.7-5.2-1.1-6.2c0,0.1-0.2,5.9-0.7,13.1
		c-0.7,4.3-4.7,50-5,53c-0.1,1.4,0.2,4.8-1.7,5.3c-0.7,0.2-1.8,0-2.6,0l-13.4-0.5c-0.2,0-0.2-0.1-0.2-0.4
		C30.1,171.3,33.8,122,37.7,94.9z"/>
	<path class="st2" d="M28.9,39.9C42,90.7,25.1,70.7,65.4,75.2c5.7-2.6,3.2-11.3,5.4-16.2C83.1,34.4,87,29.5,58.3,18.9
		C47.6,16.6,24.3,24.6,28.9,39.9z"/>
	<path class="st1" d="M41.5,7.7c0.7,2.6,1.8,4.2,4.7,4.7c1.2,0.1,3.5-0.1,4.8-0.2c0.6-0.1,1.2-0.2,1.7-0.4c1.9-0.7,2.8-2.4,4.7-3.1
		c1.3-0.5,2.6-1,3.7-1.9c1-0.8,1.4-1.8,1.8-2.9C63,3.5,63.1,3,63.2,2.6c0.1-0.5,0.2-0.8,0.4-1.3c0.2-0.8,0.5-1.8,0.7-2.6
		c0.2-1.1,0.5-2.2,0.6-3.2c0.2-1.3,0.4-2.6,0.2-4c0-2.8-0.7-5.5-2.3-7.9c-1.9-2.9-2.9-0.2-6.1-1.2c-3.2-1.1-11.5-5.3-13.8,2
		c-0.1,0.2-0.6,2.8-1.2,6.2c-0.1,0.6-0.2,1.3-0.2,1.9C41-2.4,40.5,3.8,41.5,7.7z"/>
	<path class="st1" d="M60.8,21.5c0.2-0.7,0.4-1.4,0.5-2.2l0,0c0.2-1.2,0.4-2.4,0.4-3.7c0.1-1.7,0.1-3.4,0.2-5c0.1-2,0.2-4.1,0.4-6.1
		c0.1-2.3,0.2-4.7,0.4-7c0-0.5,0.1-1.2,0.1-1.9c0-0.6-0.2-1.1-0.7-1.3c-1.1-0.6-2.6-0.1-3.7,0.4c-0.6,0.2-1.1,0.5-1.7,0.7
		c-2.2,1-4.4,1.9-6.6,2.9c-0.5,0.2-1,0.4-1.3,0.6l0,0c-0.2,0.1-0.4,0.1-0.6,0.2c0-0.1-0.1-0.1-0.1-0.2c-0.2-0.4-0.7-0.1-0.6,0.2
		c0,0.1,0.1,0.1,0.1,0.2c-0.4,0.2-0.8,0.4-1.2,0.6c-0.4,0.1-0.1,0.7,0.2,0.6c0.5-0.2,0.8-0.4,1.3-0.6c0.2,0.4,0.4,0.7,0.6,1
		c0,3.8,0.1,7.6,0.2,11.4c0,0.2,0,0.5,0,0.6c0,1,0.1,1.9,0.2,2.9s0.1,1.9,0.2,2.8c0.1,0.8,0.1,1.7,0.2,2.5c0,0.2,0,0.4,0,0.6
		c0,0.5,0.1,0.8,0.1,1.3c0,0.1,0.2,0.2,0.4,0.2c2.4-0.1,4.7-0.1,7.1-0.2c1.1,0,2.2,0,3.2-0.1h0.1l0.1-0.1
		C60.6,22.3,60.7,21.8,60.8,21.5z"/>
	<path class="st0" d="M43.1-15.4c6.1,1.2,15.8-1.2,15.8,8.9C62.6-1.5,60,4,62,9.6c0.1,0.8,1.1-2.6,2-2.5c0.1,0,0.1,0,0.2,0
		c0,0-1.8,0-0.6-2c0,0.1,0.7,0.6,0.8,0.7c0.2,1.2,0.7,2.3,1.1,3.4c0.2,0.7,0.6-1.2,1.2-0.7c1.1,0.8,1,0.1,2.2-0.4
		c1-0.5-1.2-1.2-0.4-1.8c1.2-0.7-2.9-1.6-1.6-1.6c5-2.1,2.2-2.5-0.5-5.5c6.5-1.8-4.1-5,3.5-7.3C71.5-20.9,45.2-28.7,43.1-15.4z"/>
	<path class="st2" d="M44-3.3c-0.1,0.8-0.5,1.6-0.8,1.6c-0.4,0-0.6-0.7-0.6-1.7c0.1-0.8,0.5-1.6,0.8-1.6C43.8-4.8,44-4.1,44-3.3z"/>
	<path class="st2" d="M52.5-1.9c-0.1,0.8-0.5,1.6-0.8,1.6c-0.4,0-0.6-0.7-0.6-1.7c0.1-0.8,0.5-1.6,0.8-1.6
		C52.4-3.6,52.7-2.9,52.5-1.9z"/>
	<path class="st4" d="M44,5.3c0.6,1.1,1.9,1.9,3.4,2c1.2,0.1,2.3-0.1,3.2-0.8c0.2-0.1,0.1-0.6-0.1-0.6c-0.1,0-0.2-0.1-0.5-0.1
		c-1.8-0.4-3.6-0.8-5.4-1.4h-0.1c-0.2,0-0.4,0-0.5,0.1C43.8,4.5,43.9,5.1,44,5.3z"/>
	<path class="st5" d="M44.4,4.3c0.4,0.8,0.7,1.6,2.9,1.8c1,0.1,1.9,0.1,2.8-0.4C48.1,5.4,46.3,4.9,44.4,4.3
		C44.5,4.3,44.5,4.3,44.4,4.3z"/>
	<path class="st1" d="M63.7,0c0.1-0.6-0.1-1.2-0.5-1.8c-0.8-1.2-2.5-1.3-3.7-0.6c-0.1,0.1-0.2,0.2-0.4,0.4L59-1.9l-0.1,0.1
		c-0.5,1.1-0.7,2.3-0.6,3.5c0,0.1,0,0.2,0,0.4c0.1,0.6-1,1.9-0.7,2.4c0.2,0.4,1.7,0,2.3-0.1c0.4,0,0.7-0.5,1-0.7
		c0.1-0.1,0.4-0.2,0.5-0.4C61.7,3,62,2.6,62.4,2.4l0.1-0.1C63.1,1.5,63.6,0.8,63.7,0z"/>
	<path class="st6" d="M62.4-0.9c-0.6-0.2-1.2,0-1.7,0.4c-0.2,0.2-0.5,0.4-0.6,0.6c-0.2,0.5-0.2,1.4-1,1.6c-0.4,0.1-0.2,0.6,0.1,0.5
		C59.7,2,60,1.8,60.1,1.4c0.1-0.4,0.1-0.7,0.4-1c0.4-0.6,1.1-1.2,1.8-1C62.5-0.3,62.6-0.7,62.4-0.9z"/>
	<path class="st6" d="M46.5-3c0.2-0.2,0.7,0,0.5,0.2c-0.6,0.8-1.3,1.7-1.7,2.8c-0.2,0.7-0.4,1.8,0.6,2.2c0.5,0.1,1.1,0.1,1.6,0.2
		c0.4,0,0.4,0.6,0,0.5c-1.2-0.1-2.6-0.1-2.9-1.6C44.5-0.4,45.7-1.8,46.5-3z"/>
	<path class="st0" d="M50.9-6c0.6,0.4,1.6,0.6,2.3,0.8c0.7,0.2,1.6,0.6,2.4,0.6c0.7,0,0.7-0.2,0.8-0.5c0-0.1-0.1-0.2-0.2-0.4
		c-1.2-0.7-2.9-1.6-4.4-1.7C50.7-7,50-6.5,50.9-6z"/>
	<path class="st0" d="M41.1-7.1c0.6,0.1,1.4,0.1,2,0.2c0.7,0,1.7,0.2,2.3,0c0.6-0.1,0.6-0.4,0.6-0.6c0-0.1-0.1-0.2-0.4-0.2
		c-1.2-0.4-2.9-0.7-4.3-0.5C41.4-7.8,41.3-7.5,41.1-7.1z"/>
	<path class="st2" d="M46.5,13.8c3.4-1.5,7.8,1.5,11.6,0.4c1.1,0,2.3-0.4,3.5-0.1c3.4,1.3,1.3,9.5-0.6,11.8c0.8-0.9-1.3,1.3-0.4,0.4
		c-0.5,0.4-1,0.7-1.3,1.2c-3.6-0.7-11.4,2.9-12.5-1.9C46.8,22,45.5,16.9,46.5,13.8z"/>
	<path class="st7" d="M59.6,40.2c0,14.8-2,30.4,0.6,44.8c8.4,2,17.8,1,26.5,1.8c0.8-6.1-0.6-13.5-0.5-20C85.7,56.1,86,44.4,83,34.1
		C79.8,24,63.1,20.9,63,21.2C61.3,27.9,59.9,33.2,59.6,40.2z"/>
	<path class="st7" d="M21,82.5c6.2,2.5,15.4,1.1,22.1,3.2c2.2-21.5,1.4-44.9,1.8-66.1C15.5,25.9,21.8,60,21,82.5z"/>
	<path class="st7" d="M32.7,50.3c-1.9,6.1-8.2,9-14,10.2C3.6,58-3,40.2-13.1,26.4c4.6-2.3,6-3.5,10.2-6.4
		c22,24.8,14.5,24.9,36.5,4.3c0.6,0.6,1.3,1,2,1.3C35.6,33.8,35.1,42.5,32.7,50.3z"/>
	<path class="st1" d="M76.4,122.4c0.5,1.3,1.8,1.7,3,2c0.8,0.2,1.7,1,2.5,1.1c0.4,0,0.6-0.1,1-0.1c0.7-0.1,1.3,0,2,0.1
		c1.2,0.2,1.7,0,1.7-1.3c0.1-2,0-4.3-0.6-6.2c-0.7-2.3-2.5-4.3-2-6.8c0.1-0.4-0.5-0.5-0.5-0.1c0,0.1,0,0.1,0,0.1
		c-1.8,0-4,0.2-5.3,1.3s-1,2.5-1,4.1C77.3,118.5,75.6,120.5,76.4,122.4z"/>
	<path class="st7" d="M73.1,74.3c0.1,12.4,0.6,24.7,2.5,37c-0.2,3,1.5,4.9,4.4,4.9c4.3,0.4,12.7,3.2,12-4c0.8-12.3-1.5-24.7-2-36.8
		c0-16.3,4.6-38.7-12.4-48.2c-2.5-1.5-4.3-1.1-0.5,0.2C72.9,42.8,72,58.4,73.1,74.3z"/>
	<path class="st2" d="M73.2,53c0-0.4,0.6-0.4,0.5,0c-1,7.6-1,15.2-0.1,22.7c0,0.4-0.5,0.4-0.5,0C72.1,68.3,72.2,60.6,73.2,53z"/>
	<path class="st2" d="M25.7,51.6c0.8-4.1,2-8.2,3.6-12c0.1-0.4,0.6-0.1,0.5,0.1c-1.6,3.8-2.8,7.9-3.6,12
		C26.1,52.1,25.7,51.9,25.7,51.6z"/>
	<path class="st0" d="M56.1-16.9c0,0-6.7,8.6-15.1,7.6C41.4-21.3,48.3-19.4,56.1-16.9z"/>
</g>
<g>
	<path class="st0" d="M223.8-12c0,0,2.3,5.5,2.6,19.4c0.4,14,11.6,21.6,19.9,31.3c8.3,9.7,3.7,16.2-1.9,13.8
		c-5.6-2.4-25.2-24-42.5-15.6s-20.5,1.6-17.6-6.4c2.9-8,10-9.2,9.7-14.2c-0.2-4.9-2.2-26,4.6-35.3L223.8-12z"/>
	<path class="st1" d="M248,192.2c-1.3,1.2-2.6,2.5-3.7,4l-0.1-0.1c-0.2-0.2-0.6,0.1-0.5,0.4c1.3,1.4,16.9,21.8,18.2,23.3
		c0.6,0.6,1.1,1.3,1.7,1.9c1.3,1.6,2.6,3.1,3.8,4.7c0.1,0.1,0.2,0.1,0.4,0c1-0.7,1.9-1.4,2.8-2.3c0.1-0.1,0.1-0.2,0-0.4
		c-1.3-1.8-2.5-3.6-3.6-5.5c-0.2-0.4-0.5-0.8-0.7-1.2c-0.1-0.2-0.2-0.4-0.4-0.6c-1-1.8-13.8-23.5-15-25.2
		C250.9,191.1,248.2,192.1,248,192.2z"/>
	<path class="st2" d="M272.3,223.5c-4.3-6.1-3.5-7.6-9.1-1.3c3.1,6.3-8.2,15.7-3,20c4.5-5,9-10.2,13.4-15.3
		C274.2,225.6,272.9,224.5,272.3,223.5z"/>
	<path class="st1" d="M136.1,4.8c0.1,0.5,0.4,1,0.7,1.4c-2.2,5.1,7.4,7.4,9.7,10.6c3.8,3.4,4.4,10.2,10.7,7.6
		c-3.6-5.1-2.4-12.6-6.7-17.1c-1.8-1-2.3-4.5-4.4-4.3c-1.3,1.8,1.4,3.8,2.3,5.8c-0.9-0.6-1.7-1.3-2.4-2.1l0,0
		c-1.8-2.2-2.5-2.5-3.9-4.9c-0.1-0.8-3-5.6-2.8-2c-0.5-0.5-1.1-1-1.7-0.3c-1,3.8,3,6.9,5.2,9.5c-0.1,0.1-0.3,0.2-0.3,0.3
		C140.9,9.3,136.2,1.3,136.1,4.8z"/>
	<path class="st3" d="M201.6,121.4c0.2,2,1.2,4.1,1.9,6c0.8,2.3,1.6,4.4,2.4,6.7c3.2,9.1,6.4,18.4,9.7,27.5
		c3,8.3,6.6,16.2,11.2,23.6c4.4,7.3,9.5,14.3,14.9,21c2.6,3.4,5.4,6.7,8.2,10.1c0.7,0.8,1.4,1.7,2,2.5c0.4,0.5,0.7,1.1,1.3,1.2
		c0.6,0.1,1.2-0.2,1.7-0.6c0.8-0.6,1.7-1.2,2.5-1.8c1.7-1.3,3.4-2.6,4.9-4.1c0.8-0.7,2.9-2,2.8-3.4c-0.1-0.8-0.8-1.7-1.3-2.4
		c-0.5-0.8-1-1.8-1.4-2.6c-1.1-1.9-2-4-3-5.9c-3.8-7.9-7.2-16.1-10-24.5c-5.3-16.3-8.4-33.4-9.1-50.5h0.1c0.4,0.1,0.5-0.5,0.1-0.5
		c-0.1,0-0.2,0-0.4-0.1c0-0.2,0-0.4,0-0.6c0-0.4-0.6-0.4-0.5,0c0,0.1,0,0.4,0,0.5c0,0,0,0-0.1,0c0-0.1,0-0.2-0.2-0.2
		c-0.6-0.1-1.1-0.2-1.6-0.2l-1.2-0.4c-0.1,0-0.1,0-0.2,0c-1.2-0.2-2.4-0.6-3.6-1c-8.2-2.5-16.3-6.7-25.1-5.6
		c-1.7,0.2-3.8,0.5-5.2,1.7C201.6,118.8,201.4,120.1,201.6,121.4z"/>
	<path class="st1" d="M198.2,196.1c-1.8,0.1-3.6,0.4-5.4,0.8c0-0.1,0-0.1,0-0.2c0-0.4-0.6-0.4-0.5,0c0.1,1.9,0.1,27.6,0.2,29.5
		c0,0.8,0.1,1.7,0.1,2.5c0.1,2,0.1,4.1,0.2,6.1c0,0.1,0.1,0.2,0.2,0.2c1.2,0,2.4,0,3.6-0.1c0.1,0,0.2-0.1,0.2-0.2
		c0.1-2.2,0.2-4.3,0.5-6.5c0-0.5,0.1-1,0.1-1.3c0-0.2,0.1-0.5,0.1-0.7c0.2-2,3.5-27,3.5-29C201.1,197,198.4,196.1,198.2,196.1z"/>
	<path class="st2" d="M198.4,235.4c0-7.6,1.3-8.1-6.8-6.1c-1.6,7.4-13.7,7.2-14.2,14.6c6.5-0.7,13.8-3.3,20.2-4.8
		C198.7,238.4,198.3,236.5,198.4,235.4z"/>
	<path class="st3" d="M192.2,94.9c1.4-10.6,4-13.3,5.6-22.7c0-0.1,0.1-0.2,0.2-0.2c1.6-0.1,3.2-0.2,4.8-0.2c0.1-0.5,0.4-0.8,0.8-1
		c1.1-0.5,2.5-0.2,3.7-0.4c1.4-0.1,2.9-0.2,4.3-0.2c2.8-0.2,5.6-0.6,8.5-0.5c1.8,0,3.5,0.4,4.8,1.4c0-0.1,0-0.1,0-0.2
		c0-0.4,0.6-0.4,0.6,0c0,0.2,0,0.5,0,0.8c0,0.1,0,0.1,0,0.2c0.6,8,5.5,13.6,8.6,20.9c7.7,18.4,6.5,43.9,7.4,52.6
		c0.2,2.4,0.5,4.8,0.7,7.1c-1.1,0.5-2.2,1.2-2.8,2.4c-1.6,3.1-2.8,6.4-3.7,9.6c-0.1-0.4-0.2-0.7-0.2-1.1c-1.1-3.7-4.7-4.9-7.7-4
		c-0.2-1.9-0.6-3.8-1.2-5.6c-1.4-4.4-8.8-6.5-10.9-1.4c-0.6,1.3-1.1,2.5-1.4,3.8c-0.4-2.9-0.7-5.2-1.1-6.2c0,0.1-0.2,5.9-0.7,13.1
		c-0.7,4.3-4.7,50-5,53c-0.1,1.4,0.2,4.8-1.7,5.3c-0.7,0.2-1.8,0-2.6,0l-13.4-0.5c-0.2,0-0.2-0.1-0.2-0.4
		C184.7,171.3,188.4,122,192.2,94.9z"/>
	<path class="st2" d="M183.5,39.9c13.1,50.8-3.8,30.8,36.5,35.3c5.7-2.6,3.2-11.3,5.4-16.2c12.3-24.6,16.2-29.5-12.5-40.1
		C202.2,16.6,178.9,24.6,183.5,39.9z"/>
	<path class="st1" d="M196.1,7.7c0.7,2.6,1.8,4.2,4.7,4.7c1.2,0.1,3.5-0.1,4.8-0.2c0.6-0.1,1.2-0.2,1.7-0.4c1.9-0.7,2.8-2.4,4.7-3.1
		c1.3-0.5,2.6-1,3.7-1.9c1-0.8,1.4-1.8,1.8-2.9c0.1-0.4,0.2-0.8,0.4-1.2c0.1-0.5,0.2-0.8,0.4-1.3c0.2-0.8,0.5-1.8,0.7-2.6
		c0.2-1.1,0.5-2.2,0.6-3.2c0.2-1.3,0.4-2.6,0.2-4c0-2.8-0.7-5.5-2.3-7.9c-1.9-2.9-2.9-0.2-6.1-1.2c-3.2-1.1-11.5-5.3-13.8,2
		c-0.1,0.2-0.6,2.8-1.2,6.2c-0.1,0.6-0.2,1.3-0.2,1.9C195.6-2.4,195.1,3.8,196.1,7.7z"/>
	<path class="st1" d="M215.4,21.5c0.2-0.7,0.4-1.4,0.5-2.2l0,0c0.2-1.2,0.4-2.4,0.4-3.7c0.1-1.7,0.1-3.4,0.2-5
		c0.1-2,0.2-4.1,0.4-6.1c0.1-2.3,0.2-4.7,0.4-7c0-0.5,0.1-1.2,0.1-1.9c0-0.6-0.2-1.1-0.7-1.3c-1.1-0.6-2.6-0.1-3.7,0.4
		c-0.6,0.2-1.1,0.5-1.7,0.7c-2.2,1-4.4,1.9-6.6,2.9c-0.5,0.2-1,0.4-1.3,0.6l0,0c-0.2,0.1-0.4,0.1-0.6,0.2c0-0.1-0.1-0.1-0.1-0.2
		c-0.2-0.4-0.7-0.1-0.6,0.2c0,0.1,0.1,0.1,0.1,0.2c-0.4,0.2-0.8,0.4-1.2,0.6c-0.4,0.1-0.1,0.7,0.2,0.6c0.5-0.2,0.8-0.4,1.3-0.6
		c0.2,0.4,0.4,0.7,0.6,1c0,3.8,0.1,7.6,0.2,11.4c0,0.2,0,0.5,0,0.6c0,1,0.1,1.9,0.2,2.9s0.1,1.9,0.2,2.8c0.1,0.8,0.1,1.7,0.2,2.5
		c0,0.2,0,0.4,0,0.6c0,0.5,0.1,0.8,0.1,1.3c0,0.1,0.2,0.2,0.4,0.2c2.4-0.1,4.7-0.1,7.1-0.2c1.1,0,2.2,0,3.2-0.1h0.1l0.1-0.1
		C215.2,22.3,215.3,21.8,215.4,21.5z"/>
	<path class="st0" d="M197.6-15.4c6.1,1.2,15.8-1.2,15.8,8.9c3.8,5,1.1,10.6,3.1,16.1c0.1,0.8,1.1-2.6,2-2.5c0.1,0,0.1,0,0.2,0
		c0,0-1.8,0-0.6-2c0,0.1,0.7,0.6,0.8,0.7c0.2,1.2,0.7,2.3,1.1,3.4c0.2,0.7,0.6-1.2,1.2-0.7c1.1,0.8,1,0.1,2.2-0.4
		c1-0.5-1.2-1.2-0.4-1.8c1.2-0.7-2.9-1.6-1.6-1.6c5-2.1,2.2-2.5-0.5-5.5c6.5-1.8-4.1-5,3.5-7.3C226-20.9,199.7-28.7,197.6-15.4z"/>
	<path class="st2" d="M198.6-3.3c-0.1,0.8-0.5,1.6-0.8,1.6s-0.6-0.7-0.6-1.7c0.1-0.8,0.5-1.6,0.8-1.6C198.4-4.8,198.6-4.1,198.6-3.3
		z"/>
	<path class="st2" d="M207.1-1.9c-0.1,0.8-0.5,1.6-0.8,1.6s-0.6-0.7-0.6-1.7c0.1-0.8,0.5-1.6,0.8-1.6C207-3.6,207.2-2.9,207.1-1.9z"
		/>
	<path class="st4" d="M198.6,5.3c0.6,1.1,1.9,1.9,3.4,2c1.2,0.1,2.3-0.1,3.2-0.8c0.2-0.1,0.1-0.6-0.1-0.6c-0.1,0-0.2-0.1-0.5-0.1
		c-1.8-0.4-3.6-0.8-5.4-1.4h-0.1c-0.2,0-0.4,0-0.5,0.1C198.4,4.5,198.5,5.1,198.6,5.3z"/>
	<path class="st5" d="M199,4.3c0.4,0.8,0.7,1.6,2.9,1.8c1,0.1,1.9,0.1,2.8-0.4C202.7,5.4,200.9,4.9,199,4.3
		C199.1,4.3,199.1,4.3,199,4.3z"/>
	<path class="st1" d="M218.3,0c0.1-0.6-0.1-1.2-0.5-1.8c-0.8-1.2-2.5-1.3-3.7-0.6c-0.1,0.1-0.2,0.2-0.4,0.4l-0.1,0.1l-0.1,0.1
		c-0.5,1.1-0.7,2.3-0.6,3.5c0,0.1,0,0.2,0,0.4c0.1,0.6-1,1.9-0.7,2.4c0.2,0.4,1.7,0,2.3-0.1c0.4,0,0.7-0.5,1-0.7
		c0.1-0.1,0.4-0.2,0.5-0.4c0.4-0.2,0.7-0.6,1.1-0.8l0.1-0.1C217.7,1.5,218.2,0.8,218.3,0z"/>
	<path class="st6" d="M217-0.9c-0.6-0.2-1.2,0-1.7,0.4c-0.2,0.2-0.5,0.4-0.6,0.6c-0.2,0.5-0.2,1.4-1,1.6c-0.4,0.1-0.2,0.6,0.1,0.5
		c0.5-0.1,0.7-0.4,0.8-0.7c0.1-0.4,0.1-0.7,0.4-1c0.4-0.6,1.1-1.2,1.8-1C217.1-0.3,217.2-0.7,217-0.9z"/>
	<path class="st6" d="M201.1-3c0.2-0.2,0.7,0,0.5,0.2c-0.6,0.8-1.3,1.7-1.7,2.8c-0.2,0.7-0.4,1.8,0.6,2.2c0.5,0.1,1.1,0.1,1.6,0.2
		c0.4,0,0.4,0.6,0,0.5c-1.2-0.1-2.6-0.1-2.9-1.6C199.1-0.4,200.3-1.8,201.1-3z"/>
	<path class="st0" d="M205.4-6c0.6,0.4,1.6,0.6,2.3,0.8s1.6,0.6,2.4,0.6c0.7,0,0.7-0.2,0.8-0.5c0-0.1-0.1-0.2-0.2-0.4
		c-1.2-0.7-2.9-1.6-4.4-1.7C205.3-7,204.6-6.5,205.4-6z"/>
	<path class="st0" d="M195.7-7.1c0.6,0.1,1.4,0.1,2,0.2c0.7,0,1.7,0.2,2.3,0c0.6-0.1,0.6-0.4,0.6-0.6c0-0.1-0.1-0.2-0.4-0.2
		c-1.2-0.4-2.9-0.7-4.3-0.5C196-7.8,195.8-7.5,195.7-7.1z"/>
	<path class="st2" d="M201.1,13.8c3.4-1.5,7.8,1.5,11.6,0.4c1.1,0,2.3-0.4,3.5-0.1c3.4,1.3,1.3,9.5-0.6,11.8
		c0.8-0.9-1.3,1.3-0.4,0.4c-0.5,0.4-1,0.7-1.3,1.2c-3.6-0.7-11.4,2.9-12.5-1.9C201.4,22,200.1,16.9,201.1,13.8z"/>
	<path class="st7" d="M214.2,40.2c0,14.8-2,30.4,0.6,44.8c8.4,2,17.8,1,26.5,1.8c0.8-6.1-0.6-13.5-0.5-20
		c-0.6-10.6-0.2-22.3-3.2-32.6c-3.2-10.1-19.9-13.2-20-12.8C215.9,27.9,214.4,33.2,214.2,40.2z"/>
	<path class="st7" d="M175.6,82.5c6.2,2.5,15.4,1.1,22.1,3.2c2.2-21.5,1.4-44.9,1.8-66.1C170.1,25.9,176.4,60,175.6,82.5z"/>
	<path class="st7" d="M185.7,49.1c-2.6,5.8-9.3,7.9-15.2,8.4c-14.7-4.2-19.1-22.8-27.4-37.7c4.8-1.7,6.4-2.7,10.9-5.1
		c18.8,27.3,11.3,26.5,35.7,8.7c0.5,0.7,1.2,1.1,1.9,1.6C190.6,33.2,189,41.7,185.7,49.1z"/>
	<path class="st1" d="M235.4,122.5c0.5,1.3,1.9,1.6,3.1,1.9c0.9,0.2,1.7,0.9,2.6,0.9c0.4,0,0.6-0.2,1-0.2c0.7-0.2,1.3-0.1,2,0
		c1.2,0.2,1.7-0.1,1.6-1.4c0-2-0.2-4.3-0.9-6.2c-0.8-2.2-2.7-4.2-2.4-6.7c0.1-0.4-0.5-0.5-0.5-0.1c0,0.1,0,0.1,0,0.1
		c-1.8,0.1-3.9,0.4-5.2,1.6c-1.3,1.1-0.8,2.6-0.7,4.1C236.1,118.6,234.5,120.6,235.4,122.5z"/>
	<path class="st7" d="M229.5,74.6c0.8,12.3,1.9,24.7,4.5,36.8c-0.1,3,1.8,4.8,4.7,4.7c4.3,0.2,12.9,2.5,11.8-4.6
		c0.2-12.3-2.8-24.6-4-36.7c-0.8-16.2,2.5-38.9-14.9-47.5c-2.5-1.4-4.4-0.9-0.5,0.3C227.7,43.2,227.7,58.8,229.5,74.6z"/>
	<path class="st2" d="M228.6,53.4c0-0.4,0.6-0.4,0.5,0c-0.6,7.6-0.2,15.3,1.1,22.7c0,0.4-0.5,0.4-0.5,0
		C228.3,68.6,228,61,228.6,53.4z"/>
	<path class="st2" d="M180.2,51.6c0.8-4.1,2-8.2,3.6-12c0.1-0.4,0.6-0.1,0.5,0.1c-1.6,3.8-2.8,7.9-3.6,12
		C180.7,52.1,180.2,51.9,180.2,51.6z"/>
	<path class="st0" d="M210.7-16.9c0,0-6.7,8.6-15.1,7.6C196-21.3,202.9-19.4,210.7-16.9z"/>
</g>
</svg>
