<?xml version="1.0" encoding="utf-8"?>
<!-- Generator: Adobe Illustrator 25.2.0, SVG Export Plug-In . SVG Version: 6.00 Build 0)  -->
<svg version="1.1" id="圖層_1" xmlns="http://www.w3.org/2000/svg" xmlns:xlink="http://www.w3.org/1999/xlink" x="0px" y="0px"
	 viewBox="0 0 463 796" style="enable-background:new 0 0 463 796;" xml:space="preserve">
<style type="text/css">
	.st0{fill:#D8E7F0;}
	.st1{fill:#404259;}
	.st2{fill:#EAAB72;}
	.st3{fill:#DA565D;}
	.st4{fill:#9BAF9C;}
	.st5{fill:#2B2B3A;}
	.st6{fill:#63637E;}
	.st7{fill:#CACAE0;}
	.st8{fill:none;}
	.st9{fill:#F5DCC1;}
	.st10{fill:#869FBA;}
	.st11{fill:#617482;}
	.st12{fill:#FFFFFF;}
	.st13{fill:#8696A6;}
</style>
<g>
	<g>
		<g>
			<g>
				<path class="st0" d="M270.9,29.9l-2.2,2l-1.3-1.5l3.6-3h2.2v11.1h-2.3L270.9,29.9L270.9,29.9z"/>
				<path class="st0" d="M276.2,32.8c0-0.7,0.1-1.3,0.2-2s0.3-1.3,0.6-1.8c0.3-0.6,0.7-1,1.3-1.4c0.5-0.3,1.2-0.5,2-0.5
					s1.5,0.2,2,0.5s1,0.8,1.3,1.4c0.3,0.6,0.5,1.2,0.6,1.8c0.1,0.7,0.2,1.3,0.2,2s-0.1,1.3-0.2,2s-0.3,1.3-0.6,1.8
					c-0.3,0.6-0.7,1-1.3,1.4c-0.5,0.3-1.2,0.5-2,0.5s-1.5-0.2-2-0.5c-0.5-0.4-1-0.8-1.3-1.4c-0.3-0.6-0.5-1.2-0.6-1.8
					C276.3,34.2,276.2,33.5,276.2,32.8z M278.6,32.8c0,0.3,0,0.6,0,1s0.1,0.8,0.2,1.2s0.3,0.7,0.5,1s0.6,0.4,1,0.4s0.7-0.1,1-0.4
					c0.2-0.3,0.4-0.6,0.5-1s0.2-0.8,0.2-1.2s0-0.8,0-1s0-0.6,0-1s-0.1-0.8-0.2-1.2s-0.3-0.7-0.5-1s-0.6-0.4-1-0.4s-0.8,0.1-1,0.4
					c-0.2,0.3-0.4,0.6-0.5,1s-0.2,0.8-0.2,1.2S278.6,32.6,278.6,32.8z"/>
				<path class="st0" d="M286.4,35.8h2.3l-1.4,4.4h-2L286.4,35.8z"/>
				<path class="st0" d="M294.1,31.3c0.1,0,0.3-0.1,0.4-0.1s0.3,0,0.4,0c0.5,0,1,0.1,1.4,0.3s0.8,0.4,1.1,0.8
					c0.3,0.3,0.5,0.7,0.7,1.1c0.2,0.4,0.2,0.9,0.2,1.4c0,0.6-0.1,1.1-0.3,1.6c-0.2,0.5-0.5,0.9-0.9,1.2s-0.8,0.6-1.3,0.8
					s-1,0.3-1.6,0.3s-1.1-0.1-1.6-0.3s-0.9-0.4-1.3-0.8c-0.4-0.3-0.7-0.7-0.9-1.2c-0.2-0.5-0.3-1-0.3-1.6c0-0.4,0-0.8,0.1-1.1
					s0.2-0.6,0.3-0.9c0.1-0.3,0.3-0.6,0.4-0.8c0.2-0.3,0.3-0.5,0.5-0.8l2.4-3.8h2.9L294.1,31.3z M296,34.7c0-0.5-0.2-0.9-0.5-1.2
					s-0.8-0.5-1.3-0.5s-1,0.2-1.3,0.5s-0.5,0.7-0.5,1.2s0.2,0.9,0.5,1.2s0.8,0.5,1.3,0.5s1-0.2,1.3-0.5
					C295.8,35.6,296,35.2,296,34.7z"/>
				<path class="st0" d="M299.8,30.2c0-0.5,0.1-1,0.3-1.3c0.2-0.4,0.5-0.7,0.8-1s0.7-0.4,1.2-0.6c0.4-0.1,0.9-0.2,1.4-0.2
					s1,0.1,1.4,0.2c0.4,0.1,0.8,0.3,1.2,0.6c0.3,0.3,0.6,0.6,0.8,1c0.2,0.4,0.3,0.8,0.3,1.3c0,0.6-0.2,1.1-0.5,1.5s-0.8,0.7-1.4,0.9
					l0,0c0.7,0.2,1.2,0.5,1.5,1c0.4,0.5,0.5,1,0.5,1.7c0,0.5-0.1,1-0.3,1.4c-0.2,0.4-0.5,0.7-0.9,1s-0.8,0.5-1.2,0.6
					c-0.5,0.1-1,0.2-1.5,0.2s-1-0.1-1.5-0.2c-0.5-0.1-0.9-0.3-1.2-0.6c-0.4-0.3-0.6-0.6-0.9-1c-0.2-0.4-0.3-0.9-0.3-1.4
					c0-0.7,0.2-1.3,0.5-1.7s0.9-0.8,1.5-1l0,0c-0.6-0.2-1.1-0.5-1.4-0.9C299.9,31.3,299.8,30.8,299.8,30.2z M301.9,35
					c0,0.4,0.1,0.7,0.4,1s0.7,0.4,1.1,0.4c0.5,0,0.8-0.1,1.1-0.4c0.3-0.3,0.4-0.6,0.4-1s-0.1-0.7-0.4-1s-0.7-0.4-1.1-0.4
					c-0.5,0-0.8,0.1-1.1,0.4C302.1,34.3,301.9,34.6,301.9,35z M302.1,30.5c0,0.3,0.1,0.6,0.4,0.9c0.2,0.2,0.6,0.4,1,0.4
					s0.7-0.1,1-0.4c0.3-0.2,0.4-0.5,0.4-0.9c0-0.3-0.1-0.6-0.4-0.9c-0.3-0.2-0.6-0.4-1-0.4s-0.7,0.1-1,0.4S302.1,30.2,302.1,30.5z"
					/>
				<path class="st0" d="M312.9,34.4c-0.1,0-0.2,0.1-0.4,0.1c-0.1,0-0.3,0-0.4,0c-0.5,0-1-0.1-1.4-0.3s-0.8-0.4-1.1-0.8
					c-0.3-0.3-0.5-0.7-0.7-1.1c-0.2-0.4-0.3-0.9-0.3-1.4c0-0.6,0.1-1.1,0.3-1.6c0.2-0.5,0.5-0.9,0.9-1.2s0.8-0.6,1.3-0.8
					s1-0.3,1.6-0.3s1.1,0.1,1.6,0.3s0.9,0.4,1.3,0.8c0.4,0.3,0.7,0.7,0.9,1.2c0.2,0.5,0.3,1,0.3,1.6c0,0.4,0,0.8-0.1,1.1
					s-0.2,0.6-0.3,0.9c-0.1,0.3-0.3,0.6-0.4,0.8c-0.2,0.3-0.3,0.5-0.5,0.8l-2.4,3.8h-2.9L312.9,34.4z M311,31c0,0.5,0.2,0.9,0.5,1.2
					s0.8,0.5,1.3,0.5s1-0.2,1.3-0.5s0.5-0.7,0.5-1.2s-0.2-0.9-0.5-1.2s-0.8-0.5-1.3-0.5s-1,0.2-1.3,0.5C311.1,30.1,311,30.5,311,31z
					"/>
				<path class="st0" d="M317.9,32.8c0-0.7,0.1-1.3,0.2-2s0.3-1.3,0.6-1.8c0.3-0.6,0.7-1,1.3-1.4c0.5-0.3,1.2-0.5,2-0.5
					s1.5,0.2,2,0.5s1,0.8,1.3,1.4c0.3,0.6,0.5,1.2,0.6,1.8c0.1,0.7,0.2,1.3,0.2,2s-0.1,1.3-0.2,2s-0.3,1.3-0.6,1.8
					c-0.3,0.6-0.7,1-1.3,1.4c-0.5,0.3-1.2,0.5-2,0.5s-1.5-0.2-2-0.5c-0.5-0.4-1-0.8-1.3-1.4c-0.3-0.6-0.5-1.2-0.6-1.8
					C317.9,34.2,317.9,33.5,317.9,32.8z M320.2,32.8c0,0.3,0,0.6,0,1s0.1,0.8,0.2,1.2s0.3,0.7,0.5,1s0.6,0.4,1,0.4s0.7-0.1,1-0.4
					c0.2-0.3,0.4-0.6,0.5-1s0.2-0.8,0.2-1.2s0-0.8,0-1s0-0.6,0-1s-0.1-0.8-0.2-1.2s-0.3-0.7-0.5-1s-0.6-0.4-1-0.4s-0.8,0.1-1,0.4
					c-0.2,0.3-0.4,0.6-0.5,1s-0.2,0.8-0.2,1.2S320.2,32.6,320.2,32.8z"/>
				<path class="st0" d="M330,31.7h0.8c0.2,0,0.4,0,0.6,0s0.4-0.1,0.6-0.2c0.2-0.1,0.3-0.2,0.4-0.4s0.2-0.4,0.2-0.6
					c0-0.3-0.1-0.6-0.4-0.8s-0.6-0.3-1-0.3s-0.7,0.1-0.9,0.3c-0.2,0.2-0.4,0.4-0.5,0.7l-2.6-0.5c0.1-0.5,0.3-0.9,0.6-1.2
					c0.3-0.3,0.5-0.6,0.9-0.8c0.3-0.2,0.7-0.4,1.1-0.5s0.9-0.1,1.3-0.1c0.5,0,1,0.1,1.4,0.2c0.5,0.1,0.9,0.3,1.2,0.6
					c0.3,0.3,0.6,0.6,0.8,1c0.2,0.4,0.3,0.8,0.3,1.4c0,0.6-0.2,1.1-0.5,1.6c-0.3,0.4-0.8,0.7-1.4,0.8l0,0c0.3,0,0.6,0.1,0.9,0.3
					s0.5,0.3,0.6,0.6c0.2,0.2,0.3,0.5,0.4,0.8s0.1,0.6,0.1,0.9c0,0.6-0.1,1-0.3,1.5c-0.2,0.4-0.5,0.8-0.9,1
					c-0.4,0.3-0.8,0.5-1.3,0.6s-1,0.2-1.5,0.2c-1,0-1.8-0.2-2.6-0.7c-0.7-0.5-1.2-1.2-1.4-2.2l2.5-0.6c0.1,0.4,0.3,0.7,0.5,0.9
					s0.6,0.3,1.1,0.3s0.9-0.1,1.1-0.4c0.2-0.3,0.4-0.6,0.4-1c0-0.3-0.1-0.6-0.2-0.7c-0.1-0.2-0.3-0.3-0.5-0.4
					c-0.2-0.1-0.4-0.1-0.7-0.1c-0.3,0-0.5,0-0.8,0H330V31.7z"/>
				<path class="st0" d="M341.7,27.3h7.5v2.3h-5.1v2.1h4.8V34h-4.8v2.3h5.4v2.3h-7.8V27.3z"/>
				<path class="st0" d="M360.8,34.1c0,0.7-0.1,1.3-0.3,1.8c-0.2,0.6-0.5,1-0.9,1.4s-0.9,0.7-1.5,1c-0.6,0.2-1.3,0.3-2,0.3
					c-0.8,0-1.4-0.1-2-0.3s-1.1-0.5-1.5-1c-0.4-0.4-0.7-0.9-0.9-1.4c-0.2-0.6-0.3-1.2-0.3-1.8v-6.8h2.4V34c0,0.3,0.1,0.7,0.2,1
					s0.3,0.5,0.5,0.8c0.2,0.2,0.4,0.4,0.7,0.5c0.3,0.1,0.6,0.2,0.9,0.2s0.6-0.1,0.9-0.2c0.3-0.1,0.5-0.3,0.7-0.5s0.4-0.5,0.5-0.8
					s0.2-0.6,0.2-1v-6.7h2.4L360.8,34.1L360.8,34.1z"/>
				<path class="st0" d="M363,27.3h4.3c0.6,0,1.1,0.1,1.6,0.2c0.5,0.1,1,0.3,1.3,0.5c0.4,0.3,0.7,0.6,0.9,1c0.2,0.4,0.3,1,0.3,1.6
					c0,0.8-0.2,1.4-0.6,2c-0.4,0.5-1,0.9-1.8,1l2.8,4.7H369l-2.3-4.4h-1.2v4.4H363V27.3z M365.5,31.9h1.4c0.2,0,0.5,0,0.7,0
					s0.5-0.1,0.7-0.1c0.2-0.1,0.4-0.2,0.5-0.4s0.2-0.4,0.2-0.7s-0.1-0.5-0.2-0.7s-0.3-0.3-0.4-0.4c-0.2-0.1-0.4-0.1-0.6-0.2
					c-0.2,0-0.5,0-0.7,0h-1.6V31.9z"/>
				<path class="st0" d="M376.7,26.5l1.8,0.5l-4.7,12.2l-1.8-0.5L376.7,26.5z"/>
				<path class="st0" d="M388.9,34.1c0,0.7-0.1,1.3-0.3,1.8c-0.2,0.6-0.5,1-0.9,1.4s-0.9,0.7-1.5,1c-0.6,0.2-1.3,0.3-2,0.3
					c-0.8,0-1.4-0.1-2-0.3s-1.1-0.5-1.5-1c-0.4-0.4-0.7-0.9-0.9-1.4c-0.2-0.6-0.3-1.2-0.3-1.8v-6.8h2.4V34c0,0.3,0.1,0.7,0.2,1
					s0.3,0.5,0.5,0.8c0.2,0.2,0.4,0.4,0.7,0.5c0.3,0.1,0.6,0.2,0.9,0.2s0.6-0.1,0.9-0.2c0.3-0.1,0.5-0.3,0.7-0.5s0.4-0.5,0.5-0.8
					s0.2-0.6,0.2-1v-6.7h2.4L388.9,34.1L388.9,34.1z"/>
				<path class="st0" d="M396.6,30c-0.2-0.3-0.5-0.4-0.8-0.6c-0.3-0.1-0.7-0.2-1-0.2c-0.2,0-0.4,0-0.5,0.1c-0.2,0-0.4,0.1-0.5,0.2
					c-0.2,0.1-0.3,0.2-0.4,0.4c-0.1,0.1-0.2,0.3-0.2,0.5c0,0.3,0.1,0.6,0.4,0.8c0.2,0.2,0.6,0.3,0.9,0.5c0.4,0.1,0.8,0.3,1.2,0.4
					c0.4,0.1,0.8,0.3,1.2,0.5c0.4,0.2,0.7,0.5,0.9,0.9c0.2,0.4,0.4,0.9,0.4,1.5s-0.1,1.2-0.3,1.6c-0.2,0.5-0.5,0.8-0.9,1.1
					s-0.8,0.5-1.4,0.7c-0.5,0.1-1.1,0.2-1.6,0.2c-0.7,0-1.4-0.1-2-0.3s-1.2-0.6-1.7-1.1l1.7-1.9c0.3,0.3,0.6,0.6,0.9,0.8
					c0.4,0.2,0.8,0.3,1.2,0.3c0.2,0,0.4,0,0.6-0.1c0.2,0,0.4-0.1,0.5-0.2c0.2-0.1,0.3-0.2,0.4-0.4c0.1-0.1,0.1-0.3,0.1-0.5
					c0-0.3-0.1-0.6-0.4-0.8s-0.6-0.4-1-0.5s-0.8-0.3-1.3-0.4c-0.4-0.1-0.9-0.3-1.3-0.5s-0.7-0.5-1-0.9s-0.4-0.9-0.4-1.5
					s0.1-1.1,0.4-1.6c0.2-0.4,0.5-0.8,0.9-1.1s0.8-0.5,1.4-0.7c0.5-0.2,1-0.2,1.6-0.2s1.2,0.1,1.8,0.3c0.6,0.2,1.1,0.5,1.6,0.9
					L396.6,30z"/>
				<path class="st0" d="M400.1,27.3h3.7c0.9,0,1.7,0.1,2.5,0.3s1.5,0.5,2.1,1c0.6,0.4,1.1,1,1.4,1.7s0.5,1.6,0.5,2.6
					c0,0.9-0.2,1.7-0.5,2.4s-0.8,1.3-1.4,1.7c-0.6,0.5-1.2,0.8-2,1.1c-0.7,0.2-1.5,0.4-2.4,0.4h-4L400.1,27.3L400.1,27.3z
					 M402.5,36.1h1.3c0.6,0,1.1-0.1,1.6-0.2c0.5-0.1,0.9-0.3,1.3-0.6s0.6-0.6,0.8-1c0.2-0.4,0.3-1,0.3-1.6c0-0.5-0.1-1-0.3-1.4
					c-0.2-0.4-0.5-0.7-0.8-1s-0.7-0.5-1.2-0.6s-1-0.2-1.5-0.2h-1.4L402.5,36.1L402.5,36.1z"/>
			</g>
		</g>
		<g>
			<g>
				<path class="st0" d="M349.3,54.7h-77.5c-1.6,0-2.9-1.3-2.9-2.9l0,0c0-1.6,1.3-2.9,2.9-2.9h77.5c1.6,0,2.9,1.3,2.9,2.9l0,0
					C352.1,53.4,350.8,54.7,349.3,54.7z"/>
			</g>
		</g>
		<g>
			<g>
				<path class="st0" d="M321.1,68.8h-49.9c-1.3,0-2.3-1-2.3-2.3v-1.1c0-1.3,1-2.3,2.3-2.3h49.9c1.3,0,2.3,1,2.3,2.3v1.1
					C323.4,67.8,322.4,68.8,321.1,68.8z"/>
			</g>
		</g>
		<g>
			<path class="st1" d="M27.6,87.6c-0.6,0-1.1-0.2-1.6-0.6c-0.9-0.9-1-2.3-0.1-3.2l8.4-9.2c0.4-0.5,1-0.7,1.7-0.7l0,0
				c0.6,0,1.3,0.3,1.7,0.7l7.7,8.4c0.9,0.9,0.8,2.4-0.2,3.2C44.3,87,42.8,87,42,86l-6-6.6l-6.7,7.3C28.9,87.2,28.3,87.6,27.6,87.6z"
				/>
		</g>
		<g>
			<path class="st1" d="M383.5,218.5c0-0.6,0.2-1.1,0.6-1.6c0.9-0.9,2.3-1,3.2-0.1l9.2,8.4c0.5,0.4,0.7,1,0.7,1.7l0,0
				c0,0.6-0.3,1.3-0.7,1.7l-8.4,7.7c-0.9,0.9-2.4,0.8-3.2-0.2c-0.8-0.9-0.8-2.4,0.2-3.2l6.6-6l-7.3-6.7
				C383.8,219.7,383.5,219.1,383.5,218.5z"/>
		</g>
		<g>
			<path class="st2" d="M376.3,122.8c0-0.6,0.2-1.1,0.6-1.6c0.9-0.9,2.3-1,3.2-0.1l9.2,8.4c0.5,0.4,0.7,1,0.7,1.7l0,0
				c0,0.6-0.3,1.3-0.7,1.7l-8.4,7.7c-0.9,0.9-2.4,0.8-3.2-0.2c-0.8-0.9-0.8-2.4,0.2-3.2l6.6-6l-7.3-6.7
				C376.5,124,376.3,123.4,376.3,122.8z"/>
		</g>
		<g>
			<path class="st3" d="M374.7,100.2c0-0.6,0.2-1.1,0.6-1.6c0.9-0.9,2.3-1,3.2-0.1l9.2,8.4c0.5,0.4,0.7,1,0.7,1.7l0,0
				c0,0.6-0.3,1.3-0.7,1.7l-8.4,7.7c-0.9,0.9-2.4,0.8-3.2-0.2c-0.8-0.9-0.8-2.4,0.2-3.2l6.6-6l-7.3-6.7
				C375,101.4,374.7,100.8,374.7,100.2z"/>
		</g>
		<g>
			<g>
				<path class="st0" d="M126.4,225.7c-0.6,0-1.1-0.5-1.1-1.1V76.5c0-0.6,0.5-1.1,1.1-1.1s1.1,0.5,1.1,1.1v148.1
					C127.5,225.2,127,225.7,126.4,225.7z"/>
			</g>
		</g>
		<g>
			<g>
				<path class="st0" d="M240.4,225.7c-0.6,0-1.1-0.5-1.1-1.1V76.5c0-0.6,0.5-1.1,1.1-1.1s1.1,0.5,1.1,1.1v148.1
					C241.5,225.2,241,225.7,240.4,225.7z"/>
			</g>
		</g>
		<g>
			<g>
				<path class="st0" d="M362.1,225.7c-0.6,0-1.1-0.5-1.1-1.1V76.5c0-0.6,0.5-1.1,1.1-1.1s1.1,0.5,1.1,1.1v148.1
					C363.2,225.2,362.7,225.7,362.1,225.7z"/>
			</g>
		</g>
		<g>
			<path class="st3" d="M36.4,228c-0.3,0-0.6-0.1-0.8-0.2c-1.2-0.5-1.8-1.8-1.3-3c1.9-4.8,46.6-117,89.4-117
				c14.2,0,27,16.9,41.8,36.4c18.9,25,40.3,53.3,69.6,53.3c25.4,0,47-21.4,69.9-44.1c23.4-23.2,47.6-47.2,77.1-47.2
				c1.3,0,2.3,1,2.3,2.3s-1,2.3-2.3,2.3c-27.6,0-51.1,23.3-73.8,45.9c-22.7,22.4-46,45.5-73.3,45.5c-31.6,0-53.7-29.3-73.2-55.1
				c-14-18.6-26.2-34.6-38.1-34.6c-39.7,0-84.7,113-85.1,114.1C38.2,227.5,37.4,228,36.4,228z"/>
		</g>
		<g>
			<path class="st2" d="M37,229.2c-0.4,0-0.8-0.1-1.2-0.4c-1.1-0.7-1.4-2.1-0.7-3.2c1.6-2.6,40.5-63.4,89.4-63.4
				c22.3,0,35.7,11.4,49.9,23.5c17.4,14.9,35.3,30.3,72.8,27.7c18.9-1.3,38.9-19.7,60-39.3c24.2-22.4,49.2-45.6,76-45.6
				c1.3,0,2.3,1,2.3,2.3s-1,2.3-2.3,2.3c-25,0-49.3,22.6-72.9,44.4c-21.7,20.1-42.2,39.2-62.8,40.5c-39.4,2.6-58.9-14.1-76.1-28.8
				c-13.5-11.5-26.3-22.4-46.9-22.4c-46.4,0-85.1,60.7-85.5,61.3C38.5,228.8,37.8,229.2,37,229.2z"/>
		</g>
		<g>
			<path class="st4" d="M36.1,227.2c-0.4,0-0.8-0.1-1.1-0.3c-1-0.6-1.3-1.9-0.6-2.9c2.4-3.8,58.9-92.1,91.9-92.1
				c15.4,0,31.8,8.6,49.2,17.8c20.5,10.8,41.7,22,64.9,22c15,0,35.6-18.9,55.5-37.2c22.6-20.8,46.1-42.3,66.2-42.3
				c1.2,0,2.1,1,2.1,2.1c0,1.1-1,2.1-2.1,2.1c-18.5,0-41.3,20.9-63.3,41.2c-21.5,19.7-41.7,38.3-58.4,38.3
				c-24.3,0-46.9-11.9-66.9-22.5c-16.9-8.9-32.9-17.3-47.2-17.3c-30.7,0-87.7,89.3-88.3,90.2C37.5,226.8,36.8,227.2,36.1,227.2z"/>
		</g>
		<g>
			<path class="st4" d="M355.2,86c0-0.6,0.2-1.1,0.6-1.6c0.9-0.9,2.3-1,3.2-0.1l9.2,8.4c0.5,0.4,0.7,1,0.7,1.7l0,0
				c0,0.6-0.3,1.3-0.7,1.7l-8.4,7.7c-0.9,0.9-2.4,0.8-3.2-0.2c-0.8-0.9-0.8-2.4,0.2-3.2l6.6-6l-7.3-6.7
				C355.4,87.2,355.2,86.6,355.2,86z"/>
		</g>
		<g>
			<path class="st1" d="M35.7,244.8c-1.3,0-2.3-1-2.3-2.3V81.8c0-1.3,1-2.3,2.3-2.3s2.3,1,2.3,2.3v160.7
				C38,243.8,36.9,244.8,35.7,244.8z"/>
		</g>
		<g>
			<path class="st1" d="M391.6,228.8h-372c-1.3,0-2.3-1-2.3-2.3s1-2.3,2.3-2.3h372c1.3,0,2.3,1,2.3,2.3S392.8,228.8,391.6,228.8z"/>
		</g>
	</g>
	<g>
		<g>
			<path class="st5" d="M32.1,757.9c-0.7,0-1.2-0.5-1.2-1.2V558.1c0-0.7,0.5-1.2,1.2-1.2s1.2,0.5,1.2,1.2v198.6
				C33.3,757.4,32.8,757.9,32.1,757.9z"/>
		</g>
		<g>
			<path class="st5" d="M401.7,729.1H24.1c-0.7,0-1.2-0.5-1.2-1.2s0.5-1.2,1.2-1.2h377.6c0.7,0,1.2,0.5,1.2,1.2
				S402.4,729.1,401.7,729.1z"/>
		</g>
		<g>
			<path class="st6" d="M79.3,738.9H45.8c-0.9,0-1.6-0.7-1.6-1.6l0,0c0-0.9,0.7-1.6,1.6-1.6h33.5c0.9,0,1.6,0.7,1.6,1.6l0,0
				C80.9,738.2,80.2,738.9,79.3,738.9z"/>
		</g>
		<g>
			<path class="st6" d="M79.3,754.6H45.8c-0.9,0-1.6-0.7-1.6-1.6l0,0c0-0.9,0.7-1.6,1.6-1.6h33.5c0.9,0,1.6,0.7,1.6,1.6l0,0
				C80.9,753.8,80.2,754.6,79.3,754.6z"/>
		</g>
		<g>
			<path class="st6" d="M75.8,746.6h-30c-0.9,0-1.6-0.7-1.6-1.6l0,0c0-0.9,0.7-1.6,1.6-1.6h30c0.9,0,1.6,0.7,1.6,1.6l0,0
				C77.5,745.9,76.7,746.6,75.8,746.6z"/>
		</g>
		<g>
			<path class="st6" d="M157.1,738.9h-33.5c-0.9,0-1.6-0.7-1.6-1.6l0,0c0-0.9,0.7-1.6,1.6-1.6h33.5c0.9,0,1.6,0.7,1.6,1.6l0,0
				C158.8,738.2,158,738.9,157.1,738.9z"/>
		</g>
		<g>
			<path class="st6" d="M157.1,754.6h-33.5c-0.9,0-1.6-0.7-1.6-1.6l0,0c0-0.9,0.7-1.6,1.6-1.6h33.5c0.9,0,1.6,0.7,1.6,1.6l0,0
				C158.8,753.8,158,754.6,157.1,754.6z"/>
		</g>
		<g>
			<path class="st6" d="M153.7,746.6h-30c-0.9,0-1.6-0.7-1.6-1.6l0,0c0-0.9,0.7-1.6,1.6-1.6h30c0.9,0,1.6,0.7,1.6,1.6l0,0
				C155.3,745.9,154.6,746.6,153.7,746.6z"/>
		</g>
		<g>
			<path class="st6" d="M230.3,738.9h-33.5c-0.9,0-1.6-0.7-1.6-1.6l0,0c0-0.9,0.7-1.6,1.6-1.6h33.5c0.9,0,1.6,0.7,1.6,1.6l0,0
				C231.9,738.2,231.2,738.9,230.3,738.9z"/>
		</g>
		<g>
			<path class="st6" d="M230.3,754.6h-33.5c-0.9,0-1.6-0.7-1.6-1.6l0,0c0-0.9,0.7-1.6,1.6-1.6h33.5c0.9,0,1.6,0.7,1.6,1.6l0,0
				C231.9,753.8,231.2,754.6,230.3,754.6z"/>
		</g>
		<g>
			<path class="st6" d="M226.8,746.6h-30c-0.9,0-1.6-0.7-1.6-1.6l0,0c0-0.9,0.7-1.6,1.6-1.6h30c0.9,0,1.6,0.7,1.6,1.6l0,0
				C228.4,745.9,227.7,746.6,226.8,746.6z"/>
		</g>
		<g>
			<path class="st6" d="M309.2,738.9h-33.5c-0.9,0-1.6-0.7-1.6-1.6l0,0c0-0.9,0.7-1.6,1.6-1.6h33.5c0.9,0,1.6,0.7,1.6,1.6l0,0
				C310.8,738.2,310,738.9,309.2,738.9z"/>
		</g>
		<g>
			<path class="st6" d="M309.2,754.6h-33.5c-0.9,0-1.6-0.7-1.6-1.6l0,0c0-0.9,0.7-1.6,1.6-1.6h33.5c0.9,0,1.6,0.7,1.6,1.6l0,0
				C310.8,753.8,310,754.6,309.2,754.6z"/>
		</g>
		<g>
			<path class="st6" d="M305.7,746.6h-30c-0.9,0-1.6-0.7-1.6-1.6l0,0c0-0.9,0.7-1.6,1.6-1.6h30c0.9,0,1.6,0.7,1.6,1.6l0,0
				C307.3,745.9,306.6,746.6,305.7,746.6z"/>
		</g>
		<g>
			<path class="st6" d="M391.3,738.9h-33.5c-0.9,0-1.6-0.7-1.6-1.6l0,0c0-0.9,0.7-1.6,1.6-1.6h33.5c0.9,0,1.6,0.7,1.6,1.6l0,0
				C392.9,738.2,392.2,738.9,391.3,738.9z"/>
		</g>
		<g>
			<path class="st6" d="M391.3,754.6h-33.5c-0.9,0-1.6-0.7-1.6-1.6l0,0c0-0.9,0.7-1.6,1.6-1.6h33.5c0.9,0,1.6,0.7,1.6,1.6l0,0
				C392.9,753.8,392.2,754.6,391.3,754.6z"/>
		</g>
		<g>
			<path class="st6" d="M387.8,746.6h-30c-0.9,0-1.6-0.7-1.6-1.6l0,0c0-0.9,0.7-1.6,1.6-1.6h30c0.9,0,1.6,0.7,1.6,1.6l0,0
				C389.4,745.9,388.7,746.6,387.8,746.6z"/>
		</g>
		<g>
			<path class="st5" d="M404.9,567.8H33.7c-0.7,0-1.2-0.5-1.2-1.2s0.5-1.2,1.2-1.2h371.2c0.7,0,1.2,0.5,1.2,1.2
				S405.6,567.8,404.9,567.8z"/>
		</g>
		<g>
			<path class="st7" d="M396.5,712.8H38.1c-0.3,0-0.6-0.3-0.6-0.6s0.3-0.6,0.6-0.6h358.5c0.3,0,0.6,0.3,0.6,0.6
				C397.1,712.5,396.9,712.8,396.5,712.8z"/>
		</g>
		<g>
			<path class="st7" d="M396.5,666.2H38.1c-0.3,0-0.6-0.3-0.6-0.6s0.3-0.6,0.6-0.6h358.5c0.3,0,0.6,0.3,0.6,0.6
				S396.9,666.2,396.5,666.2z"/>
		</g>
		<g>
			<path class="st7" d="M396.5,575.8H38.1c-0.3,0-0.6-0.3-0.6-0.6s0.3-0.6,0.6-0.6h358.5c0.3,0,0.6,0.3,0.6,0.6
				C397.1,575.5,396.9,575.8,396.5,575.8z"/>
		</g>
		<g>
			<path class="st7" d="M97.4,727.5c-0.3,0-0.6-0.3-0.6-0.6V571.6c0-0.3,0.3-0.6,0.6-0.6s0.6,0.3,0.6,0.6v155.3
				C98,727.2,97.8,727.5,97.4,727.5z"/>
		</g>
		<g>
			<path class="st7" d="M189.8,727.5c-0.3,0-0.6-0.3-0.6-0.6V571.6c0-0.3,0.3-0.6,0.6-0.6s0.6,0.3,0.6,0.6v155.3
				C190.4,727.2,190.2,727.5,189.8,727.5z"/>
		</g>
		<g>
			<path class="st7" d="M236.8,727.5c-0.3,0-0.6-0.3-0.6-0.6V571.6c0-0.3,0.3-0.6,0.6-0.6s0.6,0.3,0.6,0.6v155.3
				C237.4,727.2,237.2,727.5,236.8,727.5z"/>
		</g>
		<g>
			<path class="st7" d="M311.7,727.5c-0.3,0-0.6-0.3-0.6-0.6V571.6c0-0.3,0.3-0.6,0.6-0.6c0.3,0,0.6,0.3,0.6,0.6v155.3
				C312.3,727.2,312,727.5,311.7,727.5z"/>
		</g>
		<g>
			<g>
				<g>
					<path class="st5" d="M44.4,644.4c-0.7,0-1.2-0.5-1.2-1.2v-45.1c0-0.7,0.5-1.2,1.2-1.2s1.2,0.5,1.2,1.2v45.1
						C45.6,643.8,45,644.4,44.4,644.4z"/>
				</g>
				<g>
					<rect x="40.5" y="601.4" class="st4" width="7.6" height="36.2"/>
				</g>
			</g>
			<g>
				<g>
					<path class="st5" d="M143.2,633.3c-0.7,0-1.2-0.5-1.2-1.2V587c0-0.7,0.5-1.2,1.2-1.2s1.2,0.5,1.2,1.2v45.1
						C144.5,632.8,143.9,633.3,143.2,633.3z"/>
				</g>
				<g>
					<rect x="139.3" y="590.4" class="st4" width="7.6" height="36.2"/>
				</g>
			</g>
			<g>
				<g>
					<path class="st5" d="M189.8,634.9c-0.7,0-1.2-0.5-1.2-1.2v-45.1c0-0.7,0.5-1.2,1.2-1.2s1.2,0.5,1.2,1.2v45.1
						C191.1,634.4,190.5,634.9,189.8,634.9z"/>
				</g>
				<g>
					<rect x="185.9" y="592" class="st4" width="7.6" height="36.2"/>
				</g>
			</g>
			<g>
				<g>
					<path class="st5" d="M236.8,722.2c-0.7,0-1.2-0.5-1.2-1.2v-45.1c0-0.7,0.5-1.2,1.2-1.2s1.2,0.5,1.2,1.2V721
						C238.1,721.6,237.5,722.2,236.8,722.2z"/>
				</g>
				<g>
					<rect x="232.9" y="679.2" class="st4" width="7.6" height="36.2"/>
				</g>
			</g>
			<g>
				<g>
					<path class="st5" d="M299.8,667.2c-0.7,0-1.2-0.5-1.2-1.2v-45.1c0-0.7,0.5-1.2,1.2-1.2s1.2,0.5,1.2,1.2V666
						C301,666.6,300.4,667.2,299.8,667.2z"/>
				</g>
				<g>
					<rect x="295.9" y="624.2" class="st4" width="7.6" height="36.2"/>
				</g>
			</g>
			<g>
				<g>
					<path class="st5" d="M310.9,638.9c-0.7,0-1.2-0.5-1.2-1.2v-45.1c0-0.7,0.5-1.2,1.2-1.2s1.2,0.5,1.2,1.2v45.1
						C312.1,638.4,311.6,638.9,310.9,638.9z"/>
				</g>
				<g>
					<rect x="307" y="596" class="st4" width="7.6" height="36.2"/>
				</g>
			</g>
			<g>
				<g>
					<path class="st5" d="M357.1,618.6c-0.7,0-1.2-0.5-1.2-1.2v-45.1c0-0.7,0.5-1.2,1.2-1.2s1.2,0.5,1.2,1.2v45.1
						C358.3,618.1,357.8,618.6,357.1,618.6z"/>
				</g>
				<g>
					<rect x="353.2" y="575.7" class="st4" width="7.6" height="36.2"/>
				</g>
			</g>
			<g>
				<g>
					<path class="st5" d="M55.6,656.4c-0.7,0-1.2-0.5-1.2-1.2v-27.9c0-0.7,0.5-1.2,1.2-1.2s1.2,0.5,1.2,1.2v27.9
						C56.8,655.9,56.3,656.4,55.6,656.4z"/>
				</g>
				<g>
					<rect x="51.8" y="630.5" class="st3" width="7.6" height="20.3"/>
				</g>
			</g>
			<g>
				<g>
					<path class="st5" d="M121.3,668.7c-0.7,0-1.2-0.5-1.2-1.2v-27.9c0-0.7,0.5-1.2,1.2-1.2s1.2,0.5,1.2,1.2v27.9
						C122.6,668.1,122,668.7,121.3,668.7z"/>
				</g>
				<g>
					<rect x="117.5" y="642.8" class="st3" width="7.6" height="20.3"/>
				</g>
			</g>
			<g>
				<g>
					<path class="st5" d="M155.2,640.4c-0.7,0-1.2-0.5-1.2-1.2v-27.9c0-0.7,0.5-1.2,1.2-1.2s1.2,0.5,1.2,1.2v27.9
						C156.4,639.9,155.9,640.4,155.2,640.4z"/>
				</g>
				<g>
					<rect x="151.4" y="614.5" class="st3" width="7.6" height="20.3"/>
				</g>
			</g>
			<g>
				<g>
					<path class="st5" d="M201.4,654.6c-0.7,0-1.2-0.5-1.2-1.2v-27.9c0-0.7,0.5-1.2,1.2-1.2s1.2,0.5,1.2,1.2v27.9
						C202.6,654.1,202.1,654.6,201.4,654.6z"/>
				</g>
				<g>
					<rect x="197.6" y="628.7" class="st3" width="7.6" height="20.3"/>
				</g>
			</g>
			<g>
				<g>
					<path class="st5" d="M213.3,669.8c-0.7,0-1.2-0.5-1.2-1.2v-27.9c0-0.7,0.5-1.2,1.2-1.2s1.2,0.5,1.2,1.2v27.9
						C214.6,669.2,214,669.8,213.3,669.8z"/>
				</g>
				<g>
					<rect x="209.5" y="643.9" class="st3" width="7.6" height="20.3"/>
				</g>
			</g>
			<g>
				<g>
					<path class="st5" d="M321.7,649.9c-0.7,0-1.2-0.5-1.2-1.2v-27.9c0-0.7,0.5-1.2,1.2-1.2s1.2,0.5,1.2,1.2v27.9
						C322.9,649.3,322.3,649.9,321.7,649.9z"/>
				</g>
				<g>
					<rect x="317.9" y="623.9" class="st3" width="7.6" height="20.3"/>
				</g>
			</g>
			<g>
				<g>
					<path class="st5" d="M393,639.9c-0.7,0-1.2-0.5-1.2-1.2v-27.9c0-0.7,0.5-1.2,1.2-1.2s1.2,0.5,1.2,1.2v27.9
						C394.2,639.4,393.6,639.9,393,639.9z"/>
				</g>
				<g>
					<rect x="389.2" y="614" class="st3" width="7.6" height="20.3"/>
				</g>
			</g>
			<g>
				<g>
					<path class="st5" d="M369.9,635.9c-0.7,0-1.2-0.5-1.2-1.2v-27.9c0-0.7,0.5-1.2,1.2-1.2s1.2,0.5,1.2,1.2v27.9
						C371.1,635.4,370.5,635.9,369.9,635.9z"/>
				</g>
				<g>
					<rect x="366.1" y="610" class="st3" width="7.6" height="20.3"/>
				</g>
			</g>
			<g>
				<g>
					<path class="st5" d="M258.3,675c-0.7,0-1.2-0.5-1.2-1.2v-27.9c0-0.7,0.5-1.2,1.2-1.2s1.2,0.5,1.2,1.2v27.8
						C259.6,674.4,259,675,258.3,675z"/>
				</g>
				<g>
					<rect x="254.6" y="649" class="st3" width="7.6" height="20.3"/>
				</g>
			</g>
			<g>
				<g>
					<path class="st5" d="M225.7,687.7c-0.7,0-1.2-0.5-1.2-1.2v-27.9c0-0.7,0.5-1.2,1.2-1.2s1.2,0.5,1.2,1.2v27.9
						C226.9,687.2,226.4,687.7,225.7,687.7z"/>
				</g>
				<g>
					<rect x="221.9" y="661.8" class="st3" width="7.6" height="20.3"/>
				</g>
			</g>
			<g>
				<g>
					<path class="st5" d="M66.1,664.3c-0.7,0-1.2-0.5-1.2-1.2v-20.7c0-0.7,0.5-1.2,1.2-1.2s1.2,0.5,1.2,1.2v20.7
						C67.3,663.8,66.7,664.3,66.1,664.3z"/>
				</g>
				<g>
					<rect x="62.6" y="645.3" class="st3" width="7.2" height="14.3"/>
				</g>
			</g>
			<g>
				<g>
					<path class="st5" d="M99.5,672.7c-0.7,0-1.2-0.5-1.2-1.2v-20.8c0-0.7,0.5-1.2,1.2-1.2s1.2,0.5,1.2,1.2v20.7
						C100.7,672.1,100.2,672.7,99.5,672.7z"/>
				</g>
				<g>
					<rect x="96" y="653.6" class="st3" width="7.2" height="14.3"/>
				</g>
			</g>
			<g>
				<g>
					<path class="st5" d="M110.6,684.6c-0.7,0-1.2-0.5-1.2-1.2v-20.7c0-0.7,0.5-1.2,1.2-1.2s1.2,0.5,1.2,1.2v20.7
						C111.8,684.1,111.2,684.6,110.6,684.6z"/>
				</g>
				<g>
					<rect x="107.1" y="665.6" class="st3" width="7.2" height="14.3"/>
				</g>
			</g>
			<g>
				<g>
					<path class="st5" d="M269.9,683c-0.7,0-1.2-0.5-1.2-1.2v-20.7c0-0.7,0.5-1.2,1.2-1.2s1.2,0.5,1.2,1.2v20.7
						C271.1,682.5,270.6,683,269.9,683z"/>
				</g>
				<g>
					<rect x="266.4" y="664" class="st3" width="7.2" height="14.3"/>
				</g>
			</g>
			<g>
				<g>
					<path class="st5" d="M166.4,654.7c-0.7,0-1.2-0.5-1.2-1.2v-20.7c0-0.7,0.5-1.2,1.2-1.2s1.2,0.5,1.2,1.2v20.7
						C167.7,654.2,167.1,654.7,166.4,654.7z"/>
				</g>
				<g>
					<rect x="162.9" y="635.7" class="st3" width="7.2" height="14.3"/>
				</g>
			</g>
			<g>
				<g>
					<path class="st5" d="M77.1,674.3c-0.6,0-1.1-0.5-1.1-1.1v-15.9c0-0.6,0.5-1.1,1.1-1.1s1.1,0.5,1.1,1.1v15.9
						C78.2,673.8,77.7,674.3,77.1,674.3z"/>
				</g>
				<g>
					<rect x="73.6" y="659.5" class="st3" width="7.2" height="11"/>
				</g>
			</g>
			<g>
				<g>
					<path class="st5" d="M279.4,693c-0.6,0-1.1-0.5-1.1-1.1V676c0-0.6,0.5-1.1,1.1-1.1s1.1,0.5,1.1,1.1v15.9
						C280.5,692.6,280,693,279.4,693z"/>
				</g>
				<g>
					<rect x="276" y="678.2" class="st3" width="7.2" height="11"/>
				</g>
			</g>
			<g>
				<g>
					<path class="st5" d="M381,645.2c-0.6,0-1.1-0.5-1.1-1.1v-15.9c0-0.6,0.5-1.1,1.1-1.1s1.1,0.5,1.1,1.1v15.9
						C382.1,644.8,381.6,645.2,381,645.2z"/>
				</g>
				<g>
					<rect x="377.5" y="630.5" class="st3" width="7.2" height="11"/>
				</g>
			</g>
			<g>
				<g>
					<path class="st5" d="M333.1,633.4c-0.6,0-1.1-0.5-1.1-1.1v-15.9c0-0.6,0.5-1.1,1.1-1.1s1.1,0.5,1.1,1.1v15.9
						C334.2,632.9,333.7,633.4,333.1,633.4z"/>
				</g>
				<g>
					<rect x="329.6" y="618.6" class="st3" width="7.2" height="11"/>
				</g>
			</g>
			<g>
				<g>
					<path class="st5" d="M88.5,667.3c-0.7,0-1.2-0.5-1.2-1.2v-29c0-0.7,0.5-1.2,1.2-1.2s1.2,0.5,1.2,1.2v29
						C89.7,666.7,89.1,667.3,88.5,667.3z"/>
				</g>
				<g>
					<rect x="85" y="641.1" class="st4" width="7.2" height="20.1"/>
				</g>
			</g>
			<g>
				<g>
					<path class="st5" d="M132.4,648.5c-0.7,0-1.2-0.5-1.2-1.2v-29c0-0.7,0.5-1.2,1.2-1.2s1.2,0.5,1.2,1.2v29
						C133.6,648,133.1,648.5,132.4,648.5z"/>
				</g>
				<g>
					<rect x="128.9" y="622.4" class="st4" width="7.2" height="20.1"/>
				</g>
			</g>
			<g>
				<g>
					<path class="st5" d="M177.2,643.8c-0.7,0-1.2-0.5-1.2-1.2v-29c0-0.7,0.5-1.2,1.2-1.2s1.2,0.5,1.2,1.2v29
						C178.4,643.2,177.9,643.8,177.2,643.8z"/>
				</g>
				<g>
					<rect x="173.7" y="617.6" class="st4" width="7.2" height="20.1"/>
				</g>
			</g>
			<g>
				<g>
					<path class="st5" d="M246.9,692.4c-0.7,0-1.2-0.5-1.2-1.2v-29c0-0.7,0.5-1.2,1.2-1.2s1.2,0.5,1.2,1.2v29
						C248.1,691.8,247.6,692.4,246.9,692.4z"/>
				</g>
				<g>
					<rect x="243.4" y="666.2" class="st4" width="7.2" height="20.1"/>
				</g>
			</g>
			<g>
				<g>
					<path class="st5" d="M289.9,685.2c-0.7,0-1.2-0.5-1.2-1.2v-29c0-0.7,0.5-1.2,1.2-1.2s1.2,0.5,1.2,1.2v29
						C291.1,684.6,290.6,685.2,289.9,685.2z"/>
				</g>
				<g>
					<rect x="286.4" y="659" class="st4" width="7.2" height="20.1"/>
				</g>
			</g>
			<g>
				<g>
					<path class="st5" d="M344.5,627.4c-0.7,0-1.2-0.5-1.2-1.2v-29c0-0.7,0.5-1.2,1.2-1.2s1.2,0.5,1.2,1.2v29
						C345.7,626.9,345.1,627.4,344.5,627.4z"/>
				</g>
				<g>
					<rect x="341" y="601.3" class="st4" width="7.2" height="20.1"/>
				</g>
			</g>
			<g>
				<g>
					<path class="st5" d="M403,626.6c-0.7,0-1.2-0.5-1.2-1.2v-29c0-0.7,0.5-1.2,1.2-1.2s1.2,0.5,1.2,1.2v29
						C404.2,626.1,403.7,626.6,403,626.6z"/>
				</g>
				<g>
					<rect x="399.5" y="600.5" class="st4" width="7.2" height="20.1"/>
				</g>
			</g>
		</g>
	</g>
	<g>
		<circle class="st1" cx="234.3" cy="409.8" r="68.6"/>
		<circle class="st8" cx="234.4" cy="409.6" r="68.6"/>
		<path class="st3" d="M189.4,358.1l47.2,48.6l17-62.6C231.2,337.4,207,342.7,189.4,358.1L189.4,358.1z"/>
		<path class="st9" d="M189.4,358.1c-15,13-23.7,31.9-23.7,51.8c0,1.4,0.1,2.9,0.1,4.3l70.7-7.5L189.4,358.1z"/>
		<path class="st10" d="M216.9,476.2l19.6-69.6l-70.7,7.5C167.7,443.7,188.3,468.7,216.9,476.2z"/>
		<path class="st8" d="M253.5,344l-17,62.6c0,0,39.1,23.9,57.6,36.7c0.2-0.4,0.4-0.7,0.6-1.1c17.9-33.4,5.3-75-28.1-92.8
			C262.5,347.1,258.1,345.2,253.5,344z"/>
		<path class="st2" d="M236.6,406.7L217,476.3c30.2,7.9,62-5.6,77.2-32.9C275.7,430.6,236.6,406.7,236.6,406.7z"/>
		<path class="st11" d="M281.5,373.1c-0.5,0-0.9-0.2-1.2-0.7c-0.4-0.7-0.2-1.6,0.4-2l30.3-19.7c0.2-0.1,0.5-0.2,0.8-0.2H390
			c0.8-0.1,1.5,0.5,1.6,1.3s-0.5,1.5-1.3,1.6c-0.1,0-0.2,0-0.2,0h-77.8l-30,19.5C282,373.1,281.8,373.1,281.5,373.1z"/>
		<path class="st11" d="M370.1,325.8h-58.2c-0.8,0-1.4-0.6-1.4-1.4s0.6-1.4,1.4-1.4l0,0h58.2c0.8,0,1.4,0.6,1.4,1.4
			C371.6,325.2,370.9,325.8,370.1,325.8L370.1,325.8z"/>
		<path class="st11" d="M384.3,341.6h-71.7c-0.8,0-1.4-0.6-1.4-1.4s0.6-1.4,1.4-1.4h71.7c0.8,0,1.4,0.6,1.4,1.4
			C385.7,341.1,385.1,341.6,384.3,341.6z"/>
		<path class="st11" d="M179.7,378.6c-0.2,0-0.5-0.1-0.7-0.2l-35.3-19.2h-79c-0.8,0.1-1.5-0.5-1.6-1.3s0.5-1.5,1.3-1.6
			c0.1,0,0.2,0,0.2,0H144c0.2,0,0.5,0.1,0.7,0.2l35.6,19.5c0.7,0.4,1,1.2,0.6,1.9C180.8,378.3,180.3,378.6,179.7,378.6L179.7,378.6z
			"/>
		<path class="st11" d="M129.3,326.8H63.4c-0.8,0.1-1.5-0.5-1.6-1.3s0.5-1.5,1.3-1.6c0.1,0,0.2,0,0.2,0h65.9
			c0.8,0.1,1.4,0.8,1.3,1.6C130.5,326.2,130,326.8,129.3,326.8z"/>
		<path class="st11" d="M90.2,343.6H64.7c-0.8,0.1-1.5-0.5-1.6-1.3s0.5-1.5,1.3-1.6c0.1,0,0.2,0,0.2,0h25.6c0.8,0.1,1.4,0.8,1.3,1.6
			C91.5,343.1,91,343.6,90.2,343.6L90.2,343.6z"/>
		<path class="st11" d="M148.8,459.4h-72c-0.8,0.1-1.5-0.5-1.6-1.3s0.5-1.5,1.3-1.6c0.1,0,0.2,0,0.2,0h71.6l30.6-16
			c0.7-0.4,1.6-0.1,1.9,0.6c0.4,0.7,0.1,1.6-0.6,1.9l-30.9,16.1C149.2,459.3,149,459.4,148.8,459.4z"/>
		<path class="st11" d="M117.8,422.4H74.7c-0.8,0.1-1.5-0.5-1.6-1.3s0.5-1.5,1.3-1.6c0.1,0,0.2,0,0.2,0h43.1
			c0.8-0.1,1.5,0.5,1.6,1.3s-0.5,1.5-1.3,1.6C118,422.4,117.9,422.4,117.8,422.4z"/>
		<path class="st11" d="M129.3,442H75.5c-0.8-0.1-1.4-0.8-1.3-1.6c0.1-0.7,0.6-1.3,1.3-1.3h53.8c0.8,0.1,1.4,0.8,1.3,1.6
			C130.5,441.3,130,441.8,129.3,442z"/>
		<ellipse class="st12" cx="234.3" cy="409.8" rx="27.8" ry="27.8"/>
		<path class="st13" d="M19.4,295.8h135.4c1.1,0,2,0.9,2,2v0.5c0,1.1-0.9,2-2,2H19.4c-1.1,0-2-0.9-2-2v-0.5
			C17.3,296.7,18.2,295.8,19.4,295.8z"/>
		<path class="st13" d="M109.7,286.7H19.6c-1.3,0-2.3-1-2.3-2.3l0,0c0-1.2,1-2.3,2.3-2.3h90.1c1.2,0,2.3,1,2.3,2.3l0,0
			C112,285.7,110.9,286.7,109.7,286.7z"/>
		<path class="st13" d="M414.3,461.2h-90.1c-1.3,0-2.3-1-2.3-2.3l0,0c0-1.3,1-2.3,2.3-2.3h90.1c1.2,0,2.3,1,2.3,2.3l0,0
			C416.5,460.2,415.5,461.2,414.3,461.2z"/>
		<path class="st13" d="M348.2,473.8h-24c-1.2,0-2.3-1-2.3-2.3l0,0c0-1.3,1-2.3,2.3-2.3h24c1.2,0,2.3,1,2.3,2.3l0,0
			C350.5,472.8,349.4,473.8,348.2,473.8z"/>
		<path class="st13" d="M398,473.8h-36.9c-1.2,0-2.3-1-2.3-2.3l0,0c0-1.3,1-2.3,2.3-2.3H398c1.2,0,2.3,1,2.3,2.3l0,0
			C400.3,472.8,399.3,473.8,398,473.8L398,473.8z"/>
		<path class="st13" d="M414.3,490.2h-90.1c-1.2,0-2.3-1-2.3-2.3l0,0c0-1.3,1-2.3,2.3-2.3h90.1c1.2,0,2.3,1,2.3,2.3l0,0
			C416.5,489.2,415.5,490.2,414.3,490.2L414.3,490.2z"/>
		<path class="st13" d="M348.2,502.9h-24c-1.2,0-2.3-1-2.3-2.3l0,0c0-1.3,1-2.3,2.3-2.3h24c1.2,0,2.3,1,2.3,2.3l0,0
			C350.5,501.7,349.4,502.9,348.2,502.9z"/>
		<path class="st13" d="M398,502.9h-36.9c-1.2,0-2.3-1-2.3-2.3l0,0c0-1.3,1-2.3,2.3-2.3H398c1.2,0,2.3,1,2.3,2.3l0,0
			C400.3,501.7,399.3,502.9,398,502.9L398,502.9z"/>
		<g>
			<path class="st0" d="M25.8,477.6l-1.8,1.6l-1.1-1.2l3-2.5h1.8v9.2h-1.9V477.6z"/>
			<path class="st0" d="M30.2,480c0-0.6,0.1-1.1,0.2-1.7c0.1-0.5,0.3-1.1,0.5-1.5s0.6-0.8,1-1.1c0.5-0.3,1.1-0.5,1.7-0.4
				c0.6,0,1.2,0.1,1.7,0.4c0.4,0.3,0.8,0.7,1.1,1.1c0.3,0.5,0.4,1,0.5,1.5s0.1,1.1,0.2,1.7c0,0.6-0.1,1.1-0.2,1.7
				c-0.1,0.5-0.3,1.1-0.5,1.5c-0.2,0.5-0.6,0.8-1.1,1.1c-0.5,0.3-1.1,0.5-1.7,0.4c-0.6,0-1.2-0.1-1.7-0.4c-0.4-0.3-0.8-0.7-1-1.1
				c-0.3-0.5-0.4-1-0.5-1.5C30.3,481.1,30.2,480.6,30.2,480z M32.2,480c0,0.2,0,0.5,0,0.9c0,0.3,0.1,0.7,0.2,1
				c0.1,0.3,0.2,0.6,0.4,0.8c0.2,0.2,0.5,0.4,0.8,0.3c0.3,0,0.6-0.1,0.8-0.3c0.2-0.2,0.4-0.5,0.4-0.8c0.1-0.3,0.2-0.7,0.2-1
				s0-0.6,0-0.9s0-0.5,0-0.9c0-0.3-0.1-0.7-0.2-1c-0.1-0.3-0.2-0.6-0.4-0.8c-0.2-0.2-0.5-0.3-0.8-0.3s-0.6,0.1-0.8,0.3
				c-0.2,0.2-0.4,0.5-0.4,0.8c-0.1,0.3-0.2,0.7-0.2,1C32.2,479.4,32.2,479.7,32.2,480L32.2,480z"/>
			<path class="st0" d="M38.7,482.4h1.9l-1.2,3.7h-1.7L38.7,482.4z"/>
			<path class="st0" d="M45.1,478.7c0.1,0,0.2,0,0.3-0.1c0.1,0,0.2,0,0.3,0c0.4,0,0.8,0.1,1.2,0.2c0.3,0.1,0.7,0.4,0.9,0.6
				c0.3,0.3,0.5,0.6,0.6,1s0.2,0.8,0.2,1.2s-0.1,0.9-0.3,1.3c-0.4,0.8-1,1.4-1.8,1.6c-0.9,0.3-1.8,0.3-2.7,0
				c-0.4-0.1-0.8-0.4-1.1-0.6c-0.3-0.3-0.6-0.6-0.7-1c-0.2-0.4-0.3-0.9-0.3-1.3c0-0.3,0-0.6,0.1-0.9s0.1-0.5,0.2-0.8
				c0.1-0.2,0.2-0.5,0.3-0.7l0.4-0.7l2-3.1h2.4L45.1,478.7z M46.7,481.4c0-0.4-0.1-0.7-0.4-1c-0.6-0.5-1.5-0.5-2.2,0
				c-0.3,0.3-0.4,0.6-0.4,1s0.1,0.7,0.4,1c0.6,0.5,1.5,0.5,2.2,0C46.6,482.2,46.7,481.8,46.7,481.4z"/>
			<path class="st0" d="M49.8,477.7c0-0.4,0.1-0.8,0.2-1.1c0.2-0.3,0.4-0.6,0.7-0.8c0.3-0.2,0.6-0.4,1-0.5s0.8-0.2,1.2-0.2
				s0.8,0.1,1.2,0.2s0.7,0.2,1,0.5c0.6,0.5,0.9,1.2,0.9,1.9c0,0.5-0.1,0.9-0.4,1.3c-0.3,0.4-0.7,0.6-1.2,0.8l0,0
				c0.5,0.1,1,0.4,1.3,0.8s0.5,0.9,0.4,1.4c0,0.8-0.4,1.5-1,2c-0.3,0.2-0.6,0.4-1,0.5s-0.8,0.2-1.2,0.2s-0.8-0.1-1.2-0.2
				s-0.7-0.3-1-0.5c-0.6-0.5-1-1.2-1-2c0-0.5,0.1-1,0.4-1.4s0.8-0.7,1.3-0.8l0,0c-0.5-0.1-0.9-0.4-1.2-0.8
				C50,478.7,49.8,478.2,49.8,477.7z M51.6,481.7c0,0.3,0.1,0.6,0.3,0.8c0.3,0.2,0.6,0.4,0.9,0.3c0.3,0,0.7-0.1,0.9-0.3
				c0.5-0.4,0.5-1.1,0.1-1.6c0,0,0,0-0.1-0.1c-0.2-0.2-0.6-0.4-0.9-0.3c-0.3,0-0.7,0.1-0.9,0.3C51.7,481.2,51.6,481.4,51.6,481.7
				L51.6,481.7z M51.8,478c0,0.3,0.1,0.5,0.3,0.7c0.5,0.4,1.2,0.4,1.6,0c0.2-0.2,0.3-0.5,0.3-0.7c0-0.3-0.1-0.5-0.3-0.7
				c-0.5-0.4-1.2-0.4-1.6,0C51.9,477.4,51.7,477.7,51.8,478L51.8,478z"/>
			<path class="st0" d="M60.7,481.2l-0.3,0.1c-0.1,0-0.2,0-0.3,0c-0.4,0-0.8-0.1-1.2-0.2c-0.3-0.1-0.7-0.4-0.9-0.6
				c-0.3-0.3-0.5-0.6-0.6-1s-0.2-0.8-0.2-1.2c0-0.9,0.4-1.7,1-2.3c0.3-0.3,0.7-0.5,1.1-0.6c0.9-0.3,1.8-0.3,2.7,0
				c0.4,0.1,0.8,0.4,1.1,0.6c0.7,0.6,1,1.4,1,2.3c0,0.3,0,0.6-0.1,0.9c-0.1,0.5-0.3,1-0.6,1.5c-0.1,0.2-0.3,0.5-0.4,0.7l-2,3.1h-2.4
				L60.7,481.2z M59.1,478.4c0,0.4,0.1,0.7,0.4,1c0.3,0.3,0.7,0.4,1.1,0.4s0.8-0.1,1.1-0.4s0.4-0.6,0.4-1s-0.1-0.7-0.4-1
				c-0.3-0.3-0.7-0.4-1.1-0.4s-0.8,0.1-1.1,0.4C59.3,477.7,59.1,478.1,59.1,478.4z"/>
			<path class="st0" d="M64.9,480c0-0.6,0.1-1.1,0.2-1.7c0.1-0.5,0.3-1.1,0.5-1.5c0.3-0.5,0.6-0.8,1.1-1.1c0.5-0.3,1.1-0.5,1.7-0.4
				c0.6,0,1.2,0.1,1.7,0.4c0.4,0.3,0.8,0.7,1,1.1c0.3,0.5,0.4,1,0.5,1.5s0.2,1.1,0.2,1.7s0,1.1-0.2,1.7c-0.1,0.5-0.3,1.1-0.5,1.5
				c-0.2,0.5-0.6,0.8-1,1.1c-0.5,0.3-1.1,0.5-1.7,0.4c-0.6,0-1.2-0.1-1.7-0.4c-0.4-0.3-0.8-0.7-1.1-1.1c-0.3-0.5-0.4-1-0.5-1.5
				C64.9,481.1,64.9,480.6,64.9,480z M66.9,480c0,0.3,0,0.5,0,0.9c0,0.3,0.1,0.7,0.2,1s0.2,0.6,0.4,0.8c0.2,0.2,0.5,0.4,0.8,0.3
				c0.3,0,0.6-0.1,0.8-0.3c0.2-0.2,0.4-0.5,0.4-0.8c0.1-0.3,0.2-0.7,0.2-1s0-0.6,0-0.9s0-0.5,0-0.9c0-0.3-0.1-0.7-0.2-1
				s-0.2-0.6-0.4-0.8c-0.2-0.2-0.5-0.3-0.8-0.3s-0.6,0.1-0.8,0.3c-0.2,0.2-0.4,0.5-0.4,0.8c-0.1,0.3-0.2,0.7-0.2,1
				C66.8,479.4,66.8,479.7,66.9,480L66.9,480z"/>
			<path class="st0" d="M74.9,479h0.6c0.2,0,0.4,0,0.5,0c0.2,0,0.3-0.1,0.5-0.1c0.1-0.1,0.3-0.2,0.3-0.3c0.1-0.2,0.1-0.3,0.1-0.5
				c0-0.3-0.1-0.5-0.3-0.7c-0.2-0.2-0.5-0.3-0.8-0.3c-0.5,0-1,0.3-1.2,0.9l-2.1-0.5c0.1-0.4,0.3-0.7,0.5-1s0.5-0.5,0.7-0.7
				c0.3-0.2,0.6-0.3,1-0.4s0.7-0.1,1.1-0.1s0.8,0,1.2,0.1c0.4,0.1,0.7,0.3,1,0.5c0.6,0.5,1,1.2,0.9,1.9c0,0.5-0.1,0.9-0.4,1.3
				s-0.7,0.6-1.2,0.7l0,0c0.3,0,0.5,0.1,0.7,0.2s0.4,0.3,0.6,0.5c0.1,0.2,0.3,0.4,0.3,0.6c0.1,0.2,0.1,0.5,0.1,0.8
				c0,0.4-0.1,0.8-0.3,1.2c-0.2,0.3-0.4,0.6-0.7,0.9c-0.3,0.2-0.7,0.4-1.1,0.5s-0.8,0.2-1.3,0.2c-0.7,0-1.5-0.2-2.1-0.6
				s-1.1-1.1-1.2-1.8l2.1-0.5c0,0.3,0.2,0.6,0.4,0.8c0.3,0.2,0.6,0.3,0.9,0.3c0.6,0.1,1.2-0.3,1.2-1c0-0.1,0-0.2,0-0.2
				c0-0.2,0-0.4-0.2-0.6c-0.1-0.1-0.3-0.3-0.4-0.3c-0.2-0.1-0.4-0.1-0.6-0.1H75h-0.5L74.9,479z"/>
			<path class="st0" d="M84.7,475.3h6.2v1.9h-4.2v1.7h4v1.9h-4v1.9h4.5v1.9h-6.5V475.3z"/>
			<path class="st0" d="M100.6,481.1c0,0.5-0.1,1-0.2,1.5c-0.2,0.4-0.4,0.8-0.7,1.2c-0.3,0.3-0.8,0.6-1.2,0.8
				c-1.1,0.4-2.3,0.4-3.4,0c-0.5-0.2-0.9-0.4-1.2-0.8c-0.3-0.3-0.6-0.7-0.7-1.2c-0.2-0.5-0.3-1-0.2-1.5v-5.7h2v5.6
				c0,0.3,0,0.5,0.1,0.8c0.1,0.2,0.2,0.4,0.4,0.6s0.4,0.3,0.6,0.4s0.5,0.2,0.8,0.1c0.3,0,0.5,0,0.7-0.1s0.4-0.2,0.6-0.4
				c0.2-0.2,0.3-0.4,0.4-0.6c0.1-0.3,0.1-0.5,0.1-0.8v-5.6h2L100.6,481.1z"/>
			<path class="st0" d="M102.5,475.3h3.6c0.4,0,0.9,0,1.3,0.1s0.8,0.2,1.1,0.5c0.3,0.2,0.6,0.5,0.8,0.9s0.3,0.9,0.3,1.3
				c0,0.6-0.2,1.2-0.5,1.7c-0.4,0.5-0.9,0.8-1.5,0.9l2.3,3.9h-2.4l-1.9-3.6h-1v3.7h-2L102.5,475.3z M104.5,479.2h1.2h0.6
				c0.2,0,0.4,0,0.6-0.1s0.3-0.2,0.4-0.3c0.1-0.2,0.2-0.4,0.2-0.6s0-0.4-0.1-0.6c-0.1-0.1-0.2-0.2-0.4-0.3c-0.2-0.1-0.3-0.1-0.5-0.1
				h-0.6h-1.3L104.5,479.2z"/>
			<path class="st0" d="M113.8,474.7l1.5,0.5l-3.9,10.1l-1.5-0.5L113.8,474.7z"/>
			<path class="st0" d="M123.9,481.1c0,0.5-0.1,1-0.2,1.5c-0.2,0.4-0.4,0.8-0.7,1.2c-0.3,0.3-0.8,0.6-1.2,0.8
				c-0.5,0.2-1.1,0.3-1.7,0.3s-1.1-0.1-1.7-0.3c-0.5-0.2-0.9-0.4-1.2-0.8c-0.3-0.3-0.6-0.7-0.7-1.2c-0.2-0.5-0.2-1-0.2-1.5v-5.7h2
				v5.6c0,0.3,0,0.5,0.1,0.8c0.1,0.2,0.2,0.4,0.4,0.6s0.4,0.3,0.6,0.4c0.7,0.3,1.5,0.1,2.1-0.4c0.2-0.2,0.3-0.4,0.4-0.6
				c0.1-0.3,0.1-0.5,0.1-0.8v-5.6h2L123.9,481.1z"/>
			<path class="st0" d="M130.3,477.7c-0.2-0.2-0.4-0.4-0.7-0.5s-0.5-0.1-0.8-0.1c-0.2,0-0.3,0-0.4,0c-0.2,0-0.3,0.1-0.4,0.2
				c-0.1,0.1-0.2,0.2-0.3,0.3c-0.2,0.4-0.1,0.8,0.2,1.1c0.2,0.2,0.5,0.3,0.8,0.4s0.6,0.2,1,0.3c0.3,0.1,0.7,0.3,1,0.5
				s0.6,0.4,0.8,0.8s0.3,0.8,0.3,1.3s-0.1,0.9-0.3,1.3s-0.4,0.7-0.8,1c-0.3,0.3-0.7,0.4-1.1,0.6c-0.4,0.1-0.9,0.2-1.4,0.2
				c-0.6,0-1.1-0.1-1.7-0.3c-0.5-0.2-1-0.5-1.4-0.9l1.4-1.6c0.2,0.3,0.5,0.5,0.8,0.6c0.3,0.2,0.7,0.2,1,0.2c0.2,0,0.3,0,0.5-0.1
				c0.2,0,0.3-0.1,0.5-0.2c0.1-0.1,0.2-0.2,0.3-0.3s0.1-0.3,0.1-0.5c0-0.3-0.1-0.5-0.3-0.7s-0.5-0.3-0.8-0.4s-0.7-0.2-1-0.3
				c-0.4-0.1-0.7-0.3-1-0.5s-0.6-0.5-0.8-0.8c-0.2-0.4-0.3-0.8-0.3-1.2c0-0.5,0.1-0.9,0.3-1.3c0.2-0.4,0.5-0.7,0.8-0.9
				c0.3-0.3,0.7-0.4,1.1-0.6c0.4-0.1,0.9-0.2,1.3-0.2c0.5,0,1,0.1,1.5,0.2s0.9,0.4,1.3,0.7L130.3,477.7z"/>
			<path class="st0" d="M133.3,475.3h3.1c0.7,0,1.4,0.1,2.1,0.2c0.6,0.1,1.2,0.4,1.7,0.8s0.9,0.9,1.2,1.4c0.3,0.7,0.5,1.4,0.4,2.1
				c0,0.7-0.1,1.4-0.4,2c-0.3,0.6-0.7,1-1.1,1.4c-0.5,0.4-1,0.7-1.6,0.9c-0.6,0.2-1.3,0.3-2,0.3h-3.3L133.3,475.3z M135.3,482.7h1.1
				c0.4,0,0.9,0,1.3-0.1c0.4-0.1,0.7-0.2,1.1-0.5c0.3-0.2,0.5-0.5,0.7-0.9s0.3-0.8,0.3-1.3c0-0.4-0.1-0.8-0.2-1.2
				c-0.2-0.3-0.4-0.6-0.7-0.8c-0.3-0.2-0.6-0.4-1-0.5s-0.8-0.2-1.2-0.2h-1.2L135.3,482.7z"/>
		</g>
		<g>
			<path class="st0" d="M91,498.2H26.5c-1.3,0-2.4-1.1-2.4-2.4l0,0c0-1.3,1.1-2.4,2.4-2.4h64.4c1.3,0,2.4,1.1,2.4,2.4l0,0
				C93.4,497,92.3,498.2,91,498.2z"/>
		</g>
		<g>
			<path class="st0" d="M26.1,505.2h41.5c1.1,0,1.9,0.9,1.9,1.9v0.9c0,1.1-0.9,1.9-1.9,1.9H26.1c-1.1,0-1.9-0.9-1.9-1.9v-0.9
				C24.2,506,25,505.2,26.1,505.2z"/>
		</g>
	</g>
</g>
</svg>
