<?xml version="1.0" encoding="utf-8"?>
<!-- Generator: Adobe Illustrator 24.2.3, SVG Export Plug-In . SVG Version: 6.00 Build 0)  -->
<svg version="1.1" id="圖層_1" xmlns="http://www.w3.org/2000/svg" xmlns:xlink="http://www.w3.org/1999/xlink" x="0px" y="0px"
	 viewBox="0 0 151 50" style="enable-background:new 0 0 151 50;" xml:space="preserve">
<style type="text/css">
	.st0{fill:#231815;}
	.st1{fill:#E62310;}
	.st2{fill:#FFFFFF;}
</style>
<g>
	<g>
		<path class="st0" d="M54,42.5c0,1.2-0.4,2.1-1.1,2.8c-0.7,0.7-1.8,1-3.1,1h-4.1V34.4h4.2c1.2,0,2,0.2,2.5,0.6
			c0.5,0.4,0.8,1,0.8,1.7c0,0.7-0.2,1.2-0.5,1.6c-0.3,0.4-0.8,0.6-1.4,0.8c0.8,0.1,1.4,0.4,2,1C53.8,40.7,54,41.5,54,42.5z
			 M50.7,37.4c0-0.5-0.1-0.8-0.4-1c-0.2-0.2-0.6-0.3-1.1-0.3h-0.9v2.6h0.9c0.5,0,0.9-0.1,1.1-0.3C50.6,38.1,50.7,37.8,50.7,37.4z
			 M51.4,42.3c0-0.6-0.2-1.1-0.5-1.5c-0.3-0.4-0.9-0.5-1.7-0.5h-0.9v4.2h1c0.7,0,1.3-0.2,1.6-0.6C51.2,43.6,51.4,43,51.4,42.3z"/>
		<path class="st0" d="M63.3,46.2h-2.3l0-1.2c-0.2,0.4-0.5,0.7-1,0.9c-0.5,0.2-1,0.4-1.6,0.4c-1,0-1.7-0.2-2.3-0.7
			c-0.5-0.5-0.8-1.3-0.8-2.3v-0.2c0-1,0.3-1.8,1-2.3c0.7-0.5,1.6-0.8,2.7-0.8c0.3,0,0.7,0.1,1,0.2c0.3,0.1,0.6,0.2,0.7,0.4v-0.9
			c0-0.3-0.1-0.6-0.4-0.8c-0.3-0.2-0.7-0.3-1.2-0.3c-0.6,0-1,0.1-1.5,0.2c-0.4,0.1-0.8,0.3-1.1,0.5v-1.5c0.4-0.2,0.9-0.3,1.4-0.4
			c0.5-0.1,1.1-0.2,1.8-0.2c1.2,0,2,0.3,2.6,0.8c0.6,0.5,0.8,1.4,0.8,2.5V46.2z M60.9,43.2v-0.2c0-0.5-0.1-1-0.4-1.2
			c-0.3-0.3-0.6-0.4-1.1-0.4c-0.5,0-0.8,0.1-1.1,0.4c-0.3,0.3-0.4,0.7-0.4,1.3v0.2c0,0.6,0.1,1,0.4,1.2c0.3,0.2,0.7,0.3,1.1,0.3
			c0.4,0,0.7-0.1,1-0.4C60.7,44.1,60.9,43.7,60.9,43.2z"/>
		<path class="st0" d="M73.3,46.2h-2.5v-6.3c0-0.2-0.1-0.5-0.3-0.7c-0.2-0.2-0.5-0.3-0.9-0.3c-0.4,0-0.7,0.1-0.9,0.2
			c-0.3,0.2-0.5,0.3-0.7,0.6v6.4h-2.5v-9h2.4l0,1.4c0.2-0.4,0.5-0.8,1-1.1c0.5-0.3,1.1-0.5,1.9-0.5c0.7,0,1.3,0.2,1.8,0.7
			c0.4,0.5,0.6,1.2,0.6,2.2V46.2z"/>
		<path class="st0" d="M83.9,46.2h-2.9l-2.9-3.7v3.7h-2.5V34.4h2.5v6.4l3-3.6h2.3l-3.5,4L83.9,46.2z"/>
		<path class="st0" d="M96.2,42.7c0,1.2-0.4,2.2-1.2,2.8c-0.8,0.6-2,0.9-3.5,0.9c-0.8,0-1.6,0-2.1-0.1c-0.6-0.1-1.1-0.2-1.4-0.4v-2
			c0.3,0.2,0.8,0.3,1.4,0.5c0.6,0.2,1.3,0.2,1.9,0.2c0.9,0,1.5-0.1,1.8-0.3s0.5-0.6,0.5-1.1c0-0.3-0.1-0.6-0.4-0.9
			c-0.2-0.3-0.9-0.6-2-1.1c-0.9-0.4-1.5-0.8-2-1.4c-0.5-0.5-0.7-1.3-0.7-2.2c0-0.9,0.4-1.7,1.2-2.3c0.8-0.6,1.8-0.9,3.2-0.9
			c0.7,0,1.3,0.1,1.8,0.2c0.5,0.1,0.9,0.2,1.1,0.3v1.8c-0.4-0.1-0.9-0.2-1.3-0.3c-0.4-0.1-0.9-0.1-1.4-0.1c-0.7,0-1.2,0.1-1.5,0.3
			c-0.3,0.2-0.5,0.5-0.5,0.8c0,0.4,0.1,0.7,0.4,0.9c0.2,0.2,0.9,0.5,2.1,0.9c1.1,0.4,1.8,0.9,2.3,1.5C96,41.2,96.2,41.9,96.2,42.7z"
			/>
		<path class="st0" d="M100.4,35.2c0,0.4-0.1,0.7-0.4,0.9c-0.3,0.3-0.6,0.4-0.9,0.4c-0.4,0-0.7-0.1-0.9-0.4
			c-0.3-0.3-0.4-0.6-0.4-0.9c0-0.4,0.1-0.7,0.4-0.9c0.3-0.3,0.6-0.4,0.9-0.4c0.4,0,0.7,0.1,0.9,0.4
			C100.2,34.6,100.4,34.9,100.4,35.2z M100.3,46.2h-2.5v-9h2.5V46.2z"/>
		<path class="st0" d="M110.4,46.2h-2.5v-6.3c0-0.2-0.1-0.5-0.3-0.7c-0.2-0.2-0.5-0.3-0.9-0.3c-0.4,0-0.7,0.1-0.9,0.2
			c-0.3,0.2-0.5,0.3-0.7,0.6v6.4h-2.5v-9h2.4l0,1.4c0.2-0.4,0.5-0.8,1-1.1c0.5-0.3,1.1-0.5,1.9-0.5c0.7,0,1.3,0.2,1.8,0.7
			c0.4,0.5,0.6,1.2,0.6,2.2V46.2z"/>
		<path class="st0" d="M121.3,42c0,1.4-0.4,2.5-1.2,3.3c-0.8,0.8-1.9,1.2-3.3,1.2c-1.4,0-2.5-0.4-3.3-1.2c-0.8-0.8-1.2-1.9-1.2-3.2
			v-0.6c0-1.3,0.4-2.4,1.2-3.2c0.8-0.8,1.9-1.2,3.3-1.2c1.4,0,2.5,0.4,3.3,1.2c0.8,0.8,1.2,1.9,1.2,3.2V42z M118.8,41.8v-0.1
			c0-1.2-0.2-2-0.6-2.5c-0.4-0.4-0.8-0.7-1.4-0.7c-0.6,0-1,0.2-1.4,0.7c-0.4,0.5-0.5,1.3-0.5,2.4v0.1c0,1.3,0.2,2.1,0.5,2.5
			c0.3,0.4,0.8,0.6,1.4,0.6c0.5,0,1-0.2,1.4-0.6C118.6,43.9,118.8,43,118.8,41.8z"/>
		<path class="st0" d="M131.1,38.4c0,1-0.3,1.8-0.9,2.3c-0.6,0.5-1.5,0.8-2.6,0.8h-1.6v4.8h-2.6V34.4h4.4c1.3,0,2.1,0.3,2.6,0.9
			c0.5,0.6,0.7,1.3,0.7,2.1V38.4z M128.4,38.6v-1.1c0-0.4-0.1-0.8-0.4-1c-0.3-0.2-0.7-0.3-1.2-0.3h-0.8v3.7h1c0.4,0,0.8-0.1,1-0.3
			C128.2,39.3,128.4,39,128.4,38.6z"/>
		<path class="st0" d="M140,46.2h-2.3l0-1.2c-0.2,0.4-0.5,0.7-1,0.9c-0.5,0.2-1,0.4-1.6,0.4c-1,0-1.7-0.2-2.3-0.7
			c-0.5-0.5-0.8-1.3-0.8-2.3v-0.2c0-1,0.3-1.8,1-2.3c0.7-0.5,1.6-0.8,2.7-0.8c0.3,0,0.7,0.1,1,0.2c0.3,0.1,0.6,0.2,0.7,0.4v-0.9
			c0-0.3-0.1-0.6-0.4-0.8c-0.3-0.2-0.7-0.3-1.2-0.3c-0.6,0-1,0.1-1.5,0.2c-0.4,0.1-0.8,0.3-1.1,0.5v-1.5c0.4-0.2,0.9-0.3,1.4-0.4
			c0.5-0.1,1.1-0.2,1.8-0.2c1.2,0,2,0.3,2.6,0.8c0.6,0.5,0.8,1.4,0.8,2.5V46.2z M137.6,43.2v-0.2c0-0.5-0.1-1-0.4-1.2
			c-0.3-0.3-0.6-0.4-1.1-0.4c-0.5,0-0.8,0.1-1.1,0.4c-0.3,0.3-0.4,0.7-0.4,1.3v0.2c0,0.6,0.1,1,0.4,1.2c0.3,0.2,0.7,0.3,1.1,0.3
			c0.4,0,0.7-0.1,1-0.4C137.4,44.1,137.6,43.7,137.6,43.2z"/>
		<path class="st0" d="M149,45.7c-0.1,0.1-0.4,0.2-0.9,0.4c-0.5,0.2-1,0.3-1.5,0.3c-1.4,0-2.6-0.4-3.5-1.1c-0.9-0.8-1.3-1.9-1.3-3.4
			v-0.4c0-1.4,0.4-2.5,1.3-3.3c0.8-0.8,2-1.2,3.4-1.2c0.6,0,1.1,0.1,1.5,0.2c0.5,0.1,0.8,0.3,0.9,0.5v1.6c-0.2-0.2-0.5-0.4-0.9-0.5
			c-0.4-0.1-0.8-0.2-1.2-0.2c-0.8,0-1.3,0.3-1.7,0.8c-0.4,0.5-0.6,1.3-0.6,2.2v0.2c0,1.1,0.2,1.8,0.5,2.3c0.3,0.4,0.9,0.7,1.6,0.7
			c0.5,0,1-0.1,1.4-0.2c0.5-0.1,0.8-0.3,0.9-0.5V45.7z"/>
	</g>
	<g>
		<path class="st0" d="M46.6,15.7h8.1l0.6,0.8c-0.5,3.7-3.2,7.1-8,10.2l-1.5-1.7c1.8-0.9,3.2-1.8,4.2-2.7c0.8-0.7,1.6-1.6,2.3-2.6
			c0.5-0.8,0.8-1.3,0.9-1.6c0-0.1,0-0.2,0-0.3c-0.1-0.1-0.3-0.1-0.5-0.1h-6V15.7z M58.8,18.2v7.7c0,0.9-0.3,1.7-1,2.2
			c-0.5,0.4-1.3,0.6-2.4,0.6c-1.3,0-2.5-0.2-3.7-0.5L51.5,26c2.4,0.7,3.9,0.8,4.6,0.5c0.4-0.3,0.6-0.8,0.6-1.4V13.7
			c0-0.2-0.1-0.3-0.3-0.3h-9v-2h10.9c0.4,0,0.7,0.3,0.6,0.7v0.8c1,3,2.1,5.4,3.2,7c1.4,2,3.4,4,6.1,6l-1.8,1.4
			C63,24.5,60.5,21.5,58.8,18.2z M49.9,9l0.3-2.1c1.1,0.1,3.1,0.3,5.9,0.6c2.7,0.3,5.2,0.7,7.3,1.1l-0.4,2C58.9,9.8,54.6,9.2,49.9,9
			z M66.4,11l1.5,1.4c-1.2,1.5-2.8,3-4.9,4.7l-1.4-1.5C63.8,13.9,65.4,12.3,66.4,11z"/>
		<path class="st0" d="M79.1,26.9c-0.1-0.2-0.2-0.4-0.3-0.6c-0.2-0.4-0.4-0.7-0.5-0.9h-3c-0.1,0-0.2-0.1-0.2-0.2v-3.8
			c0-0.1,0.1-0.2,0.2-0.2h17c0.2,0,0.2,0.1,0.2,0.2v3.8c0,0.2-0.1,0.2-0.2,0.2h-3.1c-0.1,0.3-0.3,0.7-0.5,1.1
			c-0.1,0.2-0.2,0.3-0.2,0.5H95v1.6H72.9v-1.6H79.1z M73.4,18.6h21.1v1.5H73.4V18.6z M87.9,14.8h-2.2v-1.5h2.2v-1.1h-2.2v-1.5h2.2
			V9.5h-2.2V8.1h2.2V6.7h1.6v1.3h1.9v1.5h-1.9v1.2h1.9v1.5h-1.9v1.1h1.9v1.5h-1.9V16H92c0.2,0,0.3-0.1,0.3-0.3V7.1h1.8v9.6
			c0,0.5-0.3,0.8-0.8,0.8H74.5c-0.5,0-0.7-0.3-0.7-0.8V7.1h1.8v8.6c0,0.2,0.1,0.3,0.3,0.3h2.5v-1.2h-2.1v-1.5h2.1v-1.2h-2v-1.5h2
			V9.5h-2.1V8.1h2.1V6.8H80v1.2h1.9v1.5H80v1.1h1.9v1.5H80v1.2H82v1.5H80V16h2.9V6.8h1.8V16h3.2V14.8z M90.9,22.6h-14
			c-0.1,0-0.1,0-0.1,0.1v1c0,0,0,0.1,0.1,0.1h14c0.1,0,0.1,0,0.1-0.1L90.9,22.6C91,22.7,91,22.6,90.9,22.6z M81.1,26.9h5.6
			c0.3-0.5,0.5-1,0.8-1.5h-7.1C80.5,25.6,80.8,26.1,81.1,26.9z"/>
		<path class="st0" d="M105.6,8.5c-0.9,1.2-2.3,2.5-4.1,3.8l-1.7-1.2c2.6-1.6,4.3-3.1,5-4.5h1.8c0,0.1-0.1,0.3-0.2,0.4l0,0
			c1,1,2.1,1.9,3.3,2.8l-1.5,1.4C107.3,10.2,106.4,9.4,105.6,8.5z M99.9,20.3l1.8-0.5c0.5,1.2,0.9,2.7,1.2,4.5l-1.8,0.4
			C100.8,22.8,100.4,21.4,99.9,20.3z M103.9,25.8v-7.1h-3.5v-1.8h3.5v-2.4h-2.5v-1.8h7v1.8h-2.5v2.4h3.3v1.8h-3.3v6.6
			c1.5-0.4,2.5-0.7,2.9-0.8l0.4,1.9c-3.5,0.9-6.3,1.5-8.5,1.9l-0.3-1.9C101.4,26.2,102.6,26,103.9,25.8z M107.4,19.8l1.6,0.6
			c-0.3,1.1-0.7,2.2-1.1,3.4l-1.6-0.7C106.9,21.9,107.2,20.8,107.4,19.8z M117,22c1.5-1.1,2.6-2.1,3.4-3l1.2,1.4
			c-0.9,1-2.2,2.1-3.7,3.2c1.2,1.5,2.5,2.7,4.2,3.7l-1.7,1.3c-1.7-1.3-2.8-2.3-3.3-3c-1.7-2-2.7-4.5-2.8-7.5h-2.1V26
			c1.3-0.4,2.4-0.8,3.4-1.2l0.6,1.8c-1.9,0.8-4.2,1.5-6.9,2.1l-0.5-1.9c0.5-0.1,1-0.3,1.6-0.4V7.9c0-0.4,0.2-0.6,0.6-0.6h9.2
			c0.4,0,0.6,0.2,0.6,0.6v9.7c0,0.4-0.2,0.6-0.6,0.6h-3.8C116.3,19.7,116.6,21,117,22z M112.2,11.9h6.5V9.6c0-0.3-0.2-0.4-0.5-0.4
			h-5.6c-0.3,0-0.5,0.2-0.5,0.5V11.9z M118.7,13.7h-6.5v2.7h6c0.3,0,0.5-0.2,0.5-0.5V13.7z"/>
		<path class="st0" d="M130.1,19.5c-0.6,0.6-1.1,1.1-1.6,1.5l-1.6-1.3c2.3-1.9,4-4.2,5.2-6.8l1.8,0.8c-0.6,1.2-1.2,2.3-1.8,3.2v11.8
			h-2V19.5z M131.2,6.8l1.9,0.7c-1.2,3-2.7,5.2-4.3,6.6L127,13C128.9,11.3,130.3,9.2,131.2,6.8z M143.2,15.5h-8.5v-2h14.2v2h-3.7
			v10.6c0,0.9-0.4,1.6-1.1,2c-1.3,0.8-3.6,0.8-7-0.2l0-2.1c1.2,0.4,2.4,0.6,3.5,0.8c1,0.1,1.8,0,2.2-0.4c0.1-0.1,0.2-0.3,0.2-0.7
			V15.5z M135.5,7.9H148v2h-12.5V7.9z"/>
	</g>
	<g>
		<path class="st1" d="M34.7,19.5c0,9.2-7.4,16.6-16.6,16.6c-9.2,0-16.6-7.4-16.6-16.6c0-9.2,7.4-16.6,16.6-16.6
			C27.2,2.9,34.7,10.4,34.7,19.5z"/>
		<g>
			<rect x="19.9" y="8.9" class="st2" width="4.2" height="4.2"/>
			<polygon class="st2" points="5.1,20.5 5.1,24.1 8.8,24.1 8.8,27.8 12.5,27.8 12.5,20.5 			"/>
			<polygon class="st2" points="6.1,13.1 6.1,16.8 16.2,16.8 16.2,27.8 19.9,27.8 19.9,13.1 			"/>
			<polygon class="st2" points="23.6,16.8 23.6,27.8 27.3,27.8 27.3,20.5 31.9,20.5 31.9,16.8 			"/>
		</g>
	</g>
</g>
</svg>
